<?xml version="1.0" encoding="utf-8"?>
<svg id="Layer_1" data-name="Layer 1" xmlns="http://www.w3.org/2000/svg" width="100" height="100" viewBox="0 0 100 100">
    <defs>
        <style>
            .cls-1 {
                stroke: red;
                stroke-miterlimit: 10;
                stroke-width: 2px;
            }
            .cls-2 {
                fill: red;
            }
        </style>
    </defs>
    <title>default</title>
    <polygon class="cls-1" points="68.3 31.7 50 2.56 31.7 31.7 2.56 50 31.7 68.3 50 97.44 68.3 68.3 97.44 50 68.3 31.7" />
    <polygon class="cls-2" points="52.1 57.74 53 34.21 46.52 34.21 47.46 57.74 52.1 57.74" />
    <path class="cls-2" d="M49.76,62a3.71,3.71,0,0,0-2.7,1.11,3.84,3.84,0,0,0-1.12,2.83,3.82,3.82,0,1,0,7.64,0,3.86,3.86,0,0,0-1.1-2.83A3.67,3.67,0,0,0,49.76,62Z" />
</svg>
