<?xml version="1.0" encoding="utf-8"?>
<svg id="Layer_1" data-name="Layer 1" xmlns="http://www.w3.org/2000/svg" width="100" height="100" viewBox="0 0 100 100">
    <defs>
        <style>
            .cls-1 {
                stroke: #ccc;
                stroke-miterlimit: 10;
                stroke-width: 2px;
            }
            .cls-2 {
                fill: #ccc;
            }
        </style>
    </defs>
    <title>unknown</title>
    <polygon class="cls-1" points="68.3 31.7 50 2.56 31.7 31.7 2.56 50 31.7 68.3 50 97.44 68.3 68.3 97.44 50 68.3 31.7" />
    <path class="cls-2" d="M49.86,39.28a12,12,0,0,0-3.2.42,14.26,14.26,0,0,0-3.2,1.36l-1.62-4.59a16.51,16.51,0,0,1,4-1.65,17.66,17.66,0,0,1,4.65-.61,11.92,11.92,0,0,1,4.73.81,8.31,8.31,0,0,1,3,2,7.11,7.11,0,0,1,1.53,2.72,10,10,0,0,1,.43,2.85,7.25,7.25,0,0,1-.6,3,11.72,11.72,0,0,1-1.5,2.47,23.34,23.34,0,0,1-2,2.14,26.92,26.92,0,0,0-2,2.07,10.7,10.7,0,0,0-1.5,2.24,5.83,5.83,0,0,0-.6,2.67v.56a3.12,3.12,0,0,0,.05.62h-5A8.2,8.2,0,0,1,47,57.35c0-.38,0-.73,0-1.06a7.59,7.59,0,0,1,.52-2.91A11.05,11.05,0,0,1,48.81,51a19.87,19.87,0,0,1,1.74-2c.62-.62,1.2-1.25,1.74-1.87a10.19,10.19,0,0,0,1.33-1.92A4.55,4.55,0,0,0,54.15,43a3.64,3.64,0,0,0-1.07-2.69A4.44,4.44,0,0,0,49.86,39.28ZM53.58,65.9a3.78,3.78,0,0,1-1.1,2.81,3.83,3.83,0,0,1-6.54-2.81,3.84,3.84,0,0,1,1.12-2.83,3.86,3.86,0,0,1,5.42,0A3.86,3.86,0,0,1,53.58,65.9Z"
    />
</svg>
