<?xml version="1.0" encoding="UTF-8" standalone="no"?>
<svg xmlns:dc="http://purl.org/dc/elements/1.1/" xmlns:cc="http://creativecommons.org/ns#" xmlns:rdf="http://www.w3.org/1999/02/22-rdf-syntax-ns#" xmlns:svg="http://www.w3.org/2000/svg" xmlns="http://www.w3.org/2000/svg" version="1.1" viewBox="0 0 100 100" height="100" width="100" data-name="Layer 1" id="Layer_1">
    <metadata id="metadata15">
        <rdf:RDF>
            <cc:Work rdf:about="">
                <dc:format>image/svg+xml</dc:format>
                <dc:type rdf:resource="http://purl.org/dc/dcmitype/StillImage"/>
                <dc:title>252</dc:title>
            </cc:Work>
        </rdf:RDF>
    </metadata>
    <defs id="defs4">
        <style id="style2">
            .compass {
                stroke-miterlimit: 10;
                stroke-width: 2px;
                fill: #373b22;
                stroke: #ddee88;
            }
            .grass {
                fill: #848e51;
            }
        </style>
    </defs>
    <title id="title6">252</title>
    <polygon id="polygon8" points="68.3 31.7 50 2.56 31.7 31.7 2.56 50 31.7 68.3 50 97.44 68.3 68.3 97.44 50 68.3 31.7" class="compass"/>
    <path id="path10" d="M66,64.21c1.2-21.07-3.68-26.9-3.68-26.9a121.93,121.93,0,0,1-.93,24.42,72.93,72.93,0,0,0-3.24-15.79s-.69,7.23-2,15.55A220.68,220.68,0,0,1,57,28.22s-2.7,8.42-5.31,20.7c-1.43-5.06-3.3-10.72-5.73-17,0,0,.58,11,.36,23.14-2.93-7.26-5.74-9.87-5.74-9.87a73,73,0,0,1,2.21,12,32.39,32.39,0,0,0-6.48-9.31,118,118,0,0,1,3.25,21.16c-5.83-10.51-12.81-14.2-12.81-14.2a43.29,43.29,0,0,1,7.73,16L50,95.56,65.28,71.22l2.29-3.65.29-.18a39.63,39.63,0,0,1,7.94-8.81A30.74,30.74,0,0,0,66,64.21Z" class="grass"/>
    <g id="text19" style="font-style:normal;font-variant:normal;font-weight:bold;font-stretch:condensed;font-size:16px;line-height:1.25;font-family:'Liberation Sans Narrow';-inkscape-font-specification:'Liberation Sans Narrow, Bold Condensed';font-variant-ligatures:normal;font-variant-caps:normal;font-variant-numeric:normal;font-feature-settings:normal;text-align:center;letter-spacing:0px;word-spacing:0px;writing-mode:lr-tb;text-anchor:middle;fill:#ddee88;fill-opacity:1;stroke:none" aria-label="252">
        <path id="path14" style="" d="m 39.628906,73.22377 v -1.523437 q 0.304688,-0.820313 0.75,-1.476563 0.445313,-0.664062 0.929688,-1.210937 0.484375,-0.554688 0.960937,-1.023438 0.476563,-0.476562 0.851563,-0.914062 0.382812,-0.445313 0.617187,-0.890625 0.242188,-0.445313 0.242188,-0.945313 0,-0.734375 -0.304688,-1.085937 -0.296875,-0.351563 -0.882812,-0.351563 -0.578125,0 -0.882813,0.382813 -0.296875,0.375 -0.390625,1.132812 l -1.8125,-0.125 q 0.0625,-0.648437 0.257813,-1.21875 0.203125,-0.570312 0.570312,-1 0.367188,-0.429687 0.921875,-0.671875 0.554688,-0.25 1.328125,-0.25 0.726563,0 1.289063,0.210938 0.5625,0.203125 0.945312,0.601562 0.390625,0.398438 0.585938,0.976563 0.203125,0.570312 0.203125,1.304687 0,0.773438 -0.25,1.398438 -0.25,0.625 -0.640625,1.15625 -0.390625,0.523437 -0.867188,0.984375 l -0.921875,0.898437 q -0.453125,0.4375 -0.828125,0.882813 -0.367187,0.445312 -0.546875,0.953125 h 4.195313 v 1.804687 z"/>
        <path id="path16" style="" d="m 53.417969,69.559708 q 0,0.828125 -0.21875,1.53125 -0.210938,0.695312 -0.632813,1.210937 -0.421875,0.507813 -1.046875,0.796875 -0.625,0.28125 -1.445312,0.28125 -0.757813,0 -1.320313,-0.21875 -0.5625,-0.226562 -0.953125,-0.617187 -0.382812,-0.398438 -0.609375,-0.929688 -0.21875,-0.53125 -0.296875,-1.140625 l 1.796875,-0.179687 q 0.05469,0.257812 0.140625,0.5 0.09375,0.242187 0.257813,0.429687 0.171875,0.1875 0.414062,0.304688 0.242188,0.109375 0.59375,0.109375 0.671875,0 1.070313,-0.523438 0.398437,-0.523437 0.398437,-1.507812 0,-0.4375 -0.101562,-0.789063 -0.09375,-0.351562 -0.28125,-0.601562 -0.179688,-0.25 -0.445313,-0.382813 -0.265625,-0.132812 -0.601562,-0.132812 -0.445313,0 -0.742188,0.210937 -0.289062,0.203125 -0.484375,0.5 h -1.757812 l 0.3125,-6.195312 h 5.429687 v 1.632812 h -3.789062 l -0.148438,2.78125 q 0.265625,-0.289062 0.671875,-0.492187 0.414063,-0.210938 0.960938,-0.210938 0.664062,0 1.1875,0.265625 0.53125,0.265625 0.890625,0.742188 0.367187,0.476562 0.554687,1.148437 0.195313,0.664063 0.195313,1.476563 z"/>
        <path id="path18" style="" d="m 54.253906,73.22377 v -1.523437 q 0.304688,-0.820313 0.75,-1.476563 0.445313,-0.664062 0.929688,-1.210937 0.484375,-0.554688 0.960937,-1.023438 0.476563,-0.476562 0.851563,-0.914062 0.382812,-0.445313 0.617187,-0.890625 0.242188,-0.445313 0.242188,-0.945313 0,-0.734375 -0.304688,-1.085937 -0.296875,-0.351563 -0.882812,-0.351563 -0.578125,0 -0.882813,0.382813 -0.296875,0.375 -0.390625,1.132812 l -1.8125,-0.125 q 0.0625,-0.648437 0.257813,-1.21875 0.203125,-0.570312 0.570312,-1 0.367188,-0.429687 0.921875,-0.671875 0.554688,-0.25 1.328125,-0.25 0.726563,0 1.289063,0.210938 0.5625,0.203125 0.945312,0.601562 0.390625,0.398438 0.585938,0.976563 0.203125,0.570312 0.203125,1.304687 0,0.773438 -0.25,1.398438 -0.25,0.625 -0.640625,1.15625 -0.390625,0.523437 -0.867188,0.984375 l -0.921875,0.898437 q -0.453125,0.4375 -0.828125,0.882813 -0.367187,0.445312 -0.546875,0.953125 h 4.195313 v 1.804687 z"/>
    </g>
    <g id="text23" style="font-style:normal;font-variant:normal;font-weight:bold;font-stretch:condensed;font-size:24px;line-height:1.25;font-family:'Liberation Sans Narrow';-inkscape-font-specification:'Liberation Sans Narrow, Bold Condensed';font-variant-ligatures:normal;font-variant-caps:normal;font-variant-numeric:normal;font-feature-settings:normal;text-align:center;letter-spacing:0px;word-spacing:0px;writing-mode:lr-tb;text-anchor:middle;fill:#ffffff;fill-opacity:1;stroke:#ffffff;stroke-width:0px" aria-label="TR.CKO">
        <path id="path21" style="" d="M 19.695312,44.160156 V 58 H 16.859375 V 44.160156 h -4.371094 v -2.671875 h 11.589844 v 2.671875 z"/>
        <path id="path23" style="" d="M 34.929687,58 31.789062,51.730469 H 28.460937 V 58 H 25.625 V 41.488281 h 6.761719 q 1.265625,0 2.214843,0.351563 0.949219,0.339843 1.582032,0.984375 0.632812,0.632812 0.9375,1.546875 0.316406,0.902343 0.316406,2.039062 0,0.925781 -0.222656,1.699219 -0.222657,0.761719 -0.621094,1.359375 -0.398438,0.597656 -0.949219,1.007812 Q 35.09375,50.875 34.449219,51.0625 L 38.117187,58 Z M 34.589844,46.550781 q 0,-1.207031 -0.65625,-1.792969 -0.644532,-0.585937 -1.839844,-0.585937 h -3.632813 v 4.875 h 3.703125 q 0.632813,0 1.089844,-0.175781 0.457031,-0.1875 0.75,-0.515625 0.292969,-0.339844 0.433594,-0.796875 0.152344,-0.457032 0.152344,-1.007813 z"/>
        <path id="path25" style="" d="m 39.851562,58 v -3.574219 h 2.777344 V 58 Z"/>
        <path id="path27" style="" d="m 51.628906,55.515625 q 0.796875,0 1.382813,-0.269531 0.585937,-0.28125 1.007812,-0.726563 0.433594,-0.445312 0.714844,-1.007812 0.28125,-0.5625 0.46875,-1.136719 l 2.460937,1.136719 q -0.292968,0.890625 -0.773437,1.746093 -0.480469,0.855469 -1.207031,1.511719 -0.714844,0.65625 -1.710938,1.066406 -0.996094,0.398438 -2.34375,0.398438 -1.757812,0 -3.046875,-0.632813 -1.277344,-0.644531 -2.121094,-1.78125 -0.84375,-1.148437 -1.253906,-2.71875 -0.398437,-1.570312 -0.398437,-3.433593 0,-1.933594 0.398437,-3.492188 0.410156,-1.558594 1.230469,-2.648437 0.832031,-1.101563 2.097656,-1.6875 1.265625,-0.597657 2.976563,-0.597657 1.324218,0 2.320312,0.339844 0.996094,0.339844 1.710938,0.960938 0.726562,0.609375 1.195312,1.453125 0.480469,0.832031 0.75,1.839843 l -2.496094,0.832032 q -0.128906,-0.527344 -0.410156,-1.007813 -0.28125,-0.492187 -0.714844,-0.867187 -0.421875,-0.375 -0.996093,-0.597657 -0.574219,-0.234375 -1.300782,-0.234375 -1.03125,0 -1.769531,0.410157 -0.738281,0.398437 -1.21875,1.148437 -0.46875,0.75 -0.703125,1.804688 -0.222656,1.042968 -0.222656,2.34375 0,1.289062 0.222656,2.367187 0.234375,1.066406 0.714844,1.839844 0.480469,0.773437 1.230469,1.207031 0.75,0.433594 1.804687,0.433594 z"/>
        <path id="path29" style="" d="m 68.878906,58 -4.851562,-7.582031 -1.675782,1.558593 V 58 H 59.515625 V 41.488281 h 2.835937 v 7.488281 l 6.09375,-7.488281 H 71.75 L 65.972656,48.472656 72.21875,58 Z"/>
        <path id="path31" style="" d="m 86.890625,49.667969 q 0,1.933593 -0.46875,3.515625 -0.46875,1.582031 -1.359375,2.707031 -0.878906,1.125 -2.15625,1.734375 -1.265625,0.609375 -2.871094,0.609375 -1.699219,0 -2.976562,-0.632813 -1.277344,-0.644531 -2.132813,-1.78125 -0.855469,-1.148437 -1.289062,-2.71875 -0.421875,-1.570312 -0.421875,-3.433593 0,-1.933594 0.445312,-3.492188 0.445313,-1.558594 1.3125,-2.648437 0.878906,-1.101563 2.144531,-1.6875 1.277344,-0.597657 2.929688,-0.597657 1.652344,0 2.929687,0.597657 1.277344,0.597656 2.144532,1.699218 0.867187,1.101563 1.3125,2.660157 0.457031,1.546875 0.457031,3.46875 z m -2.894531,0 q 0,-1.300782 -0.257813,-2.34375 -0.246094,-1.054688 -0.75,-1.804688 -0.492187,-0.75 -1.230469,-1.148437 -0.738281,-0.410157 -1.710937,-0.410157 -0.996094,0 -1.734375,0.410157 -0.738281,0.398437 -1.242188,1.148437 -0.503906,0.75 -0.75,1.804688 -0.246093,1.042968 -0.246093,2.34375 0,1.289062 0.246093,2.367187 0.257813,1.066406 0.75,1.839844 0.503907,0.773437 1.242188,1.207031 0.75,0.433594 1.722656,0.433594 1.042969,0 1.78125,-0.433594 0.75,-0.445312 1.230469,-1.21875 0.492187,-0.785156 0.714844,-1.851562 0.234375,-1.078125 0.234375,-2.34375 z"/>
    </g>
</svg>
