<?xml version="1.0" encoding="UTF-8" standalone="no"?>
<svg xmlns:dc="http://purl.org/dc/elements/1.1/" xmlns:cc="http://creativecommons.org/ns#" xmlns:rdf="http://www.w3.org/1999/02/22-rdf-syntax-ns#" xmlns:svg="http://www.w3.org/2000/svg" xmlns="http://www.w3.org/2000/svg" version="1.1" viewBox="0 0 100 100" height="100" width="100" data-name="Layer 1" id="Layer_1">
    <metadata id="metadata15">
        <rdf:RDF>
            <cc:Work rdf:about="">
                <dc:format>image/svg+xml</dc:format>
                <dc:type rdf:resource="http://purl.org/dc/dcmitype/StillImage"/>
                <dc:title>259</dc:title>
            </cc:Work>
        </rdf:RDF>
    </metadata>
    <defs id="defs4">
        <style id="style2">
            .compass {
                stroke-miterlimit: 10;
                stroke-width: 2px;
                fill: #2a3b3f;
                stroke: #aaeeff;
            }
            .grass {
                fill: #668e99;
            }
        </style>
    </defs>
    <title id="title6">259</title>
    <polygon id="polygon8" points="68.3 31.7 50 2.56 31.7 31.7 2.56 50 31.7 68.3 50 97.44 68.3 68.3 97.44 50 68.3 31.7" class="compass"/>
    <path id="path10" d="M66,64.21c1.2-21.07-3.68-26.9-3.68-26.9a121.93,121.93,0,0,1-.93,24.42,72.93,72.93,0,0,0-3.24-15.79s-.69,7.23-2,15.55A220.68,220.68,0,0,1,57,28.22s-2.7,8.42-5.31,20.7c-1.43-5.06-3.3-10.72-5.73-17,0,0,.58,11,.36,23.14-2.93-7.26-5.74-9.87-5.74-9.87a73,73,0,0,1,2.21,12,32.39,32.39,0,0,0-6.48-9.31,118,118,0,0,1,3.25,21.16c-5.83-10.51-12.81-14.2-12.81-14.2a43.29,43.29,0,0,1,7.73,16L50,95.56,65.28,71.22l2.29-3.65.29-.18a39.63,39.63,0,0,1,7.94-8.81A30.74,30.74,0,0,0,66,64.21Z" class="grass"/>
    <g id="text19" style="font-style:normal;font-variant:normal;font-weight:bold;font-stretch:condensed;font-size:16px;line-height:1.25;font-family:'Liberation Sans Narrow';-inkscape-font-specification:'Liberation Sans Narrow, Bold Condensed';font-variant-ligatures:normal;font-variant-caps:normal;font-variant-numeric:normal;font-feature-settings:normal;text-align:center;letter-spacing:0px;word-spacing:0px;writing-mode:lr-tb;text-anchor:middle;fill:#aaeeff;fill-opacity:1;stroke:none" aria-label="259">
        <path id="path14" style="" d="m 39.628906,73.22377 v -1.523437 q 0.304688,-0.820313 0.75,-1.476563 0.445313,-0.664062 0.929688,-1.210937 0.484375,-0.554688 0.960937,-1.023438 0.476563,-0.476562 0.851563,-0.914062 0.382812,-0.445313 0.617187,-0.890625 0.242188,-0.445313 0.242188,-0.945313 0,-0.734375 -0.304688,-1.085937 -0.296875,-0.351563 -0.882812,-0.351563 -0.578125,0 -0.882813,0.382813 -0.296875,0.375 -0.390625,1.132812 l -1.8125,-0.125 q 0.0625,-0.648437 0.257813,-1.21875 0.203125,-0.570312 0.570312,-1 0.367188,-0.429687 0.921875,-0.671875 0.554688,-0.25 1.328125,-0.25 0.726563,0 1.289063,0.210938 0.5625,0.203125 0.945312,0.601562 0.390625,0.398438 0.585938,0.976563 0.203125,0.570312 0.203125,1.304687 0,0.773438 -0.25,1.398438 -0.25,0.625 -0.640625,1.15625 -0.390625,0.523437 -0.867188,0.984375 l -0.921875,0.898437 q -0.453125,0.4375 -0.828125,0.882813 -0.367187,0.445312 -0.546875,0.953125 h 4.195313 v 1.804687 z"/>
        <path id="path16" style="" d="m 53.417969,69.559708 q 0,0.828125 -0.21875,1.53125 -0.210938,0.695312 -0.632813,1.210937 -0.421875,0.507813 -1.046875,0.796875 -0.625,0.28125 -1.445312,0.28125 -0.757813,0 -1.320313,-0.21875 -0.5625,-0.226562 -0.953125,-0.617187 -0.382812,-0.398438 -0.609375,-0.929688 -0.21875,-0.53125 -0.296875,-1.140625 l 1.796875,-0.179687 q 0.05469,0.257812 0.140625,0.5 0.09375,0.242187 0.257813,0.429687 0.171875,0.1875 0.414062,0.304688 0.242188,0.109375 0.59375,0.109375 0.671875,0 1.070313,-0.523438 0.398437,-0.523437 0.398437,-1.507812 0,-0.4375 -0.101562,-0.789063 -0.09375,-0.351562 -0.28125,-0.601562 -0.179688,-0.25 -0.445313,-0.382813 -0.265625,-0.132812 -0.601562,-0.132812 -0.445313,0 -0.742188,0.210937 -0.289062,0.203125 -0.484375,0.5 h -1.757812 l 0.3125,-6.195312 h 5.429687 v 1.632812 h -3.789062 l -0.148438,2.78125 q 0.265625,-0.289062 0.671875,-0.492187 0.414063,-0.210938 0.960938,-0.210938 0.664062,0 1.1875,0.265625 0.53125,0.265625 0.890625,0.742188 0.367187,0.476562 0.554687,1.148437 0.195313,0.664063 0.195313,1.476563 z"/>
        <path id="path18" style="" d="m 60.613281,67.544083 q 0,2.929687 -0.882812,4.382812 -0.875,1.453125 -2.492188,1.453125 -0.585937,0 -1.046875,-0.148437 -0.460937,-0.148438 -0.8125,-0.460938 -0.34375,-0.3125 -0.585937,-0.804687 -0.234375,-0.492188 -0.375,-1.171875 l 1.6875,-0.289063 q 0.125,0.585938 0.414062,0.867188 0.296875,0.28125 0.742188,0.28125 0.367187,0 0.648437,-0.210938 0.289063,-0.210937 0.492188,-0.640625 0.210937,-0.429687 0.320312,-1.085937 0.117188,-0.664063 0.117188,-1.5625 -0.125,0.304687 -0.335938,0.539062 -0.210937,0.234375 -0.476562,0.390625 -0.265625,0.15625 -0.570313,0.242188 -0.296875,0.07813 -0.609375,0.07813 -0.585937,0 -1.070312,-0.25 -0.476563,-0.257813 -0.820313,-0.734375 -0.335937,-0.476563 -0.523437,-1.148438 -0.179688,-0.679687 -0.179688,-1.53125 0,-0.875 0.210938,-1.5625 0.21875,-0.6875 0.617187,-1.15625 0.40625,-0.476562 0.992188,-0.71875 0.59375,-0.25 1.335937,-0.25 0.78125,0 1.375,0.328125 0.601563,0.320313 1,1 0.40625,0.671875 0.617188,1.710938 0.210937,1.03125 0.210937,2.453125 z m -1.90625,-1.539063 q 0,-0.46875 -0.08594,-0.875 -0.08594,-0.414062 -0.257813,-0.710937 -0.171875,-0.304688 -0.421875,-0.476563 -0.25,-0.171875 -0.578125,-0.171875 -0.304687,0 -0.539062,0.140625 -0.234375,0.132813 -0.40625,0.390625 -0.164063,0.257813 -0.25,0.625 -0.08594,0.367188 -0.08594,0.828125 0,0.429688 0.07813,0.804688 0.08594,0.367187 0.242188,0.640625 0.164062,0.265625 0.40625,0.421875 0.25,0.148437 0.5625,0.148437 0.25,0 0.484375,-0.109375 0.242187,-0.109375 0.429687,-0.328125 0.195313,-0.21875 0.304688,-0.546875 0.117187,-0.335937 0.117187,-0.78125 z"/>
    </g>
    <g id="text23" style="font-style:normal;font-variant:normal;font-weight:bold;font-stretch:condensed;font-size:24px;line-height:1.25;font-family:'Liberation Sans Narrow';-inkscape-font-specification:'Liberation Sans Narrow, Bold Condensed';font-variant-ligatures:normal;font-variant-caps:normal;font-variant-numeric:normal;font-feature-settings:normal;text-align:center;letter-spacing:0px;word-spacing:0px;writing-mode:lr-tb;text-anchor:middle;fill:#ffffff;fill-opacity:1;stroke:#ffffff;stroke-width:0px" aria-label="M.TMP">
        <path id="path21" style="" d="M 30.828125,58 V 47.992187 q 0,-0.597656 0.01172,-1.230468 0.01172,-0.632813 0.03516,-1.160157 0,0 0.04687,-1.207031 0,0 -0.386719,1.757813 0,0 -0.164062,0.726562 l -0.164063,0.726563 -0.152344,0.65625 -0.140625,0.527343 L 27.476562,58 h -2.027343 l -2.4375,-9.210938 q -0.05859,-0.222656 -0.128907,-0.527343 l -0.152343,-0.65625 -0.175782,-0.726563 -0.164062,-0.726562 q 0,0 -0.410156,-1.757813 0.02344,0.679688 0.05859,1.335938 0.02344,0.5625 0.03516,1.183593 0.02344,0.621094 0.02344,1.078125 V 58 H 19.578125 V 41.488281 H 23.375 l 2.425781,9.234375 Q 25.894531,51.085937 26,51.613281 l 0.222656,1.019531 q 0,0 0.246094,1.195313 0,0 0.257812,-1.171875 0,0 0.117188,-0.503906 l 0.117187,-0.503907 q 0.05859,-0.246093 0.117188,-0.46875 L 27.183594,50.78125 29.5625,41.488281 h 3.785156 V 58 Z"/>
        <path id="path23" style="" d="m 36.007812,58 v -3.574219 h 2.777344 V 58 Z"/>
        <path id="path25" style="" d="M 47.585937,44.160156 V 58 H 44.75 V 44.160156 H 40.378906 V 41.488281 H 51.96875 v 2.671875 z"/>
        <path id="path27" style="" d="M 64.765625,58 V 47.992187 q 0,-0.597656 0.01172,-1.230468 0.01172,-0.632813 0.03516,-1.160157 0,0 0.04687,-1.207031 0,0 -0.386719,1.757813 0,0 -0.164062,0.726562 l -0.164063,0.726563 -0.152344,0.65625 -0.140625,0.527343 L 61.414062,58 h -2.027343 l -2.4375,-9.210938 q -0.05859,-0.222656 -0.128907,-0.527343 l -0.152343,-0.65625 -0.175782,-0.726563 -0.164062,-0.726562 q 0,0 -0.410156,-1.757813 0.02344,0.679688 0.05859,1.335938 0.02344,0.5625 0.03516,1.183593 0.02344,0.621094 0.02344,1.078125 V 58 H 53.515625 V 41.488281 H 57.3125 l 2.425781,9.234375 q 0.09375,0.363281 0.199219,0.890625 l 0.222656,1.019531 q 0,0 0.246094,1.195313 0,0 0.257812,-1.171875 0,0 0.117188,-0.503906 l 0.117187,-0.503907 q 0.05859,-0.246093 0.117188,-0.46875 L 61.121094,50.78125 63.5,41.488281 h 3.785156 V 58 Z"/>
        <path id="path29" style="" d="m 81.066406,46.714844 q 0,1.066406 -0.292969,2.0625 -0.292968,0.984375 -0.902343,1.746093 -0.609375,0.761719 -1.546875,1.21875 Q 77.398437,52.1875 76.121094,52.1875 H 72.757812 V 58 H 69.921875 V 41.488281 h 6.082031 q 1.300781,0 2.25,0.386719 0.949219,0.375 1.570313,1.066406 0.632812,0.691406 0.9375,1.652344 0.304687,0.960937 0.304687,2.121094 z m -2.859375,0.05859 q 0,-1.277343 -0.632812,-1.933593 -0.621094,-0.667969 -1.886719,-0.667969 h -2.929688 v 5.355469 h 3.011719 q 0.632813,0 1.089844,-0.199219 0.457031,-0.199219 0.75,-0.5625 0.304687,-0.363281 0.445312,-0.867188 0.152344,-0.515625 0.152344,-1.125 z"/>
    </g>
</svg>
