<?xml version="1.0" encoding="UTF-8" standalone="no"?>
<svg xmlns:dc="http://purl.org/dc/elements/1.1/" xmlns:cc="http://creativecommons.org/ns#" xmlns:rdf="http://www.w3.org/1999/02/22-rdf-syntax-ns#" xmlns:svg="http://www.w3.org/2000/svg" xmlns="http://www.w3.org/2000/svg" version="1.1" viewBox="0 0 100 100" height="100" width="100" data-name="Layer 1" id="Layer_1">
    <metadata id="metadata15">
        <rdf:RDF>
            <cc:Work rdf:about="">
                <dc:format>image/svg+xml</dc:format>
                <dc:type rdf:resource="http://purl.org/dc/dcmitype/StillImage"/>
                <dc:title>297</dc:title>
            </cc:Work>
        </rdf:RDF>
    </metadata>
    <defs id="defs4">
        <style id="style2">
            .compass {
                stroke-miterlimit: 10;
                stroke-width: 2px;
                fill: #3f371d;
                stroke: #ffdd77;
            }
            .grass {
                fill: #998447;
            }
        </style>
    </defs>
    <title id="title6">297</title>
    <polygon id="polygon8" points="68.3 31.7 50 2.56 31.7 31.7 2.56 50 31.7 68.3 50 97.44 68.3 68.3 97.44 50 68.3 31.7" class="compass"/>
    <path id="path10" d="M66,64.21c1.2-21.07-3.68-26.9-3.68-26.9a121.93,121.93,0,0,1-.93,24.42,72.93,72.93,0,0,0-3.24-15.79s-.69,7.23-2,15.55A220.68,220.68,0,0,1,57,28.22s-2.7,8.42-5.31,20.7c-1.43-5.06-3.3-10.72-5.73-17,0,0,.58,11,.36,23.14-2.93-7.26-5.74-9.87-5.74-9.87a73,73,0,0,1,2.21,12,32.39,32.39,0,0,0-6.48-9.31,118,118,0,0,1,3.25,21.16c-5.83-10.51-12.81-14.2-12.81-14.2a43.29,43.29,0,0,1,7.73,16L50,95.56,65.28,71.22l2.29-3.65.29-.18a39.63,39.63,0,0,1,7.94-8.81A30.74,30.74,0,0,0,66,64.21Z" class="grass"/>
    <g id="text19" style="font-style:normal;font-variant:normal;font-weight:bold;font-stretch:condensed;font-size:16px;line-height:1.25;font-family:'Liberation Sans Narrow';-inkscape-font-specification:'Liberation Sans Narrow, Bold Condensed';font-variant-ligatures:normal;font-variant-caps:normal;font-variant-numeric:normal;font-feature-settings:normal;text-align:center;letter-spacing:0px;word-spacing:0px;writing-mode:lr-tb;text-anchor:middle;fill:#ffdd77;fill-opacity:1;stroke:none" aria-label="297">
        <path id="path14" style="" d="m 39.628906,73.22377 v -1.523437 q 0.304688,-0.820313 0.75,-1.476563 0.445313,-0.664062 0.929688,-1.210937 0.484375,-0.554688 0.960937,-1.023438 0.476563,-0.476562 0.851563,-0.914062 0.382812,-0.445313 0.617187,-0.890625 0.242188,-0.445313 0.242188,-0.945313 0,-0.734375 -0.304688,-1.085937 -0.296875,-0.351563 -0.882812,-0.351563 -0.578125,0 -0.882813,0.382813 -0.296875,0.375 -0.390625,1.132812 l -1.8125,-0.125 q 0.0625,-0.648437 0.257813,-1.21875 0.203125,-0.570312 0.570312,-1 0.367188,-0.429687 0.921875,-0.671875 0.554688,-0.25 1.328125,-0.25 0.726563,0 1.289063,0.210938 0.5625,0.203125 0.945312,0.601562 0.390625,0.398438 0.585938,0.976563 0.203125,0.570312 0.203125,1.304687 0,0.773438 -0.25,1.398438 -0.25,0.625 -0.640625,1.15625 -0.390625,0.523437 -0.867188,0.984375 l -0.921875,0.898437 q -0.453125,0.4375 -0.828125,0.882813 -0.367187,0.445312 -0.546875,0.953125 h 4.195313 v 1.804687 z"/>
        <path id="path16" style="" d="m 53.300781,67.544083 q 0,2.929687 -0.882812,4.382812 -0.875,1.453125 -2.492188,1.453125 -0.585937,0 -1.046875,-0.148437 -0.460937,-0.148438 -0.8125,-0.460938 -0.34375,-0.3125 -0.585937,-0.804687 -0.234375,-0.492188 -0.375,-1.171875 l 1.6875,-0.289063 q 0.125,0.585938 0.414062,0.867188 0.296875,0.28125 0.742188,0.28125 0.367187,0 0.648437,-0.210938 0.289063,-0.210937 0.492188,-0.640625 0.210937,-0.429687 0.320312,-1.085937 0.117188,-0.664063 0.117188,-1.5625 -0.125,0.304687 -0.335938,0.539062 -0.210937,0.234375 -0.476562,0.390625 -0.265625,0.15625 -0.570313,0.242188 -0.296875,0.07813 -0.609375,0.07813 -0.585937,0 -1.070312,-0.25 -0.476563,-0.257813 -0.820313,-0.734375 -0.335937,-0.476563 -0.523437,-1.148438 -0.179688,-0.679687 -0.179688,-1.53125 0,-0.875 0.210938,-1.5625 0.21875,-0.6875 0.617187,-1.15625 0.40625,-0.476562 0.992188,-0.71875 0.59375,-0.25 1.335937,-0.25 0.78125,0 1.375,0.328125 0.601563,0.320313 1,1 0.40625,0.671875 0.617188,1.710938 0.210937,1.03125 0.210937,2.453125 z m -1.90625,-1.539063 q 0,-0.46875 -0.08594,-0.875 -0.08594,-0.414062 -0.257813,-0.710937 -0.171875,-0.304688 -0.421875,-0.476563 -0.25,-0.171875 -0.578125,-0.171875 -0.304687,0 -0.539062,0.140625 -0.234375,0.132813 -0.40625,0.390625 -0.164063,0.257813 -0.25,0.625 -0.08594,0.367188 -0.08594,0.828125 0,0.429688 0.07813,0.804688 0.08594,0.367187 0.242188,0.640625 0.164062,0.265625 0.40625,0.421875 0.25,0.148437 0.5625,0.148437 0.25,0 0.484375,-0.109375 0.242187,-0.109375 0.429687,-0.328125 0.195313,-0.21875 0.304688,-0.546875 0.117187,-0.335937 0.117187,-0.78125 z"/>
        <path id="path18" style="" d="m 60.519531,63.958145 q 0,0 -1.148437,2.273438 -0.539063,1.101562 -0.945313,2.21875 -0.40625,1.109375 -0.640625,2.289062 -0.226562,1.171875 -0.226562,2.484375 h -1.882813 q 0,-1.304687 0.25,-2.476562 0.257813,-1.179688 0.695313,-2.296875 0.4375,-1.117188 1.007812,-2.210938 l 1.21875,-2.21875 h -4.484375 v -1.804687 h 6.15625 z"/>
    </g>
    <g id="text23" style="font-style:normal;font-variant:normal;font-weight:bold;font-stretch:condensed;font-size:24px;line-height:1.25;font-family:'Liberation Sans Narrow';-inkscape-font-specification:'Liberation Sans Narrow, Bold Condensed';font-variant-ligatures:normal;font-variant-caps:normal;font-variant-numeric:normal;font-feature-settings:normal;text-align:center;letter-spacing:0px;word-spacing:0px;writing-mode:lr-tb;text-anchor:middle;fill:#ffffff;fill-opacity:1;stroke:#ffffff;stroke-width:0px" aria-label="H.YAMA">
        <path id="path21" style="" d="M 22.121094,58 V 50.921875 H 16.226562 V 58 H 13.390625 V 41.488281 h 2.835937 V 48.0625 h 5.894532 v -6.574219 h 2.835937 V 58 Z"/>
        <path id="path23" style="" d="m 27.617187,58 v -3.574219 h 2.777344 V 58 Z"/>
        <path id="path25" style="" d="M 39.746094,51.226562 V 58 h -2.824219 v -6.773438 l -4.816406,-9.738281 h 2.964843 l 3.246094,6.984375 3.292969,-6.984375 h 2.964844 z"/>
        <path id="path27" style="" d="m 53.984375,58 -1.195313,-4.21875 h -5.15625 L 46.4375,58 H 43.601562 L 48.535156,41.488281 H 51.875 L 56.796875,58 Z M 50.820312,46.433594 q 0,0 -0.234375,-0.832032 -0.105468,-0.410156 -0.1875,-0.75 l -0.140625,-0.574218 q -0.04687,-0.222657 -0.04687,-0.246094 -0.01172,0.03516 -0.05859,0.257812 -0.04687,0.222657 -0.128907,0.5625 -0.08203,0.339844 -0.1875,0.75 l -0.234375,0.832032 -1.335937,4.746093 h 3.890625 z"/>
        <path id="path29" style="" d="M 69.875,58 V 47.992187 q 0,-0.597656 0.01172,-1.230468 0.01172,-0.632813 0.03516,-1.160157 0,0 0.04687,-1.207031 0,0 -0.386719,1.757813 0,0 -0.164062,0.726562 l -0.164063,0.726563 -0.152344,0.65625 -0.140625,0.527343 L 66.523437,58 h -2.027343 l -2.4375,-9.210938 Q 62,48.566406 61.929687,48.261719 L 61.777344,47.605469 61.601562,46.878906 61.4375,46.152344 q 0,0 -0.410156,-1.757813 0.02344,0.679688 0.05859,1.335938 0.02344,0.5625 0.03516,1.183593 0.02344,0.621094 0.02344,1.078125 V 58 H 58.625 V 41.488281 h 3.796875 l 2.425781,9.234375 q 0.09375,0.363281 0.199219,0.890625 l 0.222656,1.019531 q 0,0 0.246094,1.195313 0,0 0.257812,-1.171875 0,0 0.117188,-0.503906 l 0.117187,-0.503907 q 0.05859,-0.246093 0.117188,-0.46875 l 0.105469,-0.398437 2.378906,-9.292969 h 3.785156 V 58 Z"/>
        <path id="path31" style="" d="m 84.59375,58 -1.195313,-4.21875 h -5.15625 L 77.046875,58 h -2.835938 l 4.933594,-16.511719 h 3.339844 L 87.40625,58 Z M 81.429687,46.433594 q 0,0 -0.234375,-0.832032 -0.105468,-0.410156 -0.1875,-0.75 l -0.140625,-0.574218 q -0.04687,-0.222657 -0.04687,-0.246094 -0.01172,0.03516 -0.05859,0.257812 -0.04687,0.222657 -0.128907,0.5625 -0.08203,0.339844 -0.1875,0.75 L 80.210937,46.433594 78.875,51.179687 h 3.890625 z"/>
    </g>
</svg>
