<?xml version="1.0" encoding="UTF-8" standalone="no"?>
<svg xmlns:dc="http://purl.org/dc/elements/1.1/" xmlns:cc="http://creativecommons.org/ns#" xmlns:rdf="http://www.w3.org/1999/02/22-rdf-syntax-ns#" xmlns:svg="http://www.w3.org/2000/svg" xmlns="http://www.w3.org/2000/svg" version="1.1" viewBox="0 0 100 100" height="100" width="100" data-name="Layer 1" id="Layer_1">
    <metadata id="metadata15">
        <rdf:RDF>
            <cc:Work rdf:about="">
                <dc:format>image/svg+xml</dc:format>
                <dc:type rdf:resource="http://purl.org/dc/dcmitype/StillImage"/>
                <dc:title>177</dc:title>
            </cc:Work>
        </rdf:RDF>
    </metadata>
    <defs id="defs4">
        <style id="style2">
            .compass {
                stroke-miterlimit: 10;
                stroke-width: 2px;
                fill: #223311;
                stroke: #88cc44;
            }
            .grass {
                fill: #517a28;
            }
        </style>
    </defs>
    <title id="title6">177</title>
    <polygon id="polygon8" points="68.3 31.7 50 2.56 31.7 31.7 2.56 50 31.7 68.3 50 97.44 68.3 68.3 97.44 50 68.3 31.7" class="compass"/>
    <path id="path10" d="M66,64.21c1.2-21.07-3.68-26.9-3.68-26.9a121.93,121.93,0,0,1-.93,24.42,72.93,72.93,0,0,0-3.24-15.79s-.69,7.23-2,15.55A220.68,220.68,0,0,1,57,28.22s-2.7,8.42-5.31,20.7c-1.43-5.06-3.3-10.72-5.73-17,0,0,.58,11,.36,23.14-2.93-7.26-5.74-9.87-5.74-9.87a73,73,0,0,1,2.21,12,32.39,32.39,0,0,0-6.48-9.31,118,118,0,0,1,3.25,21.16c-5.83-10.51-12.81-14.2-12.81-14.2a43.29,43.29,0,0,1,7.73,16L50,95.56,65.28,71.22l2.29-3.65.29-.18a39.63,39.63,0,0,1,7.94-8.81A30.74,30.74,0,0,0,66,64.21Z" class="grass"/>
    <g id="text19" style="font-style:normal;font-variant:normal;font-weight:bold;font-stretch:condensed;font-size:16px;line-height:1.25;font-family:'Liberation Sans Narrow';-inkscape-font-specification:'Liberation Sans Narrow, Bold Condensed';font-variant-ligatures:normal;font-variant-caps:normal;font-variant-numeric:normal;font-feature-settings:normal;text-align:center;letter-spacing:0px;word-spacing:0px;writing-mode:lr-tb;text-anchor:middle;fill:#88cc44;fill-opacity:1;stroke:none" aria-label="177">
        <path id="path14" style="" d="m 40.003906,73.22377 v -1.632812 h 2.234375 v -7.507813 l -2.164062,1.648438 V 64.00502 l 2.257812,-1.789062 h 1.703125 v 9.375 h 2.070313 v 1.632812 z"/>
        <path id="path16" style="" d="m 53.207031,63.958145 q 0,0 -1.148437,2.273438 -0.539063,1.101562 -0.945313,2.21875 -0.40625,1.109375 -0.640625,2.289062 -0.226562,1.171875 -0.226562,2.484375 h -1.882813 q 0,-1.304687 0.25,-2.476562 0.257813,-1.179688 0.695313,-2.296875 0.4375,-1.117188 1.007812,-2.210938 l 1.21875,-2.21875 h -4.484375 v -1.804687 h 6.15625 z"/>
        <path id="path18" style="" d="m 60.519531,63.958145 q 0,0 -1.148437,2.273438 -0.539063,1.101562 -0.945313,2.21875 -0.40625,1.109375 -0.640625,2.289062 -0.226562,1.171875 -0.226562,2.484375 h -1.882813 q 0,-1.304687 0.25,-2.476562 0.257813,-1.179688 0.695313,-2.296875 0.4375,-1.117188 1.007812,-2.210938 l 1.21875,-2.21875 h -4.484375 v -1.804687 h 6.15625 z"/>
    </g>
    <g id="text23" style="font-style:normal;font-variant:normal;font-weight:bold;font-stretch:condensed;font-size:24px;line-height:1.25;font-family:'Liberation Sans Narrow';-inkscape-font-specification:'Liberation Sans Narrow, Bold Condensed';font-variant-ligatures:normal;font-variant-caps:normal;font-variant-numeric:normal;font-feature-settings:normal;text-align:center;letter-spacing:0px;word-spacing:0px;writing-mode:lr-tb;text-anchor:middle;fill:#ffffff;fill-opacity:1;stroke:#ffffff;stroke-width:0px" aria-label="NATU">
        <path id="path21" style="" d="M 32.949219,58 27.054687,45.285156 q 0.04687,0.515625 0.09375,1.03125 0.03516,0.445313 0.05859,0.960938 0.02344,0.515625 0.02344,0.984375 V 58 H 24.710937 V 41.488281 h 3.234375 l 5.988282,12.820313 q -0.04687,-0.492188 -0.08203,-1.03125 -0.03516,-0.457032 -0.07031,-1.03125 -0.02344,-0.574219 -0.02344,-1.160157 v -9.597656 h 2.519532 V 58 Z"/>
        <path id="path23" style="" d="M 48.476562,58 47.28125,53.78125 H 42.125 L 40.929687,58 H 38.09375 l 4.933594,-16.511719 h 3.339843 L 51.289062,58 Z M 45.3125,46.433594 q 0,0 -0.234375,-0.832032 -0.105469,-0.410156 -0.1875,-0.75 L 44.75,44.277344 q -0.04687,-0.222657 -0.04687,-0.246094 -0.01172,0.03516 -0.05859,0.257812 -0.04687,0.222657 -0.128906,0.5625 -0.08203,0.339844 -0.1875,0.75 l -0.234375,0.832032 -1.335938,4.746093 h 3.890625 z"/>
        <path id="path25" style="" d="M 57.78125,44.160156 V 58 H 54.945312 V 44.160156 h -4.371093 v -2.671875 h 11.589843 v 2.671875 z"/>
        <path id="path27" style="" d="m 69.335937,58.234375 q -1.265625,0 -2.320312,-0.363281 -1.054688,-0.375 -1.816406,-1.148438 Q 64.4375,55.9375 64.003906,54.71875 63.582031,53.5 63.582031,51.8125 V 41.488281 h 2.835938 v 10.054688 q 0,1.042968 0.210937,1.804687 0.210938,0.75 0.597656,1.242188 0.398438,0.480468 0.949219,0.714843 0.5625,0.222657 1.242188,0.222657 0.691406,0 1.265625,-0.234375 0.585937,-0.246094 0.996093,-0.75 0.421875,-0.503907 0.65625,-1.277344 0.234375,-0.773438 0.234375,-1.839844 v -9.9375 h 2.835938 v 10.148438 q 0,1.699218 -0.457031,2.941406 -0.445313,1.242187 -1.253907,2.0625 -0.808593,0.808594 -1.921875,1.207031 -1.113281,0.386719 -2.4375,0.386719 z"/>
    </g>
</svg>
