<?xml version="1.0" encoding="UTF-8" standalone="no"?>
<svg xmlns:dc="http://purl.org/dc/elements/1.1/" xmlns:cc="http://creativecommons.org/ns#" xmlns:rdf="http://www.w3.org/1999/02/22-rdf-syntax-ns#" xmlns:svg="http://www.w3.org/2000/svg" xmlns="http://www.w3.org/2000/svg" version="1.1" viewBox="0 0 100 100" height="100" width="100" data-name="Layer 1" id="Layer_1">
    <metadata id="metadata15">
        <rdf:RDF>
            <cc:Work rdf:about="">
                <dc:format>image/svg+xml</dc:format>
                <dc:type rdf:resource="http://purl.org/dc/dcmitype/StillImage"/>
                <dc:title>184</dc:title>
            </cc:Work>
        </rdf:RDF>
    </metadata>
    <defs id="defs4">
        <style id="style2">
            .compass {
                stroke-miterlimit: 10;
                stroke-width: 2px;
                fill: #0c2a37;
                stroke: #33aadd;
            }
            .grass {
                fill: #1e6684;
            }
        </style>
    </defs>
    <title id="title6">184</title>
    <polygon id="polygon8" points="68.3 31.7 50 2.56 31.7 31.7 2.56 50 31.7 68.3 50 97.44 68.3 68.3 97.44 50 68.3 31.7" class="compass"/>
    <path id="path10" d="M66,64.21c1.2-21.07-3.68-26.9-3.68-26.9a121.93,121.93,0,0,1-.93,24.42,72.93,72.93,0,0,0-3.24-15.79s-.69,7.23-2,15.55A220.68,220.68,0,0,1,57,28.22s-2.7,8.42-5.31,20.7c-1.43-5.06-3.3-10.72-5.73-17,0,0,.58,11,.36,23.14-2.93-7.26-5.74-9.87-5.74-9.87a73,73,0,0,1,2.21,12,32.39,32.39,0,0,0-6.48-9.31,118,118,0,0,1,3.25,21.16c-5.83-10.51-12.81-14.2-12.81-14.2a43.29,43.29,0,0,1,7.73,16L50,95.56,65.28,71.22l2.29-3.65.29-.18a39.63,39.63,0,0,1,7.94-8.81A30.74,30.74,0,0,0,66,64.21Z" class="grass"/>
    <g id="text19" style="font-style:normal;font-variant:normal;font-weight:bold;font-stretch:condensed;font-size:16px;line-height:1.25;font-family:'Liberation Sans Narrow';-inkscape-font-specification:'Liberation Sans Narrow, Bold Condensed';font-variant-ligatures:normal;font-variant-caps:normal;font-variant-numeric:normal;font-feature-settings:normal;text-align:center;letter-spacing:0px;word-spacing:0px;writing-mode:lr-tb;text-anchor:middle;fill:#33aadd;fill-opacity:1;stroke:none" aria-label="184">
        <path id="path14" style="" d="m 40.003906,73.22377 v -1.632812 h 2.234375 v -7.507813 l -2.164062,1.648438 V 64.00502 l 2.257812,-1.789062 h 1.703125 v 9.375 h 2.070313 v 1.632812 z"/>
        <path id="path16" style="" d="m 53.378906,70.122208 q 0,0.710937 -0.195312,1.3125 -0.1875,0.59375 -0.585938,1.03125 -0.398437,0.429687 -1.007812,0.671875 -0.601563,0.242187 -1.445313,0.242187 -0.835937,0 -1.445312,-0.242187 -0.609375,-0.242188 -1.015625,-0.671875 -0.398438,-0.4375 -0.59375,-1.03125 -0.1875,-0.59375 -0.1875,-1.296875 0,-0.601563 0.15625,-1.0625 0.15625,-0.46875 0.40625,-0.804688 0.257812,-0.335937 0.59375,-0.53125 0.335937,-0.203125 0.6875,-0.273437 v -0.03125 q -0.375,-0.101563 -0.679688,-0.335938 -0.304687,-0.234375 -0.515625,-0.5625 -0.210937,-0.328125 -0.328125,-0.726562 -0.109375,-0.40625 -0.109375,-0.84375 0,-0.65625 0.195313,-1.195313 0.195312,-0.539062 0.570312,-0.921875 0.382813,-0.382812 0.945313,-0.585937 0.5625,-0.210938 1.296875,-0.210938 0.789062,0 1.359375,0.21875 0.578125,0.210938 0.945312,0.601563 0.375,0.382812 0.554688,0.921875 0.179687,0.539062 0.179687,1.1875 0,0.429687 -0.117187,0.835937 -0.109375,0.398438 -0.320313,0.726563 -0.210937,0.328125 -0.515625,0.554687 -0.304687,0.226563 -0.6875,0.320313 v 0.03125 q 0.398438,0.07813 0.734375,0.289062 0.34375,0.203125 0.59375,0.539063 0.25,0.328125 0.390625,0.796875 0.140625,0.460937 0.140625,1.046875 z M 51.308594,65.09877 q 0,-0.328125 -0.0625,-0.601562 -0.05469,-0.28125 -0.195313,-0.476563 -0.132812,-0.203125 -0.359375,-0.3125 -0.226562,-0.117187 -0.570312,-0.117187 -0.335938,0 -0.5625,0.117187 -0.21875,0.109375 -0.359375,0.3125 -0.132813,0.195313 -0.1875,0.476563 -0.05469,0.273437 -0.05469,0.601562 0,0.289063 0.04687,0.570313 0.04687,0.28125 0.171875,0.507812 0.132813,0.21875 0.359375,0.359375 0.234375,0.140625 0.601563,0.140625 0.382812,0 0.617187,-0.140625 0.234375,-0.140625 0.351563,-0.367187 0.125,-0.226563 0.164062,-0.507813 0.03906,-0.28125 0.03906,-0.5625 z m 0.210937,4.84375 q 0,-0.335937 -0.0625,-0.648437 -0.0625,-0.3125 -0.21875,-0.546875 -0.15625,-0.242188 -0.4375,-0.382813 -0.273437,-0.148437 -0.695312,-0.148437 -0.382813,0 -0.640625,0.148437 -0.257813,0.140625 -0.414063,0.382813 -0.15625,0.242187 -0.226562,0.5625 -0.07031,0.3125 -0.07031,0.664062 0,0.414063 0.07031,0.757813 0.07031,0.34375 0.226562,0.59375 0.164063,0.242187 0.429688,0.375 0.273437,0.132812 0.679687,0.132812 0.40625,0 0.664063,-0.132812 0.265625,-0.140625 0.414062,-0.390625 0.15625,-0.25 0.21875,-0.59375 0.0625,-0.351563 0.0625,-0.773438 z"/>
        <path id="path18" style="" d="m 59.824219,70.981583 v 2.242187 h -1.71875 v -2.242187 h -4.109375 v -1.648438 l 3.8125,-7.117187 h 2.015625 v 7.132812 h 1.203125 v 1.632813 z m -1.71875,-5.234375 q 0,-0.132813 0,-0.34375 0.0078,-0.21875 0.01563,-0.445313 0.0078,-0.226562 0.01563,-0.429687 0.01563,-0.210938 0.02344,-0.328125 -0.03125,0.08594 -0.101562,0.242187 l -0.15625,0.34375 q -0.08594,0.1875 -0.179688,0.367188 l -0.164062,0.3125 -2.09375,3.882812 h 2.640625 z"/>
    </g>
    <g id="text23" style="font-style:normal;font-variant:normal;font-weight:bold;font-stretch:condensed;font-size:24px;line-height:1.25;font-family:'Liberation Sans Narrow';-inkscape-font-specification:'Liberation Sans Narrow, Bold Condensed';font-variant-ligatures:normal;font-variant-caps:normal;font-variant-numeric:normal;font-feature-settings:normal;text-align:center;letter-spacing:0px;word-spacing:0px;writing-mode:lr-tb;text-anchor:middle;fill:#ffffff;fill-opacity:1;stroke:#ffffff;stroke-width:0px" aria-label="AZM.RL">
        <path id="path21" style="" d="m 23.679687,58 -1.195312,-4.21875 h -5.15625 L 16.132812,58 h -2.835937 l 4.933594,-16.511719 h 3.339843 L 26.492187,58 Z M 20.515625,46.433594 q 0,0 -0.234375,-0.832032 -0.105469,-0.410156 -0.1875,-0.75 l -0.140625,-0.574218 q -0.04687,-0.222657 -0.04687,-0.246094 -0.01172,0.03516 -0.05859,0.257812 -0.04687,0.222657 -0.128906,0.5625 -0.08203,0.339844 -0.1875,0.75 l -0.234375,0.832032 -1.335938,4.746093 h 3.890625 z"/>
        <path id="path23" style="" d="m 38.46875,58 h -10.875 v -2.449219 l 7.324219,-11.355469 h -6.597657 v -2.707031 h 9.75 v 2.402344 l -7.324218,11.402344 h 7.722656 z"/>
        <path id="path25" style="" d="M 51.617187,58 V 47.992187 q 0,-0.597656 0.01172,-1.230468 0.01172,-0.632813 0.03516,-1.160157 0,0 0.04687,-1.207031 0,0 -0.386718,1.757813 0,0 -0.164063,0.726562 l -0.164062,0.726563 -0.152344,0.65625 -0.140625,0.527343 L 48.265625,58 h -2.027344 l -2.4375,-9.210938 q -0.05859,-0.222656 -0.128906,-0.527343 l -0.152344,-0.65625 -0.175781,-0.726563 -0.164063,-0.726562 q 0,0 -0.410156,-1.757813 0.02344,0.679688 0.05859,1.335938 0.02344,0.5625 0.03516,1.183593 0.02344,0.621094 0.02344,1.078125 V 58 H 40.367187 V 41.488281 h 3.796875 l 2.425782,9.234375 q 0.09375,0.363281 0.199218,0.890625 l 0.222657,1.019531 q 0,0 0.246093,1.195313 0,0 0.257813,-1.171875 0,0 0.117187,-0.503906 L 47.75,51.648437 q 0.05859,-0.246093 0.117187,-0.46875 l 0.105469,-0.398437 2.378906,-9.292969 h 3.785157 V 58 Z"/>
        <path id="path27" style="" d="m 56.796875,58 v -3.574219 h 2.777344 V 58 Z"/>
        <path id="path29" style="" d="M 71.5625,58 68.421875,51.730469 H 65.09375 V 58 H 62.257812 V 41.488281 h 6.761719 q 1.265625,0 2.214844,0.351563 0.949219,0.339843 1.582031,0.984375 0.632813,0.632812 0.9375,1.546875 0.316406,0.902343 0.316406,2.039062 0,0.925781 -0.222656,1.699219 Q 73.625,48.871094 73.226562,49.46875 72.828125,50.066406 72.277344,50.476562 71.726562,50.875 71.082031,51.0625 L 74.75,58 Z M 71.222656,46.550781 q 0,-1.207031 -0.65625,-1.792969 -0.644531,-0.585937 -1.839844,-0.585937 H 65.09375 v 4.875 h 3.703125 q 0.632812,0 1.089844,-0.175781 0.457031,-0.1875 0.75,-0.515625 0.292968,-0.339844 0.433593,-0.796875 0.152344,-0.457032 0.152344,-1.007813 z"/>
        <path id="path31" style="" d="M 76.460937,58 V 41.488281 h 2.835938 V 55.328125 H 86.5625 V 58 Z"/>
    </g>
</svg>
