<?xml version="1.0" encoding="UTF-8" standalone="no"?>
<svg xmlns:dc="http://purl.org/dc/elements/1.1/" xmlns:cc="http://creativecommons.org/ns#" xmlns:rdf="http://www.w3.org/1999/02/22-rdf-syntax-ns#" xmlns:svg="http://www.w3.org/2000/svg" xmlns="http://www.w3.org/2000/svg" version="1.1" viewBox="0 0 100 100" height="100" width="100" data-name="Layer 1" id="Layer_1">
    <metadata id="metadata15">
        <rdf:RDF>
            <cc:Work rdf:about="">
                <dc:format>image/svg+xml</dc:format>
                <dc:type rdf:resource="http://purl.org/dc/dcmitype/StillImage"/>
                <dc:title>202</dc:title>
            </cc:Work>
        </rdf:RDF>
    </metadata>
    <defs id="defs4">
        <style id="style2">
            .compass {
                stroke-miterlimit: 10;
                stroke-width: 2px;
                fill: #192e3b;
                stroke: #66bbee;
            }
            .grass {
                fill: #3d708e;
            }
        </style>
    </defs>
    <title id="title6">202</title>
    <polygon id="polygon8" points="68.3 31.7 50 2.56 31.7 31.7 2.56 50 31.7 68.3 50 97.44 68.3 68.3 97.44 50 68.3 31.7" class="compass"/>
    <path id="path10" d="M66,64.21c1.2-21.07-3.68-26.9-3.68-26.9a121.93,121.93,0,0,1-.93,24.42,72.93,72.93,0,0,0-3.24-15.79s-.69,7.23-2,15.55A220.68,220.68,0,0,1,57,28.22s-2.7,8.42-5.31,20.7c-1.43-5.06-3.3-10.72-5.73-17,0,0,.58,11,.36,23.14-2.93-7.26-5.74-9.87-5.74-9.87a73,73,0,0,1,2.21,12,32.39,32.39,0,0,0-6.48-9.31,118,118,0,0,1,3.25,21.16c-5.83-10.51-12.81-14.2-12.81-14.2a43.29,43.29,0,0,1,7.73,16L50,95.56,65.28,71.22l2.29-3.65.29-.18a39.63,39.63,0,0,1,7.94-8.81A30.74,30.74,0,0,0,66,64.21Z" class="grass"/>
    <g id="text19" style="font-style:normal;font-variant:normal;font-weight:bold;font-stretch:condensed;font-size:16px;line-height:1.25;font-family:'Liberation Sans Narrow';-inkscape-font-specification:'Liberation Sans Narrow, Bold Condensed';font-variant-ligatures:normal;font-variant-caps:normal;font-variant-numeric:normal;font-feature-settings:normal;text-align:center;letter-spacing:0px;word-spacing:0px;writing-mode:lr-tb;text-anchor:middle;fill:#66bbee;fill-opacity:1;stroke:none" aria-label="202">
        <path id="path14" style="" d="m 39.628906,73.22377 v -1.523437 q 0.304688,-0.820313 0.75,-1.476563 0.445313,-0.664062 0.929688,-1.210937 0.484375,-0.554688 0.960937,-1.023438 0.476563,-0.476562 0.851563,-0.914062 0.382812,-0.445313 0.617187,-0.890625 0.242188,-0.445313 0.242188,-0.945313 0,-0.734375 -0.304688,-1.085937 -0.296875,-0.351563 -0.882812,-0.351563 -0.578125,0 -0.882813,0.382813 -0.296875,0.375 -0.390625,1.132812 l -1.8125,-0.125 q 0.0625,-0.648437 0.257813,-1.21875 0.203125,-0.570312 0.570312,-1 0.367188,-0.429687 0.921875,-0.671875 0.554688,-0.25 1.328125,-0.25 0.726563,0 1.289063,0.210938 0.5625,0.203125 0.945312,0.601562 0.390625,0.398438 0.585938,0.976563 0.203125,0.570312 0.203125,1.304687 0,0.773438 -0.25,1.398438 -0.25,0.625 -0.640625,1.15625 -0.390625,0.523437 -0.867188,0.984375 l -0.921875,0.898437 q -0.453125,0.4375 -0.828125,0.882813 -0.367187,0.445312 -0.546875,0.953125 h 4.195313 v 1.804687 z"/>
        <path id="path16" style="" d="m 53.246094,67.715958 q 0,1.578125 -0.242188,2.664062 -0.234375,1.078125 -0.65625,1.75 -0.414062,0.664063 -0.992187,0.960938 -0.570313,0.289062 -1.25,0.289062 -0.679688,0 -1.25,-0.289062 -0.570313,-0.289063 -0.984375,-0.953125 -0.40625,-0.671875 -0.640625,-1.75 -0.226563,-1.085938 -0.226563,-2.671875 0,-1.664063 0.226563,-2.75 0.234375,-1.09375 0.648437,-1.742188 0.414063,-0.648437 0.992188,-0.90625 0.585937,-0.265625 1.289062,-0.265625 0.65625,0 1.21875,0.265625 0.570313,0.257813 0.984375,0.90625 0.414063,0.648438 0.648438,1.742188 0.234375,1.085937 0.234375,2.75 z m -1.804688,0 q 0,-1.164063 -0.07031,-1.921875 -0.07031,-0.765625 -0.226563,-1.210938 -0.15625,-0.453125 -0.40625,-0.632812 -0.242187,-0.179688 -0.59375,-0.179688 -0.375,0 -0.632812,0.1875 -0.257813,0.179688 -0.414063,0.632813 -0.15625,0.453125 -0.226562,1.21875 -0.0625,0.757812 -0.0625,1.90625 0,1.132812 0.07031,1.890625 0.07031,0.757812 0.21875,1.21875 0.15625,0.453125 0.40625,0.640625 0.25,0.1875 0.617188,0.1875 0.351562,0 0.601562,-0.1875 0.25,-0.1875 0.40625,-0.640625 0.164063,-0.460938 0.234375,-1.21875 0.07813,-0.757813 0.07813,-1.890625 z"/>
        <path id="path18" style="" d="m 54.253906,73.22377 v -1.523437 q 0.304688,-0.820313 0.75,-1.476563 0.445313,-0.664062 0.929688,-1.210937 0.484375,-0.554688 0.960937,-1.023438 0.476563,-0.476562 0.851563,-0.914062 0.382812,-0.445313 0.617187,-0.890625 0.242188,-0.445313 0.242188,-0.945313 0,-0.734375 -0.304688,-1.085937 -0.296875,-0.351563 -0.882812,-0.351563 -0.578125,0 -0.882813,0.382813 -0.296875,0.375 -0.390625,1.132812 l -1.8125,-0.125 q 0.0625,-0.648437 0.257813,-1.21875 0.203125,-0.570312 0.570312,-1 0.367188,-0.429687 0.921875,-0.671875 0.554688,-0.25 1.328125,-0.25 0.726563,0 1.289063,0.210938 0.5625,0.203125 0.945312,0.601562 0.390625,0.398438 0.585938,0.976563 0.203125,0.570312 0.203125,1.304687 0,0.773438 -0.25,1.398438 -0.25,0.625 -0.640625,1.15625 -0.390625,0.523437 -0.867188,0.984375 l -0.921875,0.898437 q -0.453125,0.4375 -0.828125,0.882813 -0.367187,0.445312 -0.546875,0.953125 h 4.195313 v 1.804687 z"/>
    </g>
    <g id="text23" style="font-style:normal;font-variant:normal;font-weight:bold;font-stretch:condensed;font-size:24px;line-height:1.25;font-family:'Liberation Sans Narrow';-inkscape-font-specification:'Liberation Sans Narrow, Bold Condensed';font-variant-ligatures:normal;font-variant-caps:normal;font-variant-numeric:normal;font-feature-settings:normal;text-align:center;letter-spacing:0px;word-spacing:0px;writing-mode:lr-tb;text-anchor:middle;fill:#ffffff;fill-opacity:1;stroke:#ffffff;stroke-width:0px" aria-label="WB.BF">
        <path id="path21" style="" d="m 32.808594,58 h -3.363282 l -1.839843,-9.550781 q -0.08203,-0.433594 -0.175782,-1.03125 l -0.199218,-1.160157 q -0.105469,-0.644531 -0.1875,-1.335937 0,0 -0.210938,1.347656 0,0 -0.09375,0.574219 -0.04687,0.304687 -0.105469,0.585937 l -0.09375,0.550782 q -0.04687,0.257812 -0.09375,0.46875 L 24.617187,58 H 21.253906 L 17.773437,41.488281 h 2.871094 l 1.6875,9.1875 0.269531,1.476563 0.234375,1.300781 q 0.117188,0.667969 0.210938,1.277344 l 0.28125,-1.6875 q 0,0 0.117187,-0.726563 l 0.140625,-0.738281 0.117188,-0.703125 0.105469,-0.597656 1.675781,-8.789063 h 3.175781 l 1.710938,8.789063 q 0.05859,0.28125 0.105468,0.621093 L 30.59375,51.625 q 0.05859,0.363281 0.117187,0.738281 0.05859,0.363281 0.105469,0.714844 l 0.234375,1.652344 q 0,0 0.234375,-1.359375 0,0 0.246094,-1.3125 0.128906,-0.714844 0.269531,-1.382813 l 1.628906,-9.1875 h 2.871094 z"/>
        <path id="path23" style="" d="m 49.625,53.289062 q 0,1.253907 -0.421875,2.15625 -0.410156,0.890625 -1.125,1.464844 -0.714844,0.5625 -1.664063,0.832031 Q 45.464844,58 44.398437,58 H 37.625 V 41.488281 h 6.199219 q 1.195312,0 2.132812,0.257813 0.9375,0.246093 1.582031,0.761718 0.644532,0.515625 0.972657,1.300782 0.328125,0.773437 0.328125,1.828125 0,1.40625 -0.644532,2.378906 -0.632812,0.960937 -1.933593,1.300781 1.640625,0.234375 2.496093,1.265625 0.867188,1.019531 0.867188,2.707031 z m -3.632813,-7.183593 q 0,-1.113282 -0.585937,-1.582032 -0.574219,-0.46875 -1.722656,-0.46875 h -3.222657 v 4.089844 h 3.246094 q 1.195313,0 1.734375,-0.503906 0.550781,-0.515625 0.550781,-1.535156 z m 0.785157,6.914062 q 0,-0.65625 -0.210938,-1.101562 Q 46.355469,51.472656 45.980469,51.203125 45.617187,50.933594 45.125,50.816406 44.632812,50.699219 44.046875,50.699219 h -3.585938 v 4.734375 h 3.703125 q 0.5625,0 1.03125,-0.105469 0.480469,-0.117188 0.832032,-0.386719 0.351562,-0.28125 0.550781,-0.75 0.199219,-0.46875 0.199219,-1.171875 z"/>
        <path id="path25" style="" d="m 51.851562,58 v -3.574219 h 2.777344 V 58 Z"/>
        <path id="path27" style="" d="m 69.3125,53.289062 q 0,1.253907 -0.421875,2.15625 -0.410156,0.890625 -1.125,1.464844 -0.714844,0.5625 -1.664063,0.832031 Q 65.152344,58 64.085937,58 H 57.3125 V 41.488281 h 6.199219 q 1.195312,0 2.132812,0.257813 0.9375,0.246093 1.582031,0.761718 0.644532,0.515625 0.972657,1.300782 0.328125,0.773437 0.328125,1.828125 0,1.40625 -0.644532,2.378906 -0.632812,0.960937 -1.933593,1.300781 1.640625,0.234375 2.496093,1.265625 0.867188,1.019531 0.867188,2.707031 z m -3.632813,-7.183593 q 0,-1.113282 -0.585937,-1.582032 -0.574219,-0.46875 -1.722656,-0.46875 h -3.222657 v 4.089844 h 3.246094 q 1.195313,0 1.734375,-0.503906 0.550781,-0.515625 0.550781,-1.535156 z m 0.785157,6.914062 q 0,-0.65625 -0.210938,-1.101562 -0.210937,-0.445313 -0.585937,-0.714844 -0.363282,-0.269531 -0.855469,-0.386719 -0.492188,-0.117187 -1.078125,-0.117187 h -3.585938 v 4.734375 h 3.703125 q 0.5625,0 1.03125,-0.105469 0.480469,-0.117188 0.832032,-0.386719 0.351562,-0.28125 0.550781,-0.75 0.199219,-0.46875 0.199219,-1.171875 z"/>
        <path id="path29" style="" d="m 74.351562,44.160156 v 5.109375 h 6.9375 v 2.671875 h -6.9375 V 58 H 71.515625 V 41.488281 H 81.5 v 2.671875 z"/>
    </g>
</svg>
