<?xml version="1.0" encoding="UTF-8" standalone="no"?>
<svg xmlns:dc="http://purl.org/dc/elements/1.1/" xmlns:cc="http://creativecommons.org/ns#" xmlns:rdf="http://www.w3.org/1999/02/22-rdf-syntax-ns#" xmlns:svg="http://www.w3.org/2000/svg" xmlns="http://www.w3.org/2000/svg" version="1.1" viewBox="0 0 100 100" height="100" width="100" data-name="Layer 1" id="Layer_1">
    <metadata id="metadata15">
        <rdf:RDF>
            <cc:Work rdf:about="">
                <dc:format>image/svg+xml</dc:format>
                <dc:type rdf:resource="http://purl.org/dc/dcmitype/StillImage"/>
                <dc:title>238</dc:title>
            </cc:Work>
        </rdf:RDF>
    </metadata>
    <defs id="defs4">
        <style id="style2">
            .compass {
                stroke-miterlimit: 10;
                stroke-width: 2px;
                fill: #37222a;
                stroke: #dd88aa;
            }
            .grass {
                fill: #845166;
            }
        </style>
    </defs>
    <title id="title6">238</title>
    <polygon id="polygon8" points="68.3 31.7 50 2.56 31.7 31.7 2.56 50 31.7 68.3 50 97.44 68.3 68.3 97.44 50 68.3 31.7" class="compass"/>
    <path id="path10" d="M66,64.21c1.2-21.07-3.68-26.9-3.68-26.9a121.93,121.93,0,0,1-.93,24.42,72.93,72.93,0,0,0-3.24-15.79s-.69,7.23-2,15.55A220.68,220.68,0,0,1,57,28.22s-2.7,8.42-5.31,20.7c-1.43-5.06-3.3-10.72-5.73-17,0,0,.58,11,.36,23.14-2.93-7.26-5.74-9.87-5.74-9.87a73,73,0,0,1,2.21,12,32.39,32.39,0,0,0-6.48-9.31,118,118,0,0,1,3.25,21.16c-5.83-10.51-12.81-14.2-12.81-14.2a43.29,43.29,0,0,1,7.73,16L50,95.56,65.28,71.22l2.29-3.65.29-.18a39.63,39.63,0,0,1,7.94-8.81A30.74,30.74,0,0,0,66,64.21Z" class="grass"/>
    <g id="text19" style="font-style:normal;font-variant:normal;font-weight:bold;font-stretch:condensed;font-size:16px;line-height:1.25;font-family:'Liberation Sans Narrow';-inkscape-font-specification:'Liberation Sans Narrow, Bold Condensed';font-variant-ligatures:normal;font-variant-caps:normal;font-variant-numeric:normal;font-feature-settings:normal;text-align:center;letter-spacing:0px;word-spacing:0px;writing-mode:lr-tb;text-anchor:middle;fill:#dd88aa;fill-opacity:1;stroke:none" aria-label="238">
        <path id="path14" style="" d="m 39.628906,73.22377 v -1.523437 q 0.304688,-0.820313 0.75,-1.476563 0.445313,-0.664062 0.929688,-1.210937 0.484375,-0.554688 0.960937,-1.023438 0.476563,-0.476562 0.851563,-0.914062 0.382812,-0.445313 0.617187,-0.890625 0.242188,-0.445313 0.242188,-0.945313 0,-0.734375 -0.304688,-1.085937 -0.296875,-0.351563 -0.882812,-0.351563 -0.578125,0 -0.882813,0.382813 -0.296875,0.375 -0.390625,1.132812 l -1.8125,-0.125 q 0.0625,-0.648437 0.257813,-1.21875 0.203125,-0.570312 0.570312,-1 0.367188,-0.429687 0.921875,-0.671875 0.554688,-0.25 1.328125,-0.25 0.726563,0 1.289063,0.210938 0.5625,0.203125 0.945312,0.601562 0.390625,0.398438 0.585938,0.976563 0.203125,0.570312 0.203125,1.304687 0,0.773438 -0.25,1.398438 -0.25,0.625 -0.640625,1.15625 -0.390625,0.523437 -0.867188,0.984375 l -0.921875,0.898437 q -0.453125,0.4375 -0.828125,0.882813 -0.367187,0.445312 -0.546875,0.953125 h 4.195313 v 1.804687 z"/>
        <path id="path16" style="" d="m 53.308594,70.169083 q 0,0.75 -0.203125,1.351562 -0.195313,0.59375 -0.601563,1.015625 -0.40625,0.421875 -1.007812,0.648438 -0.59375,0.21875 -1.390625,0.21875 -0.882813,0 -1.492188,-0.273438 -0.601562,-0.273437 -0.992187,-0.71875 -0.382813,-0.453125 -0.578125,-1.023437 -0.195313,-0.570313 -0.25,-1.15625 l 1.828125,-0.195313 q 0.03906,0.351563 0.140625,0.648438 0.109375,0.289062 0.289062,0.5 0.179688,0.210937 0.4375,0.328125 0.257813,0.109375 0.609375,0.109375 0.648438,0 1.007813,-0.390625 0.359375,-0.390625 0.359375,-1.195313 0,-0.492187 -0.171875,-0.789062 -0.164063,-0.296875 -0.429688,-0.453125 -0.257812,-0.164063 -0.5625,-0.21875 -0.296875,-0.05469 -0.5625,-0.05469 h -0.632812 v -1.773437 h 0.59375 q 0.265625,0 0.546875,-0.0625 0.28125,-0.0625 0.5,-0.226563 0.226562,-0.164062 0.367187,-0.453125 0.140625,-0.296875 0.140625,-0.75 0,-0.679687 -0.3125,-1.0625 -0.304687,-0.390625 -0.90625,-0.390625 -0.554687,0 -0.898437,0.375 -0.34375,0.375 -0.390625,1.0625 l -1.804688,-0.15625 q 0.07813,-0.773437 0.351563,-1.34375 0.273437,-0.570312 0.6875,-0.945312 0.414062,-0.375 0.945312,-0.554688 0.539063,-0.1875 1.140625,-0.1875 0.796875,0 1.367188,0.234375 0.570312,0.234375 0.9375,0.632813 0.367187,0.398437 0.539062,0.929687 0.171875,0.53125 0.171875,1.132813 0,0.484375 -0.117187,0.90625 -0.117188,0.414062 -0.351563,0.75 -0.234375,0.328125 -0.601562,0.570312 -0.359375,0.234375 -0.859375,0.351563 v 0.03125 q 0.554687,0.07813 0.960937,0.3125 0.414063,0.226562 0.679688,0.570312 0.265625,0.34375 0.390625,0.78125 0.125,0.429688 0.125,0.914063 z"/>
        <path id="path18" style="" d="m 60.691406,70.122208 q 0,0.710937 -0.195312,1.3125 -0.1875,0.59375 -0.585938,1.03125 -0.398437,0.429687 -1.007812,0.671875 -0.601563,0.242187 -1.445313,0.242187 -0.835937,0 -1.445312,-0.242187 -0.609375,-0.242188 -1.015625,-0.671875 -0.398438,-0.4375 -0.59375,-1.03125 -0.1875,-0.59375 -0.1875,-1.296875 0,-0.601563 0.15625,-1.0625 0.15625,-0.46875 0.40625,-0.804688 0.257812,-0.335937 0.59375,-0.53125 0.335937,-0.203125 0.6875,-0.273437 v -0.03125 q -0.375,-0.101563 -0.679688,-0.335938 -0.304687,-0.234375 -0.515625,-0.5625 -0.210937,-0.328125 -0.328125,-0.726562 -0.109375,-0.40625 -0.109375,-0.84375 0,-0.65625 0.195313,-1.195313 0.195312,-0.539062 0.570312,-0.921875 0.382813,-0.382812 0.945313,-0.585937 0.5625,-0.210938 1.296875,-0.210938 0.789062,0 1.359375,0.21875 0.578125,0.210938 0.945312,0.601563 0.375,0.382812 0.554688,0.921875 0.179687,0.539062 0.179687,1.1875 0,0.429687 -0.117187,0.835937 -0.109375,0.398438 -0.320313,0.726563 -0.210937,0.328125 -0.515625,0.554687 -0.304687,0.226563 -0.6875,0.320313 v 0.03125 q 0.398438,0.07813 0.734375,0.289062 0.34375,0.203125 0.59375,0.539063 0.25,0.328125 0.390625,0.796875 0.140625,0.460937 0.140625,1.046875 z M 58.621094,65.09877 q 0,-0.328125 -0.0625,-0.601562 -0.05469,-0.28125 -0.195313,-0.476563 -0.132812,-0.203125 -0.359375,-0.3125 -0.226562,-0.117187 -0.570312,-0.117187 -0.335938,0 -0.5625,0.117187 -0.21875,0.109375 -0.359375,0.3125 -0.132813,0.195313 -0.1875,0.476563 -0.05469,0.273437 -0.05469,0.601562 0,0.289063 0.04687,0.570313 0.04687,0.28125 0.171875,0.507812 0.132813,0.21875 0.359375,0.359375 0.234375,0.140625 0.601563,0.140625 0.382812,0 0.617187,-0.140625 0.234375,-0.140625 0.351563,-0.367187 0.125,-0.226563 0.164062,-0.507813 0.03906,-0.28125 0.03906,-0.5625 z m 0.210937,4.84375 q 0,-0.335937 -0.0625,-0.648437 -0.0625,-0.3125 -0.21875,-0.546875 -0.15625,-0.242188 -0.4375,-0.382813 -0.273437,-0.148437 -0.695312,-0.148437 -0.382813,0 -0.640625,0.148437 -0.257813,0.140625 -0.414063,0.382813 -0.15625,0.242187 -0.226562,0.5625 -0.07031,0.3125 -0.07031,0.664062 0,0.414063 0.07031,0.757813 0.07031,0.34375 0.226562,0.59375 0.164063,0.242187 0.429688,0.375 0.273437,0.132812 0.679687,0.132812 0.40625,0 0.664063,-0.132812 0.265625,-0.140625 0.414062,-0.390625 0.15625,-0.25 0.21875,-0.59375 0.0625,-0.351563 0.0625,-0.773438 z"/>
    </g>
    <g id="text23" style="font-style:normal;font-variant:normal;font-weight:bold;font-stretch:condensed;font-size:24px;line-height:1.25;font-family:'Liberation Sans Narrow';-inkscape-font-specification:'Liberation Sans Narrow, Bold Condensed';font-variant-ligatures:normal;font-variant-caps:normal;font-variant-numeric:normal;font-feature-settings:normal;text-align:center;letter-spacing:0px;word-spacing:0px;writing-mode:lr-tb;text-anchor:middle;fill:#ffffff;fill-opacity:1;stroke:#ffffff;stroke-width:0px" aria-label="S.CHUM">
        <path id="path21" style="" d="m 23.539062,53.242187 q 0,1.125 -0.339843,2.050782 -0.328125,0.914062 -1.042969,1.570312 -0.703125,0.65625 -1.804688,1.019531 -1.089843,0.351563 -2.613281,0.351563 -1.347656,0 -2.378906,-0.292969 Q 14.339844,57.648437 13.601563,57.074219 12.863281,56.5 12.40625,55.65625 11.960938,54.800781 11.75,53.699219 l 2.742188,-0.550782 q 0.117187,0.550782 0.339843,1.007813 0.222657,0.457031 0.609375,0.796875 0.386719,0.328125 0.960938,0.515625 0.585937,0.175781 1.417968,0.175781 1.441407,0 2.203125,-0.527344 0.761719,-0.539062 0.761719,-1.675781 0,-0.679687 -0.304687,-1.113281 -0.304688,-0.433594 -0.820313,-0.714844 -0.503906,-0.28125 -1.171875,-0.46875 -0.65625,-0.1875 -1.382812,-0.363281 0,0 -1.160156,-0.339844 -0.574219,-0.175781 -1.101563,-0.421875 -0.515625,-0.246094 -0.972656,-0.585937 -0.445313,-0.339844 -0.785156,-0.832032 -0.328125,-0.503906 -0.515625,-1.171875 -0.1875,-0.667968 -0.1875,-1.570312 0,-1.230469 0.398437,-2.109375 0.410156,-0.878906 1.125,-1.429688 0.726563,-0.5625 1.710938,-0.820312 0.984374,-0.257813 2.156249,-0.257813 1.324219,0 2.273438,0.257813 0.949219,0.246094 1.582031,0.761719 0.644531,0.515625 1.007813,1.300781 0.375,0.773437 0.550781,1.816406 l -2.742188,0.457031 q -0.210937,-1.066406 -0.867187,-1.605468 -0.644531,-0.539063 -1.851563,-0.539063 -0.75,0 -1.253906,0.164063 -0.492187,0.152343 -0.785156,0.421875 -0.292969,0.269531 -0.421875,0.632812 -0.117187,0.351563 -0.117187,0.75 0,0.609375 0.234375,1.007813 0.246093,0.386718 0.679687,0.65625 0.433594,0.257812 1.03125,0.445312 0.597656,0.175781 1.324219,0.363281 0.632812,0.164063 1.253906,0.351563 0.621094,0.175781 1.183594,0.421875 0.574218,0.246094 1.066406,0.597656 0.492187,0.351563 0.84375,0.867188 0.363281,0.503906 0.5625,1.207031 0.210937,0.703125 0.210937,1.664062 z"/>
        <path id="path23" style="" d="m 25.648437,58 v -3.574219 h 2.777344 V 58 Z"/>
        <path id="path25" style="" d="m 37.425781,55.515625 q 0.796875,0 1.382813,-0.269531 0.585937,-0.28125 1.007812,-0.726563 Q 40.25,54.074219 40.53125,53.511719 40.8125,52.949219 41,52.375 l 2.460937,1.136719 q -0.292968,0.890625 -0.773437,1.746093 -0.480469,0.855469 -1.207031,1.511719 -0.714844,0.65625 -1.710938,1.066406 -0.996094,0.398438 -2.34375,0.398438 -1.757812,0 -3.046875,-0.632813 -1.277344,-0.644531 -2.121094,-1.78125 -0.84375,-1.148437 -1.253906,-2.71875 -0.398437,-1.570312 -0.398437,-3.433593 0,-1.933594 0.398437,-3.492188 0.410156,-1.558594 1.230469,-2.648437 0.832031,-1.101563 2.097656,-1.6875 1.265625,-0.597657 2.976563,-0.597657 1.324218,0 2.320312,0.339844 0.996094,0.339844 1.710938,0.960938 0.726562,0.609375 1.195312,1.453125 0.480469,0.832031 0.75,1.839843 l -2.496094,0.832032 q -0.128906,-0.527344 -0.410156,-1.007813 -0.28125,-0.492187 -0.714844,-0.867187 -0.421875,-0.375 -0.996093,-0.597657 -0.574219,-0.234375 -1.300782,-0.234375 -1.03125,0 -1.769531,0.410157 -0.738281,0.398437 -1.21875,1.148437 -0.46875,0.75 -0.703125,1.804688 -0.222656,1.042968 -0.222656,2.34375 0,1.289062 0.222656,2.367187 0.234375,1.066406 0.714844,1.839844 0.480469,0.773437 1.230469,1.207031 0.75,0.433594 1.804687,0.433594 z"/>
        <path id="path27" style="" d="M 54.042969,58 V 50.921875 H 48.148437 V 58 H 45.3125 V 41.488281 h 2.835937 V 48.0625 h 5.894532 v -6.574219 h 2.835937 V 58 Z"/>
        <path id="path29" style="" d="m 65.140625,58.234375 q -1.265625,0 -2.320313,-0.363281 -1.054687,-0.375 -1.816406,-1.148438 Q 60.242187,55.9375 59.808594,54.71875 59.386719,53.5 59.386719,51.8125 V 41.488281 h 2.835937 v 10.054688 q 0,1.042968 0.210938,1.804687 0.210937,0.75 0.597656,1.242188 0.398437,0.480468 0.949219,0.714843 0.5625,0.222657 1.242187,0.222657 0.691406,0 1.265625,-0.234375 0.585938,-0.246094 0.996094,-0.75 0.421875,-0.503907 0.65625,-1.277344 Q 68.375,52.492187 68.375,51.425781 v -9.9375 h 2.835937 v 10.148438 q 0,1.699218 -0.457031,2.941406 -0.445312,1.242187 -1.253906,2.0625 -0.808594,0.808594 -1.921875,1.207031 -1.113281,0.386719 -2.4375,0.386719 z"/>
        <path id="path31" style="" d="M 84.96875,58 V 47.992187 q 0,-0.597656 0.01172,-1.230468 0.01172,-0.632813 0.03516,-1.160157 0,0 0.04687,-1.207031 0,0 -0.386719,1.757813 0,0 -0.164062,0.726562 l -0.164063,0.726563 -0.152344,0.65625 -0.140625,0.527343 L 81.617187,58 h -2.027343 l -2.4375,-9.210938 q -0.05859,-0.222656 -0.128907,-0.527343 l -0.152343,-0.65625 -0.175782,-0.726563 -0.164062,-0.726562 q 0,0 -0.410156,-1.757813 0.02344,0.679688 0.05859,1.335938 0.02344,0.5625 0.03516,1.183593 0.02344,0.621094 0.02344,1.078125 V 58 H 73.71875 V 41.488281 h 3.796875 l 2.425781,9.234375 q 0.09375,0.363281 0.199219,0.890625 l 0.222656,1.019531 q 0,0 0.246094,1.195313 0,0 0.257812,-1.171875 0,0 0.117188,-0.503906 l 0.117187,-0.503907 q 0.05859,-0.246093 0.117188,-0.46875 l 0.105469,-0.398437 2.378906,-9.292969 h 3.785156 V 58 Z"/>
    </g>
</svg>
