<?xml version="1.0" encoding="UTF-8" standalone="no"?>
<svg xmlns:dc="http://purl.org/dc/elements/1.1/" xmlns:cc="http://creativecommons.org/ns#" xmlns:rdf="http://www.w3.org/1999/02/22-rdf-syntax-ns#" xmlns:svg="http://www.w3.org/2000/svg" xmlns="http://www.w3.org/2000/svg" version="1.1" viewBox="0 0 100 100" height="100" width="100" data-name="Layer 1" id="Layer_1">
    <metadata id="metadata15">
        <rdf:RDF>
            <cc:Work rdf:about="">
                <dc:format>image/svg+xml</dc:format>
                <dc:type rdf:resource="http://purl.org/dc/dcmitype/StillImage"/>
                <dc:title>249</dc:title>
            </cc:Work>
        </rdf:RDF>
    </metadata>
    <defs id="defs4">
        <style id="style2">
            .compass {
                stroke-miterlimit: 10;
                stroke-width: 2px;
                fill: #262e3b;
                stroke: #99bbee;
            }
            .grass {
                fill: #5b708e;
            }
        </style>
    </defs>
    <title id="title6">249</title>
    <polygon id="polygon8" points="68.3 31.7 50 2.56 31.7 31.7 2.56 50 31.7 68.3 50 97.44 68.3 68.3 97.44 50 68.3 31.7" class="compass"/>
    <path id="path10" d="M66,64.21c1.2-21.07-3.68-26.9-3.68-26.9a121.93,121.93,0,0,1-.93,24.42,72.93,72.93,0,0,0-3.24-15.79s-.69,7.23-2,15.55A220.68,220.68,0,0,1,57,28.22s-2.7,8.42-5.31,20.7c-1.43-5.06-3.3-10.72-5.73-17,0,0,.58,11,.36,23.14-2.93-7.26-5.74-9.87-5.74-9.87a73,73,0,0,1,2.21,12,32.39,32.39,0,0,0-6.48-9.31,118,118,0,0,1,3.25,21.16c-5.83-10.51-12.81-14.2-12.81-14.2a43.29,43.29,0,0,1,7.73,16L50,95.56,65.28,71.22l2.29-3.65.29-.18a39.63,39.63,0,0,1,7.94-8.81A30.74,30.74,0,0,0,66,64.21Z" class="grass"/>
    <g id="text19" style="font-style:normal;font-variant:normal;font-weight:bold;font-stretch:condensed;font-size:16px;line-height:1.25;font-family:'Liberation Sans Narrow';-inkscape-font-specification:'Liberation Sans Narrow, Bold Condensed';font-variant-ligatures:normal;font-variant-caps:normal;font-variant-numeric:normal;font-feature-settings:normal;text-align:center;letter-spacing:0px;word-spacing:0px;writing-mode:lr-tb;text-anchor:middle;fill:#99bbee;fill-opacity:1;stroke:none" aria-label="249">
        <path id="path14" style="" d="m 39.628906,73.22377 v -1.523437 q 0.304688,-0.820313 0.75,-1.476563 0.445313,-0.664062 0.929688,-1.210937 0.484375,-0.554688 0.960937,-1.023438 0.476563,-0.476562 0.851563,-0.914062 0.382812,-0.445313 0.617187,-0.890625 0.242188,-0.445313 0.242188,-0.945313 0,-0.734375 -0.304688,-1.085937 -0.296875,-0.351563 -0.882812,-0.351563 -0.578125,0 -0.882813,0.382813 -0.296875,0.375 -0.390625,1.132812 l -1.8125,-0.125 q 0.0625,-0.648437 0.257813,-1.21875 0.203125,-0.570312 0.570312,-1 0.367188,-0.429687 0.921875,-0.671875 0.554688,-0.25 1.328125,-0.25 0.726563,0 1.289063,0.210938 0.5625,0.203125 0.945312,0.601562 0.390625,0.398438 0.585938,0.976563 0.203125,0.570312 0.203125,1.304687 0,0.773438 -0.25,1.398438 -0.25,0.625 -0.640625,1.15625 -0.390625,0.523437 -0.867188,0.984375 l -0.921875,0.898437 q -0.453125,0.4375 -0.828125,0.882813 -0.367187,0.445312 -0.546875,0.953125 h 4.195313 v 1.804687 z"/>
        <path id="path16" style="" d="m 52.511719,70.981583 v 2.242187 h -1.71875 v -2.242187 h -4.109375 v -1.648438 l 3.8125,-7.117187 h 2.015625 v 7.132812 h 1.203125 v 1.632813 z m -1.71875,-5.234375 q 0,-0.132813 0,-0.34375 0.0078,-0.21875 0.01563,-0.445313 0.0078,-0.226562 0.01563,-0.429687 0.01563,-0.210938 0.02344,-0.328125 -0.03125,0.08594 -0.101562,0.242187 l -0.15625,0.34375 q -0.08594,0.1875 -0.179688,0.367188 l -0.164062,0.3125 -2.09375,3.882812 h 2.640625 z"/>
        <path id="path18" style="" d="m 60.613281,67.544083 q 0,2.929687 -0.882812,4.382812 -0.875,1.453125 -2.492188,1.453125 -0.585937,0 -1.046875,-0.148437 -0.460937,-0.148438 -0.8125,-0.460938 -0.34375,-0.3125 -0.585937,-0.804687 -0.234375,-0.492188 -0.375,-1.171875 l 1.6875,-0.289063 q 0.125,0.585938 0.414062,0.867188 0.296875,0.28125 0.742188,0.28125 0.367187,0 0.648437,-0.210938 0.289063,-0.210937 0.492188,-0.640625 0.210937,-0.429687 0.320312,-1.085937 0.117188,-0.664063 0.117188,-1.5625 -0.125,0.304687 -0.335938,0.539062 -0.210937,0.234375 -0.476562,0.390625 -0.265625,0.15625 -0.570313,0.242188 -0.296875,0.07813 -0.609375,0.07813 -0.585937,0 -1.070312,-0.25 -0.476563,-0.257813 -0.820313,-0.734375 -0.335937,-0.476563 -0.523437,-1.148438 -0.179688,-0.679687 -0.179688,-1.53125 0,-0.875 0.210938,-1.5625 0.21875,-0.6875 0.617187,-1.15625 0.40625,-0.476562 0.992188,-0.71875 0.59375,-0.25 1.335937,-0.25 0.78125,0 1.375,0.328125 0.601563,0.320313 1,1 0.40625,0.671875 0.617188,1.710938 0.210937,1.03125 0.210937,2.453125 z m -1.90625,-1.539063 q 0,-0.46875 -0.08594,-0.875 -0.08594,-0.414062 -0.257813,-0.710937 -0.171875,-0.304688 -0.421875,-0.476563 -0.25,-0.171875 -0.578125,-0.171875 -0.304687,0 -0.539062,0.140625 -0.234375,0.132813 -0.40625,0.390625 -0.164063,0.257813 -0.25,0.625 -0.08594,0.367188 -0.08594,0.828125 0,0.429688 0.07813,0.804688 0.08594,0.367187 0.242188,0.640625 0.164062,0.265625 0.40625,0.421875 0.25,0.148437 0.5625,0.148437 0.25,0 0.484375,-0.109375 0.242187,-0.109375 0.429687,-0.328125 0.195313,-0.21875 0.304688,-0.546875 0.117187,-0.335937 0.117187,-0.78125 z"/>
    </g>
    <g id="text23" style="font-style:normal;font-variant:normal;font-weight:bold;font-stretch:condensed;font-size:24px;line-height:1.25;font-family:'Liberation Sans Narrow';-inkscape-font-specification:'Liberation Sans Narrow, Bold Condensed';font-variant-ligatures:normal;font-variant-caps:normal;font-variant-numeric:normal;font-feature-settings:normal;text-align:center;letter-spacing:0px;word-spacing:0px;writing-mode:lr-tb;text-anchor:middle;fill:#ffffff;fill-opacity:1;stroke:#ffffff;stroke-width:0px" aria-label="LUGIA">
        <path id="path21" style="" d="M 20.679687,58 V 41.488281 h 2.835938 V 55.328125 H 30.78125 V 58 Z"/>
        <path id="path23" style="" d="m 38.351562,58.234375 q -1.265625,0 -2.320312,-0.363281 -1.054688,-0.375 -1.816406,-1.148438 Q 33.453125,55.9375 33.019531,54.71875 32.597656,53.5 32.597656,51.8125 V 41.488281 h 2.835938 v 10.054688 q 0,1.042968 0.210937,1.804687 0.210938,0.75 0.597656,1.242188 0.398438,0.480468 0.949219,0.714843 0.5625,0.222657 1.242188,0.222657 0.691406,0 1.265625,-0.234375 0.585937,-0.246094 0.996093,-0.75 0.421875,-0.503907 0.65625,-1.277344 0.234375,-0.773438 0.234375,-1.839844 v -9.9375 h 2.835938 v 10.148438 q 0,1.699218 -0.457031,2.941406 -0.445313,1.242187 -1.253907,2.0625 -0.808593,0.808594 -1.921875,1.207031 -1.113281,0.386719 -2.4375,0.386719 z"/>
        <path id="path25" style="" d="m 53.363281,55.527344 q 0.621094,0 1.183594,-0.117188 0.574219,-0.117187 1.054687,-0.304687 0.480469,-0.199219 0.867188,-0.445313 0.398437,-0.257812 0.644531,-0.527344 v -2.285156 h -3.304687 v -2.554687 h 5.90625 v 6.070312 Q 59.257812,55.9375 58.601562,56.464844 57.945312,56.980469 57.125,57.378906 56.304687,57.765625 55.332031,58 q -0.960937,0.234375 -2.039062,0.234375 -1.792969,0 -3.09375,-0.632813 -1.300782,-0.644531 -2.144532,-1.78125 -0.832031,-1.148437 -1.230468,-2.71875 -0.398438,-1.570312 -0.398438,-3.433593 0,-1.933594 0.421875,-3.492188 0.421875,-1.558594 1.277344,-2.648437 0.867187,-1.101563 2.167969,-1.6875 1.300781,-0.597657 3.058593,-0.597657 1.277344,0 2.273438,0.304688 0.996094,0.304687 1.746094,0.867187 0.75,0.5625 1.253906,1.359375 0.503906,0.785157 0.796875,1.769532 l -2.613281,0.960937 Q 56.632812,45.988281 56.339844,45.53125 56.058594,45.0625 55.625,44.722656 q -0.421875,-0.351562 -0.984375,-0.550781 -0.5625,-0.210938 -1.289063,-0.210938 -1.054687,0 -1.828125,0.410157 -0.761718,0.398437 -1.265625,1.148437 -0.492187,0.75 -0.738281,1.804688 -0.234375,1.042968 -0.234375,2.34375 0,1.289062 0.234375,2.367187 0.246094,1.078125 0.75,1.851563 0.515625,0.773437 1.277344,1.207031 0.773437,0.433594 1.816406,0.433594 z"/>
        <path id="path27" style="" d="M 62.257812,58 V 41.488281 h 2.847657 V 58 Z"/>
        <path id="path29" style="" d="m 77.304687,58 -1.195312,-4.21875 h -5.15625 L 69.757812,58 h -2.835937 l 4.933594,-16.511719 h 3.339843 L 80.117187,58 Z M 74.140625,46.433594 q 0,0 -0.234375,-0.832032 -0.105469,-0.410156 -0.1875,-0.75 l -0.140625,-0.574218 q -0.04687,-0.222657 -0.04687,-0.246094 -0.01172,0.03516 -0.05859,0.257812 -0.04687,0.222657 -0.128906,0.5625 -0.08203,0.339844 -0.1875,0.75 l -0.234375,0.832032 -1.335938,4.746093 h 3.890625 z"/>
    </g>
</svg>
