<?xml version="1.0" encoding="utf-8"?>
<svg id="Layer_1" data-name="Layer 1" xmlns="http://www.w3.org/2000/svg" width="100" height="100" viewBox="0 0 100 100">
    <defs>
        <style>
            .cls-1 {
                fill: #ccc;
                stroke: #333;
                stroke-miterlimit: 10;
                stroke-width: 2px;
            }
        </style>
    </defs>
    <title>battle</title>
    <polygon class="cls-1" points="68.3 31.7 50 2.56 31.7 31.7 2.56 50 31.7 68.3 50 97.44 68.3 68.3 97.44 50 68.3 31.7" />
    <path d="M83.13,50l-10.6-6.65a13.38,13.38,0,0,1-1.45,4.06L75.2,50l-10,6.29,2.64,11.53L56.29,65.18,50,75.2l-2.54-4a13.79,13.79,0,0,1-4.07,1.44L50,83.13,58.27,70l15.15,3.46L70,58.27Z" />
    <path d="M32.18,32.18l11.53,2.64L50,24.8l2.54,4.05a13.79,13.79,0,0,1,4.07-1.44L50,16.87,41.73,30,26.58,26.58,30,41.73,16.87,50l10.6,6.65a13.38,13.38,0,0,1,1.45-4.06L24.8,50l10-6.29Z" />
    <path d="M36.8,58A4.24,4.24,0,0,1,45,58h6.72a10.86,10.86,0,0,0-21.6,0Z" />
    <path d="M45,60.3a4.24,4.24,0,0,1-8.17,0H30.09a10.86,10.86,0,0,0,21.6,0Z" />
    <circle cx="40.89" cy="59.17" r="2.21" />
    <path d="M55,39.7a4.24,4.24,0,0,1,8.17,0h6.71a10.86,10.86,0,0,0-21.6,0Z" />
    <path d="M63.2,42A4.24,4.24,0,0,1,55,42H48.31a10.86,10.86,0,0,0,21.6,0Z" />
    <circle cx="59.11" cy="40.83" r="2.21" />
</svg>
