<?xml version="1.0" encoding="utf-8"?>
<svg id="Layer_1" data-name="Layer 1" xmlns="http://www.w3.org/2000/svg" width="100" height="100" viewBox="0 0 100 100">
    <defs>
        <style>
            .cls-1 {
                fill: #ccebe3;
                stroke: #004e3a;
                stroke-miterlimit: 10;
                stroke-width: 2px;
            }
            .cls-2 {
                isolation: isolate;
            }
        </style>
    </defs>
    <title>buddy</title>
    <polygon class="cls-1" points="68.3 31.7 50 2.56 31.7 31.7 2.56 50 31.7 68.3 50 97.44 68.3 68.3 97.44 50 68.3 31.7" />
    <path class="cls-2" d="M26.79,53.32A24.78,24.78,0,0,1,30.48,42.6c1.36-2.05,3.44-4.37,6.1-3.27,4.6,1.91,7.35,8.89,8.61,13.36,1.1,3.88-.68,7.19-1.38,11-.29,1.57-.31,6.45,1,8.8l2-.81c.3.62.55,1.19.74,1.7h0c1.52,4.19,1.94,11-3,13.4s-9.35-4.89-10.66-8.48c-.14-.37-.26-.76-.37-1.17l1.72-.71c-1.19-3.94-4.31-7-6.13-10.66A22.33,22.33,0,0,1,26.79,53.32Z"
    />
    <path class="cls-2" d="M73.21,27.09a24.78,24.78,0,0,0-3.69-10.72c-1.36-2.05-3.44-4.37-6.1-3.27C58.82,15,56.07,22,54.81,26.46c-1.1,3.88.68,7.19,1.38,10.95.29,1.57.31,6.45-1,8.8l-2-.81c-.3.61-.55,1.19-.74,1.7h0c-1.52,4.18-1.94,11,3,13.4S64.78,55.61,66.09,52c.14-.37.26-.76.37-1.17l-1.72-.71c1.19-4,4.31-7,6.13-10.66A22.33,22.33,0,0,0,73.21,27.09Z"
    />
</svg>
