<svg id="Layer_1" data-name="Layer 1" xmlns="http://www.w3.org/2000/svg" width="100" height="100" viewBox="0 0 100 100"><defs><style>.cls-1{fill:#cce1ff;stroke:#002e66;stroke-miterlimit:10;stroke-width:2px;}</style></defs><title>evolve</title><polygon class="cls-1" points="68.3 31.7 50 2.56 31.7 31.7 2.56 50 31.7 68.3 50 97.44 68.3 68.3 97.44 50 68.3 31.7"/><path d="M60.15,77.1a18.2,18.2,0,0,1-9.56-3.28c-5.32-3.39-10.43-9-14.38-15.86s-6.27-14.08-6.55-20.39c-.28-6.49,1.63-11.27,5.4-13.44s8.86-1.45,14.35,2.05c5.32,3.39,10.43,9,14.37,15.86s6.28,14.08,6.56,20.39c.28,6.49-1.64,11.27-5.4,13.44A9.49,9.49,0,0,1,60.15,77.1ZM39.86,24.49a7.88,7.88,0,0,0-4,1c-3.23,1.86-4.86,6.12-4.61,12,.27,6.06,2.52,13,6.34,19.66s8.74,12.06,13.86,15.32c4.95,3.16,9.46,3.88,12.69,2s4.86-6.12,4.6-12c-.26-6.06-2.52-13-6.34-19.66S53.66,30.78,48.55,27.52A16.7,16.7,0,0,0,39.86,24.49Z"/><path d="M39.85,77.1a9.39,9.39,0,0,1-4.79-1.23c-3.76-2.17-5.68-7-5.4-13.44.28-6.31,2.61-13.55,6.56-20.39s9.05-12.47,14.37-15.86c5.49-3.5,10.58-4.23,14.35-2.05s5.68,7,5.4,13.44c-.28,6.31-2.61,13.55-6.55,20.39S54.73,70.43,49.41,73.82a18.2,18.2,0,0,1-9.56,3.28ZM60.14,24.49a16.7,16.7,0,0,0-8.69,3c-5.11,3.26-10,8.7-13.85,15.32s-6.08,13.6-6.34,19.66c-.26,5.87,1.37,10.13,4.6,12s7.73,1.15,12.69-2c5.12-3.26,10-8.7,13.86-15.32s6.07-13.6,6.34-19.66c.25-5.87-1.38-10.13-4.61-12a7.88,7.88,0,0,0-4-1Z"/><path d="M50,65.92c-7.89,0-15.33-1.61-20.93-4.52-5.77-3-8.95-7-8.95-11.4s3.18-8.4,9-11.4c5.6-2.91,13-4.52,20.93-4.52s15.33,1.61,20.93,4.52c5.77,3,8.95,7,8.95,11.4s-3.18,8.4-8.95,11.4C65.33,64.31,57.89,65.92,50,65.92Zm0-30.24C34.41,35.68,21.72,42.1,21.72,50S34.41,64.32,50,64.32,78.28,57.9,78.28,50,65.59,35.68,50,35.68Z"/><polygon points="58.04 49.16 50 41.13 41.97 49.16 46.87 49.16 46.87 58.88 53.13 58.88 53.13 49.16 58.04 49.16"/></svg>