<?xml version="1.0" encoding="utf-8"?>
<svg id="Layer_1" data-name="Layer 1" xmlns="http://www.w3.org/2000/svg" width="100" height="100" viewBox="0 0 100 100">
    <defs>
        <style>
            .cls-1 {
                fill: #ffe4cc;
                stroke: #663800;
                stroke-miterlimit: 10;
                stroke-width: 2px;
            }
        </style>
    </defs>
    <title>raid</title>
    <polygon class="cls-1" points="68.3 31.7 50 2.56 31.7 31.7 2.56 50 31.7 68.3 50 97.44 68.3 68.3 97.44 50 68.3 31.7" />
    <path d="M68.48,37.28,58.29,44.41,53,48.14l-.1.06a4.17,4.17,0,0,1-6.59,4.62l-5.42,3.79A10.66,10.66,0,0,0,50.93,60.1l3.74,14.48Z" />
    <path d="M45,51a4.17,4.17,0,0,1,6.6-4.61L57,42.59a10.7,10.7,0,0,0-17.44,12.2Z" />
    <circle cx="48.94" cy="49.6" r="2.18" />
    <polygon points="48.94 34.98 44.09 30.13 53.78 30.13 48.94 34.98" />
    <polygon points="34.54 49.6 29.69 54.45 29.69 44.76 34.54 49.6" />
    <polygon points="38.16 38.82 31.3 38.82 38.16 31.97 38.16 38.82" />
</svg>
