<svg id="Layer_1" data-name="Layer 1" xmlns="http://www.w3.org/2000/svg" xmlns:xlink="http://www.w3.org/1999/xlink" width="100" height="100" viewBox="0 0 100 100"><defs><style>.cls-1{fill:#fffecc;stroke:#666300;stroke-miterlimit:10;stroke-width:2px;}.cls-2{fill:url(#radial-gradient);}</style><radialGradient id="radial-gradient" cx="50" cy="50" r="10.63" gradientUnits="userSpaceOnUse"><stop offset="0.84" stop-opacity="0"/><stop offset="1"/></radialGradient></defs><title>throwing-skill</title><polygon class="cls-1" points="68.3 31.7 50 2.56 31.7 31.7 2.56 50 31.7 68.3 50 97.44 68.3 68.3 97.44 50 68.3 31.7"/><path d="M66.63,50a16.61,16.61,0,0,1-1.17,6.08h2.13A18.26,18.26,0,0,0,67.6,44H65.47A16.4,16.4,0,0,1,66.63,50Z"/><path d="M44,34.53a16.39,16.39,0,0,1,6-1.15,16.61,16.61,0,0,1,6.08,1.16V32.41A18.43,18.43,0,0,0,44,32.4Z"/><path d="M33.38,50a16.39,16.39,0,0,1,1.15-6H32.4a18.43,18.43,0,0,0,0,12.12h2.13A16.61,16.61,0,0,1,33.38,50Z"/><path d="M56.08,65.46A16.61,16.61,0,0,1,50,66.63a16.4,16.4,0,0,1-6-1.16V67.6a18.26,18.26,0,0,0,12.12,0Z"/><circle class="cls-2" cx="50" cy="50" r="10.62"/><polygon points="24.38 42.37 42.37 42.37 42.37 24.38 36.88 29.87 26 19 19 26 29.87 36.88 24.38 42.37"/><polygon points="57.63 24.38 57.63 42.37 75.62 42.37 70.13 36.88 81 26 74 19 63.13 29.87 57.63 24.38"/><polygon points="24.38 57.63 42.37 57.63 42.37 75.62 36.88 70.13 26 81 19 74 29.87 63.13 24.38 57.63"/><polygon points="57.63 75.62 57.63 57.63 75.62 57.63 70.13 63.13 81 74 74 81 63.13 70.13 57.63 75.62"/></svg>