<?xml version="1.0" encoding="UTF-8" standalone="no"?>
<svg xmlns:dc="http://purl.org/dc/elements/1.1/" xmlns:cc="http://creativecommons.org/ns#" xmlns:rdf="http://www.w3.org/1999/02/22-rdf-syntax-ns#" xmlns:svg="http://www.w3.org/2000/svg" xmlns="http://www.w3.org/2000/svg" version="1.1" viewBox="0 0 100 100" height="100" width="100" data-name="Layer 1" id="Layer_1">
    <metadata id="metadata15">
        <rdf:RDF>
            <cc:Work rdf:about="">
                <dc:format>image/svg+xml</dc:format>
                <dc:type rdf:resource="http://purl.org/dc/dcmitype/StillImage"/>
                <dc:title>317</dc:title>
            </cc:Work>
        </rdf:RDF>
    </metadata>
    <defs id="defs4">
        <style id="style2">
            .compass {
                stroke-miterlimit: 10;
                stroke-width: 2px;
                fill: #d5cce6;
                stroke: #353339;
            }
            .grass {
                fill: #7f7a8a;
            }
        </style>
    </defs>
    <title id="title6">317</title>
    <polygon id="polygon8" points="68.3 31.7 50 2.56 31.7 31.7 2.56 50 31.7 68.3 50 97.44 68.3 68.3 97.44 50 68.3 31.7" class="compass"/>
    <path id="path10" d="M66,64.21c1.2-21.07-3.68-26.9-3.68-26.9a121.93,121.93,0,0,1-.93,24.42,72.93,72.93,0,0,0-3.24-15.79s-.69,7.23-2,15.55A220.68,220.68,0,0,1,57,28.22s-2.7,8.42-5.31,20.7c-1.43-5.06-3.3-10.72-5.73-17,0,0,.58,11,.36,23.14-2.93-7.26-5.74-9.87-5.74-9.87a73,73,0,0,1,2.21,12,32.39,32.39,0,0,0-6.48-9.31,118,118,0,0,1,3.25,21.16c-5.83-10.51-12.81-14.2-12.81-14.2a43.29,43.29,0,0,1,7.73,16L50,95.56,65.28,71.22l2.29-3.65.29-.18a39.63,39.63,0,0,1,7.94-8.81A30.74,30.74,0,0,0,66,64.21Z" class="grass"/>
    <g id="text19" style="font-style:normal;font-variant:normal;font-weight:bold;font-stretch:condensed;font-size:16px;line-height:1.25;font-family:'Liberation Sans Narrow';-inkscape-font-specification:'Liberation Sans Narrow, Bold Condensed';font-variant-ligatures:normal;font-variant-caps:normal;font-variant-numeric:normal;font-feature-settings:normal;text-align:center;letter-spacing:0px;word-spacing:0px;writing-mode:lr-tb;text-anchor:middle;fill:#353339;fill-opacity:1;stroke:none" aria-label="317">
        <path id="path14" style="" d="m 45.996094,70.169083 q 0,0.75 -0.203125,1.351562 -0.195313,0.59375 -0.601563,1.015625 -0.40625,0.421875 -1.007812,0.648438 -0.59375,0.21875 -1.390625,0.21875 -0.882813,0 -1.492188,-0.273438 -0.601562,-0.273437 -0.992187,-0.71875 -0.382813,-0.453125 -0.578125,-1.023437 -0.195313,-0.570313 -0.25,-1.15625 l 1.828125,-0.195313 q 0.03906,0.351563 0.140625,0.648438 0.109375,0.289062 0.289062,0.5 0.179688,0.210937 0.4375,0.328125 0.257813,0.109375 0.609375,0.109375 0.648438,0 1.007813,-0.390625 0.359375,-0.390625 0.359375,-1.195313 0,-0.492187 -0.171875,-0.789062 -0.164063,-0.296875 -0.429688,-0.453125 -0.257812,-0.164063 -0.5625,-0.21875 -0.296875,-0.05469 -0.5625,-0.05469 h -0.632812 v -1.773437 h 0.59375 q 0.265625,0 0.546875,-0.0625 0.28125,-0.0625 0.5,-0.226563 0.226562,-0.164062 0.367187,-0.453125 0.140625,-0.296875 0.140625,-0.75 0,-0.679687 -0.3125,-1.0625 -0.304687,-0.390625 -0.90625,-0.390625 -0.554687,0 -0.898437,0.375 -0.34375,0.375 -0.390625,1.0625 l -1.804688,-0.15625 q 0.07813,-0.773437 0.351563,-1.34375 0.273437,-0.570312 0.6875,-0.945312 0.414062,-0.375 0.945312,-0.554688 0.539063,-0.1875 1.140625,-0.1875 0.796875,0 1.367188,0.234375 0.570312,0.234375 0.9375,0.632813 0.367187,0.398437 0.539062,0.929687 0.171875,0.53125 0.171875,1.132813 0,0.484375 -0.117187,0.90625 -0.117188,0.414062 -0.351563,0.75 -0.234375,0.328125 -0.601562,0.570312 -0.359375,0.234375 -0.859375,0.351563 v 0.03125 q 0.554687,0.07813 0.960937,0.3125 0.414063,0.226562 0.679688,0.570312 0.265625,0.34375 0.390625,0.78125 0.125,0.429688 0.125,0.914063 z"/>
        <path id="path16" style="" d="m 47.316406,73.22377 v -1.632812 h 2.234375 v -7.507813 l -2.164062,1.648438 V 64.00502 l 2.257812,-1.789062 h 1.703125 v 9.375 h 2.070313 v 1.632812 z"/>
        <path id="path18" style="" d="m 60.519531,63.958145 q 0,0 -1.148437,2.273438 -0.539063,1.101562 -0.945313,2.21875 -0.40625,1.109375 -0.640625,2.289062 -0.226562,1.171875 -0.226562,2.484375 h -1.882813 q 0,-1.304687 0.25,-2.476562 0.257813,-1.179688 0.695313,-2.296875 0.4375,-1.117188 1.007812,-2.210938 l 1.21875,-2.21875 h -4.484375 v -1.804687 h 6.15625 z"/>
    </g>
    <g id="text23" style="font-style:normal;font-variant:normal;font-weight:bold;font-stretch:condensed;font-size:24px;line-height:1.25;font-family:'Liberation Sans Narrow';-inkscape-font-specification:'Liberation Sans Narrow, Bold Condensed';font-variant-ligatures:normal;font-variant-caps:normal;font-variant-numeric:normal;font-feature-settings:normal;text-align:center;letter-spacing:0px;word-spacing:0px;writing-mode:lr-tb;text-anchor:middle;fill:#000000;fill-opacity:1;stroke:#ffffff;stroke-width:0px" aria-label="SW.LT">
        <path id="path21" style="" d="m 32.984375,53.242187 q 0,1.125 -0.339844,2.050782 -0.328125,0.914062 -1.042969,1.570312 -0.703125,0.65625 -1.804687,1.019531 -1.089844,0.351563 -2.613281,0.351563 -1.347657,0 -2.378907,-0.292969 Q 23.785156,57.648437 23.046875,57.074219 22.308594,56.5 21.851562,55.65625 21.40625,54.800781 21.195312,53.699219 L 23.9375,53.148437 q 0.117187,0.550782 0.339844,1.007813 0.222656,0.457031 0.609375,0.796875 0.386718,0.328125 0.960937,0.515625 0.585938,0.175781 1.417969,0.175781 1.441406,0 2.203125,-0.527344 0.761719,-0.539062 0.761719,-1.675781 0,-0.679687 -0.304688,-1.113281 -0.304687,-0.433594 -0.820312,-0.714844 -0.503907,-0.28125 -1.171875,-0.46875 -0.65625,-0.1875 -1.382813,-0.363281 0,0 -1.160156,-0.339844 -0.574219,-0.175781 -1.101563,-0.421875 -0.515625,-0.246094 -0.972656,-0.585937 -0.445312,-0.339844 -0.785156,-0.832032 -0.328125,-0.503906 -0.515625,-1.171875 -0.1875,-0.667968 -0.1875,-1.570312 0,-1.230469 0.398437,-2.109375 0.410157,-0.878906 1.125,-1.429688 0.726563,-0.5625 1.710938,-0.820312 0.984375,-0.257813 2.15625,-0.257813 1.324219,0 2.273437,0.257813 0.949219,0.246094 1.582032,0.761719 0.644531,0.515625 1.007812,1.300781 0.375,0.773437 0.550781,1.816406 l -2.742187,0.457031 q -0.210938,-1.066406 -0.867188,-1.605468 -0.644531,-0.539063 -1.851562,-0.539063 -0.75,0 -1.253906,0.164063 -0.492188,0.152343 -0.785157,0.421875 -0.292968,0.269531 -0.421875,0.632812 -0.117187,0.351563 -0.117187,0.75 0,0.609375 0.234375,1.007813 0.246094,0.386718 0.679687,0.65625 0.433594,0.257812 1.03125,0.445312 0.597657,0.175781 1.324219,0.363281 0.632813,0.164063 1.253906,0.351563 0.621094,0.175781 1.183594,0.421875 0.574219,0.246094 1.066406,0.597656 0.492188,0.351563 0.84375,0.867188 0.363282,0.503906 0.5625,1.207031 0.210938,0.703125 0.210938,1.664062 z"/>
        <path id="path23" style="" d="M 48.816406,58 H 45.453125 L 43.613281,48.449219 Q 43.53125,48.015625 43.4375,47.417969 l -0.199219,-1.160157 q -0.105469,-0.644531 -0.1875,-1.335937 0,0 -0.210937,1.347656 0,0 -0.09375,0.574219 -0.04687,0.304687 -0.105469,0.585937 l -0.09375,0.550782 Q 42.5,48.238281 42.453125,48.449219 L 40.625,58 H 37.261719 L 33.78125,41.488281 h 2.871094 l 1.6875,9.1875 0.269531,1.476563 0.234375,1.300781 q 0.117187,0.667969 0.210937,1.277344 l 0.28125,-1.6875 q 0,0 0.117188,-0.726563 l 0.140625,-0.738281 0.117187,-0.703125 0.105469,-0.597656 1.675781,-8.789063 h 3.175782 l 1.710937,8.789063 q 0.05859,0.28125 0.105469,0.621093 L 46.601562,51.625 q 0.05859,0.363281 0.117188,0.738281 0.05859,0.363281 0.105469,0.714844 l 0.234375,1.652344 q 0,0 0.234375,-1.359375 0,0 0.246093,-1.3125 0.128907,-0.714844 0.269532,-1.382813 l 1.628906,-9.1875 h 2.871094 z"/>
        <path id="path25" style="" d="m 52.578125,58 v -3.574219 h 2.777344 V 58 Z"/>
        <path id="path27" style="" d="M 58.039062,58 V 41.488281 H 60.875 v 13.839844 h 7.265625 V 58 Z"/>
        <path id="path29" style="" d="M 74.75,44.160156 V 58 H 71.914062 V 44.160156 h -4.371093 v -2.671875 h 11.589843 v 2.671875 z"/>
    </g>
</svg>
