<?xml version="1.0" encoding="UTF-8" standalone="no"?>
<svg xmlns:dc="http://purl.org/dc/elements/1.1/" xmlns:cc="http://creativecommons.org/ns#" xmlns:rdf="http://www.w3.org/1999/02/22-rdf-syntax-ns#" xmlns:svg="http://www.w3.org/2000/svg" xmlns="http://www.w3.org/2000/svg" version="1.1" viewBox="0 0 100 100" height="100" width="100" data-name="Layer 1" id="Layer_1">
    <metadata id="metadata15">
        <rdf:RDF>
            <cc:Work rdf:about="">
                <dc:format>image/svg+xml</dc:format>
                <dc:type rdf:resource="http://purl.org/dc/dcmitype/StillImage"/>
                <dc:title>107</dc:title>
            </cc:Work>
        </rdf:RDF>
    </metadata>
    <defs id="defs4">
        <style id="style2">
            .compass {
                stroke-miterlimit: 10;
                stroke-width: 2px;
                fill: #eeb3aa;
                stroke: #3b2c2a;
            }
            .grass {
                fill: #8e6b66;
            }
        </style>
    </defs>
    <title id="title6">107</title>
    <polygon id="polygon8" points="68.3 31.7 50 2.56 31.7 31.7 2.56 50 31.7 68.3 50 97.44 68.3 68.3 97.44 50 68.3 31.7" class="compass"/>
    <path id="path10" d="M66,64.21c1.2-21.07-3.68-26.9-3.68-26.9a121.93,121.93,0,0,1-.93,24.42,72.93,72.93,0,0,0-3.24-15.79s-.69,7.23-2,15.55A220.68,220.68,0,0,1,57,28.22s-2.7,8.42-5.31,20.7c-1.43-5.06-3.3-10.72-5.73-17,0,0,.58,11,.36,23.14-2.93-7.26-5.74-9.87-5.74-9.87a73,73,0,0,1,2.21,12,32.39,32.39,0,0,0-6.48-9.31,118,118,0,0,1,3.25,21.16c-5.83-10.51-12.81-14.2-12.81-14.2a43.29,43.29,0,0,1,7.73,16L50,95.56,65.28,71.22l2.29-3.65.29-.18a39.63,39.63,0,0,1,7.94-8.81A30.74,30.74,0,0,0,66,64.21Z" class="grass"/>
    <g id="text19" style="font-style:normal;font-variant:normal;font-weight:bold;font-stretch:condensed;font-size:16px;line-height:1.25;font-family:'Liberation Sans Narrow';-inkscape-font-specification:'Liberation Sans Narrow, Bold Condensed';font-variant-ligatures:normal;font-variant-caps:normal;font-variant-numeric:normal;font-feature-settings:normal;text-align:center;letter-spacing:0px;word-spacing:0px;writing-mode:lr-tb;text-anchor:middle;fill:#3b2c2a;fill-opacity:1;stroke:none" aria-label="107">
        <path id="path14" style="" d="m 40.003906,73.22377 v -1.632812 h 2.234375 v -7.507813 l -2.164062,1.648438 V 64.00502 l 2.257812,-1.789062 h 1.703125 v 9.375 h 2.070313 v 1.632812 z"/>
        <path id="path16" style="" d="m 53.246094,67.715958 q 0,1.578125 -0.242188,2.664062 -0.234375,1.078125 -0.65625,1.75 -0.414062,0.664063 -0.992187,0.960938 -0.570313,0.289062 -1.25,0.289062 -0.679688,0 -1.25,-0.289062 -0.570313,-0.289063 -0.984375,-0.953125 -0.40625,-0.671875 -0.640625,-1.75 -0.226563,-1.085938 -0.226563,-2.671875 0,-1.664063 0.226563,-2.75 0.234375,-1.09375 0.648437,-1.742188 0.414063,-0.648437 0.992188,-0.90625 0.585937,-0.265625 1.289062,-0.265625 0.65625,0 1.21875,0.265625 0.570313,0.257813 0.984375,0.90625 0.414063,0.648438 0.648438,1.742188 0.234375,1.085937 0.234375,2.75 z m -1.804688,0 q 0,-1.164063 -0.07031,-1.921875 -0.07031,-0.765625 -0.226563,-1.210938 -0.15625,-0.453125 -0.40625,-0.632812 -0.242187,-0.179688 -0.59375,-0.179688 -0.375,0 -0.632812,0.1875 -0.257813,0.179688 -0.414063,0.632813 -0.15625,0.453125 -0.226562,1.21875 -0.0625,0.757812 -0.0625,1.90625 0,1.132812 0.07031,1.890625 0.07031,0.757812 0.21875,1.21875 0.15625,0.453125 0.40625,0.640625 0.25,0.1875 0.617188,0.1875 0.351562,0 0.601562,-0.1875 0.25,-0.1875 0.40625,-0.640625 0.164063,-0.460938 0.234375,-1.21875 0.07813,-0.757813 0.07813,-1.890625 z"/>
        <path id="path18" style="" d="m 60.519531,63.958145 q 0,0 -1.148437,2.273438 -0.539063,1.101562 -0.945313,2.21875 -0.40625,1.109375 -0.640625,2.289062 -0.226562,1.171875 -0.226562,2.484375 h -1.882813 q 0,-1.304687 0.25,-2.476562 0.257813,-1.179688 0.695313,-2.296875 0.4375,-1.117188 1.007812,-2.210938 l 1.21875,-2.21875 h -4.484375 v -1.804687 h 6.15625 z"/>
    </g>
    <g id="text23" style="font-style:normal;font-variant:normal;font-weight:bold;font-stretch:condensed;font-size:24px;line-height:1.25;font-family:'Liberation Sans Narrow';-inkscape-font-specification:'Liberation Sans Narrow, Bold Condensed';font-variant-ligatures:normal;font-variant-caps:normal;font-variant-numeric:normal;font-feature-settings:normal;text-align:center;letter-spacing:0px;word-spacing:0px;writing-mode:lr-tb;text-anchor:middle;fill:#000000;fill-opacity:1;stroke:#ffffff;stroke-width:0px" aria-label="H.CHAN">
        <path id="path21" style="" d="M 21.792969,58 V 50.921875 H 15.898438 V 58 H 13.0625 V 41.488281 h 2.835938 V 48.0625 h 5.894531 v -6.574219 h 2.835937 V 58 Z"/>
        <path id="path23" style="" d="m 27.289062,58 v -3.574219 h 2.777344 V 58 Z"/>
        <path id="path25" style="" d="m 39.066406,55.515625 q 0.796875,0 1.382813,-0.269531 0.585937,-0.28125 1.007812,-0.726563 0.433594,-0.445312 0.714844,-1.007812 0.28125,-0.5625 0.46875,-1.136719 l 2.460937,1.136719 q -0.292968,0.890625 -0.773437,1.746093 -0.480469,0.855469 -1.207031,1.511719 -0.714844,0.65625 -1.710938,1.066406 -0.996094,0.398438 -2.34375,0.398438 -1.757812,0 -3.046875,-0.632813 -1.277344,-0.644531 -2.121094,-1.78125 -0.84375,-1.148437 -1.253906,-2.71875 -0.398437,-1.570312 -0.398437,-3.433593 0,-1.933594 0.398437,-3.492188 0.410156,-1.558594 1.230469,-2.648437 0.832031,-1.101563 2.097656,-1.6875 1.265625,-0.597657 2.976563,-0.597657 1.324218,0 2.320312,0.339844 0.996094,0.339844 1.710938,0.960938 0.726562,0.609375 1.195312,1.453125 0.480469,0.832031 0.75,1.839843 l -2.496094,0.832032 q -0.128906,-0.527344 -0.410156,-1.007813 -0.28125,-0.492187 -0.714844,-0.867187 -0.421875,-0.375 -0.996093,-0.597657 -0.574219,-0.234375 -1.300782,-0.234375 -1.03125,0 -1.769531,0.410157 -0.738281,0.398437 -1.21875,1.148437 -0.46875,0.75 -0.703125,1.804688 -0.222656,1.042968 -0.222656,2.34375 0,1.289062 0.222656,2.367187 0.234375,1.066406 0.714844,1.839844 0.480469,0.773437 1.230469,1.207031 0.75,0.433594 1.804687,0.433594 z"/>
        <path id="path27" style="" d="M 55.683594,58 V 50.921875 H 49.789062 V 58 H 46.953125 V 41.488281 h 2.835937 V 48.0625 h 5.894532 v -6.574219 h 2.835937 V 58 Z"/>
        <path id="path29" style="" d="m 70.71875,58 -1.195313,-4.21875 h -5.15625 L 63.171875,58 h -2.835938 l 4.933594,-16.511719 h 3.339844 L 73.53125,58 Z M 67.554687,46.433594 q 0,0 -0.234375,-0.832032 -0.105468,-0.410156 -0.1875,-0.75 l -0.140625,-0.574218 q -0.04687,-0.222657 -0.04687,-0.246094 -0.01172,0.03516 -0.05859,0.257812 -0.04687,0.222657 -0.128907,0.5625 -0.08203,0.339844 -0.1875,0.75 L 66.335937,46.433594 65,51.179687 h 3.890625 z"/>
        <path id="path31" style="" d="M 83.597656,58 77.703125,45.285156 q 0.04687,0.515625 0.09375,1.03125 0.03516,0.445313 0.05859,0.960938 0.02344,0.515625 0.02344,0.984375 V 58 H 75.359375 V 41.488281 h 3.234375 l 5.988281,12.820313 q -0.04687,-0.492188 -0.08203,-1.03125 -0.03516,-0.457032 -0.07031,-1.03125 -0.02344,-0.574219 -0.02344,-1.160157 v -9.597656 h 2.519531 V 58 Z"/>
    </g>
</svg>
