<?xml version="1.0" encoding="UTF-8" standalone="no"?>
<svg xmlns:dc="http://purl.org/dc/elements/1.1/" xmlns:cc="http://creativecommons.org/ns#" xmlns:rdf="http://www.w3.org/1999/02/22-rdf-syntax-ns#" xmlns:svg="http://www.w3.org/2000/svg" xmlns="http://www.w3.org/2000/svg" version="1.1" viewBox="0 0 100 100" height="100" width="100" data-name="Layer 1" id="Layer_1">
    <metadata id="metadata15">
        <rdf:RDF>
            <cc:Work rdf:about="">
                <dc:format>image/svg+xml</dc:format>
                <dc:type rdf:resource="http://purl.org/dc/dcmitype/StillImage"/>
                <dc:title>125</dc:title>
            </cc:Work>
        </rdf:RDF>
    </metadata>
    <defs id="defs4">
        <style id="style2">
            .compass {
                stroke-miterlimit: 10;
                stroke-width: 2px;
                fill: #ffee77;
                stroke: #3f3b1d;
            }
            .grass {
                fill: #998e47;
            }
        </style>
    </defs>
    <title id="title6">125</title>
    <polygon id="polygon8" points="68.3 31.7 50 2.56 31.7 31.7 2.56 50 31.7 68.3 50 97.44 68.3 68.3 97.44 50 68.3 31.7" class="compass"/>
    <path id="path10" d="M66,64.21c1.2-21.07-3.68-26.9-3.68-26.9a121.93,121.93,0,0,1-.93,24.42,72.93,72.93,0,0,0-3.24-15.79s-.69,7.23-2,15.55A220.68,220.68,0,0,1,57,28.22s-2.7,8.42-5.31,20.7c-1.43-5.06-3.3-10.72-5.73-17,0,0,.58,11,.36,23.14-2.93-7.26-5.74-9.87-5.74-9.87a73,73,0,0,1,2.21,12,32.39,32.39,0,0,0-6.48-9.31,118,118,0,0,1,3.25,21.16c-5.83-10.51-12.81-14.2-12.81-14.2a43.29,43.29,0,0,1,7.73,16L50,95.56,65.28,71.22l2.29-3.65.29-.18a39.63,39.63,0,0,1,7.94-8.81A30.74,30.74,0,0,0,66,64.21Z" class="grass"/>
    <g id="text19" style="font-style:normal;font-variant:normal;font-weight:bold;font-stretch:condensed;font-size:16px;line-height:1.25;font-family:'Liberation Sans Narrow';-inkscape-font-specification:'Liberation Sans Narrow, Bold Condensed';font-variant-ligatures:normal;font-variant-caps:normal;font-variant-numeric:normal;font-feature-settings:normal;text-align:center;letter-spacing:0px;word-spacing:0px;writing-mode:lr-tb;text-anchor:middle;fill:#3f3b1d;fill-opacity:1;stroke:none" aria-label="125">
        <path id="path14" style="" d="m 40.003906,73.22377 v -1.632812 h 2.234375 v -7.507813 l -2.164062,1.648438 V 64.00502 l 2.257812,-1.789062 h 1.703125 v 9.375 h 2.070313 v 1.632812 z"/>
        <path id="path16" style="" d="m 46.941406,73.22377 v -1.523437 q 0.304688,-0.820313 0.75,-1.476563 0.445313,-0.664062 0.929688,-1.210937 0.484375,-0.554688 0.960937,-1.023438 0.476563,-0.476562 0.851563,-0.914062 0.382812,-0.445313 0.617187,-0.890625 0.242188,-0.445313 0.242188,-0.945313 0,-0.734375 -0.304688,-1.085937 -0.296875,-0.351563 -0.882812,-0.351563 -0.578125,0 -0.882813,0.382813 -0.296875,0.375 -0.390625,1.132812 l -1.8125,-0.125 q 0.0625,-0.648437 0.257813,-1.21875 0.203125,-0.570312 0.570312,-1 0.367188,-0.429687 0.921875,-0.671875 0.554688,-0.25 1.328125,-0.25 0.726563,0 1.289063,0.210938 0.5625,0.203125 0.945312,0.601562 0.390625,0.398438 0.585938,0.976563 0.203125,0.570312 0.203125,1.304687 0,0.773438 -0.25,1.398438 -0.25,0.625 -0.640625,1.15625 -0.390625,0.523437 -0.867188,0.984375 l -0.921875,0.898437 q -0.453125,0.4375 -0.828125,0.882813 -0.367187,0.445312 -0.546875,0.953125 h 4.195313 v 1.804687 z"/>
        <path id="path18" style="" d="m 60.730469,69.559708 q 0,0.828125 -0.21875,1.53125 -0.210938,0.695312 -0.632813,1.210937 -0.421875,0.507813 -1.046875,0.796875 -0.625,0.28125 -1.445312,0.28125 -0.757813,0 -1.320313,-0.21875 -0.5625,-0.226562 -0.953125,-0.617187 -0.382812,-0.398438 -0.609375,-0.929688 -0.21875,-0.53125 -0.296875,-1.140625 l 1.796875,-0.179687 q 0.05469,0.257812 0.140625,0.5 0.09375,0.242187 0.257813,0.429687 0.171875,0.1875 0.414062,0.304688 0.242188,0.109375 0.59375,0.109375 0.671875,0 1.070313,-0.523438 0.398437,-0.523437 0.398437,-1.507812 0,-0.4375 -0.101562,-0.789063 -0.09375,-0.351562 -0.28125,-0.601562 -0.179688,-0.25 -0.445313,-0.382813 -0.265625,-0.132812 -0.601562,-0.132812 -0.445313,0 -0.742188,0.210937 -0.289062,0.203125 -0.484375,0.5 h -1.757812 l 0.3125,-6.195312 h 5.429687 v 1.632812 h -3.789062 l -0.148438,2.78125 q 0.265625,-0.289062 0.671875,-0.492187 0.414063,-0.210938 0.960938,-0.210938 0.664062,0 1.1875,0.265625 0.53125,0.265625 0.890625,0.742188 0.367187,0.476562 0.554687,1.148437 0.195313,0.664063 0.195313,1.476563 z"/>
    </g>
    <g id="text23" style="font-style:normal;font-variant:normal;font-weight:bold;font-stretch:condensed;font-size:24px;line-height:1.25;font-family:'Liberation Sans Narrow';-inkscape-font-specification:'Liberation Sans Narrow, Bold Condensed';font-variant-ligatures:normal;font-variant-caps:normal;font-variant-numeric:normal;font-feature-settings:normal;text-align:center;letter-spacing:0px;word-spacing:0px;writing-mode:lr-tb;text-anchor:middle;fill:#000000;fill-opacity:1;stroke:#ffffff;stroke-width:0px" aria-label="E.BUZZ">
        <path id="path21" style="" d="M 15.757813,58 V 41.488281 h 10.652343 v 2.671875 H 18.59375 v 4.148438 h 7.230469 v 2.671875 H 18.59375 v 4.347656 h 8.203125 V 58 Z"/>
        <path id="path23" style="" d="m 28.90625,58 v -3.574219 h 2.777344 V 58 Z"/>
        <path id="path25" style="" d="m 46.367187,53.289062 q 0,1.253907 -0.421875,2.15625 -0.410156,0.890625 -1.125,1.464844 -0.714843,0.5625 -1.664062,0.832031 Q 42.207031,58 41.140625,58 H 34.367187 V 41.488281 h 6.199219 q 1.195313,0 2.132813,0.257813 0.9375,0.246093 1.582031,0.761718 0.644531,0.515625 0.972656,1.300782 0.328125,0.773437 0.328125,1.828125 0,1.40625 -0.644531,2.378906 -0.632813,0.960937 -1.933594,1.300781 1.640625,0.234375 2.496094,1.265625 0.867187,1.019531 0.867187,2.707031 z m -3.632812,-7.183593 q 0,-1.113282 -0.585938,-1.582032 -0.574218,-0.46875 -1.722656,-0.46875 h -3.222656 v 4.089844 h 3.246094 q 1.195312,0 1.734375,-0.503906 0.550781,-0.515625 0.550781,-1.535156 z m 0.785156,6.914062 q 0,-0.65625 -0.210937,-1.101562 Q 43.097656,51.472656 42.722656,51.203125 42.359375,50.933594 41.867187,50.816406 41.375,50.699219 40.789062,50.699219 h -3.585937 v 4.734375 h 3.703125 q 0.5625,0 1.03125,-0.105469 0.480469,-0.117188 0.832031,-0.386719 0.351563,-0.28125 0.550781,-0.75 0.199219,-0.46875 0.199219,-1.171875 z"/>
        <path id="path27" style="" d="m 54.195312,58.234375 q -1.265625,0 -2.320312,-0.363281 -1.054688,-0.375 -1.816406,-1.148438 Q 49.296875,55.9375 48.863281,54.71875 48.441406,53.5 48.441406,51.8125 V 41.488281 h 2.835938 v 10.054688 q 0,1.042968 0.210937,1.804687 0.210938,0.75 0.597656,1.242188 0.398438,0.480468 0.949219,0.714843 0.5625,0.222657 1.242188,0.222657 0.691406,0 1.265625,-0.234375 0.585937,-0.246094 0.996093,-0.75 0.421875,-0.503907 0.65625,-1.277344 0.234375,-0.773438 0.234375,-1.839844 v -9.9375 h 2.835938 v 10.148438 q 0,1.699218 -0.457031,2.941406 -0.445313,1.242187 -1.253907,2.0625 -0.808593,0.808594 -1.921875,1.207031 -1.113281,0.386719 -2.4375,0.386719 z"/>
        <path id="path29" style="" d="m 72.921875,58 h -10.875 v -2.449219 l 7.324219,-11.355469 h -6.597657 v -2.707031 h 9.75 v 2.402344 l -7.324218,11.402344 h 7.722656 z"/>
        <path id="path31" style="" d="m 84.96875,58 h -10.875 v -2.449219 l 7.324219,-11.355469 h -6.597657 v -2.707031 h 9.75 v 2.402344 l -7.324218,11.402344 h 7.722656 z"/>
    </g>
</svg>
