<?xml version="1.0" encoding="UTF-8" standalone="no"?>
<svg xmlns:dc="http://purl.org/dc/elements/1.1/" xmlns:cc="http://creativecommons.org/ns#" xmlns:rdf="http://www.w3.org/1999/02/22-rdf-syntax-ns#" xmlns:svg="http://www.w3.org/2000/svg" xmlns="http://www.w3.org/2000/svg" version="1.1" viewBox="0 0 100 100" height="100" width="100" data-name="Layer 1" id="Layer_1">
    <metadata id="metadata15">
        <rdf:RDF>
            <cc:Work rdf:about="">
                <dc:format>image/svg+xml</dc:format>
                <dc:type rdf:resource="http://purl.org/dc/dcmitype/StillImage"/>
                <dc:title>30</dc:title>
            </cc:Work>
        </rdf:RDF>
    </metadata>
    <defs id="defs4">
        <style id="style2">
            .compass {
                stroke-miterlimit: 10;
                stroke-width: 2px;
                fill: #cceeee;
                stroke: #333b3b;
            }
            .grass {
                fill: #7a8e8e;
            }
        </style>
    </defs>
    <title id="title6">30</title>
    <polygon id="polygon8" points="68.3 31.7 50 2.56 31.7 31.7 2.56 50 31.7 68.3 50 97.44 68.3 68.3 97.44 50 68.3 31.7" class="compass"/>
    <path id="path10" d="M66,64.21c1.2-21.07-3.68-26.9-3.68-26.9a121.93,121.93,0,0,1-.93,24.42,72.93,72.93,0,0,0-3.24-15.79s-.69,7.23-2,15.55A220.68,220.68,0,0,1,57,28.22s-2.7,8.42-5.31,20.7c-1.43-5.06-3.3-10.72-5.73-17,0,0,.58,11,.36,23.14-2.93-7.26-5.74-9.87-5.74-9.87a73,73,0,0,1,2.21,12,32.39,32.39,0,0,0-6.48-9.31,118,118,0,0,1,3.25,21.16c-5.83-10.51-12.81-14.2-12.81-14.2a43.29,43.29,0,0,1,7.73,16L50,95.56,65.28,71.22l2.29-3.65.29-.18a39.63,39.63,0,0,1,7.94-8.81A30.74,30.74,0,0,0,66,64.21Z" class="grass"/>
    <g id="text19" style="font-style:normal;font-variant:normal;font-weight:bold;font-stretch:condensed;font-size:16px;line-height:1.25;font-family:'Liberation Sans Narrow';-inkscape-font-specification:'Liberation Sans Narrow, Bold Condensed';font-variant-ligatures:normal;font-variant-caps:normal;font-variant-numeric:normal;font-feature-settings:normal;text-align:center;letter-spacing:0px;word-spacing:0px;writing-mode:lr-tb;text-anchor:middle;fill:#333b3b;fill-opacity:1;stroke:none" aria-label="30">
        <path id="path14" style="" d="m 49.652344,70.169083 q 0,0.75 -0.203125,1.351562 -0.195313,0.59375 -0.601563,1.015625 -0.40625,0.421875 -1.007812,0.648438 -0.59375,0.21875 -1.390625,0.21875 -0.882813,0 -1.492188,-0.273438 -0.601562,-0.273437 -0.992187,-0.71875 -0.382813,-0.453125 -0.578125,-1.023437 -0.195313,-0.570313 -0.25,-1.15625 l 1.828125,-0.195313 q 0.03906,0.351563 0.140625,0.648438 0.109375,0.289062 0.289062,0.5 0.179688,0.210937 0.4375,0.328125 0.257813,0.109375 0.609375,0.109375 0.648438,0 1.007813,-0.390625 0.359375,-0.390625 0.359375,-1.195313 0,-0.492187 -0.171875,-0.789062 -0.164063,-0.296875 -0.429688,-0.453125 -0.257812,-0.164063 -0.5625,-0.21875 -0.296875,-0.05469 -0.5625,-0.05469 h -0.632812 v -1.773437 h 0.59375 q 0.265625,0 0.546875,-0.0625 0.28125,-0.0625 0.5,-0.226563 0.226562,-0.164062 0.367187,-0.453125 0.140625,-0.296875 0.140625,-0.75 0,-0.679687 -0.3125,-1.0625 -0.304687,-0.390625 -0.90625,-0.390625 -0.554687,0 -0.898437,0.375 -0.34375,0.375 -0.390625,1.0625 l -1.804688,-0.15625 q 0.07813,-0.773437 0.351563,-1.34375 0.273437,-0.570312 0.6875,-0.945312 0.414062,-0.375 0.945312,-0.554688 0.539063,-0.1875 1.140625,-0.1875 0.796875,0 1.367188,0.234375 0.570312,0.234375 0.9375,0.632813 0.367187,0.398437 0.539062,0.929687 0.171875,0.53125 0.171875,1.132813 0,0.484375 -0.117187,0.90625 -0.117188,0.414062 -0.351563,0.75 -0.234375,0.328125 -0.601562,0.570312 -0.359375,0.234375 -0.859375,0.351563 v 0.03125 q 0.554687,0.07813 0.960937,0.3125 0.414063,0.226562 0.679688,0.570312 0.265625,0.34375 0.390625,0.78125 0.125,0.429688 0.125,0.914063 z"/>
        <path id="path16" style="" d="m 56.902344,67.715958 q 0,1.578125 -0.242188,2.664062 -0.234375,1.078125 -0.65625,1.75 -0.414062,0.664063 -0.992187,0.960938 -0.570313,0.289062 -1.25,0.289062 -0.679688,0 -1.25,-0.289062 -0.570313,-0.289063 -0.984375,-0.953125 -0.40625,-0.671875 -0.640625,-1.75 -0.226563,-1.085938 -0.226563,-2.671875 0,-1.664063 0.226563,-2.75 0.234375,-1.09375 0.648437,-1.742188 0.414063,-0.648437 0.992188,-0.90625 0.585937,-0.265625 1.289062,-0.265625 0.65625,0 1.21875,0.265625 0.570313,0.257813 0.984375,0.90625 0.414063,0.648438 0.648438,1.742188 0.234375,1.085937 0.234375,2.75 z m -1.804688,0 q 0,-1.164063 -0.07031,-1.921875 -0.07031,-0.765625 -0.226563,-1.210938 -0.15625,-0.453125 -0.40625,-0.632812 -0.242187,-0.179688 -0.59375,-0.179688 -0.375,0 -0.632812,0.1875 -0.257813,0.179688 -0.414063,0.632813 -0.15625,0.453125 -0.226562,1.21875 -0.0625,0.757812 -0.0625,1.90625 0,1.132812 0.07031,1.890625 0.07031,0.757812 0.21875,1.21875 0.15625,0.453125 0.40625,0.640625 0.25,0.1875 0.617188,0.1875 0.351562,0 0.601562,-0.1875 0.25,-0.1875 0.40625,-0.640625 0.164063,-0.460938 0.234375,-1.21875 0.07813,-0.757813 0.07813,-1.890625 z"/>
    </g>
    <g id="text23" style="font-style:normal;font-variant:normal;font-weight:bold;font-stretch:condensed;font-size:24px;line-height:1.25;font-family:'Liberation Sans Narrow';-inkscape-font-specification:'Liberation Sans Narrow, Bold Condensed';font-variant-ligatures:normal;font-variant-caps:normal;font-variant-numeric:normal;font-feature-settings:normal;text-align:center;letter-spacing:0px;word-spacing:0px;writing-mode:lr-tb;text-anchor:middle;fill:#000000;fill-opacity:1;stroke:#ffffff;stroke-width:0px" aria-label="N.RINA">
        <path id="path19" style="" d="M 25.660156,58 19.765625,45.285156 q 0.04687,0.515625 0.09375,1.03125 0.03516,0.445313 0.05859,0.960938 0.02344,0.515625 0.02344,0.984375 V 58 H 17.421875 V 41.488281 h 3.234375 l 5.988281,12.820313 q -0.04687,-0.492188 -0.08203,-1.03125 -0.03516,-0.457032 -0.07031,-1.03125 -0.02344,-0.574219 -0.02344,-1.160157 v -9.597656 h 2.519531 V 58 Z"/>
        <path id="path21" style="" d="m 31.648437,58 v -3.574219 h 2.777344 V 58 Z"/>
        <path id="path23" style="" d="M 46.414062,58 43.273437,51.730469 H 39.945312 V 58 H 37.109375 V 41.488281 h 6.761719 q 1.265625,0 2.214843,0.351563 0.949219,0.339843 1.582032,0.984375 0.632812,0.632812 0.9375,1.546875 0.316406,0.902343 0.316406,2.039062 0,0.925781 -0.222656,1.699219 -0.222657,0.761719 -0.621094,1.359375 -0.398438,0.597656 -0.949219,1.007812 Q 46.578125,50.875 45.933594,51.0625 L 49.601562,58 Z M 46.074219,46.550781 q 0,-1.207031 -0.65625,-1.792969 -0.644532,-0.585937 -1.839844,-0.585937 h -3.632813 v 4.875 h 3.703125 q 0.632813,0 1.089844,-0.175781 0.457031,-0.1875 0.75,-0.515625 0.292969,-0.339844 0.433594,-0.796875 0.152344,-0.457032 0.152344,-1.007813 z"/>
        <path id="path25" style="" d="M 51.3125,58 V 41.488281 h 2.847656 V 58 Z"/>
        <path id="path27" style="" d="M 65.035156,58 59.140625,45.285156 q 0.04687,0.515625 0.09375,1.03125 0.03516,0.445313 0.05859,0.960938 0.02344,0.515625 0.02344,0.984375 V 58 H 56.796875 V 41.488281 h 3.234375 l 5.988281,12.820313 q -0.04687,-0.492188 -0.08203,-1.03125 -0.03516,-0.457032 -0.07031,-1.03125 -0.02344,-0.574219 -0.02344,-1.160157 v -9.597656 h 2.519531 V 58 Z"/>
        <path id="path29" style="" d="m 80.5625,58 -1.195313,-4.21875 h -5.15625 L 73.015625,58 h -2.835938 l 4.933594,-16.511719 h 3.339844 L 83.375,58 Z M 77.398437,46.433594 q 0,0 -0.234375,-0.832032 -0.105468,-0.410156 -0.1875,-0.75 l -0.140625,-0.574218 q -0.04687,-0.222657 -0.04687,-0.246094 -0.01172,0.03516 -0.05859,0.257812 -0.04687,0.222657 -0.128907,0.5625 -0.08203,0.339844 -0.1875,0.75 l -0.234375,0.832032 -1.335937,4.746093 h 3.890625 z"/>
    </g>
</svg>
