<?xml version="1.0" encoding="UTF-8" standalone="no"?>
<svg xmlns:dc="http://purl.org/dc/elements/1.1/" xmlns:cc="http://creativecommons.org/ns#" xmlns:rdf="http://www.w3.org/1999/02/22-rdf-syntax-ns#" xmlns:svg="http://www.w3.org/2000/svg" xmlns="http://www.w3.org/2000/svg" version="1.1" viewBox="0 0 100 100" height="100" width="100" data-name="Layer 1" id="Layer_1">
    <metadata id="metadata15">
        <rdf:RDF>
            <cc:Work rdf:about="">
                <dc:format>image/svg+xml</dc:format>
                <dc:type rdf:resource="http://purl.org/dc/dcmitype/StillImage"/>
                <dc:title>74</dc:title>
            </cc:Work>
        </rdf:RDF>
    </metadata>
    <defs id="defs4">
        <style id="style2">
            .compass {
                stroke-miterlimit: 10;
                stroke-width: 2px;
                fill: #ddcccc;
                stroke: #373333;
            }
            .grass {
                fill: #847a7a;
            }
        </style>
    </defs>
    <title id="title6">74</title>
    <polygon id="polygon8" points="68.3 31.7 50 2.56 31.7 31.7 2.56 50 31.7 68.3 50 97.44 68.3 68.3 97.44 50 68.3 31.7" class="compass"/>
    <path id="path10" d="M66,64.21c1.2-21.07-3.68-26.9-3.68-26.9a121.93,121.93,0,0,1-.93,24.42,72.93,72.93,0,0,0-3.24-15.79s-.69,7.23-2,15.55A220.68,220.68,0,0,1,57,28.22s-2.7,8.42-5.31,20.7c-1.43-5.06-3.3-10.72-5.73-17,0,0,.58,11,.36,23.14-2.93-7.26-5.74-9.87-5.74-9.87a73,73,0,0,1,2.21,12,32.39,32.39,0,0,0-6.48-9.31,118,118,0,0,1,3.25,21.16c-5.83-10.51-12.81-14.2-12.81-14.2a43.29,43.29,0,0,1,7.73,16L50,95.56,65.28,71.22l2.29-3.65.29-.18a39.63,39.63,0,0,1,7.94-8.81A30.74,30.74,0,0,0,66,64.21Z" class="grass"/>
    <g id="text19" style="font-style:normal;font-variant:normal;font-weight:bold;font-stretch:condensed;font-size:16px;line-height:1.25;font-family:'Liberation Sans Narrow';-inkscape-font-specification:'Liberation Sans Narrow, Bold Condensed';font-variant-ligatures:normal;font-variant-caps:normal;font-variant-numeric:normal;font-feature-settings:normal;text-align:center;letter-spacing:0px;word-spacing:0px;writing-mode:lr-tb;text-anchor:middle;fill:#373333;fill-opacity:1;stroke:none" aria-label="74">
        <path id="path14" style="" d="m 49.550781,63.958145 q 0,0 -1.148437,2.273438 -0.539063,1.101562 -0.945313,2.21875 -0.40625,1.109375 -0.640625,2.289062 -0.226562,1.171875 -0.226562,2.484375 h -1.882813 q 0,-1.304687 0.25,-2.476562 0.257813,-1.179688 0.695313,-2.296875 0.4375,-1.117188 1.007812,-2.210938 l 1.21875,-2.21875 h -4.484375 v -1.804687 h 6.15625 z"/>
        <path id="path16" style="" d="m 56.167969,70.981583 v 2.242187 h -1.71875 v -2.242187 h -4.109375 v -1.648438 l 3.8125,-7.117187 h 2.015625 v 7.132812 h 1.203125 v 1.632813 z m -1.71875,-5.234375 q 0,-0.132813 0,-0.34375 0.0078,-0.21875 0.01563,-0.445313 0.0078,-0.226562 0.01563,-0.429687 0.01563,-0.210938 0.02344,-0.328125 -0.03125,0.08594 -0.101562,0.242187 l -0.15625,0.34375 q -0.08594,0.1875 -0.179688,0.367188 l -0.164062,0.3125 -2.09375,3.882812 h 2.640625 z"/>
    </g>
    <g id="text23" style="font-style:normal;font-variant:normal;font-weight:bold;font-stretch:condensed;font-size:24px;line-height:1.25;font-family:'Liberation Sans Narrow';-inkscape-font-specification:'Liberation Sans Narrow, Bold Condensed';font-variant-ligatures:normal;font-variant-caps:normal;font-variant-numeric:normal;font-feature-settings:normal;text-align:center;letter-spacing:0px;word-spacing:0px;writing-mode:lr-tb;text-anchor:middle;fill:#000000;fill-opacity:1;stroke:#ffffff;stroke-width:0px" aria-label="G.DUD">
        <path id="path19" style="" d="m 26.035156,55.527344 q 0.621094,0 1.183594,-0.117188 0.574219,-0.117187 1.054687,-0.304687 0.480469,-0.199219 0.867188,-0.445313 0.398437,-0.257812 0.644531,-0.527344 v -2.285156 h -3.304687 v -2.554687 h 5.90625 v 6.070312 q -0.457032,0.574219 -1.113282,1.101563 -0.65625,0.515625 -1.476562,0.914062 Q 28.976562,57.765625 28.003906,58 q -0.960937,0.234375 -2.039062,0.234375 -1.792969,0 -3.09375,-0.632813 -1.300782,-0.644531 -2.144532,-1.78125 -0.832031,-1.148437 -1.230468,-2.71875 -0.398438,-1.570312 -0.398438,-3.433593 0,-1.933594 0.421875,-3.492188 0.421875,-1.558594 1.277344,-2.648437 0.867187,-1.101563 2.167969,-1.6875 1.300781,-0.597657 3.058593,-0.597657 1.277344,0 2.273438,0.304688 0.996094,0.304687 1.746094,0.867187 0.75,0.5625 1.253906,1.359375 0.503906,0.785157 0.796875,1.769532 l -2.613281,0.960937 Q 29.304687,45.988281 29.011719,45.53125 28.730469,45.0625 28.296875,44.722656 27.875,44.371094 27.3125,44.171875 26.75,43.960937 26.023437,43.960937 q -1.054687,0 -1.828125,0.410157 -0.761718,0.398437 -1.265625,1.148437 -0.492187,0.75 -0.738281,1.804688 -0.234375,1.042968 -0.234375,2.34375 0,1.289062 0.234375,2.367187 0.246094,1.078125 0.75,1.851563 0.515625,0.773437 1.277344,1.207031 0.773437,0.433594 1.816406,0.433594 z"/>
        <path id="path21" style="" d="m 34.953125,58 v -3.574219 h 2.777344 V 58 Z"/>
        <path id="path23" style="" d="m 52.484375,49.621094 q 0,2.0625 -0.515625,3.632812 -0.503906,1.558594 -1.394531,2.613281 -0.878907,1.054688 -2.085938,1.59375 Q 47.28125,58 45.886719,58 H 40.414062 V 41.488281 H 45.3125 q 1.570312,0 2.882812,0.480469 1.324219,0.480469 2.273438,1.476562 0.949219,0.996094 1.476562,2.53125 0.539063,1.535157 0.539063,3.644532 z m -2.859375,0 q 0,-1.441407 -0.328125,-2.472657 -0.316406,-1.03125 -0.890625,-1.6875 -0.574219,-0.667968 -1.382813,-0.984375 -0.796875,-0.316406 -1.769531,-0.316406 H 43.25 v 11.167969 h 2.402344 q 0.855468,0 1.582031,-0.363281 0.726562,-0.363282 1.253906,-1.078125 0.539063,-0.726563 0.832031,-1.792969 Q 49.625,51.027344 49.625,49.621094 Z"/>
        <path id="path25" style="" d="m 60.242187,58.234375 q -1.265625,0 -2.320312,-0.363281 -1.054688,-0.375 -1.816406,-1.148438 Q 55.34375,55.9375 54.910156,54.71875 54.488281,53.5 54.488281,51.8125 V 41.488281 h 2.835938 v 10.054688 q 0,1.042968 0.210937,1.804687 0.210938,0.75 0.597656,1.242188 0.398438,0.480468 0.949219,0.714843 0.5625,0.222657 1.242188,0.222657 0.691406,0 1.265625,-0.234375 0.585937,-0.246094 0.996093,-0.75 0.421875,-0.503907 0.65625,-1.277344 0.234375,-0.773438 0.234375,-1.839844 v -9.9375 H 66.3125 v 10.148438 q 0,1.699218 -0.457031,2.941406 -0.445313,1.242187 -1.253907,2.0625 -0.808593,0.808594 -1.921875,1.207031 -1.113281,0.386719 -2.4375,0.386719 z"/>
        <path id="path27" style="" d="m 80.890625,49.621094 q 0,2.0625 -0.515625,3.632812 -0.503906,1.558594 -1.394531,2.613281 -0.878907,1.054688 -2.085938,1.59375 Q 75.6875,58 74.292969,58 H 68.820312 V 41.488281 h 4.898438 q 1.570312,0 2.882812,0.480469 1.324219,0.480469 2.273438,1.476562 0.949219,0.996094 1.476562,2.53125 0.539063,1.535157 0.539063,3.644532 z m -2.859375,0 q 0,-1.441407 -0.328125,-2.472657 -0.316406,-1.03125 -0.890625,-1.6875 -0.574219,-0.667968 -1.382813,-0.984375 -0.796875,-0.316406 -1.769531,-0.316406 H 71.65625 v 11.167969 h 2.402344 q 0.855468,0 1.582031,-0.363281 0.726562,-0.363282 1.253906,-1.078125 0.539063,-0.726563 0.832031,-1.792969 0.304688,-1.066406 0.304688,-2.472656 z"/>
    </g>
</svg>
