<?xml version="1.0" encoding="UTF-8" standalone="no"?>
<svg xmlns:dc="http://purl.org/dc/elements/1.1/" xmlns:cc="http://creativecommons.org/ns#" xmlns:rdf="http://www.w3.org/1999/02/22-rdf-syntax-ns#" xmlns:svg="http://www.w3.org/2000/svg" xmlns="http://www.w3.org/2000/svg" version="1.1" viewBox="0 0 100 100" height="100" width="100" data-name="Layer 1" id="Layer_1">
    <metadata id="metadata15">
        <rdf:RDF>
            <cc:Work rdf:about="">
                <dc:format>image/svg+xml</dc:format>
                <dc:type rdf:resource="http://purl.org/dc/dcmitype/StillImage"/>
                <dc:title>84</dc:title>
            </cc:Work>
        </rdf:RDF>
    </metadata>
    <defs id="defs4">
        <style id="style2">
            .compass {
                stroke-miterlimit: 10;
                stroke-width: 2px;
                fill: #ffeecc;
                stroke: #3f3b33;
            }
            .grass {
                fill: #998e7a;
            }
        </style>
    </defs>
    <title id="title6">84</title>
    <polygon id="polygon8" points="68.3 31.7 50 2.56 31.7 31.7 2.56 50 31.7 68.3 50 97.44 68.3 68.3 97.44 50 68.3 31.7" class="compass"/>
    <path id="path10" d="M66,64.21c1.2-21.07-3.68-26.9-3.68-26.9a121.93,121.93,0,0,1-.93,24.42,72.93,72.93,0,0,0-3.24-15.79s-.69,7.23-2,15.55A220.68,220.68,0,0,1,57,28.22s-2.7,8.42-5.31,20.7c-1.43-5.06-3.3-10.72-5.73-17,0,0,.58,11,.36,23.14-2.93-7.26-5.74-9.87-5.74-9.87a73,73,0,0,1,2.21,12,32.39,32.39,0,0,0-6.48-9.31,118,118,0,0,1,3.25,21.16c-5.83-10.51-12.81-14.2-12.81-14.2a43.29,43.29,0,0,1,7.73,16L50,95.56,65.28,71.22l2.29-3.65.29-.18a39.63,39.63,0,0,1,7.94-8.81A30.74,30.74,0,0,0,66,64.21Z" class="grass"/>
    <g id="text19" style="font-style:normal;font-variant:normal;font-weight:bold;font-stretch:condensed;font-size:16px;line-height:1.25;font-family:'Liberation Sans Narrow';-inkscape-font-specification:'Liberation Sans Narrow, Bold Condensed';font-variant-ligatures:normal;font-variant-caps:normal;font-variant-numeric:normal;font-feature-settings:normal;text-align:center;letter-spacing:0px;word-spacing:0px;writing-mode:lr-tb;text-anchor:middle;fill:#3f3b33;fill-opacity:1;stroke:none" aria-label="84">
        <path id="path14" style="" d="m 49.722656,70.122208 q 0,0.710937 -0.195312,1.3125 -0.1875,0.59375 -0.585938,1.03125 -0.398437,0.429687 -1.007812,0.671875 -0.601563,0.242187 -1.445313,0.242187 -0.835937,0 -1.445312,-0.242187 -0.609375,-0.242188 -1.015625,-0.671875 -0.398438,-0.4375 -0.59375,-1.03125 -0.1875,-0.59375 -0.1875,-1.296875 0,-0.601563 0.15625,-1.0625 0.15625,-0.46875 0.40625,-0.804688 0.257812,-0.335937 0.59375,-0.53125 0.335937,-0.203125 0.6875,-0.273437 v -0.03125 q -0.375,-0.101563 -0.679688,-0.335938 -0.304687,-0.234375 -0.515625,-0.5625 -0.210937,-0.328125 -0.328125,-0.726562 -0.109375,-0.40625 -0.109375,-0.84375 0,-0.65625 0.195313,-1.195313 0.195312,-0.539062 0.570312,-0.921875 0.382813,-0.382812 0.945313,-0.585937 0.5625,-0.210938 1.296875,-0.210938 0.789062,0 1.359375,0.21875 0.578125,0.210938 0.945312,0.601563 0.375,0.382812 0.554688,0.921875 0.179687,0.539062 0.179687,1.1875 0,0.429687 -0.117187,0.835937 -0.109375,0.398438 -0.320313,0.726563 -0.210937,0.328125 -0.515625,0.554687 -0.304687,0.226563 -0.6875,0.320313 v 0.03125 q 0.398438,0.07813 0.734375,0.289062 0.34375,0.203125 0.59375,0.539063 0.25,0.328125 0.390625,0.796875 0.140625,0.460937 0.140625,1.046875 z M 47.652344,65.09877 q 0,-0.328125 -0.0625,-0.601562 -0.05469,-0.28125 -0.195313,-0.476563 -0.132812,-0.203125 -0.359375,-0.3125 -0.226562,-0.117187 -0.570312,-0.117187 -0.335938,0 -0.5625,0.117187 -0.21875,0.109375 -0.359375,0.3125 -0.132813,0.195313 -0.1875,0.476563 -0.05469,0.273437 -0.05469,0.601562 0,0.289063 0.04687,0.570313 0.04687,0.28125 0.171875,0.507812 0.132813,0.21875 0.359375,0.359375 0.234375,0.140625 0.601563,0.140625 0.382812,0 0.617187,-0.140625 0.234375,-0.140625 0.351563,-0.367187 0.125,-0.226563 0.164062,-0.507813 0.03906,-0.28125 0.03906,-0.5625 z m 0.210937,4.84375 q 0,-0.335937 -0.0625,-0.648437 -0.0625,-0.3125 -0.21875,-0.546875 -0.15625,-0.242188 -0.4375,-0.382813 -0.273437,-0.148437 -0.695312,-0.148437 -0.382813,0 -0.640625,0.148437 -0.257813,0.140625 -0.414063,0.382813 -0.15625,0.242187 -0.226562,0.5625 -0.07031,0.3125 -0.07031,0.664062 0,0.414063 0.07031,0.757813 0.07031,0.34375 0.226562,0.59375 0.164063,0.242187 0.429688,0.375 0.273437,0.132812 0.679687,0.132812 0.40625,0 0.664063,-0.132812 0.265625,-0.140625 0.414062,-0.390625 0.15625,-0.25 0.21875,-0.59375 0.0625,-0.351563 0.0625,-0.773438 z"/>
        <path id="path16" style="" d="m 56.167969,70.981583 v 2.242187 h -1.71875 v -2.242187 h -4.109375 v -1.648438 l 3.8125,-7.117187 h 2.015625 v 7.132812 h 1.203125 v 1.632813 z m -1.71875,-5.234375 q 0,-0.132813 0,-0.34375 0.0078,-0.21875 0.01563,-0.445313 0.0078,-0.226562 0.01563,-0.429687 0.01563,-0.210938 0.02344,-0.328125 -0.03125,0.08594 -0.101562,0.242187 l -0.15625,0.34375 q -0.08594,0.1875 -0.179688,0.367188 l -0.164062,0.3125 -2.09375,3.882812 h 2.640625 z"/>
    </g>
    <g id="text23" style="font-style:normal;font-variant:normal;font-weight:bold;font-stretch:condensed;font-size:24px;line-height:1.25;font-family:'Liberation Sans Narrow';-inkscape-font-specification:'Liberation Sans Narrow, Bold Condensed';font-variant-ligatures:normal;font-variant-caps:normal;font-variant-numeric:normal;font-feature-settings:normal;text-align:center;letter-spacing:0px;word-spacing:0px;writing-mode:lr-tb;text-anchor:middle;fill:#000000;fill-opacity:1;stroke:#ffffff;stroke-width:0px" aria-label="D.DUO">
        <path id="path19" style="" d="m 31.671875,49.621094 q 0,2.0625 -0.515625,3.632812 -0.503906,1.558594 -1.394531,2.613281 -0.878907,1.054688 -2.085938,1.59375 Q 26.46875,58 25.074219,58 H 19.601562 V 41.488281 H 24.5 q 1.570312,0 2.882812,0.480469 1.324219,0.480469 2.273438,1.476562 0.949219,0.996094 1.476562,2.53125 0.539063,1.535157 0.539063,3.644532 z m -2.859375,0 q 0,-1.441407 -0.328125,-2.472657 -0.316406,-1.03125 -0.890625,-1.6875 -0.574219,-0.667968 -1.382813,-0.984375 -0.796875,-0.316406 -1.769531,-0.316406 H 22.4375 v 11.167969 h 2.402344 q 0.855468,0 1.582031,-0.363281 0.726562,-0.363282 1.253906,-1.078125 0.539063,-0.726563 0.832031,-1.792969 0.304688,-1.066406 0.304688,-2.472656 z"/>
        <path id="path21" style="" d="m 33.828125,58 v -3.574219 h 2.777344 V 58 Z"/>
        <path id="path23" style="" d="m 51.359375,49.621094 q 0,2.0625 -0.515625,3.632812 -0.503906,1.558594 -1.394531,2.613281 -0.878907,1.054688 -2.085938,1.59375 Q 46.15625,58 44.761719,58 H 39.289062 V 41.488281 H 44.1875 q 1.570312,0 2.882812,0.480469 1.324219,0.480469 2.273438,1.476562 0.949219,0.996094 1.476562,2.53125 0.539063,1.535157 0.539063,3.644532 z m -2.859375,0 q 0,-1.441407 -0.328125,-2.472657 -0.316406,-1.03125 -0.890625,-1.6875 -0.574219,-0.667968 -1.382813,-0.984375 -0.796875,-0.316406 -1.769531,-0.316406 H 42.125 v 11.167969 h 2.402344 q 0.855468,0 1.582031,-0.363281 0.726562,-0.363282 1.253906,-1.078125 0.539063,-0.726563 0.832031,-1.792969 Q 48.5,51.027344 48.5,49.621094 Z"/>
        <path id="path25" style="" d="m 59.117187,58.234375 q -1.265625,0 -2.320312,-0.363281 -1.054688,-0.375 -1.816406,-1.148438 Q 54.21875,55.9375 53.785156,54.71875 53.363281,53.5 53.363281,51.8125 V 41.488281 h 2.835938 v 10.054688 q 0,1.042968 0.210937,1.804687 0.210938,0.75 0.597656,1.242188 0.398438,0.480468 0.949219,0.714843 0.5625,0.222657 1.242188,0.222657 0.691406,0 1.265625,-0.234375 0.585937,-0.246094 0.996093,-0.75 0.421875,-0.503907 0.65625,-1.277344 0.234375,-0.773438 0.234375,-1.839844 v -9.9375 H 65.1875 v 10.148438 q 0,1.699218 -0.457031,2.941406 -0.445313,1.242187 -1.253907,2.0625 -0.808593,0.808594 -1.921875,1.207031 -1.113281,0.386719 -2.4375,0.386719 z"/>
        <path id="path27" style="" d="m 80.867187,49.667969 q 0,1.933593 -0.46875,3.515625 -0.46875,1.582031 -1.359375,2.707031 -0.878906,1.125 -2.15625,1.734375 -1.265625,0.609375 -2.871093,0.609375 -1.699219,0 -2.976563,-0.632813 -1.277344,-0.644531 -2.132812,-1.78125 -0.855469,-1.148437 -1.289063,-2.71875 -0.421875,-1.570312 -0.421875,-3.433593 0,-1.933594 0.445313,-3.492188 0.445312,-1.558594 1.3125,-2.648437 0.878906,-1.101563 2.144531,-1.6875 1.277344,-0.597657 2.929687,-0.597657 1.652344,0 2.929688,0.597657 1.277344,0.597656 2.144531,1.699218 0.867188,1.101563 1.3125,2.660157 0.457031,1.546875 0.457031,3.46875 z m -2.894531,0 q 0,-1.300782 -0.257812,-2.34375 -0.246094,-1.054688 -0.75,-1.804688 -0.492188,-0.75 -1.230469,-1.148437 -0.738281,-0.410157 -1.710938,-0.410157 -0.996093,0 -1.734375,0.410157 -0.738281,0.398437 -1.242187,1.148437 -0.503906,0.75 -0.75,1.804688 -0.246094,1.042968 -0.246094,2.34375 0,1.289062 0.246094,2.367187 0.257812,1.066406 0.75,1.839844 0.503906,0.773437 1.242187,1.207031 0.75,0.433594 1.722657,0.433594 1.042968,0 1.78125,-0.433594 0.75,-0.445312 1.230468,-1.21875 0.492188,-0.785156 0.714844,-1.851562 0.234375,-1.078125 0.234375,-2.34375 z"/>
    </g>
</svg>
