<?xml version="1.0" encoding="UTF-8" standalone="no"?>
<svg xmlns:dc="http://purl.org/dc/elements/1.1/" xmlns:cc="http://creativecommons.org/ns#" xmlns:rdf="http://www.w3.org/1999/02/22-rdf-syntax-ns#" xmlns:svg="http://www.w3.org/2000/svg" xmlns="http://www.w3.org/2000/svg" version="1.1" viewBox="0 0 100 100" height="100" width="100" data-name="Layer 1" id="Layer_1">
    <metadata id="metadata15">
        <rdf:RDF>
            <cc:Work rdf:about="">
                <dc:format>image/svg+xml</dc:format>
                <dc:type rdf:resource="http://purl.org/dc/dcmitype/StillImage"/>
                <dc:title>9</dc:title>
            </cc:Work>
        </rdf:RDF>
    </metadata>
    <defs id="defs4">
        <style id="style2">
            .compass {
                stroke-miterlimit: 10;
                stroke-width: 2px;
                fill: #99bbee;
                stroke: #262e3b;
            }
            .grass {
                fill: #5b708e;
            }
        </style>
    </defs>
    <title id="title6">9</title>
    <polygon id="polygon8" points="68.3 31.7 50 2.56 31.7 31.7 2.56 50 31.7 68.3 50 97.44 68.3 68.3 97.44 50 68.3 31.7" class="compass"/>
    <path id="path10" d="M66,64.21c1.2-21.07-3.68-26.9-3.68-26.9a121.93,121.93,0,0,1-.93,24.42,72.93,72.93,0,0,0-3.24-15.79s-.69,7.23-2,15.55A220.68,220.68,0,0,1,57,28.22s-2.7,8.42-5.31,20.7c-1.43-5.06-3.3-10.72-5.73-17,0,0,.58,11,.36,23.14-2.93-7.26-5.74-9.87-5.74-9.87a73,73,0,0,1,2.21,12,32.39,32.39,0,0,0-6.48-9.31,118,118,0,0,1,3.25,21.16c-5.83-10.51-12.81-14.2-12.81-14.2a43.29,43.29,0,0,1,7.73,16L50,95.56,65.28,71.22l2.29-3.65.29-.18a39.63,39.63,0,0,1,7.94-8.81A30.74,30.74,0,0,0,66,64.21Z" class="grass"/>
    <g id="text19" style="font-style:normal;font-variant:normal;font-weight:bold;font-stretch:condensed;font-size:16px;line-height:1.25;font-family:'Liberation Sans Narrow';-inkscape-font-specification:'Liberation Sans Narrow, Bold Condensed';font-variant-ligatures:normal;font-variant-caps:normal;font-variant-numeric:normal;font-feature-settings:normal;text-align:center;letter-spacing:0px;word-spacing:0px;writing-mode:lr-tb;text-anchor:middle;fill:#262e3b;fill-opacity:1;stroke:none" aria-label="9">
        <path id="path14" style="" d="m 53.300781,67.544083 q 0,2.929687 -0.882812,4.382812 -0.875,1.453125 -2.492188,1.453125 -0.585937,0 -1.046875,-0.148437 -0.460937,-0.148438 -0.8125,-0.460938 -0.34375,-0.3125 -0.585937,-0.804687 -0.234375,-0.492188 -0.375,-1.171875 l 1.6875,-0.289063 q 0.125,0.585938 0.414062,0.867188 0.296875,0.28125 0.742188,0.28125 0.367187,0 0.648437,-0.210938 0.289063,-0.210937 0.492188,-0.640625 0.210937,-0.429687 0.320312,-1.085937 0.117188,-0.664063 0.117188,-1.5625 -0.125,0.304687 -0.335938,0.539062 -0.210937,0.234375 -0.476562,0.390625 -0.265625,0.15625 -0.570313,0.242188 -0.296875,0.07813 -0.609375,0.07813 -0.585937,0 -1.070312,-0.25 -0.476563,-0.257813 -0.820313,-0.734375 -0.335937,-0.476563 -0.523437,-1.148438 -0.179688,-0.679687 -0.179688,-1.53125 0,-0.875 0.210938,-1.5625 0.21875,-0.6875 0.617187,-1.15625 0.40625,-0.476562 0.992188,-0.71875 0.59375,-0.25 1.335937,-0.25 0.78125,0 1.375,0.328125 0.601563,0.320313 1,1 0.40625,0.671875 0.617188,1.710938 0.210937,1.03125 0.210937,2.453125 z m -1.90625,-1.539063 q 0,-0.46875 -0.08594,-0.875 -0.08594,-0.414062 -0.257813,-0.710937 -0.171875,-0.304688 -0.421875,-0.476563 -0.25,-0.171875 -0.578125,-0.171875 -0.304687,0 -0.539062,0.140625 -0.234375,0.132813 -0.40625,0.390625 -0.164063,0.257813 -0.25,0.625 -0.08594,0.367188 -0.08594,0.828125 0,0.429688 0.07813,0.804688 0.08594,0.367187 0.242188,0.640625 0.164062,0.265625 0.40625,0.421875 0.25,0.148437 0.5625,0.148437 0.25,0 0.484375,-0.109375 0.242187,-0.109375 0.429687,-0.328125 0.195313,-0.21875 0.304688,-0.546875 0.117187,-0.335937 0.117187,-0.78125 z"/>
    </g>
    <g id="text23" style="font-style:normal;font-variant:normal;font-weight:bold;font-stretch:condensed;font-size:24px;line-height:1.25;font-family:'Liberation Sans Narrow';-inkscape-font-specification:'Liberation Sans Narrow, Bold Condensed';font-variant-ligatures:normal;font-variant-caps:normal;font-variant-numeric:normal;font-feature-settings:normal;text-align:center;letter-spacing:0px;word-spacing:0px;writing-mode:lr-tb;text-anchor:middle;fill:#000000;fill-opacity:1;stroke:#ffffff;stroke-width:0px" aria-label="B.TOISE">
        <path id="path17" style="" d="m 24.078125,53.289062 q 0,1.253907 -0.421875,2.15625 -0.410156,0.890625 -1.125,1.464844 -0.714844,0.5625 -1.664063,0.832031 Q 19.917969,58 18.851562,58 H 12.078125 V 41.488281 h 6.199219 q 1.195312,0 2.132812,0.257813 0.9375,0.246093 1.582031,0.761718 0.644532,0.515625 0.972657,1.300782 0.328125,0.773437 0.328125,1.828125 0,1.40625 -0.644532,2.378906 -0.632812,0.960937 -1.933593,1.300781 1.640625,0.234375 2.496093,1.265625 0.867188,1.019531 0.867188,2.707031 z m -3.632813,-7.183593 q 0,-1.113282 -0.585937,-1.582032 -0.574219,-0.46875 -1.722656,-0.46875 h -3.222656 v 4.089844 h 3.246093 q 1.195313,0 1.734375,-0.503906 0.550781,-0.515625 0.550781,-1.535156 z m 0.785157,6.914062 q 0,-0.65625 -0.210938,-1.101562 Q 20.808594,51.472656 20.433594,51.203125 20.070312,50.933594 19.578125,50.816406 19.085937,50.699219 18.5,50.699219 h -3.585937 v 4.734375 h 3.703124 q 0.5625,0 1.03125,-0.105469 0.480469,-0.117188 0.832032,-0.386719 0.351562,-0.28125 0.550781,-0.75 0.199219,-0.46875 0.199219,-1.171875 z"/>
        <path id="path19" style="" d="m 26.304687,58 v -3.574219 h 2.777344 V 58 Z"/>
        <path id="path21" style="" d="M 37.882812,44.160156 V 58 H 35.046875 V 44.160156 h -4.371094 v -2.671875 h 11.589844 v 2.671875 z"/>
        <path id="path23" style="" d="m 56.65625,49.667969 q 0,1.933593 -0.46875,3.515625 -0.46875,1.582031 -1.359375,2.707031 -0.878906,1.125 -2.15625,1.734375 -1.265625,0.609375 -2.871094,0.609375 -1.699219,0 -2.976562,-0.632813 -1.277344,-0.644531 -2.132813,-1.78125 -0.855469,-1.148437 -1.289062,-2.71875 -0.421875,-1.570312 -0.421875,-3.433593 0,-1.933594 0.445312,-3.492188 0.445313,-1.558594 1.3125,-2.648437 0.878906,-1.101563 2.144531,-1.6875 1.277344,-0.597657 2.929688,-0.597657 1.652344,0 2.929687,0.597657 1.277344,0.597656 2.144532,1.699218 0.867187,1.101563 1.3125,2.660157 0.457031,1.546875 0.457031,3.46875 z m -2.894531,0 q 0,-1.300782 -0.257813,-2.34375 -0.246094,-1.054688 -0.75,-1.804688 -0.492187,-0.75 -1.230469,-1.148437 -0.738281,-0.410157 -1.710937,-0.410157 -0.996094,0 -1.734375,0.410157 -0.738281,0.398437 -1.242188,1.148437 -0.503906,0.75 -0.75,1.804688 -0.246093,1.042968 -0.246093,2.34375 0,1.289062 0.246093,2.367187 0.257813,1.066406 0.75,1.839844 0.503907,0.773437 1.242188,1.207031 0.75,0.433594 1.722656,0.433594 1.042969,0 1.78125,-0.433594 0.75,-0.445312 1.230469,-1.21875 0.492187,-0.785156 0.714844,-1.851562 0.234375,-1.078125 0.234375,-2.34375 z"/>
        <path id="path25" style="" d="M 58.8125,58 V 41.488281 h 2.847656 V 58 Z"/>
        <path id="path27" style="" d="m 75.335937,53.242187 q 0,1.125 -0.339843,2.050782 -0.328125,0.914062 -1.042969,1.570312 -0.703125,0.65625 -1.804688,1.019531 -1.089843,0.351563 -2.613281,0.351563 -1.347656,0 -2.378906,-0.292969 Q 66.136719,57.648437 65.398437,57.074219 64.660156,56.5 64.203125,55.65625 63.757812,54.800781 63.546875,53.699219 l 2.742187,-0.550782 q 0.117188,0.550782 0.339844,1.007813 0.222656,0.457031 0.609375,0.796875 0.386719,0.328125 0.960938,0.515625 0.585937,0.175781 1.417968,0.175781 1.441407,0 2.203125,-0.527344 0.761719,-0.539062 0.761719,-1.675781 0,-0.679687 -0.304687,-1.113281 -0.304688,-0.433594 -0.820313,-0.714844 -0.503906,-0.28125 -1.171875,-0.46875 -0.65625,-0.1875 -1.382812,-0.363281 0,0 -1.160157,-0.339844 -0.574218,-0.175781 -1.101562,-0.421875 -0.515625,-0.246094 -0.972656,-0.585937 -0.445313,-0.339844 -0.785157,-0.832032 -0.328125,-0.503906 -0.515625,-1.171875 -0.1875,-0.667968 -0.1875,-1.570312 0,-1.230469 0.398438,-2.109375 0.410156,-0.878906 1.125,-1.429688 0.726562,-0.5625 1.710937,-0.820312 0.984375,-0.257813 2.15625,-0.257813 1.324219,0 2.273438,0.257813 0.949219,0.246094 1.582031,0.761719 0.644531,0.515625 1.007813,1.300781 0.375,0.773437 0.550781,1.816406 l -2.742188,0.457031 Q 72.03125,44.769531 71.375,44.230469 q -0.644531,-0.539063 -1.851563,-0.539063 -0.75,0 -1.253906,0.164063 -0.492187,0.152343 -0.785156,0.421875 -0.292969,0.269531 -0.421875,0.632812 -0.117188,0.351563 -0.117188,0.75 0,0.609375 0.234375,1.007813 0.246094,0.386718 0.679688,0.65625 0.433594,0.257812 1.03125,0.445312 0.597656,0.175781 1.324219,0.363281 0.632812,0.164063 1.253906,0.351563 0.621094,0.175781 1.183594,0.421875 0.574218,0.246094 1.066406,0.597656 0.492187,0.351563 0.84375,0.867188 0.363281,0.503906 0.5625,1.207031 0.210937,0.703125 0.210937,1.664062 z"/>
        <path id="path29" style="" d="M 77.421875,58 V 41.488281 h 10.652344 v 2.671875 h -7.816407 v 4.148438 h 7.230469 v 2.671875 h -7.230469 v 4.347656 h 8.203125 V 58 Z"/>
    </g>
</svg>
