<?xml version="1.0" encoding="UTF-8" standalone="no"?>
<svg xmlns:dc="http://purl.org/dc/elements/1.1/" xmlns:cc="http://creativecommons.org/ns#" xmlns:rdf="http://www.w3.org/1999/02/22-rdf-syntax-ns#" xmlns:svg="http://www.w3.org/2000/svg" xmlns="http://www.w3.org/2000/svg" viewBox="0 0 666.66669 200" height="200" width="666.66669" xml:space="preserve" id="svg2" version="1.1">
    <metadata id="metadata8">
        <rdf:RDF>
            <cc:Work rdf:about="">
                <dc:format>image/svg+xml</dc:format>
                <dc:type rdf:resource="http://purl.org/dc/dcmitype/StillImage"/>
                <dc:title/>
            </cc:Work>
        </rdf:RDF>
    </metadata>
    <defs id="defs6"><clipPath id="clipPath18" clipPathUnits="userSpaceOnUse"><path id="path16" d="M 0,150 H 500 V 0 H 0 Z"/></clipPath>
</defs>
    <g transform="matrix(1.3333333,0,0,-1.3333333,0,200)" id="g10">
        <path d="m 126.3359,0 12.002,18.183 c 7.042,10.473 15.822,20.878 26.716,29.658 0,0 -14.516,-4.028 -33.08,-18.948 4.038,70.913 -12.375,90.505 -12.375,90.505 2.006,-30.2 0.114,-58.387 -3.148,-82.153 -1.735,17.275 -5.022,35.764 -10.902,53.112 0,0 -2.297,-24.322 -6.808,-52.321 -1.409,31.92 -1.385,71.504 3.065,111.964 0,0 -9.083,-28.33 -17.867,-69.67 -4.817,17.054 -11.11,36.095 -19.295,57.176 0,0 1.946,-37.058 1.222,-77.872 -9.879,24.458 -19.336,33.224 -19.336,33.224 3.524,-12.142 5.889,-26.177 7.455,-40.392 -5.522,11.539 -12.64,22.436 -21.818,31.332 0,0 9.224,-35.257 10.927,-71.182 C 23.5049,47.985 -10e-5,60.372 -10e-5,60.372 13.0279,44.149 23.0619,16.494 27.6729,0 Z" style="fill:#009b74;fill-opacity:1;fill-rule:nonzero;stroke:none" id="path22"/>
        <path d="m 76.1558,79.9458 h 29.997 v -6.033 h -22.808 v -18.51 h 21.072 v -5.95 h -21.072 v -25.204 h -7.189 z" style="fill:#cccccc;fill-opacity:1;fill-rule:nonzero;stroke:none" id="path26"/>
        <path d="m 114.0044,51.7666 c 0,4.711 -0.083,8.759 -0.331,12.479 h 6.364 l 0.247,-7.851 h 0.331 c 1.818,5.371 6.198,8.76 11.073,8.76 0.827,0 1.405,-0.083 2.066,-0.248 v -6.86 c -0.744,0.165 -1.487,0.248 -2.479,0.248 -5.123,0 -8.759,-3.883 -9.751,-9.338 -0.165,-0.991 -0.331,-2.148 -0.331,-3.387 v -21.321 h -7.189 z" style="fill:#cccccc;fill-opacity:1;fill-rule:nonzero;stroke:none" id="path30"/>
        <path d="m 165.5703,48.1309 c 0.082,4.627 -1.901,11.817 -10.082,11.817 -7.355,0 -10.577,-6.776 -11.155,-11.817 z m -21.32,-5.206 c 0.165,-9.834 6.445,-13.883 13.717,-13.883 5.207,0 8.346,0.909 11.073,2.067 l 1.24,-5.207 c -2.562,-1.157 -6.941,-2.479 -13.305,-2.479 -12.312,0 -19.667,8.099 -19.667,20.163 0,12.065 7.107,21.568 18.759,21.568 13.056,0 16.527,-11.486 16.527,-18.841 0,-1.488 -0.166,-2.645 -0.248,-3.388 z" style="fill:#cccccc;fill-opacity:1;fill-rule:nonzero;stroke:none" id="path34"/>
        <path d="m 206.9712,48.1309 c 0.082,4.627 -1.901,11.817 -10.082,11.817 -7.355,0 -10.577,-6.776 -11.155,-11.817 z m -21.32,-5.206 c 0.165,-9.834 6.445,-13.883 13.717,-13.883 5.207,0 8.346,0.909 11.073,2.067 l 1.24,-5.207 c -2.562,-1.157 -6.941,-2.479 -13.305,-2.479 -12.312,0 -19.667,8.099 -19.667,20.163 0,12.065 7.107,21.568 18.759,21.568 13.056,0 16.527,-11.486 16.527,-18.841 0,-1.488 -0.166,-2.645 -0.248,-3.388 z" style="fill:#cccccc;fill-opacity:1;fill-rule:nonzero;stroke:none" id="path38"/>
        <path d="m 223.251,79.9458 h 29.996 v -6.033 H 230.44 v -18.51 h 21.072 v -5.95 H 230.44 v -25.204 h -7.189 z" style="fill:#cccccc;fill-opacity:1;fill-rule:nonzero;stroke:none" id="path42"/>
        <path id="path44" style="fill:#cccccc;fill-opacity:1;fill-rule:nonzero;stroke:none" d="m 261.099,64.245 h 7.272 V 24.249 h -7.272 z m 8.098,11.238 c 0.083,-2.479 -1.734,-4.462 -4.627,-4.462 -2.561,0 -4.38,1.983 -4.38,4.462 0,2.562 1.902,4.546 4.546,4.546 2.727,0 4.461,-1.984 4.461,-4.546"/>
        <path d="m 305.8047,48.1309 c 0.083,4.627 -1.899,11.817 -10.081,11.817 -7.356,0 -10.577,-6.776 -11.156,-11.817 z m -21.32,-5.206 c 0.166,-9.834 6.447,-13.883 13.718,-13.883 5.206,0 8.346,0.909 11.074,2.067 l 1.239,-5.207 c -2.562,-1.157 -6.941,-2.479 -13.305,-2.479 -12.312,0 -19.667,8.099 -19.667,20.163 0,12.065 7.107,21.568 18.758,21.568 13.058,0 16.527,-11.486 16.527,-18.841 0,-1.488 -0.165,-2.645 -0.248,-3.388 z" style="fill:#cccccc;fill-opacity:1;fill-rule:nonzero;stroke:none" id="path48"/>
        <path id="path50" style="fill:#cccccc;fill-opacity:1;fill-rule:nonzero;stroke:none" d="m 321.836,82.92 h 7.272 V 24.249 h -7.272 z"/>
        <path d="m 368.6084,47.9658 c 0,0.908 -0.082,2.148 -0.33,3.058 -1.074,4.627 -5.041,8.428 -10.495,8.428 -7.52,0 -11.983,-6.611 -11.983,-15.453 0,-8.098 3.967,-14.792 11.818,-14.792 4.875,0 9.338,3.224 10.66,8.678 0.248,0.991 0.33,1.982 0.33,3.14 z m 7.271,34.955 v -48.343 c 0,-3.552 0.083,-7.601 0.332,-10.329 h -6.529 l -0.331,6.943 h -0.165 c -2.23,-4.463 -7.106,-7.851 -13.634,-7.851 -9.669,0 -17.106,8.181 -17.106,20.327 -0.082,13.305 8.181,21.486 17.932,21.486 6.115,0 10.247,-2.892 12.065,-6.115 h 0.165 v 23.882 z" style="fill:#cccccc;fill-opacity:1;fill-rule:nonzero;stroke:none" id="path54"/>
        <g aria-label="COLORFUL TEXTUAL" transform="matrix(1,0,0,-1,-18,0)" style="font-style:normal;font-variant:normal;font-weight:bold;font-stretch:condensed;font-size:24px;font-family:'Liberation Sans Narrow';-inkscape-font-specification:'Liberation Sans Narrow, Bold Condensed';font-variant-ligatures:normal;font-variant-caps:normal;font-variant-numeric:normal;font-feature-settings:normal;text-align:start;writing-mode:lr-tb;text-anchor:start;fill:#cccccc;fill-opacity:1;fill-rule:nonzero;stroke:none" id="text66">
            <path d="m 300.7959,-97.029533 q 0.79687,0 1.38281,-0.269532 0.58594,-0.28125 1.00781,-0.726562 0.4336,-0.445313 0.71485,-1.007813 0.28125,-0.5625 0.46875,-1.13672 l 2.46093,1.13672 q -0.29296,0.890625 -0.77343,1.746094 -0.48047,0.855469 -1.20703,1.511719 -0.71485,0.65625 -1.71094,1.066406 -0.9961,0.398438 -2.34375,0.398438 -1.75781,0 -3.04688,-0.632813 -1.27734,-0.644531 -2.12109,-1.78125 -0.84375,-1.148437 -1.25391,-2.71875 -0.39843,-1.570314 -0.39843,-3.433594 0,-1.93359 0.39843,-3.49219 0.41016,-1.55859 1.23047,-2.64843 0.83203,-1.10157 2.09766,-1.6875 1.26562,-0.59766 2.97656,-0.59766 1.32422,0 2.32031,0.33984 0.9961,0.33985 1.71094,0.96094 0.72656,0.60938 1.19531,1.45313 0.48047,0.83203 0.75,1.83984 l -2.49609,0.83203 q -0.12891,-0.52734 -0.41016,-1.00781 -0.28125,-0.49219 -0.71484,-0.86719 -0.42188,-0.375 -0.99609,-0.59766 -0.57422,-0.23437 -1.30079,-0.23437 -1.03125,0 -1.76953,0.41016 -0.73828,0.39843 -1.21875,1.14843 -0.46875,0.75 -0.70312,1.80469 -0.22266,1.04297 -0.22266,2.34375 0,1.28906 0.22266,2.36719 0.23437,1.066404 0.71484,1.839842 0.48047,0.773437 1.23047,1.207031 0.75,0.433594 1.80469,0.433594 z" style="fill:#cccccc;fill-opacity:1" id="path946"/>
            <path d="m 321.85449,-102.87719 q 0,1.93359 -0.46875,3.515625 -0.46875,1.582032 -1.35937,2.707032 -0.87891,1.125 -2.15625,1.734375 -1.26563,0.609375 -2.8711,0.609375 -1.69922,0 -2.97656,-0.632813 -1.27734,-0.644531 -2.13281,-1.78125 -0.85547,-1.148437 -1.28906,-2.71875 -0.42188,-1.570314 -0.42188,-3.433594 0,-1.93359 0.44531,-3.49219 0.44532,-1.55859 1.3125,-2.64843 0.87891,-1.10157 2.14453,-1.6875 1.27735,-0.59766 2.92969,-0.59766 1.65235,0 2.92969,0.59766 1.27734,0.59765 2.14453,1.69921 0.86719,1.10157 1.3125,2.66016 0.45703,1.54688 0.45703,3.46875 z m -2.89453,0 q 0,-1.30078 -0.25781,-2.34375 -0.2461,-1.05469 -0.75,-1.80469 -0.49219,-0.75 -1.23047,-1.14843 -0.73828,-0.41016 -1.71094,-0.41016 -0.99609,0 -1.73437,0.41016 -0.73828,0.39843 -1.24219,1.14843 -0.50391,0.75 -0.75,1.80469 -0.24609,1.04297 -0.24609,2.34375 0,1.28906 0.24609,2.36719 0.25781,1.066404 0.75,1.839842 0.50391,0.773437 1.24219,1.207031 0.75,0.433594 1.72265,0.433594 1.04297,0 1.78125,-0.433594 0.75,-0.445313 1.23047,-1.21875 0.49219,-0.785156 0.71485,-1.851563 0.23437,-1.07812 0.23437,-2.34375 z" style="fill:#cccccc;fill-opacity:1" id="path948"/>
            <path d="m 324.01074,-94.545158 v -16.511722 h 2.83594 v 13.839847 h 7.26562 v 2.671875 z" style="fill:#cccccc;fill-opacity:1" id="path950"/>
            <path d="m 349.22949,-102.87719 q 0,1.93359 -0.46875,3.515625 -0.46875,1.582032 -1.35937,2.707032 -0.87891,1.125 -2.15625,1.734375 -1.26563,0.609375 -2.8711,0.609375 -1.69922,0 -2.97656,-0.632813 -1.27734,-0.644531 -2.13281,-1.78125 -0.85547,-1.148437 -1.28906,-2.71875 -0.42188,-1.570314 -0.42188,-3.433594 0,-1.93359 0.44531,-3.49219 0.44532,-1.55859 1.3125,-2.64843 0.87891,-1.10157 2.14453,-1.6875 1.27735,-0.59766 2.92969,-0.59766 1.65235,0 2.92969,0.59766 1.27734,0.59765 2.14453,1.69921 0.86719,1.10157 1.3125,2.66016 0.45703,1.54688 0.45703,3.46875 z m -2.89453,0 q 0,-1.30078 -0.25781,-2.34375 -0.2461,-1.05469 -0.75,-1.80469 -0.49219,-0.75 -1.23047,-1.14843 -0.73828,-0.41016 -1.71094,-0.41016 -0.99609,0 -1.73437,0.41016 -0.73828,0.39843 -1.24219,1.14843 -0.50391,0.75 -0.75,1.80469 -0.24609,1.04297 -0.24609,2.34375 0,1.28906 0.24609,2.36719 0.25781,1.066404 0.75,1.839842 0.50391,0.773437 1.24219,1.207031 0.75,0.433594 1.72265,0.433594 1.04297,0 1.78125,-0.433594 0.75,-0.445313 1.23047,-1.21875 0.49219,-0.785156 0.71485,-1.851563 0.23437,-1.07812 0.23437,-2.34375 z" style="fill:#cccccc;fill-opacity:1" id="path952"/>
            <path d="m 360.69043,-94.545158 -3.14063,-6.269532 h -3.32812 v 6.269532 h -2.83594 v -16.511722 h 6.76172 q 1.26563,0 2.21484,0.35157 0.94922,0.33984 1.58204,0.98437 0.63281,0.63281 0.9375,1.54688 0.3164,0.90234 0.3164,2.03906 0,0.92578 -0.22265,1.69922 -0.22266,0.76172 -0.6211,1.35937 -0.39844,0.59766 -0.94922,1.00781 -0.55078,0.39844 -1.19531,0.58594 l 3.66797,6.937502 z m -0.33984,-11.449222 q 0,-1.20703 -0.65625,-1.79297 -0.64454,-0.58593 -1.83985,-0.58593 h -3.63281 v 4.875 h 3.70312 q 0.63282,0 1.08985,-0.17578 0.45703,-0.1875 0.75,-0.51563 0.29297,-0.33984 0.43359,-0.79687 0.15235,-0.45704 0.15235,-1.00782 z" style="fill:#cccccc;fill-opacity:1" id="path954"/>
            <path d="m 368.4248,-108.385 v 5.10937 h 6.9375 v 2.67188 h -6.9375 v 6.058592 h -2.83593 v -16.511722 h 9.98437 v 2.67188 z" style="fill:#cccccc;fill-opacity:1" id="path956"/>
            <path d="m 383.26074,-94.310783 q -1.26562,0 -2.32031,-0.363282 -1.05469,-0.375 -1.81641,-1.148437 -0.76172,-0.785156 -1.19531,-2.003906 -0.42187,-1.21875 -0.42187,-2.906252 v -10.32422 h 2.83593 v 10.05469 q 0,1.042969 0.21094,1.804688 0.21094,0.75 0.59766,1.242187 0.39843,0.480469 0.94922,0.714844 0.5625,0.222656 1.24218,0.222656 0.69141,0 1.26563,-0.234375 0.58594,-0.246093 0.99609,-0.75 0.42188,-0.503906 0.65625,-1.277343 0.23438,-0.773437 0.23438,-1.839847 v -9.9375 h 2.83593 v 10.14844 q 0,1.699219 -0.45703,2.941407 -0.44531,1.242187 -1.2539,2.0625 -0.8086,0.808593 -1.92188,1.207031 -1.11328,0.386719 -2.4375,0.386719 z" style="fill:#cccccc;fill-opacity:1" id="path958"/>
            <path d="m 391.83887,-94.545158 v -16.511722 h 2.83593 v 13.839847 h 7.26563 v 2.671875 z" style="fill:#cccccc;fill-opacity:1" id="path960"/>
            <path d="m 415.15918,-108.385 v 13.839842 h -2.83594 V -108.385 h -4.37109 v -2.67188 h 11.58984 v 2.67188 z" style="fill:#cccccc;fill-opacity:1" id="path962"/>
            <path d="m 421.08887,-94.545158 v -16.511722 h 10.65234 v 2.67188 h -7.81641 v 4.14844 h 7.23047 v 2.67187 h -7.23047 v 4.347657 h 8.20313 v 2.671875 z" style="fill:#cccccc;fill-opacity:1" id="path964"/>
            <path d="m 442.87402,-94.545158 -3.39843,-6.574222 -3.39844,6.574222 h -3 l 4.6875,-8.683592 -4.30078,-7.82813 h 3 l 3.01172,5.83594 3,-5.83594 h 2.98828 l -4.11328,7.82813 4.5,8.683592 z" style="fill:#cccccc;fill-opacity:1" id="path966"/>
            <path d="m 453.45605,-108.385 v 13.839842 h -2.83593 V -108.385 h -4.3711 v -2.67188 h 11.58985 v 2.67188 z" style="fill:#cccccc;fill-opacity:1" id="path968"/>
            <path d="m 465.01074,-94.310783 q -1.26562,0 -2.32031,-0.363282 -1.05469,-0.375 -1.81641,-1.148437 -0.76172,-0.785156 -1.19531,-2.003906 -0.42187,-1.21875 -0.42187,-2.906252 v -10.32422 h 2.83593 v 10.05469 q 0,1.042969 0.21094,1.804688 0.21094,0.75 0.59766,1.242187 0.39843,0.480469 0.94922,0.714844 0.5625,0.222656 1.24218,0.222656 0.69141,0 1.26563,-0.234375 0.58594,-0.246093 0.99609,-0.75 0.42188,-0.503906 0.65625,-1.277343 0.23438,-0.773437 0.23438,-1.839847 v -9.9375 h 2.83593 v 10.14844 q 0,1.699219 -0.45703,2.941407 -0.44531,1.242187 -1.2539,2.0625 -0.8086,0.808593 -1.92188,1.207031 -1.11328,0.386719 -2.4375,0.386719 z" style="fill:#cccccc;fill-opacity:1" id="path970"/>
            <path d="m 483.15137,-94.545158 -1.19532,-4.21875 h -5.15625 l -1.19531,4.21875 h -2.83594 l 4.9336,-16.511722 h 3.33984 l 4.92188,16.511722 z m -3.16407,-11.566402 q 0,0 -0.23437,-0.83204 -0.10547,-0.41015 -0.1875,-0.75 l -0.14063,-0.57421 q -0.0469,-0.22266 -0.0469,-0.2461 -0.0117,0.0352 -0.0586,0.25781 -0.0469,0.22266 -0.12891,0.5625 -0.082,0.33985 -0.1875,0.75 l -0.23438,0.83204 -1.33593,4.74609 h 3.89062 z" style="fill:#cccccc;fill-opacity:1" id="path972"/>
            <path d="m 487.79199,-94.545158 v -16.511722 h 2.83594 v 13.839847 h 7.26562 v 2.671875 z" style="fill:#cccccc;fill-opacity:1" id="path974"/>
        </g>
        <path d="m 262.1865,107.8335 -4.5,7.167 -4.5,-7.167 -7.167,-4.5 7.167,-4.5 4.5,-7.167 4.5,7.167 7.167,4.5 z" style="fill:#cccccc;fill-opacity:1;fill-rule:nonzero;stroke:none" id="path70"/>
        <g aria-label="SE" transform="scale(0.95169181,-1.0507603)" style="font-style:normal;font-variant:normal;font-weight:normal;font-stretch:normal;font-size:78.09500122px;line-height:1.25;font-family:'Doris PP';-inkscape-font-specification:'Doris PP, Normal';font-variant-ligatures:normal;font-variant-caps:normal;font-variant-numeric:normal;font-feature-settings:normal;text-align:start;letter-spacing:0px;word-spacing:0px;writing-mode:lr-tb;text-anchor:start;fill:#cccccc;fill-opacity:1;stroke:none;stroke-width:0.65080452" id="text923">
            <path d="m 459.94385,-37.641326 q 0,7.887595 -5.93522,12.260915 -5.85712,4.37332 -15.85328,4.37332 -4.60761,0 -8.82474,-0.859045 -4.21713,-0.78095 -6.87236,-1.5619 l 1.01524,-10.9333 q 1.32761,0.93714 5.54474,2.34285 4.21713,1.327615 8.43426,1.327615 4.13904,0 6.71617,-1.639995 2.65523,-1.639995 2.65523,-4.451415 0,-2.18666 -1.95237,-3.982845 -1.95238,-1.87428 -7.8095,-3.826655 -7.73141,-2.49904 -11.55806,-6.013315 -3.74856,-3.514276 -3.74856,-10.230446 0,-7.887595 5.77903,-12.18282 5.85712,-4.295225 16.00947,-4.295225 3.82666,0 7.34093,0.62476 3.59237,0.62476 6.01332,1.483805 l -0.93714,10.15235 q -2.73333,-1.24952 -5.70094,-1.87428 -2.88951,-0.702855 -6.32569,-0.702855 -4.13904,0 -6.55998,1.5619 -2.42095,1.483805 -2.42095,4.52951 0,2.108565 1.79619,3.59237 1.87428,1.483805 8.98092,3.90475 7.8876,2.577136 11.0114,6.247601 3.20189,3.670465 3.20189,10.15235 z" style="font-style:normal;font-variant:normal;font-weight:normal;font-stretch:normal;font-size:78.09500122px;font-family:'Doris PP';-inkscape-font-specification:'Doris PP, Normal';font-variant-ligatures:normal;font-variant-caps:normal;font-variant-numeric:normal;font-feature-settings:normal;text-align:start;writing-mode:lr-tb;text-anchor:start;stroke-width:0.65080452;fill:#cccccc;fill-opacity:1" id="path941"/>
            <path d="m 505.23407,-21.944231 h -36.07989 v -54.432216 h 35.61132 v 9.3714 h -22.80374 v 12.417105 h 21.16375 v 9.371401 h -21.16375 v 13.822815 h 23.27231 z" style="font-style:normal;font-variant:normal;font-weight:normal;font-stretch:normal;font-size:78.09500122px;font-family:'Doris PP';-inkscape-font-specification:'Doris PP, Normal';font-variant-ligatures:normal;font-variant-caps:normal;font-variant-numeric:normal;font-feature-settings:normal;text-align:start;writing-mode:lr-tb;text-anchor:start;stroke-width:0.65080452;fill:#cccccc;fill-opacity:1" id="path943"/>
        </g>
    </g>
</svg>
