<?xml version="1.0" encoding="UTF-8" standalone="no"?>
<svg xmlns:dc="http://purl.org/dc/elements/1.1/" xmlns:cc="http://creativecommons.org/ns#" xmlns:rdf="http://www.w3.org/1999/02/22-rdf-syntax-ns#" xmlns:svg="http://www.w3.org/2000/svg" xmlns="http://www.w3.org/2000/svg" xmlns:sodipodi="http://sodipodi.sourceforge.net/DTD/sodipodi-0.dtd" xmlns:inkscape="http://www.inkscape.org/namespaces/inkscape" version="1.1" viewBox="0 0 100 100" height="100" width="100" data-name="Layer 1" id="Layer_1" sodipodi:docname="ex.svg" inkscape:version="0.92.4 5da689c313, 2019-01-14">
    <sodipodi:namedview pagecolor="#ffffff" bordercolor="#666666" borderopacity="1" objecttolerance="10" gridtolerance="10" guidetolerance="10" inkscape:pageopacity="0" inkscape:pageshadow="2" inkscape:window-width="1899" inkscape:window-height="2110" id="namedview1764" showgrid="false" inkscape:zoom="6.675088" inkscape:cx="32.617553" inkscape:cy="41.603215" inkscape:window-x="3207" inkscape:window-y="12" inkscape:window-maximized="0" inkscape:current-layer="Layer_1"/>
    <metadata id="metadata4668">
        <rdf:RDF>
            <cc:Work rdf:about="">
                <dc:format>image/svg+xml</dc:format>
                <dc:type rdf:resource="http://purl.org/dc/dcmitype/StillImage"/>
                <dc:title>arena</dc:title>
            </cc:Work>
        </rdf:RDF>
    </metadata>
    <defs id="defs4657">
        <style id="style4655">
            .cls-1 {
                fill: #ccc;
                stroke: #000;
                stroke-miterlimit: 10;
                stroke-width: 2px;
            }
        </style>
    </defs>
    <title id="title4659">arena</title>
    <polygon transform="rotate(-90,50,50)" style="fill:#008b8b;fill-opacity:0.18431373;stroke:#000000;stroke-width:2px;stroke-miterlimit:10;stroke-opacity:1" id="polygon4661-9" points="68.3,68.3 97.44,50 68.3,31.7 50,2.56 31.7,31.7 2.56,50 31.7,68.3 50,97.44 " class="cls-1"/>
    <g style="fill:#008b8b;fill-opacity:1" transform="matrix(1.1251326,0,0,1.1251326,-87.474346,41.150328)" id="g6159">
        <path style="fill:#008b8b;fill-opacity:1" d="m 137.18432,-7.0980746 -10.19,7.12999997 -5.29,3.73000003 -0.1,0.06 a 4.17,4.17 0 0 1 -6.59,4.62 l -5.42,3.7899996 a 10.66,10.66 0 0 0 10.04,3.49 l 3.74,14.48 z" id="path5575"/>
        <path style="fill:#008b8b;fill-opacity:1" d="m 113.70432,6.6219254 a 4.17,4.17 0 0 1 6.6,-4.61 l 5.4,-3.8 a 10.7,10.7 0 0 0 -17.44,12.1999996 z" id="path5577"/>
        <circle style="fill:#008b8b;fill-opacity:1" cx="117.64432" cy="5.2219243" r="2.1800001" id="circle5579"/>
    </g>
</svg>
