<?xml version="1.0" encoding="UTF-8" standalone="no"?>
<svg xmlns:dc="http://purl.org/dc/elements/1.1/" xmlns:cc="http://creativecommons.org/ns#" xmlns:rdf="http://www.w3.org/1999/02/22-rdf-syntax-ns#" xmlns:svg="http://www.w3.org/2000/svg" xmlns="http://www.w3.org/2000/svg" version="1.1" viewBox="0 0 100 100" height="100" width="100" data-name="Layer 1" id="Layer_1">
    <metadata id="metadata15">
        <rdf:RDF>
            <cc:Work rdf:about="">
                <dc:format>image/svg+xml</dc:format>
                <dc:type rdf:resource="http://purl.org/dc/dcmitype/StillImage"/>
                <dc:title>101</dc:title>
            </cc:Work>
        </rdf:RDF>
    </metadata>
    <defs id="defs4">
        <style id="style2">
            .compass {
                stroke-miterlimit: 10;
                stroke-width: 2px;
                fill: #33373b;
                stroke: #ccddee;
            }
            .grass {
                fill: #7a848e;
            }
        </style>
    </defs>
    <title id="title6">101</title>
    <polygon id="polygon8" points="68.3 31.7 50 2.56 31.7 31.7 2.56 50 31.7 68.3 50 97.44 68.3 68.3 97.44 50 68.3 31.7" class="compass"/>
    <path id="path10" d="M66,64.21c1.2-21.07-3.68-26.9-3.68-26.9a121.93,121.93,0,0,1-.93,24.42,72.93,72.93,0,0,0-3.24-15.79s-.69,7.23-2,15.55A220.68,220.68,0,0,1,57,28.22s-2.7,8.42-5.31,20.7c-1.43-5.06-3.3-10.72-5.73-17,0,0,.58,11,.36,23.14-2.93-7.26-5.74-9.87-5.74-9.87a73,73,0,0,1,2.21,12,32.39,32.39,0,0,0-6.48-9.31,118,118,0,0,1,3.25,21.16c-5.83-10.51-12.81-14.2-12.81-14.2a43.29,43.29,0,0,1,7.73,16L50,95.56,65.28,71.22l2.29-3.65.29-.18a39.63,39.63,0,0,1,7.94-8.81A30.74,30.74,0,0,0,66,64.21Z" class="grass"/>
    <g id="text19" style="font-style:normal;font-variant:normal;font-weight:bold;font-stretch:condensed;font-size:16px;line-height:1.25;font-family:'Liberation Sans Narrow';-inkscape-font-specification:'Liberation Sans Narrow, Bold Condensed';font-variant-ligatures:normal;font-variant-caps:normal;font-variant-numeric:normal;font-feature-settings:normal;text-align:center;letter-spacing:0px;word-spacing:0px;writing-mode:lr-tb;text-anchor:middle;fill:#ccddee;fill-opacity:1;stroke:none" aria-label="101">
        <path id="path14" style="" d="m 40.003906,73.22377 v -1.632812 h 2.234375 v -7.507813 l -2.164062,1.648438 V 64.00502 l 2.257812,-1.789062 h 1.703125 v 9.375 h 2.070313 v 1.632812 z"/>
        <path id="path16" style="" d="m 53.246094,67.715958 q 0,1.578125 -0.242188,2.664062 -0.234375,1.078125 -0.65625,1.75 -0.414062,0.664063 -0.992187,0.960938 -0.570313,0.289062 -1.25,0.289062 -0.679688,0 -1.25,-0.289062 -0.570313,-0.289063 -0.984375,-0.953125 -0.40625,-0.671875 -0.640625,-1.75 -0.226563,-1.085938 -0.226563,-2.671875 0,-1.664063 0.226563,-2.75 0.234375,-1.09375 0.648437,-1.742188 0.414063,-0.648437 0.992188,-0.90625 0.585937,-0.265625 1.289062,-0.265625 0.65625,0 1.21875,0.265625 0.570313,0.257813 0.984375,0.90625 0.414063,0.648438 0.648438,1.742188 0.234375,1.085937 0.234375,2.75 z m -1.804688,0 q 0,-1.164063 -0.07031,-1.921875 -0.07031,-0.765625 -0.226563,-1.210938 -0.15625,-0.453125 -0.40625,-0.632812 -0.242187,-0.179688 -0.59375,-0.179688 -0.375,0 -0.632812,0.1875 -0.257813,0.179688 -0.414063,0.632813 -0.15625,0.453125 -0.226562,1.21875 -0.0625,0.757812 -0.0625,1.90625 0,1.132812 0.07031,1.890625 0.07031,0.757812 0.21875,1.21875 0.15625,0.453125 0.40625,0.640625 0.25,0.1875 0.617188,0.1875 0.351562,0 0.601562,-0.1875 0.25,-0.1875 0.40625,-0.640625 0.164063,-0.460938 0.234375,-1.21875 0.07813,-0.757813 0.07813,-1.890625 z"/>
        <path id="path18" style="" d="m 54.628906,73.22377 v -1.632812 h 2.234375 v -7.507813 l -2.164062,1.648438 V 64.00502 l 2.257812,-1.789062 h 1.703125 v 9.375 h 2.070313 v 1.632812 z"/>
    </g>
    <g id="text23" style="font-style:normal;font-variant:normal;font-weight:bold;font-stretch:condensed;font-size:24px;line-height:1.25;font-family:'Liberation Sans Narrow';-inkscape-font-specification:'Liberation Sans Narrow, Bold Condensed';font-variant-ligatures:normal;font-variant-caps:normal;font-variant-numeric:normal;font-feature-settings:normal;text-align:center;letter-spacing:0px;word-spacing:0px;writing-mode:lr-tb;text-anchor:middle;fill:#ffffff;fill-opacity:1;stroke:#ffffff;stroke-width:0px" aria-label="E.TROD">
        <path id="path21" style="" d="M 14.117188,58 V 41.488281 h 10.652343 v 2.671875 h -7.816406 v 4.148438 h 7.230469 v 2.671875 h -7.230469 v 4.347656 H 25.15625 V 58 Z"/>
        <path id="path23" style="" d="m 27.265625,58 v -3.574219 h 2.777344 V 58 Z"/>
        <path id="path25" style="" d="M 38.84375,44.160156 V 58 H 36.007812 V 44.160156 h -4.371093 v -2.671875 h 11.589843 v 2.671875 z"/>
        <path id="path27" style="" d="M 54.078125,58 50.9375,51.730469 H 47.609375 V 58 H 44.773437 V 41.488281 h 6.761719 q 1.265625,0 2.214844,0.351563 0.949219,0.339843 1.582031,0.984375 0.632813,0.632812 0.9375,1.546875 0.316406,0.902343 0.316406,2.039062 0,0.925781 -0.222656,1.699219 -0.222656,0.761719 -0.621094,1.359375 -0.398437,0.597656 -0.949218,1.007812 Q 54.242187,50.875 53.597656,51.0625 L 57.265625,58 Z M 53.738281,46.550781 q 0,-1.207031 -0.65625,-1.792969 -0.644531,-0.585937 -1.839844,-0.585937 h -3.632812 v 4.875 H 51.3125 q 0.632812,0 1.089844,-0.175781 0.457031,-0.1875 0.75,-0.515625 0.292968,-0.339844 0.433593,-0.796875 0.152344,-0.457032 0.152344,-1.007813 z"/>
        <path id="path29" style="" d="m 72.148437,49.667969 q 0,1.933593 -0.46875,3.515625 -0.46875,1.582031 -1.359375,2.707031 -0.878906,1.125 -2.15625,1.734375 -1.265625,0.609375 -2.871093,0.609375 -1.699219,0 -2.976563,-0.632813 -1.277344,-0.644531 -2.132812,-1.78125 -0.855469,-1.148437 -1.289063,-2.71875 -0.421875,-1.570312 -0.421875,-3.433593 0,-1.933594 0.445313,-3.492188 0.445312,-1.558594 1.3125,-2.648437 0.878906,-1.101563 2.144531,-1.6875 1.277344,-0.597657 2.929687,-0.597657 1.652344,0 2.929688,0.597657 1.277344,0.597656 2.144531,1.699218 0.867188,1.101563 1.3125,2.660157 0.457031,1.546875 0.457031,3.46875 z m -2.894531,0 q 0,-1.300782 -0.257812,-2.34375 -0.246094,-1.054688 -0.75,-1.804688 -0.492188,-0.75 -1.230469,-1.148437 -0.738281,-0.410157 -1.710938,-0.410157 -0.996093,0 -1.734375,0.410157 -0.738281,0.398437 -1.242187,1.148437 -0.503906,0.75 -0.75,1.804688 -0.246094,1.042968 -0.246094,2.34375 0,1.289062 0.246094,2.367187 0.257812,1.066406 0.75,1.839844 0.503906,0.773437 1.242187,1.207031 0.75,0.433594 1.722657,0.433594 1.042968,0 1.78125,-0.433594 0.75,-0.445312 1.230468,-1.21875 0.492188,-0.785156 0.714844,-1.851562 0.234375,-1.078125 0.234375,-2.34375 z"/>
        <path id="path31" style="" d="m 86.375,49.621094 q 0,2.0625 -0.515625,3.632812 -0.503906,1.558594 -1.394531,2.613281 -0.878907,1.054688 -2.085938,1.59375 Q 81.171875,58 79.777344,58 H 74.304687 V 41.488281 h 4.898438 q 1.570312,0 2.882812,0.480469 1.324219,0.480469 2.273438,1.476562 0.949219,0.996094 1.476562,2.53125 0.539063,1.535157 0.539063,3.644532 z m -2.859375,0 q 0,-1.441407 -0.328125,-2.472657 -0.316406,-1.03125 -0.890625,-1.6875 -0.574219,-0.667968 -1.382813,-0.984375 -0.796875,-0.316406 -1.769531,-0.316406 h -2.003906 v 11.167969 h 2.402344 q 0.855468,0 1.582031,-0.363281 0.726562,-0.363282 1.253906,-1.078125 0.539063,-0.726563 0.832031,-1.792969 0.304688,-1.066406 0.304688,-2.472656 z"/>
    </g>
</svg>
