<?xml version="1.0" encoding="UTF-8" standalone="no"?>
<svg xmlns:dc="http://purl.org/dc/elements/1.1/" xmlns:cc="http://creativecommons.org/ns#" xmlns:rdf="http://www.w3.org/1999/02/22-rdf-syntax-ns#" xmlns:svg="http://www.w3.org/2000/svg" xmlns="http://www.w3.org/2000/svg" version="1.1" viewBox="0 0 100 100" height="100" width="100" data-name="Layer 1" id="Layer_1">
    <metadata id="metadata15">
        <rdf:RDF>
            <cc:Work rdf:about="">
                <dc:format>image/svg+xml</dc:format>
                <dc:type rdf:resource="http://purl.org/dc/dcmitype/StillImage"/>
                <dc:title>126</dc:title>
            </cc:Work>
        </rdf:RDF>
    </metadata>
    <defs id="defs4">
        <style id="style2">
            .compass {
                stroke-miterlimit: 10;
                stroke-width: 2px;
                fill: #3f1d0c;
                stroke: #ff7733;
            }
            .grass {
                fill: #99471e;
            }
        </style>
    </defs>
    <title id="title6">126</title>
    <polygon id="polygon8" points="68.3 31.7 50 2.56 31.7 31.7 2.56 50 31.7 68.3 50 97.44 68.3 68.3 97.44 50 68.3 31.7" class="compass"/>
    <path id="path10" d="M66,64.21c1.2-21.07-3.68-26.9-3.68-26.9a121.93,121.93,0,0,1-.93,24.42,72.93,72.93,0,0,0-3.24-15.79s-.69,7.23-2,15.55A220.68,220.68,0,0,1,57,28.22s-2.7,8.42-5.31,20.7c-1.43-5.06-3.3-10.72-5.73-17,0,0,.58,11,.36,23.14-2.93-7.26-5.74-9.87-5.74-9.87a73,73,0,0,1,2.21,12,32.39,32.39,0,0,0-6.48-9.31,118,118,0,0,1,3.25,21.16c-5.83-10.51-12.81-14.2-12.81-14.2a43.29,43.29,0,0,1,7.73,16L50,95.56,65.28,71.22l2.29-3.65.29-.18a39.63,39.63,0,0,1,7.94-8.81A30.74,30.74,0,0,0,66,64.21Z" class="grass"/>
    <g id="text19" style="font-style:normal;font-variant:normal;font-weight:bold;font-stretch:condensed;font-size:16px;line-height:1.25;font-family:'Liberation Sans Narrow';-inkscape-font-specification:'Liberation Sans Narrow, Bold Condensed';font-variant-ligatures:normal;font-variant-caps:normal;font-variant-numeric:normal;font-feature-settings:normal;text-align:center;letter-spacing:0px;word-spacing:0px;writing-mode:lr-tb;text-anchor:middle;fill:#ff7733;fill-opacity:1;stroke:none" aria-label="126">
        <path id="path14" style="" d="m 40.003906,73.22377 v -1.632812 h 2.234375 v -7.507813 l -2.164062,1.648438 V 64.00502 l 2.257812,-1.789062 h 1.703125 v 9.375 h 2.070313 v 1.632812 z"/>
        <path id="path16" style="" d="m 46.941406,73.22377 v -1.523437 q 0.304688,-0.820313 0.75,-1.476563 0.445313,-0.664062 0.929688,-1.210937 0.484375,-0.554688 0.960937,-1.023438 0.476563,-0.476562 0.851563,-0.914062 0.382812,-0.445313 0.617187,-0.890625 0.242188,-0.445313 0.242188,-0.945313 0,-0.734375 -0.304688,-1.085937 -0.296875,-0.351563 -0.882812,-0.351563 -0.578125,0 -0.882813,0.382813 -0.296875,0.375 -0.390625,1.132812 l -1.8125,-0.125 q 0.0625,-0.648437 0.257813,-1.21875 0.203125,-0.570312 0.570312,-1 0.367188,-0.429687 0.921875,-0.671875 0.554688,-0.25 1.328125,-0.25 0.726563,0 1.289063,0.210938 0.5625,0.203125 0.945312,0.601562 0.390625,0.398438 0.585938,0.976563 0.203125,0.570312 0.203125,1.304687 0,0.773438 -0.25,1.398438 -0.25,0.625 -0.640625,1.15625 -0.390625,0.523437 -0.867188,0.984375 l -0.921875,0.898437 q -0.453125,0.4375 -0.828125,0.882813 -0.367187,0.445312 -0.546875,0.953125 h 4.195313 v 1.804687 z"/>
        <path id="path18" style="" d="m 60.621094,69.622208 q 0,0.828125 -0.195313,1.523437 -0.1875,0.6875 -0.570312,1.1875 -0.375,0.492188 -0.945313,0.773438 -0.570312,0.273437 -1.320312,0.273437 -1.59375,0 -2.453125,-1.359375 -0.851563,-1.367187 -0.851563,-4.046875 0,-2.945312 0.867188,-4.429687 0.867187,-1.492188 2.476562,-1.492188 0.539063,0 0.976563,0.140625 0.445312,0.132813 0.789062,0.4375 0.351563,0.304688 0.59375,0.789063 0.242188,0.476562 0.390625,1.164062 l -1.695312,0.289063 q -0.125,-0.578125 -0.414063,-0.828125 -0.289062,-0.257813 -0.679687,-0.257813 -0.726563,0 -1.140625,0.882813 -0.40625,0.882812 -0.40625,2.679687 0.289062,-0.585937 0.796875,-0.898437 0.515625,-0.3125 1.164062,-0.3125 0.59375,0 1.078125,0.242187 0.484375,0.234375 0.828125,0.6875 0.34375,0.445313 0.523438,1.09375 0.1875,0.648438 0.1875,1.460938 z m -1.804688,0.0625 q 0,-0.445313 -0.08594,-0.796875 -0.07813,-0.359375 -0.25,-0.609375 -0.171875,-0.25 -0.421875,-0.382813 -0.25,-0.140625 -0.570313,-0.140625 -0.234375,0 -0.476562,0.09375 -0.242188,0.09375 -0.429688,0.304688 -0.179687,0.203125 -0.296875,0.523437 -0.117187,0.320313 -0.117187,0.773438 0,0.46875 0.09375,0.875 0.101562,0.40625 0.273437,0.710937 0.179688,0.296875 0.429688,0.46875 0.25,0.164063 0.5625,0.164063 0.609375,0 0.945312,-0.523438 0.34375,-0.53125 0.34375,-1.460937 z"/>
    </g>
    <g id="text23" style="font-style:normal;font-variant:normal;font-weight:bold;font-stretch:condensed;font-size:24px;line-height:1.25;font-family:'Liberation Sans Narrow';-inkscape-font-specification:'Liberation Sans Narrow, Bold Condensed';font-variant-ligatures:normal;font-variant-caps:normal;font-variant-numeric:normal;font-feature-settings:normal;text-align:center;letter-spacing:0px;word-spacing:0px;writing-mode:lr-tb;text-anchor:middle;fill:#ffffff;fill-opacity:1;stroke:#ffffff;stroke-width:0px" aria-label="MG.MR">
        <path id="path21" style="" d="M 28.648437,58 V 47.992187 q 0,-0.597656 0.01172,-1.230468 0.01172,-0.632813 0.03516,-1.160157 0,0 0.04687,-1.207031 0,0 -0.386718,1.757813 0,0 -0.164063,0.726562 L 28.027344,47.605469 27.875,48.261719 27.734375,48.789062 25.296875,58 h -2.027344 l -2.4375,-9.210938 q -0.05859,-0.222656 -0.128906,-0.527343 L 20.550781,47.605469 20.375,46.878906 20.210937,46.152344 q 0,0 -0.410156,-1.757813 0.02344,0.679688 0.05859,1.335938 0.02344,0.5625 0.03516,1.183593 0.02344,0.621094 0.02344,1.078125 V 58 H 17.398437 V 41.488281 h 3.796875 l 2.425782,9.234375 q 0.09375,0.363281 0.199218,0.890625 l 0.222657,1.019531 q 0,0 0.246093,1.195313 0,0 0.257813,-1.171875 0,0 0.117187,-0.503906 l 0.117188,-0.503907 q 0.05859,-0.246093 0.117187,-0.46875 l 0.105469,-0.398437 2.378906,-9.292969 h 3.785157 V 58 Z"/>
        <path id="path23" style="" d="m 40.238281,55.527344 q 0.621094,0 1.183594,-0.117188 0.574219,-0.117187 1.054687,-0.304687 0.480469,-0.199219 0.867188,-0.445313 0.398437,-0.257812 0.644531,-0.527344 v -2.285156 h -3.304687 v -2.554687 h 5.90625 v 6.070312 Q 46.132812,55.9375 45.476562,56.464844 44.820312,56.980469 44,57.378906 43.179687,57.765625 42.207031,58 q -0.960937,0.234375 -2.039062,0.234375 -1.792969,0 -3.09375,-0.632813 -1.300782,-0.644531 -2.144532,-1.78125 -0.832031,-1.148437 -1.230468,-2.71875 -0.398438,-1.570312 -0.398438,-3.433593 0,-1.933594 0.421875,-3.492188 Q 34.144531,44.617187 35,43.527344 q 0.867187,-1.101563 2.167969,-1.6875 1.300781,-0.597657 3.058593,-0.597657 1.277344,0 2.273438,0.304688 0.996094,0.304687 1.746094,0.867187 0.75,0.5625 1.253906,1.359375 0.503906,0.785157 0.796875,1.769532 l -2.613281,0.960937 Q 43.507812,45.988281 43.214844,45.53125 42.933594,45.0625 42.5,44.722656 q -0.421875,-0.351562 -0.984375,-0.550781 -0.5625,-0.210938 -1.289063,-0.210938 -1.054687,0 -1.828125,0.410157 -0.761718,0.398437 -1.265625,1.148437 -0.492187,0.75 -0.738281,1.804688 -0.234375,1.042968 -0.234375,2.34375 0,1.289062 0.234375,2.367187 0.246094,1.078125 0.75,1.851563 0.515625,0.773437 1.277344,1.207031 0.773437,0.433594 1.816406,0.433594 z"/>
        <path id="path25" style="" d="m 49.15625,58 v -3.574219 h 2.777344 V 58 Z"/>
        <path id="path27" style="" d="M 65.867187,58 V 47.992187 q 0,-0.597656 0.01172,-1.230468 0.01172,-0.632813 0.03516,-1.160157 0,0 0.04687,-1.207031 0,0 -0.386718,1.757813 0,0 -0.164063,0.726562 l -0.164062,0.726563 -0.152344,0.65625 -0.140625,0.527343 L 62.515625,58 h -2.027344 l -2.4375,-9.210938 q -0.05859,-0.222656 -0.128906,-0.527343 l -0.152344,-0.65625 -0.175781,-0.726563 -0.164063,-0.726562 q 0,0 -0.410156,-1.757813 0.02344,0.679688 0.05859,1.335938 0.02344,0.5625 0.03516,1.183593 0.02344,0.621094 0.02344,1.078125 V 58 H 54.617187 V 41.488281 h 3.796875 l 2.425782,9.234375 q 0.09375,0.363281 0.199218,0.890625 l 0.222657,1.019531 q 0,0 0.246093,1.195313 0,0 0.257813,-1.171875 0,0 0.117187,-0.503906 L 62,51.648437 q 0.05859,-0.246093 0.117187,-0.46875 l 0.105469,-0.398437 2.378906,-9.292969 h 3.785157 V 58 Z"/>
        <path id="path29" style="" d="M 80.328125,58 77.1875,51.730469 H 73.859375 V 58 H 71.023437 V 41.488281 h 6.761719 q 1.265625,0 2.214844,0.351563 0.949219,0.339843 1.582031,0.984375 0.632813,0.632812 0.9375,1.546875 0.316406,0.902343 0.316406,2.039062 0,0.925781 -0.222656,1.699219 -0.222656,0.761719 -0.621094,1.359375 -0.398437,0.597656 -0.949218,1.007812 Q 80.492187,50.875 79.847656,51.0625 L 83.515625,58 Z M 79.988281,46.550781 q 0,-1.207031 -0.65625,-1.792969 -0.644531,-0.585937 -1.839844,-0.585937 h -3.632812 v 4.875 H 77.5625 q 0.632812,0 1.089844,-0.175781 0.457031,-0.1875 0.75,-0.515625 0.292968,-0.339844 0.433593,-0.796875 0.152344,-0.457032 0.152344,-1.007813 z"/>
    </g>
</svg>
