<?xml version="1.0" encoding="UTF-8" standalone="no"?>
<svg xmlns:dc="http://purl.org/dc/elements/1.1/" xmlns:cc="http://creativecommons.org/ns#" xmlns:rdf="http://www.w3.org/1999/02/22-rdf-syntax-ns#" xmlns:svg="http://www.w3.org/2000/svg" xmlns="http://www.w3.org/2000/svg" version="1.1" viewBox="0 0 100 100" height="100" width="100" data-name="Layer 1" id="Layer_1">
    <metadata id="metadata15">
        <rdf:RDF>
            <cc:Work rdf:about="">
                <dc:format>image/svg+xml</dc:format>
                <dc:type rdf:resource="http://purl.org/dc/dcmitype/StillImage"/>
                <dc:title>130</dc:title>
            </cc:Work>
        </rdf:RDF>
    </metadata>
    <defs id="defs4">
        <style id="style2">
            .compass {
                stroke-miterlimit: 10;
                stroke-width: 2px;
                fill: #0c222e;
                stroke: #3388bb;
            }
            .grass {
                fill: #1e5170;
            }
        </style>
    </defs>
    <title id="title6">130</title>
    <polygon id="polygon8" points="68.3 31.7 50 2.56 31.7 31.7 2.56 50 31.7 68.3 50 97.44 68.3 68.3 97.44 50 68.3 31.7" class="compass"/>
    <path id="path10" d="M66,64.21c1.2-21.07-3.68-26.9-3.68-26.9a121.93,121.93,0,0,1-.93,24.42,72.93,72.93,0,0,0-3.24-15.79s-.69,7.23-2,15.55A220.68,220.68,0,0,1,57,28.22s-2.7,8.42-5.31,20.7c-1.43-5.06-3.3-10.72-5.73-17,0,0,.58,11,.36,23.14-2.93-7.26-5.74-9.87-5.74-9.87a73,73,0,0,1,2.21,12,32.39,32.39,0,0,0-6.48-9.31,118,118,0,0,1,3.25,21.16c-5.83-10.51-12.81-14.2-12.81-14.2a43.29,43.29,0,0,1,7.73,16L50,95.56,65.28,71.22l2.29-3.65.29-.18a39.63,39.63,0,0,1,7.94-8.81A30.74,30.74,0,0,0,66,64.21Z" class="grass"/>
    <g id="text19" style="font-style:normal;font-variant:normal;font-weight:bold;font-stretch:condensed;font-size:16px;line-height:1.25;font-family:'Liberation Sans Narrow';-inkscape-font-specification:'Liberation Sans Narrow, Bold Condensed';font-variant-ligatures:normal;font-variant-caps:normal;font-variant-numeric:normal;font-feature-settings:normal;text-align:center;letter-spacing:0px;word-spacing:0px;writing-mode:lr-tb;text-anchor:middle;fill:#3388bb;fill-opacity:1;stroke:none" aria-label="130">
        <path id="path14" style="" d="m 40.003906,73.22377 v -1.632812 h 2.234375 v -7.507813 l -2.164062,1.648438 V 64.00502 l 2.257812,-1.789062 h 1.703125 v 9.375 h 2.070313 v 1.632812 z"/>
        <path id="path16" style="" d="m 53.308594,70.169083 q 0,0.75 -0.203125,1.351562 -0.195313,0.59375 -0.601563,1.015625 -0.40625,0.421875 -1.007812,0.648438 -0.59375,0.21875 -1.390625,0.21875 -0.882813,0 -1.492188,-0.273438 -0.601562,-0.273437 -0.992187,-0.71875 -0.382813,-0.453125 -0.578125,-1.023437 -0.195313,-0.570313 -0.25,-1.15625 l 1.828125,-0.195313 q 0.03906,0.351563 0.140625,0.648438 0.109375,0.289062 0.289062,0.5 0.179688,0.210937 0.4375,0.328125 0.257813,0.109375 0.609375,0.109375 0.648438,0 1.007813,-0.390625 0.359375,-0.390625 0.359375,-1.195313 0,-0.492187 -0.171875,-0.789062 -0.164063,-0.296875 -0.429688,-0.453125 -0.257812,-0.164063 -0.5625,-0.21875 -0.296875,-0.05469 -0.5625,-0.05469 h -0.632812 v -1.773437 h 0.59375 q 0.265625,0 0.546875,-0.0625 0.28125,-0.0625 0.5,-0.226563 0.226562,-0.164062 0.367187,-0.453125 0.140625,-0.296875 0.140625,-0.75 0,-0.679687 -0.3125,-1.0625 -0.304687,-0.390625 -0.90625,-0.390625 -0.554687,0 -0.898437,0.375 -0.34375,0.375 -0.390625,1.0625 l -1.804688,-0.15625 q 0.07813,-0.773437 0.351563,-1.34375 0.273437,-0.570312 0.6875,-0.945312 0.414062,-0.375 0.945312,-0.554688 0.539063,-0.1875 1.140625,-0.1875 0.796875,0 1.367188,0.234375 0.570312,0.234375 0.9375,0.632813 0.367187,0.398437 0.539062,0.929687 0.171875,0.53125 0.171875,1.132813 0,0.484375 -0.117187,0.90625 -0.117188,0.414062 -0.351563,0.75 -0.234375,0.328125 -0.601562,0.570312 -0.359375,0.234375 -0.859375,0.351563 v 0.03125 q 0.554687,0.07813 0.960937,0.3125 0.414063,0.226562 0.679688,0.570312 0.265625,0.34375 0.390625,0.78125 0.125,0.429688 0.125,0.914063 z"/>
        <path id="path18" style="" d="m 60.558594,67.715958 q 0,1.578125 -0.242188,2.664062 -0.234375,1.078125 -0.65625,1.75 -0.414062,0.664063 -0.992187,0.960938 -0.570313,0.289062 -1.25,0.289062 -0.679688,0 -1.25,-0.289062 -0.570313,-0.289063 -0.984375,-0.953125 -0.40625,-0.671875 -0.640625,-1.75 -0.226563,-1.085938 -0.226563,-2.671875 0,-1.664063 0.226563,-2.75 0.234375,-1.09375 0.648437,-1.742188 0.414063,-0.648437 0.992188,-0.90625 0.585937,-0.265625 1.289062,-0.265625 0.65625,0 1.21875,0.265625 0.570313,0.257813 0.984375,0.90625 0.414063,0.648438 0.648438,1.742188 0.234375,1.085937 0.234375,2.75 z m -1.804688,0 q 0,-1.164063 -0.07031,-1.921875 -0.07031,-0.765625 -0.226563,-1.210938 -0.15625,-0.453125 -0.40625,-0.632812 -0.242187,-0.179688 -0.59375,-0.179688 -0.375,0 -0.632812,0.1875 -0.257813,0.179688 -0.414063,0.632813 -0.15625,0.453125 -0.226562,1.21875 -0.0625,0.757812 -0.0625,1.90625 0,1.132812 0.07031,1.890625 0.07031,0.757812 0.21875,1.21875 0.15625,0.453125 0.40625,0.640625 0.25,0.1875 0.617188,0.1875 0.351562,0 0.601562,-0.1875 0.25,-0.1875 0.40625,-0.640625 0.164063,-0.460938 0.234375,-1.21875 0.07813,-0.757813 0.07813,-1.890625 z"/>
    </g>
    <g id="text23" style="font-style:normal;font-variant:normal;font-weight:bold;font-stretch:condensed;font-size:24px;line-height:1.25;font-family:'Liberation Sans Narrow';-inkscape-font-specification:'Liberation Sans Narrow, Bold Condensed';font-variant-ligatures:normal;font-variant-caps:normal;font-variant-numeric:normal;font-feature-settings:normal;text-align:center;letter-spacing:0px;word-spacing:0px;writing-mode:lr-tb;text-anchor:middle;fill:#ffffff;fill-opacity:1;stroke:#ffffff;stroke-width:0px" aria-label="GY.DOS">
        <path id="path21" style="" d="m 20.527344,55.527344 q 0.621093,0 1.183593,-0.117188 0.574219,-0.117187 1.054688,-0.304687 0.480469,-0.199219 0.867187,-0.445313 0.398438,-0.257812 0.644532,-0.527344 v -2.285156 h -3.304688 v -2.554687 h 5.90625 v 6.070312 q -0.457031,0.574219 -1.113281,1.101563 -0.65625,0.515625 -1.476563,0.914062 Q 23.46875,57.765625 22.496094,58 q -0.960938,0.234375 -2.039063,0.234375 -1.792969,0 -3.09375,-0.632813 -1.300781,-0.644531 -2.144531,-1.78125 -0.832031,-1.148437 -1.230469,-2.71875 -0.398437,-1.570312 -0.398437,-3.433593 0,-1.933594 0.421875,-3.492188 0.421875,-1.558594 1.277344,-2.648437 0.867187,-1.101563 2.167968,-1.6875 1.300781,-0.597657 3.058594,-0.597657 1.277344,0 2.273437,0.304688 0.996094,0.304687 1.746094,0.867187 0.75,0.5625 1.253906,1.359375 0.503907,0.785157 0.796875,1.769532 l -2.613281,0.960937 q -0.175781,-0.515625 -0.46875,-0.972656 -0.28125,-0.46875 -0.714844,-0.808594 -0.421875,-0.351562 -0.984375,-0.550781 -0.5625,-0.210938 -1.289062,-0.210938 -1.054688,0 -1.828125,0.410157 -0.761719,0.398437 -1.265625,1.148437 -0.492188,0.75 -0.738281,1.804688 -0.234375,1.042968 -0.234375,2.34375 0,1.289062 0.234375,2.367187 0.246093,1.078125 0.75,1.851563 0.515625,0.773437 1.277343,1.207031 0.773438,0.433594 1.816407,0.433594 z"/>
        <path id="path23" style="" d="M 36.089844,51.226562 V 58 h -2.824219 v -6.773438 l -4.816406,-9.738281 h 2.964843 l 3.246094,6.984375 3.292969,-6.984375 h 2.964844 z"/>
        <path id="path25" style="" d="m 40.414062,58 v -3.574219 h 2.777344 V 58 Z"/>
        <path id="path27" style="" d="m 57.945312,49.621094 q 0,2.0625 -0.515625,3.632812 -0.503906,1.558594 -1.394531,2.613281 -0.878906,1.054688 -2.085937,1.59375 Q 52.742187,58 51.347656,58 H 45.875 V 41.488281 h 4.898437 q 1.570313,0 2.882813,0.480469 1.324219,0.480469 2.273437,1.476562 0.949219,0.996094 1.476563,2.53125 0.539062,1.535157 0.539062,3.644532 z m -2.859375,0 q 0,-1.441407 -0.328125,-2.472657 -0.316406,-1.03125 -0.890625,-1.6875 -0.574218,-0.667968 -1.382812,-0.984375 -0.796875,-0.316406 -1.769531,-0.316406 h -2.003907 v 11.167969 h 2.402344 q 0.855469,0 1.582031,-0.363281 0.726563,-0.363282 1.253907,-1.078125 0.539062,-0.726563 0.832031,-1.792969 0.304687,-1.066406 0.304687,-2.472656 z"/>
        <path id="path29" style="" d="m 73.25,49.667969 q 0,1.933593 -0.46875,3.515625 -0.46875,1.582031 -1.359375,2.707031 -0.878906,1.125 -2.15625,1.734375 Q 68,58.234375 66.394531,58.234375 q -1.699219,0 -2.976562,-0.632813 -1.277344,-0.644531 -2.132813,-1.78125 -0.855469,-1.148437 -1.289062,-2.71875 -0.421875,-1.570312 -0.421875,-3.433593 0,-1.933594 0.445312,-3.492188 0.445313,-1.558594 1.3125,-2.648437 0.878906,-1.101563 2.144531,-1.6875 1.277344,-0.597657 2.929688,-0.597657 1.652344,0 2.929687,0.597657 1.277344,0.597656 2.144532,1.699218 0.867187,1.101563 1.3125,2.660157 Q 73.25,47.746094 73.25,49.667969 Z m -2.894531,0 q 0,-1.300782 -0.257813,-2.34375 -0.246094,-1.054688 -0.75,-1.804688 -0.492187,-0.75 -1.230469,-1.148437 -0.738281,-0.410157 -1.710937,-0.410157 -0.996094,0 -1.734375,0.410157 -0.738281,0.398437 -1.242188,1.148437 -0.503906,0.75 -0.75,1.804688 -0.246093,1.042968 -0.246093,2.34375 0,1.289062 0.246093,2.367187 0.257813,1.066406 0.75,1.839844 0.503907,0.773437 1.242188,1.207031 0.75,0.433594 1.722656,0.433594 1.042969,0 1.78125,-0.433594 0.75,-0.445312 1.230469,-1.21875 0.492187,-0.785156 0.714844,-1.851562 0.234375,-1.078125 0.234375,-2.34375 z"/>
        <path id="path31" style="" d="m 86.445312,53.242187 q 0,1.125 -0.339843,2.050782 -0.328125,0.914062 -1.042969,1.570312 -0.703125,0.65625 -1.804688,1.019531 -1.089843,0.351563 -2.613281,0.351563 -1.347656,0 -2.378906,-0.292969 Q 77.246094,57.648437 76.507812,57.074219 75.769531,56.5 75.3125,55.65625 74.867187,54.800781 74.65625,53.699219 l 2.742187,-0.550782 q 0.117188,0.550782 0.339844,1.007813 0.222656,0.457031 0.609375,0.796875 0.386719,0.328125 0.960938,0.515625 0.585937,0.175781 1.417968,0.175781 1.441407,0 2.203125,-0.527344 0.761719,-0.539062 0.761719,-1.675781 0,-0.679687 -0.304687,-1.113281 -0.304688,-0.433594 -0.820313,-0.714844 -0.503906,-0.28125 -1.171875,-0.46875 -0.65625,-0.1875 -1.382812,-0.363281 0,0 -1.160157,-0.339844 Q 78.277344,50.265625 77.75,50.019531 77.234375,49.773437 76.777344,49.433594 76.332031,49.09375 75.992187,48.601562 q -0.328125,-0.503906 -0.515625,-1.171875 -0.1875,-0.667968 -0.1875,-1.570312 0,-1.230469 0.398438,-2.109375 0.410156,-0.878906 1.125,-1.429688 0.726562,-0.5625 1.710937,-0.820312 0.984375,-0.257813 2.15625,-0.257813 1.324219,0 2.273438,0.257813 0.949219,0.246094 1.582031,0.761719 0.644531,0.515625 1.007813,1.300781 0.375,0.773437 0.550781,1.816406 l -2.742188,0.457031 q -0.210937,-1.066406 -0.867187,-1.605468 -0.644531,-0.539063 -1.851563,-0.539063 -0.75,0 -1.253906,0.164063 -0.492187,0.152343 -0.785156,0.421875 -0.292969,0.269531 -0.421875,0.632812 -0.117188,0.351563 -0.117188,0.75 0,0.609375 0.234375,1.007813 0.246094,0.386718 0.679688,0.65625 0.433594,0.257812 1.03125,0.445312 0.597656,0.175781 1.324219,0.363281 0.632812,0.164063 1.253906,0.351563 0.621094,0.175781 1.183594,0.421875 0.574218,0.246094 1.066406,0.597656 0.492187,0.351563 0.84375,0.867188 0.363281,0.503906 0.5625,1.207031 0.210937,0.703125 0.210937,1.664062 z"/>
    </g>
</svg>
