<?xml version="1.0" encoding="UTF-8" standalone="no"?>
<svg xmlns:dc="http://purl.org/dc/elements/1.1/" xmlns:cc="http://creativecommons.org/ns#" xmlns:rdf="http://www.w3.org/1999/02/22-rdf-syntax-ns#" xmlns:svg="http://www.w3.org/2000/svg" xmlns="http://www.w3.org/2000/svg" version="1.1" viewBox="0 0 100 100" height="100" width="100" data-name="Layer 1" id="Layer_1">
    <metadata id="metadata15">
        <rdf:RDF>
            <cc:Work rdf:about="">
                <dc:format>image/svg+xml</dc:format>
                <dc:type rdf:resource="http://purl.org/dc/dcmitype/StillImage"/>
                <dc:title>34</dc:title>
            </cc:Work>
        </rdf:RDF>
    </metadata>
    <defs id="defs4">
        <style id="style2">
            .compass {
                stroke-miterlimit: 10;
                stroke-width: 2px;
                fill: #372633;
                stroke: #dd99cc;
            }
            .grass {
                fill: #845b7a;
            }
        </style>
    </defs>
    <title id="title6">34</title>
    <polygon id="polygon8" points="68.3 31.7 50 2.56 31.7 31.7 2.56 50 31.7 68.3 50 97.44 68.3 68.3 97.44 50 68.3 31.7" class="compass"/>
    <path id="path10" d="M66,64.21c1.2-21.07-3.68-26.9-3.68-26.9a121.93,121.93,0,0,1-.93,24.42,72.93,72.93,0,0,0-3.24-15.79s-.69,7.23-2,15.55A220.68,220.68,0,0,1,57,28.22s-2.7,8.42-5.31,20.7c-1.43-5.06-3.3-10.72-5.73-17,0,0,.58,11,.36,23.14-2.93-7.26-5.74-9.87-5.74-9.87a73,73,0,0,1,2.21,12,32.39,32.39,0,0,0-6.48-9.31,118,118,0,0,1,3.25,21.16c-5.83-10.51-12.81-14.2-12.81-14.2a43.29,43.29,0,0,1,7.73,16L50,95.56,65.28,71.22l2.29-3.65.29-.18a39.63,39.63,0,0,1,7.94-8.81A30.74,30.74,0,0,0,66,64.21Z" class="grass"/>
    <g id="text19" style="font-style:normal;font-variant:normal;font-weight:bold;font-stretch:condensed;font-size:16px;line-height:1.25;font-family:'Liberation Sans Narrow';-inkscape-font-specification:'Liberation Sans Narrow, Bold Condensed';font-variant-ligatures:normal;font-variant-caps:normal;font-variant-numeric:normal;font-feature-settings:normal;text-align:center;letter-spacing:0px;word-spacing:0px;writing-mode:lr-tb;text-anchor:middle;fill:#dd99cc;fill-opacity:1;stroke:none" aria-label="34">
        <path id="path14" style="" d="m 49.652344,70.169083 q 0,0.75 -0.203125,1.351562 -0.195313,0.59375 -0.601563,1.015625 -0.40625,0.421875 -1.007812,0.648438 -0.59375,0.21875 -1.390625,0.21875 -0.882813,0 -1.492188,-0.273438 -0.601562,-0.273437 -0.992187,-0.71875 -0.382813,-0.453125 -0.578125,-1.023437 -0.195313,-0.570313 -0.25,-1.15625 l 1.828125,-0.195313 q 0.03906,0.351563 0.140625,0.648438 0.109375,0.289062 0.289062,0.5 0.179688,0.210937 0.4375,0.328125 0.257813,0.109375 0.609375,0.109375 0.648438,0 1.007813,-0.390625 0.359375,-0.390625 0.359375,-1.195313 0,-0.492187 -0.171875,-0.789062 -0.164063,-0.296875 -0.429688,-0.453125 -0.257812,-0.164063 -0.5625,-0.21875 -0.296875,-0.05469 -0.5625,-0.05469 h -0.632812 v -1.773437 h 0.59375 q 0.265625,0 0.546875,-0.0625 0.28125,-0.0625 0.5,-0.226563 0.226562,-0.164062 0.367187,-0.453125 0.140625,-0.296875 0.140625,-0.75 0,-0.679687 -0.3125,-1.0625 -0.304687,-0.390625 -0.90625,-0.390625 -0.554687,0 -0.898437,0.375 -0.34375,0.375 -0.390625,1.0625 l -1.804688,-0.15625 q 0.07813,-0.773437 0.351563,-1.34375 0.273437,-0.570312 0.6875,-0.945312 0.414062,-0.375 0.945312,-0.554688 0.539063,-0.1875 1.140625,-0.1875 0.796875,0 1.367188,0.234375 0.570312,0.234375 0.9375,0.632813 0.367187,0.398437 0.539062,0.929687 0.171875,0.53125 0.171875,1.132813 0,0.484375 -0.117187,0.90625 -0.117188,0.414062 -0.351563,0.75 -0.234375,0.328125 -0.601562,0.570312 -0.359375,0.234375 -0.859375,0.351563 v 0.03125 q 0.554687,0.07813 0.960937,0.3125 0.414063,0.226562 0.679688,0.570312 0.265625,0.34375 0.390625,0.78125 0.125,0.429688 0.125,0.914063 z"/>
        <path id="path16" style="" d="m 56.167969,70.981583 v 2.242187 h -1.71875 v -2.242187 h -4.109375 v -1.648438 l 3.8125,-7.117187 h 2.015625 v 7.132812 h 1.203125 v 1.632813 z m -1.71875,-5.234375 q 0,-0.132813 0,-0.34375 0.0078,-0.21875 0.01563,-0.445313 0.0078,-0.226562 0.01563,-0.429687 0.01563,-0.210938 0.02344,-0.328125 -0.03125,0.08594 -0.101562,0.242187 l -0.15625,0.34375 q -0.08594,0.1875 -0.179688,0.367188 l -0.164062,0.3125 -2.09375,3.882812 h 2.640625 z"/>
    </g>
    <g id="text23" style="font-style:normal;font-variant:normal;font-weight:bold;font-stretch:condensed;font-size:24px;line-height:1.25;font-family:'Liberation Sans Narrow';-inkscape-font-specification:'Liberation Sans Narrow, Bold Condensed';font-variant-ligatures:normal;font-variant-caps:normal;font-variant-numeric:normal;font-feature-settings:normal;text-align:center;letter-spacing:0px;word-spacing:0px;writing-mode:lr-tb;text-anchor:middle;fill:#ffffff;fill-opacity:1;stroke:#ffffff;stroke-width:0px" aria-label="N.KING">
        <path id="path19" style="" d="M 25.097656,58 19.203125,45.285156 q 0.04687,0.515625 0.09375,1.03125 0.03516,0.445313 0.05859,0.960938 0.02344,0.515625 0.02344,0.984375 V 58 H 16.859375 V 41.488281 h 3.234375 l 5.988281,12.820313 Q 26.035156,53.816406 26,53.277344 q -0.03516,-0.457032 -0.07031,-1.03125 -0.02344,-0.574219 -0.02344,-1.160157 v -9.597656 h 2.519531 V 58 Z"/>
        <path id="path21" style="" d="m 31.085937,58 v -3.574219 h 2.777344 V 58 Z"/>
        <path id="path23" style="" d="m 45.910156,58 -4.851562,-7.582031 -1.675782,1.558593 V 58 H 36.546875 V 41.488281 h 2.835937 v 7.488281 l 6.09375,-7.488281 H 48.78125 L 43.003906,48.472656 49.25,58 Z"/>
        <path id="path25" style="" d="M 50.75,58 V 41.488281 h 2.847656 V 58 Z"/>
        <path id="path27" style="" d="M 64.472656,58 58.578125,45.285156 q 0.04687,0.515625 0.09375,1.03125 0.03516,0.445313 0.05859,0.960938 0.02344,0.515625 0.02344,0.984375 V 58 H 56.234375 V 41.488281 h 3.234375 l 5.988281,12.820313 q -0.04687,-0.492188 -0.08203,-1.03125 -0.03516,-0.457032 -0.07031,-1.03125 -0.02344,-0.574219 -0.02344,-1.160157 v -9.597656 h 2.519531 V 58 Z"/>
        <path id="path29" style="" d="m 76.871094,55.527344 q 0.621093,0 1.183593,-0.117188 0.574219,-0.117187 1.054688,-0.304687 0.480469,-0.199219 0.867187,-0.445313 0.398438,-0.257812 0.644532,-0.527344 v -2.285156 h -3.304688 v -2.554687 h 5.90625 v 6.070312 q -0.457031,0.574219 -1.113281,1.101563 -0.65625,0.515625 -1.476563,0.914062 Q 79.8125,57.765625 78.839844,58 q -0.960938,0.234375 -2.039063,0.234375 -1.792969,0 -3.09375,-0.632813 -1.300781,-0.644531 -2.144531,-1.78125 -0.832031,-1.148437 -1.230469,-2.71875 -0.398437,-1.570312 -0.398437,-3.433593 0,-1.933594 0.421875,-3.492188 0.421875,-1.558594 1.277343,-2.648437 0.867188,-1.101563 2.167969,-1.6875 1.300781,-0.597657 3.058594,-0.597657 1.277344,0 2.273437,0.304688 0.996094,0.304687 1.746094,0.867187 0.75,0.5625 1.253906,1.359375 0.503907,0.785157 0.796875,1.769532 l -2.613281,0.960937 q -0.175781,-0.515625 -0.46875,-0.972656 -0.28125,-0.46875 -0.714844,-0.808594 -0.421875,-0.351562 -0.984375,-0.550781 -0.5625,-0.210938 -1.289062,-0.210938 -1.054688,0 -1.828125,0.410157 -0.761719,0.398437 -1.265625,1.148437 -0.492188,0.75 -0.738281,1.804688 -0.234375,1.042968 -0.234375,2.34375 0,1.289062 0.234375,2.367187 0.246093,1.078125 0.75,1.851563 0.515625,0.773437 1.277343,1.207031 0.773438,0.433594 1.816407,0.433594 z"/>
    </g>
</svg>
