<?xml version="1.0" encoding="UTF-8" standalone="no"?>
<svg xmlns:dc="http://purl.org/dc/elements/1.1/" xmlns:cc="http://creativecommons.org/ns#" xmlns:rdf="http://www.w3.org/1999/02/22-rdf-syntax-ns#" xmlns:svg="http://www.w3.org/2000/svg" xmlns="http://www.w3.org/2000/svg" version="1.1" viewBox="0 0 100 100" height="100" width="100" data-name="Layer 1" id="Layer_1">
    <metadata id="metadata15">
        <rdf:RDF>
            <cc:Work rdf:about="">
                <dc:format>image/svg+xml</dc:format>
                <dc:type rdf:resource="http://purl.org/dc/dcmitype/StillImage"/>
                <dc:title>59</dc:title>
            </cc:Work>
        </rdf:RDF>
    </metadata>
    <defs id="defs4">
        <style id="style2">
            .compass {
                stroke-miterlimit: 10;
                stroke-width: 2px;
                fill: #372e26;
                stroke: #ddbb99;
            }
            .grass {
                fill: #84705b;
            }
        </style>
    </defs>
    <title id="title6">59</title>
    <polygon id="polygon8" points="68.3 31.7 50 2.56 31.7 31.7 2.56 50 31.7 68.3 50 97.44 68.3 68.3 97.44 50 68.3 31.7" class="compass"/>
    <path id="path10" d="M66,64.21c1.2-21.07-3.68-26.9-3.68-26.9a121.93,121.93,0,0,1-.93,24.42,72.93,72.93,0,0,0-3.24-15.79s-.69,7.23-2,15.55A220.68,220.68,0,0,1,57,28.22s-2.7,8.42-5.31,20.7c-1.43-5.06-3.3-10.72-5.73-17,0,0,.58,11,.36,23.14-2.93-7.26-5.74-9.87-5.74-9.87a73,73,0,0,1,2.21,12,32.39,32.39,0,0,0-6.48-9.31,118,118,0,0,1,3.25,21.16c-5.83-10.51-12.81-14.2-12.81-14.2a43.29,43.29,0,0,1,7.73,16L50,95.56,65.28,71.22l2.29-3.65.29-.18a39.63,39.63,0,0,1,7.94-8.81A30.74,30.74,0,0,0,66,64.21Z" class="grass"/>
    <g id="text19" style="font-style:normal;font-variant:normal;font-weight:bold;font-stretch:condensed;font-size:16px;line-height:1.25;font-family:'Liberation Sans Narrow';-inkscape-font-specification:'Liberation Sans Narrow, Bold Condensed';font-variant-ligatures:normal;font-variant-caps:normal;font-variant-numeric:normal;font-feature-settings:normal;text-align:center;letter-spacing:0px;word-spacing:0px;writing-mode:lr-tb;text-anchor:middle;fill:#ddbb99;fill-opacity:1;stroke:none" aria-label="59">
        <path id="path14" style="" d="m 49.761719,69.559708 q 0,0.828125 -0.21875,1.53125 -0.210938,0.695312 -0.632813,1.210937 -0.421875,0.507813 -1.046875,0.796875 -0.625,0.28125 -1.445312,0.28125 -0.757813,0 -1.320313,-0.21875 -0.5625,-0.226562 -0.953125,-0.617187 -0.382812,-0.398438 -0.609375,-0.929688 -0.21875,-0.53125 -0.296875,-1.140625 l 1.796875,-0.179687 q 0.05469,0.257812 0.140625,0.5 0.09375,0.242187 0.257813,0.429687 0.171875,0.1875 0.414062,0.304688 0.242188,0.109375 0.59375,0.109375 0.671875,0 1.070313,-0.523438 0.398437,-0.523437 0.398437,-1.507812 0,-0.4375 -0.101562,-0.789063 -0.09375,-0.351562 -0.28125,-0.601562 -0.179688,-0.25 -0.445313,-0.382813 -0.265625,-0.132812 -0.601562,-0.132812 -0.445313,0 -0.742188,0.210937 -0.289062,0.203125 -0.484375,0.5 h -1.757812 l 0.3125,-6.195312 h 5.429687 v 1.632812 h -3.789062 l -0.148438,2.78125 q 0.265625,-0.289062 0.671875,-0.492187 0.414063,-0.210938 0.960938,-0.210938 0.664062,0 1.1875,0.265625 0.53125,0.265625 0.890625,0.742188 0.367187,0.476562 0.554687,1.148437 0.195313,0.664063 0.195313,1.476563 z"/>
        <path id="path16" style="" d="m 56.957031,67.544083 q 0,2.929687 -0.882812,4.382812 -0.875,1.453125 -2.492188,1.453125 -0.585937,0 -1.046875,-0.148437 -0.460937,-0.148438 -0.8125,-0.460938 -0.34375,-0.3125 -0.585937,-0.804687 -0.234375,-0.492188 -0.375,-1.171875 l 1.6875,-0.289063 q 0.125,0.585938 0.414062,0.867188 0.296875,0.28125 0.742188,0.28125 0.367187,0 0.648437,-0.210938 0.289063,-0.210937 0.492188,-0.640625 0.210937,-0.429687 0.320312,-1.085937 0.117188,-0.664063 0.117188,-1.5625 -0.125,0.304687 -0.335938,0.539062 -0.210937,0.234375 -0.476562,0.390625 -0.265625,0.15625 -0.570313,0.242188 -0.296875,0.07813 -0.609375,0.07813 -0.585937,0 -1.070312,-0.25 -0.476563,-0.257813 -0.820313,-0.734375 -0.335937,-0.476563 -0.523437,-1.148438 -0.179688,-0.679687 -0.179688,-1.53125 0,-0.875 0.210938,-1.5625 0.21875,-0.6875 0.617187,-1.15625 0.40625,-0.476562 0.992188,-0.71875 0.59375,-0.25 1.335937,-0.25 0.78125,0 1.375,0.328125 0.601563,0.320313 1,1 0.40625,0.671875 0.617188,1.710938 0.210937,1.03125 0.210937,2.453125 z m -1.90625,-1.539063 q 0,-0.46875 -0.08594,-0.875 -0.08594,-0.414062 -0.257813,-0.710937 -0.171875,-0.304688 -0.421875,-0.476563 -0.25,-0.171875 -0.578125,-0.171875 -0.304687,0 -0.539062,0.140625 -0.234375,0.132813 -0.40625,0.390625 -0.164063,0.257813 -0.25,0.625 -0.08594,0.367188 -0.08594,0.828125 0,0.429688 0.07813,0.804688 0.08594,0.367187 0.242188,0.640625 0.164062,0.265625 0.40625,0.421875 0.25,0.148437 0.5625,0.148437 0.25,0 0.484375,-0.109375 0.242187,-0.109375 0.429687,-0.328125 0.195313,-0.21875 0.304688,-0.546875 0.117187,-0.335937 0.117187,-0.78125 z"/>
    </g>
    <g id="text23" style="font-style:normal;font-variant:normal;font-weight:bold;font-stretch:condensed;font-size:24px;line-height:1.25;font-family:'Liberation Sans Narrow';-inkscape-font-specification:'Liberation Sans Narrow, Bold Condensed';font-variant-ligatures:normal;font-variant-caps:normal;font-variant-numeric:normal;font-feature-settings:normal;text-align:center;letter-spacing:0px;word-spacing:0px;writing-mode:lr-tb;text-anchor:middle;fill:#ffffff;fill-opacity:1;stroke:#ffffff;stroke-width:0px" aria-label="A.NINE">
        <path id="path19" style="" d="m 27.523437,58 -1.195312,-4.21875 h -5.15625 L 19.976562,58 h -2.835937 l 4.933594,-16.511719 h 3.339843 L 30.335937,58 Z M 24.359375,46.433594 q 0,0 -0.234375,-0.832032 -0.105469,-0.410156 -0.1875,-0.75 L 23.796875,44.277344 Q 23.75,44.054687 23.75,44.03125 q -0.01172,0.03516 -0.05859,0.257812 -0.04687,0.222657 -0.128906,0.5625 -0.08203,0.339844 -0.1875,0.75 l -0.234375,0.832032 -1.335938,4.746093 h 3.890625 z"/>
        <path id="path21" style="" d="m 32.1875,58 v -3.574219 h 2.777344 V 58 Z"/>
        <path id="path23" style="" d="M 45.886719,58 39.992187,45.285156 q 0.04687,0.515625 0.09375,1.03125 0.03516,0.445313 0.05859,0.960938 0.02344,0.515625 0.02344,0.984375 V 58 H 37.648437 V 41.488281 h 3.234375 l 5.988282,12.820313 q -0.04687,-0.492188 -0.08203,-1.03125 -0.03516,-0.457032 -0.07031,-1.03125 -0.02344,-0.574219 -0.02344,-1.160157 v -9.597656 h 2.519532 V 58 Z"/>
        <path id="path25" style="" d="M 51.851562,58 V 41.488281 h 2.847657 V 58 Z"/>
        <path id="path27" style="" d="M 65.574219,58 59.679687,45.285156 q 0.04687,0.515625 0.09375,1.03125 0.03516,0.445313 0.05859,0.960938 0.02344,0.515625 0.02344,0.984375 V 58 H 57.335937 V 41.488281 h 3.234375 l 5.988282,12.820313 q -0.04687,-0.492188 -0.08203,-1.03125 -0.03516,-0.457032 -0.07031,-1.03125 -0.02344,-0.574219 -0.02344,-1.160157 v -9.597656 h 2.519532 V 58 Z"/>
        <path id="path29" style="" d="M 71.539062,58 V 41.488281 h 10.652344 v 2.671875 H 74.375 v 4.148438 h 7.230469 v 2.671875 H 74.375 v 4.347656 h 8.203125 V 58 Z"/>
    </g>
</svg>
