<?xml version="1.0" encoding="UTF-8" standalone="no"?>
<svg xmlns:dc="http://purl.org/dc/elements/1.1/" xmlns:cc="http://creativecommons.org/ns#" xmlns:rdf="http://www.w3.org/1999/02/22-rdf-syntax-ns#" xmlns:svg="http://www.w3.org/2000/svg" xmlns="http://www.w3.org/2000/svg" version="1.1" viewBox="0 0 100 100" height="100" width="100" data-name="Layer 1" id="Layer_1">
    <metadata id="metadata15">
        <rdf:RDF>
            <cc:Work rdf:about="">
                <dc:format>image/svg+xml</dc:format>
                <dc:type rdf:resource="http://purl.org/dc/dcmitype/StillImage"/>
                <dc:title>61</dc:title>
            </cc:Work>
        </rdf:RDF>
    </metadata>
    <defs id="defs4">
        <style id="style2">
            .compass {
                stroke-miterlimit: 10;
                stroke-width: 2px;
                fill: #3b3b3f;
                stroke: #eeeeff;
            }
            .grass {
                fill: #8e8e99;
            }
        </style>
    </defs>
    <title id="title6">61</title>
    <polygon id="polygon8" points="68.3 31.7 50 2.56 31.7 31.7 2.56 50 31.7 68.3 50 97.44 68.3 68.3 97.44 50 68.3 31.7" class="compass"/>
    <path id="path10" d="M66,64.21c1.2-21.07-3.68-26.9-3.68-26.9a121.93,121.93,0,0,1-.93,24.42,72.93,72.93,0,0,0-3.24-15.79s-.69,7.23-2,15.55A220.68,220.68,0,0,1,57,28.22s-2.7,8.42-5.31,20.7c-1.43-5.06-3.3-10.72-5.73-17,0,0,.58,11,.36,23.14-2.93-7.26-5.74-9.87-5.74-9.87a73,73,0,0,1,2.21,12,32.39,32.39,0,0,0-6.48-9.31,118,118,0,0,1,3.25,21.16c-5.83-10.51-12.81-14.2-12.81-14.2a43.29,43.29,0,0,1,7.73,16L50,95.56,65.28,71.22l2.29-3.65.29-.18a39.63,39.63,0,0,1,7.94-8.81A30.74,30.74,0,0,0,66,64.21Z" class="grass"/>
    <g id="text19" style="font-style:normal;font-variant:normal;font-weight:bold;font-stretch:condensed;font-size:16px;line-height:1.25;font-family:'Liberation Sans Narrow';-inkscape-font-specification:'Liberation Sans Narrow, Bold Condensed';font-variant-ligatures:normal;font-variant-caps:normal;font-variant-numeric:normal;font-feature-settings:normal;text-align:center;letter-spacing:0px;word-spacing:0px;writing-mode:lr-tb;text-anchor:middle;fill:#eeeeff;fill-opacity:1;stroke:none" aria-label="61">
        <path id="path14" style="" d="m 49.652344,69.622208 q 0,0.828125 -0.195313,1.523437 -0.1875,0.6875 -0.570312,1.1875 -0.375,0.492188 -0.945313,0.773438 -0.570312,0.273437 -1.320312,0.273437 -1.59375,0 -2.453125,-1.359375 -0.851563,-1.367187 -0.851563,-4.046875 0,-2.945312 0.867188,-4.429687 0.867187,-1.492188 2.476562,-1.492188 0.539063,0 0.976563,0.140625 0.445312,0.132813 0.789062,0.4375 0.351563,0.304688 0.59375,0.789063 0.242188,0.476562 0.390625,1.164062 l -1.695312,0.289063 q -0.125,-0.578125 -0.414063,-0.828125 -0.289062,-0.257813 -0.679687,-0.257813 -0.726563,0 -1.140625,0.882813 -0.40625,0.882812 -0.40625,2.679687 0.289062,-0.585937 0.796875,-0.898437 0.515625,-0.3125 1.164062,-0.3125 0.59375,0 1.078125,0.242187 0.484375,0.234375 0.828125,0.6875 0.34375,0.445313 0.523438,1.09375 0.1875,0.648438 0.1875,1.460938 z m -1.804688,0.0625 q 0,-0.445313 -0.08594,-0.796875 -0.07813,-0.359375 -0.25,-0.609375 -0.171875,-0.25 -0.421875,-0.382813 -0.25,-0.140625 -0.570313,-0.140625 -0.234375,0 -0.476562,0.09375 -0.242188,0.09375 -0.429688,0.304688 -0.179687,0.203125 -0.296875,0.523437 -0.117187,0.320313 -0.117187,0.773438 0,0.46875 0.09375,0.875 0.101562,0.40625 0.273437,0.710937 0.179688,0.296875 0.429688,0.46875 0.25,0.164063 0.5625,0.164063 0.609375,0 0.945312,-0.523438 0.34375,-0.53125 0.34375,-1.460937 z"/>
        <path id="path16" style="" d="m 50.972656,73.22377 v -1.632812 h 2.234375 v -7.507813 l -2.164062,1.648438 V 64.00502 l 2.257812,-1.789062 h 1.703125 v 9.375 h 2.070313 v 1.632812 z"/>
    </g>
    <g id="text23" style="font-style:normal;font-variant:normal;font-weight:bold;font-stretch:condensed;font-size:24px;line-height:1.25;font-family:'Liberation Sans Narrow';-inkscape-font-specification:'Liberation Sans Narrow, Bold Condensed';font-variant-ligatures:normal;font-variant-caps:normal;font-variant-numeric:normal;font-feature-settings:normal;text-align:center;letter-spacing:0px;word-spacing:0px;writing-mode:lr-tb;text-anchor:middle;fill:#ffffff;fill-opacity:1;stroke:#ffffff;stroke-width:0px" aria-label="P.WHR">
        <path id="path19" style="" d="m 30.933594,46.714844 q 0,1.066406 -0.292969,2.0625 -0.292969,0.984375 -0.902344,1.746093 -0.609375,0.761719 -1.546875,1.21875 Q 27.265625,52.1875 25.988281,52.1875 H 22.625 V 58 H 19.789062 V 41.488281 h 6.082032 q 1.300781,0 2.25,0.386719 0.949218,0.375 1.570312,1.066406 0.632813,0.691406 0.9375,1.652344 0.304688,0.960937 0.304688,2.121094 z m -2.859375,0.05859 q 0,-1.277343 -0.632813,-1.933593 -0.621094,-0.667969 -1.886719,-0.667969 H 22.625 v 5.355469 h 3.011719 q 0.632812,0 1.089843,-0.199219 0.457032,-0.199219 0.75,-0.5625 0.304688,-0.363281 0.445313,-0.867188 0.152344,-0.515625 0.152344,-1.125 z"/>
        <path id="path21" style="" d="m 30.40625,58 v -3.574219 h 2.777344 V 58 Z"/>
        <path id="path23" style="" d="M 49.613281,58 H 46.25 l -1.839844,-9.550781 q -0.08203,-0.433594 -0.175781,-1.03125 l -0.199219,-1.160157 q -0.105469,-0.644531 -0.1875,-1.335937 0,0 -0.210937,1.347656 0,0 -0.09375,0.574219 -0.04687,0.304687 -0.105469,0.585937 l -0.09375,0.550782 q -0.04687,0.257812 -0.09375,0.46875 L 41.421875,58 H 38.058594 L 34.578125,41.488281 h 2.871094 l 1.6875,9.1875 0.269531,1.476563 0.234375,1.300781 q 0.117187,0.667969 0.210937,1.277344 l 0.28125,-1.6875 q 0,0 0.117188,-0.726563 l 0.140625,-0.738281 0.117187,-0.703125 0.105469,-0.597656 1.675781,-8.789063 h 3.175782 l 1.710937,8.789063 q 0.05859,0.28125 0.105469,0.621093 L 47.398437,51.625 q 0.05859,0.363281 0.117188,0.738281 0.05859,0.363281 0.105469,0.714844 l 0.234375,1.652344 q 0,0 0.234375,-1.359375 0,0 0.246093,-1.3125 0.128907,-0.714844 0.269532,-1.382813 l 1.628906,-9.1875 h 2.871094 z"/>
        <path id="path25" style="" d="M 63.160156,58 V 50.921875 H 57.265625 V 58 H 54.429687 V 41.488281 h 2.835938 V 48.0625 h 5.894531 v -6.574219 h 2.835938 V 58 Z"/>
        <path id="path27" style="" d="M 77.9375,58 74.796875,51.730469 H 71.46875 V 58 H 68.632812 V 41.488281 h 6.761719 q 1.265625,0 2.214844,0.351563 0.949219,0.339843 1.582031,0.984375 0.632813,0.632812 0.9375,1.546875 0.316406,0.902343 0.316406,2.039062 0,0.925781 -0.222656,1.699219 Q 80,48.871094 79.601562,49.46875 79.203125,50.066406 78.652344,50.476562 78.101562,50.875 77.457031,51.0625 L 81.125,58 Z M 77.597656,46.550781 q 0,-1.207031 -0.65625,-1.792969 -0.644531,-0.585937 -1.839844,-0.585937 H 71.46875 v 4.875 h 3.703125 q 0.632812,0 1.089844,-0.175781 0.457031,-0.1875 0.75,-0.515625 0.292968,-0.339844 0.433593,-0.796875 0.152344,-0.457032 0.152344,-1.007813 z"/>
    </g>
</svg>
