<?xml version="1.0" encoding="UTF-8" standalone="no"?>
<svg xmlns:dc="http://purl.org/dc/elements/1.1/" xmlns:cc="http://creativecommons.org/ns#" xmlns:rdf="http://www.w3.org/1999/02/22-rdf-syntax-ns#" xmlns:svg="http://www.w3.org/2000/svg" xmlns="http://www.w3.org/2000/svg" version="1.1" viewBox="0 0 100 100" height="100" width="100" data-name="Layer 1" id="Layer_1">
    <metadata id="metadata15">
        <rdf:RDF>
            <cc:Work rdf:about="">
                <dc:format>image/svg+xml</dc:format>
                <dc:type rdf:resource="http://purl.org/dc/dcmitype/StillImage"/>
                <dc:title>64</dc:title>
            </cc:Work>
        </rdf:RDF>
    </metadata>
    <defs id="defs4">
        <style id="style2">
            .compass {
                stroke-miterlimit: 10;
                stroke-width: 2px;
                fill: #3f3f11;
                stroke: #ffff44;
            }
            .grass {
                fill: #999928;
            }
        </style>
    </defs>
    <title id="title6">64</title>
    <polygon id="polygon8" points="68.3 31.7 50 2.56 31.7 31.7 2.56 50 31.7 68.3 50 97.44 68.3 68.3 97.44 50 68.3 31.7" class="compass"/>
    <path id="path10" d="M66,64.21c1.2-21.07-3.68-26.9-3.68-26.9a121.93,121.93,0,0,1-.93,24.42,72.93,72.93,0,0,0-3.24-15.79s-.69,7.23-2,15.55A220.68,220.68,0,0,1,57,28.22s-2.7,8.42-5.31,20.7c-1.43-5.06-3.3-10.72-5.73-17,0,0,.58,11,.36,23.14-2.93-7.26-5.74-9.87-5.74-9.87a73,73,0,0,1,2.21,12,32.39,32.39,0,0,0-6.48-9.31,118,118,0,0,1,3.25,21.16c-5.83-10.51-12.81-14.2-12.81-14.2a43.29,43.29,0,0,1,7.73,16L50,95.56,65.28,71.22l2.29-3.65.29-.18a39.63,39.63,0,0,1,7.94-8.81A30.74,30.74,0,0,0,66,64.21Z" class="grass"/>
    <g id="text19" style="font-style:normal;font-variant:normal;font-weight:bold;font-stretch:condensed;font-size:16px;line-height:1.25;font-family:'Liberation Sans Narrow';-inkscape-font-specification:'Liberation Sans Narrow, Bold Condensed';font-variant-ligatures:normal;font-variant-caps:normal;font-variant-numeric:normal;font-feature-settings:normal;text-align:center;letter-spacing:0px;word-spacing:0px;writing-mode:lr-tb;text-anchor:middle;fill:#ffff44;fill-opacity:1;stroke:none" aria-label="64">
        <path id="path14" style="" d="m 49.652344,69.622208 q 0,0.828125 -0.195313,1.523437 -0.1875,0.6875 -0.570312,1.1875 -0.375,0.492188 -0.945313,0.773438 -0.570312,0.273437 -1.320312,0.273437 -1.59375,0 -2.453125,-1.359375 -0.851563,-1.367187 -0.851563,-4.046875 0,-2.945312 0.867188,-4.429687 0.867187,-1.492188 2.476562,-1.492188 0.539063,0 0.976563,0.140625 0.445312,0.132813 0.789062,0.4375 0.351563,0.304688 0.59375,0.789063 0.242188,0.476562 0.390625,1.164062 l -1.695312,0.289063 q -0.125,-0.578125 -0.414063,-0.828125 -0.289062,-0.257813 -0.679687,-0.257813 -0.726563,0 -1.140625,0.882813 -0.40625,0.882812 -0.40625,2.679687 0.289062,-0.585937 0.796875,-0.898437 0.515625,-0.3125 1.164062,-0.3125 0.59375,0 1.078125,0.242187 0.484375,0.234375 0.828125,0.6875 0.34375,0.445313 0.523438,1.09375 0.1875,0.648438 0.1875,1.460938 z m -1.804688,0.0625 q 0,-0.445313 -0.08594,-0.796875 -0.07813,-0.359375 -0.25,-0.609375 -0.171875,-0.25 -0.421875,-0.382813 -0.25,-0.140625 -0.570313,-0.140625 -0.234375,0 -0.476562,0.09375 -0.242188,0.09375 -0.429688,0.304688 -0.179687,0.203125 -0.296875,0.523437 -0.117187,0.320313 -0.117187,0.773438 0,0.46875 0.09375,0.875 0.101562,0.40625 0.273437,0.710937 0.179688,0.296875 0.429688,0.46875 0.25,0.164063 0.5625,0.164063 0.609375,0 0.945312,-0.523438 0.34375,-0.53125 0.34375,-1.460937 z"/>
        <path id="path16" style="" d="m 56.167969,70.981583 v 2.242187 h -1.71875 v -2.242187 h -4.109375 v -1.648438 l 3.8125,-7.117187 h 2.015625 v 7.132812 h 1.203125 v 1.632813 z m -1.71875,-5.234375 q 0,-0.132813 0,-0.34375 0.0078,-0.21875 0.01563,-0.445313 0.0078,-0.226562 0.01563,-0.429687 0.01563,-0.210938 0.02344,-0.328125 -0.03125,0.08594 -0.101562,0.242187 l -0.15625,0.34375 q -0.08594,0.1875 -0.179688,0.367188 l -0.164062,0.3125 -2.09375,3.882812 h 2.640625 z"/>
    </g>
    <g id="text23" style="font-style:normal;font-variant:normal;font-weight:bold;font-stretch:condensed;font-size:24px;line-height:1.25;font-family:'Liberation Sans Narrow';-inkscape-font-specification:'Liberation Sans Narrow, Bold Condensed';font-variant-ligatures:normal;font-variant-caps:normal;font-variant-numeric:normal;font-feature-settings:normal;text-align:center;letter-spacing:0px;word-spacing:0px;writing-mode:lr-tb;text-anchor:middle;fill:#ffffff;fill-opacity:1;stroke:#ffffff;stroke-width:0px" aria-label="KADA">
        <path id="path19" style="" d="m 32.269531,58 -4.851562,-7.582031 -1.675782,1.558593 V 58 H 22.90625 V 41.488281 h 2.835937 v 7.488281 l 6.09375,-7.488281 h 3.304688 L 29.363281,48.472656 35.609375,58 Z"/>
        <path id="path21" style="" d="m 46.671875,58 -1.195313,-4.21875 h -5.15625 L 39.125,58 H 36.289062 L 41.222656,41.488281 H 44.5625 L 49.484375,58 Z M 43.507812,46.433594 q 0,0 -0.234375,-0.832032 -0.105468,-0.410156 -0.1875,-0.75 l -0.140625,-0.574218 q -0.04687,-0.222657 -0.04687,-0.246094 -0.01172,0.03516 -0.05859,0.257812 -0.04687,0.222657 -0.128907,0.5625 -0.08203,0.339844 -0.1875,0.75 l -0.234375,0.832032 -1.335937,4.746093 h 3.890625 z"/>
        <path id="path23" style="" d="m 63.382812,49.621094 q 0,2.0625 -0.515625,3.632812 -0.503906,1.558594 -1.394531,2.613281 -0.878906,1.054688 -2.085937,1.59375 Q 58.179687,58 56.785156,58 H 51.3125 V 41.488281 h 4.898437 q 1.570313,0 2.882813,0.480469 1.324219,0.480469 2.273437,1.476562 0.949219,0.996094 1.476563,2.53125 0.539062,1.535157 0.539062,3.644532 z m -2.859375,0 q 0,-1.441407 -0.328125,-2.472657 -0.316406,-1.03125 -0.890625,-1.6875 Q 58.730469,44.792969 57.921875,44.476562 57.125,44.160156 56.152344,44.160156 h -2.003907 v 11.167969 h 2.402344 q 0.855469,0 1.582031,-0.363281 0.726563,-0.363282 1.253907,-1.078125 0.539062,-0.726563 0.832031,-1.792969 0.304687,-1.066406 0.304687,-2.472656 z"/>
        <path id="path25" style="" d="m 75.078125,58 -1.195313,-4.21875 h -5.15625 L 67.53125,58 H 64.695312 L 69.628906,41.488281 H 72.96875 L 77.890625,58 Z M 71.914062,46.433594 q 0,0 -0.234375,-0.832032 -0.105468,-0.410156 -0.1875,-0.75 l -0.140625,-0.574218 q -0.04687,-0.222657 -0.04687,-0.246094 -0.01172,0.03516 -0.05859,0.257812 -0.04687,0.222657 -0.128907,0.5625 -0.08203,0.339844 -0.1875,0.75 l -0.234375,0.832032 -1.335937,4.746093 H 73.25 Z"/>
    </g>
</svg>
