<?xml version="1.0" encoding="UTF-8" standalone="no"?>
<svg xmlns:dc="http://purl.org/dc/elements/1.1/" xmlns:cc="http://creativecommons.org/ns#" xmlns:rdf="http://www.w3.org/1999/02/22-rdf-syntax-ns#" xmlns:svg="http://www.w3.org/2000/svg" xmlns="http://www.w3.org/2000/svg" version="1.1" viewBox="0 0 100 100" height="100" width="100" data-name="Layer 1" id="Layer_1">
    <metadata id="metadata15">
        <rdf:RDF>
            <cc:Work rdf:about="">
                <dc:format>image/svg+xml</dc:format>
                <dc:type rdf:resource="http://purl.org/dc/dcmitype/StillImage"/>
                <dc:title>163</dc:title>
            </cc:Work>
        </rdf:RDF>
    </metadata>
    <defs id="defs4">
        <style id="style2">
            .compass {
                stroke-miterlimit: 10;
                stroke-width: 2px;
                fill: #ccaa77;
                stroke: #332a1d;
            }
            .grass {
                fill: #7a6647;
            }
        </style>
    </defs>
    <title id="title6">163</title>
    <polygon id="polygon8" points="68.3 31.7 50 2.56 31.7 31.7 2.56 50 31.7 68.3 50 97.44 68.3 68.3 97.44 50 68.3 31.7" class="compass"/>
    <path id="path10" d="M66,64.21c1.2-21.07-3.68-26.9-3.68-26.9a121.93,121.93,0,0,1-.93,24.42,72.93,72.93,0,0,0-3.24-15.79s-.69,7.23-2,15.55A220.68,220.68,0,0,1,57,28.22s-2.7,8.42-5.31,20.7c-1.43-5.06-3.3-10.72-5.73-17,0,0,.58,11,.36,23.14-2.93-7.26-5.74-9.87-5.74-9.87a73,73,0,0,1,2.21,12,32.39,32.39,0,0,0-6.48-9.31,118,118,0,0,1,3.25,21.16c-5.83-10.51-12.81-14.2-12.81-14.2a43.29,43.29,0,0,1,7.73,16L50,95.56,65.28,71.22l2.29-3.65.29-.18a39.63,39.63,0,0,1,7.94-8.81A30.74,30.74,0,0,0,66,64.21Z" class="grass"/>
    <g id="text19" style="font-style:normal;font-variant:normal;font-weight:bold;font-stretch:condensed;font-size:16px;line-height:1.25;font-family:'Liberation Sans Narrow';-inkscape-font-specification:'Liberation Sans Narrow, Bold Condensed';font-variant-ligatures:normal;font-variant-caps:normal;font-variant-numeric:normal;font-feature-settings:normal;text-align:center;letter-spacing:0px;word-spacing:0px;writing-mode:lr-tb;text-anchor:middle;fill:#332a1d;fill-opacity:1;stroke:none" aria-label="163">
        <path id="path14" style="" d="m 40.003906,73.22377 v -1.632812 h 2.234375 v -7.507813 l -2.164062,1.648438 V 64.00502 l 2.257812,-1.789062 h 1.703125 v 9.375 h 2.070313 v 1.632812 z"/>
        <path id="path16" style="" d="m 53.308594,69.622208 q 0,0.828125 -0.195313,1.523437 -0.1875,0.6875 -0.570312,1.1875 -0.375,0.492188 -0.945313,0.773438 -0.570312,0.273437 -1.320312,0.273437 -1.59375,0 -2.453125,-1.359375 -0.851563,-1.367187 -0.851563,-4.046875 0,-2.945312 0.867188,-4.429687 0.867187,-1.492188 2.476562,-1.492188 0.539063,0 0.976563,0.140625 0.445312,0.132813 0.789062,0.4375 0.351563,0.304688 0.59375,0.789063 0.242188,0.476562 0.390625,1.164062 l -1.695312,0.289063 q -0.125,-0.578125 -0.414063,-0.828125 -0.289062,-0.257813 -0.679687,-0.257813 -0.726563,0 -1.140625,0.882813 -0.40625,0.882812 -0.40625,2.679687 0.289062,-0.585937 0.796875,-0.898437 0.515625,-0.3125 1.164062,-0.3125 0.59375,0 1.078125,0.242187 0.484375,0.234375 0.828125,0.6875 0.34375,0.445313 0.523438,1.09375 0.1875,0.648438 0.1875,1.460938 z m -1.804688,0.0625 q 0,-0.445313 -0.08594,-0.796875 -0.07813,-0.359375 -0.25,-0.609375 -0.171875,-0.25 -0.421875,-0.382813 -0.25,-0.140625 -0.570313,-0.140625 -0.234375,0 -0.476562,0.09375 -0.242188,0.09375 -0.429688,0.304688 -0.179687,0.203125 -0.296875,0.523437 -0.117187,0.320313 -0.117187,0.773438 0,0.46875 0.09375,0.875 0.101562,0.40625 0.273437,0.710937 0.179688,0.296875 0.429688,0.46875 0.25,0.164063 0.5625,0.164063 0.609375,0 0.945312,-0.523438 0.34375,-0.53125 0.34375,-1.460937 z"/>
        <path id="path18" style="" d="m 60.621094,70.169083 q 0,0.75 -0.203125,1.351562 -0.195313,0.59375 -0.601563,1.015625 -0.40625,0.421875 -1.007812,0.648438 -0.59375,0.21875 -1.390625,0.21875 -0.882813,0 -1.492188,-0.273438 -0.601562,-0.273437 -0.992187,-0.71875 -0.382813,-0.453125 -0.578125,-1.023437 -0.195313,-0.570313 -0.25,-1.15625 l 1.828125,-0.195313 q 0.03906,0.351563 0.140625,0.648438 0.109375,0.289062 0.289062,0.5 0.179688,0.210937 0.4375,0.328125 0.257813,0.109375 0.609375,0.109375 0.648438,0 1.007813,-0.390625 0.359375,-0.390625 0.359375,-1.195313 0,-0.492187 -0.171875,-0.789062 -0.164063,-0.296875 -0.429688,-0.453125 -0.257812,-0.164063 -0.5625,-0.21875 -0.296875,-0.05469 -0.5625,-0.05469 h -0.632812 v -1.773437 h 0.59375 q 0.265625,0 0.546875,-0.0625 0.28125,-0.0625 0.5,-0.226563 0.226562,-0.164062 0.367187,-0.453125 0.140625,-0.296875 0.140625,-0.75 0,-0.679687 -0.3125,-1.0625 -0.304687,-0.390625 -0.90625,-0.390625 -0.554687,0 -0.898437,0.375 -0.34375,0.375 -0.390625,1.0625 l -1.804688,-0.15625 q 0.07813,-0.773437 0.351563,-1.34375 0.273437,-0.570312 0.6875,-0.945312 0.414062,-0.375 0.945312,-0.554688 0.539063,-0.1875 1.140625,-0.1875 0.796875,0 1.367188,0.234375 0.570312,0.234375 0.9375,0.632813 0.367187,0.398437 0.539062,0.929687 0.171875,0.53125 0.171875,1.132813 0,0.484375 -0.117187,0.90625 -0.117188,0.414062 -0.351563,0.75 -0.234375,0.328125 -0.601562,0.570312 -0.359375,0.234375 -0.859375,0.351563 v 0.03125 q 0.554687,0.07813 0.960937,0.3125 0.414063,0.226562 0.679688,0.570312 0.265625,0.34375 0.390625,0.78125 0.125,0.429688 0.125,0.914063 z"/>
    </g>
    <g id="text23" style="font-style:normal;font-variant:normal;font-weight:bold;font-stretch:condensed;font-size:24px;line-height:1.25;font-family:'Liberation Sans Narrow';-inkscape-font-specification:'Liberation Sans Narrow, Bold Condensed';font-variant-ligatures:normal;font-variant-caps:normal;font-variant-numeric:normal;font-feature-settings:normal;text-align:center;letter-spacing:0px;word-spacing:0px;writing-mode:lr-tb;text-anchor:middle;fill:#000000;fill-opacity:1;stroke:#ffffff;stroke-width:0px" aria-label="H.HOOT">
        <path id="path21" style="" d="M 21.746094,58 V 50.921875 H 15.851563 V 58 H 13.015625 V 41.488281 h 2.835938 V 48.0625 h 5.894531 v -6.574219 h 2.835937 V 58 Z"/>
        <path id="path23" style="" d="m 27.242187,58 v -3.574219 h 2.777344 V 58 Z"/>
        <path id="path25" style="" d="M 41.433594,58 V 50.921875 H 35.539062 V 58 H 32.703125 V 41.488281 h 2.835937 V 48.0625 h 5.894532 v -6.574219 h 2.835937 V 58 Z"/>
        <path id="path27" style="" d="m 60.078125,49.667969 q 0,1.933593 -0.46875,3.515625 -0.46875,1.582031 -1.359375,2.707031 -0.878906,1.125 -2.15625,1.734375 -1.265625,0.609375 -2.871094,0.609375 -1.699219,0 -2.976562,-0.632813 -1.277344,-0.644531 -2.132813,-1.78125 -0.855469,-1.148437 -1.289062,-2.71875 -0.421875,-1.570312 -0.421875,-3.433593 0,-1.933594 0.445312,-3.492188 0.445313,-1.558594 1.3125,-2.648437 0.878906,-1.101563 2.144531,-1.6875 1.277344,-0.597657 2.929688,-0.597657 1.652344,0 2.929687,0.597657 1.277344,0.597656 2.144532,1.699218 0.867187,1.101563 1.3125,2.660157 0.457031,1.546875 0.457031,3.46875 z m -2.894531,0 q 0,-1.300782 -0.257813,-2.34375 -0.246094,-1.054688 -0.75,-1.804688 -0.492187,-0.75 -1.230469,-1.148437 -0.738281,-0.410157 -1.710937,-0.410157 -0.996094,0 -1.734375,0.410157 -0.738281,0.398437 -1.242188,1.148437 -0.503906,0.75 -0.75,1.804688 -0.246093,1.042968 -0.246093,2.34375 0,1.289062 0.246093,2.367187 0.257813,1.066406 0.75,1.839844 0.503907,0.773437 1.242188,1.207031 0.75,0.433594 1.722656,0.433594 1.042969,0 1.78125,-0.433594 0.75,-0.445312 1.230469,-1.21875 0.492187,-0.785156 0.714844,-1.851562 0.234375,-1.078125 0.234375,-2.34375 z"/>
        <path id="path29" style="" d="m 75.40625,49.667969 q 0,1.933593 -0.46875,3.515625 -0.46875,1.582031 -1.359375,2.707031 -0.878906,1.125 -2.15625,1.734375 -1.265625,0.609375 -2.871094,0.609375 -1.699219,0 -2.976562,-0.632813 -1.277344,-0.644531 -2.132813,-1.78125 -0.855469,-1.148437 -1.289062,-2.71875 -0.421875,-1.570312 -0.421875,-3.433593 0,-1.933594 0.445312,-3.492188 0.445313,-1.558594 1.3125,-2.648437 0.878906,-1.101563 2.144531,-1.6875 1.277344,-0.597657 2.929688,-0.597657 1.652344,0 2.929687,0.597657 1.277344,0.597656 2.144532,1.699218 0.867187,1.101563 1.3125,2.660157 0.457031,1.546875 0.457031,3.46875 z m -2.894531,0 q 0,-1.300782 -0.257813,-2.34375 -0.246094,-1.054688 -0.75,-1.804688 -0.492187,-0.75 -1.230469,-1.148437 -0.738281,-0.410157 -1.710937,-0.410157 -0.996094,0 -1.734375,0.410157 -0.738281,0.398437 -1.242188,1.148437 -0.503906,0.75 -0.75,1.804688 -0.246093,1.042968 -0.246093,2.34375 0,1.289062 0.246093,2.367187 0.257813,1.066406 0.75,1.839844 0.503907,0.773437 1.242188,1.207031 0.75,0.433594 1.722656,0.433594 1.042969,0 1.78125,-0.433594 0.75,-0.445312 1.230469,-1.21875 0.492187,-0.785156 0.714844,-1.851562 0.234375,-1.078125 0.234375,-2.34375 z"/>
        <path id="path31" style="" d="M 83.679687,44.160156 V 58 H 80.84375 V 44.160156 H 76.472656 V 41.488281 H 88.0625 v 2.671875 z"/>
    </g>
</svg>
