<svg id="Layer_1" data-name="Layer 1" xmlns="http://www.w3.org/2000/svg" width="100" height="100" viewBox="0 0 100 100"><defs><style>.cls-1{fill:#1e0033;stroke:#eaccff;stroke-miterlimit:10;stroke-width:2px;}.cls-2{fill:#fff;}.cls-3{fill:#313131;}</style></defs><title>hatch</title><polygon class="cls-1" points="68.3 31.7 50 2.56 31.7 31.7 2.56 50 31.7 68.3 50 97.44 68.3 68.3 97.44 50 68.3 31.7"/><path class="cls-2" d="M50,27.58c-8.25,0-17.44,12-17.12,24.53.32,12.1,8,20.39,17.12,20.39s16.8-8.29,17.12-20.39C67.44,39.54,58.25,27.58,50,27.58Z"/><path class="cls-2" d="M50,27.58c-8.25,0-17.44,12-17.12,24.53.32,12.1,8,20.39,17.12,20.39s16.8-8.29,17.12-20.39C67.44,39.54,58.25,27.58,50,27.58Z"/><path class="cls-2" d="M67.12,52.11v-.73c0-.24,0-.54,0-.88s0-.74-.07-1.19a28.08,28.08,0,0,0-.47-3.17,29.93,29.93,0,0,0-3.21-8.47,26.19,26.19,0,0,0-3.19-4.46,19.86,19.86,0,0,0-2.06-2,15.45,15.45,0,0,0-2.39-1.75A11.17,11.17,0,0,0,50,27.66a11.17,11.17,0,0,0-5.7,1.76,16.47,16.47,0,0,0-2.39,1.75,20.89,20.89,0,0,0-2.06,2,26.19,26.19,0,0,0-3.19,4.46,29.93,29.93,0,0,0-3.21,8.47A28.08,28.08,0,0,0,33,49.31c0,.45-.06.84-.07,1.19s0,.64,0,.88v0c0-.24,0-.54,0-.88s0-.75.07-1.19a25.67,25.67,0,0,1,.44-3.18,26.32,26.32,0,0,1,1.12-4,28.59,28.59,0,0,1,2.06-4.49,26.16,26.16,0,0,1,3.18-4.49,21.08,21.08,0,0,1,2.06-2.06,17,17,0,0,1,2.41-1.77A11.28,11.28,0,0,1,50,27.5a11.28,11.28,0,0,1,5.77,1.8,17,17,0,0,1,2.41,1.77,21.08,21.08,0,0,1,2.06,2.06,26.16,26.16,0,0,1,3.18,4.49,28.59,28.59,0,0,1,2.06,4.49,26.32,26.32,0,0,1,1.12,4A25.67,25.67,0,0,1,67,49.31c0,.44,0,.84.07,1.19s0,.64,0,.88Z"/><path class="cls-3" d="M49.67,48.05c-.1-1.35-.27-3.79,1.35-5.25,2.1-1.89,6.27-1.3,7.52.63,2.08,3.21-3.38,10.92-6.17,10.4C50.62,53.51,49.8,49.93,49.67,48.05Z"/><path class="cls-3" d="M38.56,57.05c-1,.41-1,3.82.38,6.38,1.26,2.35,3.87,4.38,4.81,3.81,1.13-.69,0-5.21-2.44-8.19C40.79,58.42,39.39,56.71,38.56,57.05Z"/><path class="cls-3" d="M58.11,39.63c0-.7.47-1.59,1.08-1.65,1.21-.12,2.89,3.12,2.3,3.71S58.17,41.27,58.11,39.63Z"/><path class="cls-3" d="M39.73,39.84c-.89-.3-2.64,1.77-3.24,3.95-.33,1.24-.51,3.31.22,3.63.92.39,3.34-2,3.69-4.64C40.53,41.75,40.43,40.08,39.73,39.84Z"/><path class="cls-3" d="M58,65.66c-1,.84-2.39,2.39-2,3.09.26.44,1.12.42,1.59.33,2.38-.42,3.85-4.09,3.23-4.67C60.41,64,58.74,65.09,58,65.66Z"/></svg>