<?xml version="1.0" encoding="utf-8"?>
<svg id="Layer_1" data-name="Layer 1" xmlns="http://www.w3.org/2000/svg" width="100" height="100" viewBox="0 0 100 100">
    <defs>
        <style>
            .cls-1 {
                fill: #ffecd1;
                stroke: #402806;
                stroke-miterlimit: 10;
                stroke-width: 2px;
            }
            .cls-2 {
                fill: #6e4120;
            }
            .cls-3 {
                fill: #93572a;
            }
            .cls-4 {
                fill: #be9a7f;
            }
        </style>
    </defs>
    <title>kings-rock</title>
    <polygon class="cls-1" points="68.3 31.7 50 2.56 31.7 31.7 2.56 50 31.7 68.3 50 97.44 68.3 68.3 97.44 50 68.3 31.7" />
    <path class="cls-2" d="M42.67,56.76,44.36,51c-2.37.34-5.56.78-8.42,1.4C36.08,56.84,36.08,56.84,42.67,56.76Z" />
    <path class="cls-3" d="M36.73,55.82,34.93,48l1.56-2.53L33.6,43.72l-3.72-4.56,3.61,15.26A5.69,5.69,0,0,0,36.73,55.82Z" />
    <path class="cls-4" d="M46.22,39.57,42.68,43.1l3.09,3.09-3.1,10.57a18.09,18.09,0,0,1-9.18-2.34L29.88,39.16,28.6,44.88l-1.79,2.91,2.52,1.56,3.1,13.11A39.43,39.43,0,0,0,50,66.21V31.79Z" />
    <path class="cls-2" d="M57.33,56.76,55.64,51c2.37.34,5.56.78,8.42,1.4C63.92,56.84,63.92,56.84,57.33,56.76Z" />
    <path class="cls-4" d="M63.27,55.82,65.07,48,63.51,45.5l2.89-1.78,3.72-4.56L66.51,54.42A5.69,5.69,0,0,1,63.27,55.82Z" />
    <path class="cls-3" d="M53.78,39.57l3.54,3.53-3.09,3.09,3.1,10.57a18.09,18.09,0,0,0,9.18-2.34l3.61-15.26,1.28,5.72,1.79,2.91-2.52,1.56-3.1,13.11A39.43,39.43,0,0,1,50,66.21V31.79Z" />
</svg>
