<?xml version="1.0" encoding="utf-8"?>
<svg id="Layer_1" data-name="Layer 1" xmlns="http://www.w3.org/2000/svg" width="100" height="100" viewBox="0 0 100 100">
    <defs>
        <style>
            .cls-1 {
                fill: #eaeaea;
                stroke: #4c4c4c;
                stroke-miterlimit: 10;
                stroke-width: 2px;
            }
            .cls-2 {
                fill: #007457;
            }
            .cls-3 {
                fill: #727272;
            }
            .cls-4 {
                fill: #4c4c4c;
            }
            .cls-5 {
                fill: #868686;
            }
            .cls-6 {
                fill: #5f5f5f;
            }
            .cls-7 {
                fill: #989898;
            }
            .cls-8 {
                fill: #2f2f2f;
            }
            .cls-9 {
                fill: #393939;
            }
        </style>
    </defs>
    <title>silver-pinap-berry</title>
    <polygon class="cls-1" points="68.3 68.3 97.44 50 68.3 31.7 50 2.56 31.7 31.7 2.56 50 31.7 68.3 50 97.44 68.3 68.3" />
    <path class="cls-2" d="M59.41,43.37c.77-14.33-2.35-18.29-2.35-18.29a88,88,0,0,1-.6,16.61A51.7,51.7,0,0,0,54.38,31S54,35.87,53.09,41.53a158.46,158.46,0,0,1,.58-22.63S51.94,24.62,50.27,33c-.92-3.45-2.12-7.3-3.67-11.56,0,0,.37,7.49.23,15.74-1.88-4.94-3.68-6.72-3.68-6.72a52.76,52.76,0,0,1,1.42,8.17,21.86,21.86,0,0,0-4.16-6.33,84,84,0,0,1,2.08,14.38c-3.73-7.15-8.2-9.65-8.2-9.65a30.23,30.23,0,0,1,5,10.88l9.94,16.8L59,48.14l1.47-2.48.18-.12a26.71,26.71,0,0,1,5.09-6A19.55,19.55,0,0,0,59.41,43.37Z"
    />
    <polygon class="cls-3" points="49.85 47.98 49.85 43.52 61.53 51.92 58.43 54.15 49.85 47.98" />
    <polygon class="cls-4" points="49.85 72.64 49.85 77.1 61.53 68.71 58.43 66.48 49.85 72.64" />
    <polygon class="cls-5" points="49.85 47.98 49.85 43.52 38.17 51.92 41.27 54.15 49.85 47.98" />
    <polygon class="cls-6" points="49.85 72.64 49.85 77.1 38.17 68.71 41.27 66.48 49.85 72.64" />
    <polygon class="cls-6" points="58.43 66.48 58.43 54.15 61.53 51.92 61.53 68.71 58.43 66.48" />
    <polygon class="cls-3" points="41.27 66.48 41.27 54.15 38.17 51.92 38.17 68.71 41.27 66.48" />
    <polygon class="cls-7" points="58.43 66.48 58.43 54.15 49.85 47.98 41.27 54.15 41.27 66.48 49.85 72.64 58.43 66.48" />
    <polygon class="cls-8" points="58.43 54.73 58.43 55.87 61.53 57.55 61.53 56.41 58.43 54.73" />
    <polygon class="cls-9" points="41.27 54.73 38.17 56.41 38.17 57.55 41.27 55.87 41.27 54.73" />
    <polygon class="cls-4" points="58.43 54.73 55.69 53.25 49.85 56.41 44.01 53.25 41.27 54.73 41.27 55.87 44.01 54.38 49.85 57.55 55.69 54.38 58.43 55.87 58.43 54.73" />
    <polygon class="cls-8" points="58.43 59.81 58.43 60.95 61.53 62.63 61.53 61.5 58.43 59.81" />
    <polygon class="cls-9" points="41.27 59.81 38.17 61.5 38.17 62.63 41.27 60.95 41.27 59.81" />
    <polygon class="cls-4" points="58.43 59.81 55.69 58.33 49.85 61.5 44.01 58.33 41.27 59.81 41.27 60.95 44.01 59.47 49.85 62.63 55.69 59.47 58.43 60.95 58.43 59.81" />
    <polygon class="cls-8" points="58.43 64.9 58.43 66.03 61.53 67.72 61.53 66.58 58.43 64.9" />
    <polygon class="cls-9" points="41.27 64.9 38.17 66.58 38.17 67.72 41.27 66.03 41.27 64.9" />
    <polygon class="cls-4" points="58.43 64.9 55.69 63.41 49.85 66.58 44.01 63.41 41.27 64.9 41.27 66.03 44.01 64.55 49.85 67.72 55.69 64.55 58.43 66.03 58.43 64.9" />
</svg>
