<svg id="Layer_1" data-name="Layer 1" xmlns="http://www.w3.org/2000/svg" width="100" height="100" viewBox="0 0 100 100"><defs><style>.cls-1{fill:#f1d3ff;stroke:#5c1180;stroke-miterlimit:10;stroke-width:2px;}.cls-2{fill:#9d9d9d;}.cls-3{fill:#858585;}.cls-4{fill:#b6b6b6;}.cls-5{fill:#ff45f1;}.cls-6{fill:#bf34b5;}.cls-7{fill:#d63cd3;}.cls-8{fill:#72b6ff;}.cls-8,.cls-9{opacity:0.5;}.cls-9{fill:#5e9dcc;}</style></defs><title>stardust</title><polygon class="cls-1" points="68.3 31.7 50 2.56 31.7 31.7 2.56 50 31.7 68.3 50 97.44 68.3 68.3 97.44 50 68.3 31.7"/><polygon class="cls-2" points="50 30.88 36.61 27.53 36.61 19.28 50 21.84 50 30.88"/><polygon class="cls-3" points="50 30.88 63.39 27.53 63.39 19.28 50 21.84 50 30.88"/><polygon class="cls-4" points="50 17.33 36.61 19.28 50 21.84 63.39 19.28 50 17.33"/><polygon class="cls-5" points="50 80.64 40.53 75.14 40.53 43.13 50 51.81 50 80.64"/><polygon class="cls-6" points="50 80.64 59.47 75.14 59.47 48.13 50 51.81 50 80.64"/><polygon class="cls-7" points="50 40.17 40.53 43.13 50 51.81 59.47 48.13 50 40.17"/><polygon class="cls-8" points="50 82.67 38.95 76.1 38.95 28.11 50 30.88 50 82.67"/><polygon class="cls-9" points="50 82.67 61.05 76.1 61.05 28.11 50 30.88 50 82.67"/></svg>