<?xml version="1.0" encoding="UTF-8" standalone="no"?>
<svg xmlns:dc="http://purl.org/dc/elements/1.1/" xmlns:cc="http://creativecommons.org/ns#" xmlns:rdf="http://www.w3.org/1999/02/22-rdf-syntax-ns#" xmlns:svg="http://www.w3.org/2000/svg" xmlns="http://www.w3.org/2000/svg" version="1.1" viewBox="0 0 100 100" height="100" width="100" data-name="Layer 1" id="Layer_1">
    <metadata id="metadata15">
        <rdf:RDF>
            <cc:Work rdf:about="">
                <dc:format>image/svg+xml</dc:format>
                <dc:type rdf:resource="http://purl.org/dc/dcmitype/StillImage"/>
                <dc:title>493</dc:title>
            </cc:Work>
        </rdf:RDF>
    </metadata>
    <defs id="defs4">
        <style id="style2">
            .compass {
                stroke-miterlimit: 10;
                stroke-width: 2px;
                fill: #3b3b3b;
                stroke: #eeeeee;
            }
            .grass {
                fill: #8e8e8e;
            }
        </style>
    </defs>
    <title id="title6">493</title>
    <polygon id="polygon8" points="68.3 31.7 50 2.56 31.7 31.7 2.56 50 31.7 68.3 50 97.44 68.3 68.3 97.44 50 68.3 31.7" class="compass"/>
    <path id="path10" d="M66,64.21c1.2-21.07-3.68-26.9-3.68-26.9a121.93,121.93,0,0,1-.93,24.42,72.93,72.93,0,0,0-3.24-15.79s-.69,7.23-2,15.55A220.68,220.68,0,0,1,57,28.22s-2.7,8.42-5.31,20.7c-1.43-5.06-3.3-10.72-5.73-17,0,0,.58,11,.36,23.14-2.93-7.26-5.74-9.87-5.74-9.87a73,73,0,0,1,2.21,12,32.39,32.39,0,0,0-6.48-9.31,118,118,0,0,1,3.25,21.16c-5.83-10.51-12.81-14.2-12.81-14.2a43.29,43.29,0,0,1,7.73,16L50,95.56,65.28,71.22l2.29-3.65.29-.18a39.63,39.63,0,0,1,7.94-8.81A30.74,30.74,0,0,0,66,64.21Z" class="grass"/>
    <g id="text19" style="font-style:normal;font-variant:normal;font-weight:bold;font-stretch:condensed;font-size:16px;line-height:1.25;font-family:'Liberation Sans Narrow';-inkscape-font-specification:'Liberation Sans Narrow, Bold Condensed';font-variant-ligatures:normal;font-variant-caps:normal;font-variant-numeric:normal;font-feature-settings:normal;text-align:center;letter-spacing:0px;word-spacing:0px;writing-mode:lr-tb;text-anchor:middle;fill:#eeeeee;fill-opacity:1;stroke:none" aria-label="493">
        <path id="path14" style="" d="m 45.199219,70.981583 v 2.242187 h -1.71875 v -2.242187 h -4.109375 v -1.648438 l 3.8125,-7.117187 h 2.015625 v 7.132812 h 1.203125 v 1.632813 z m -1.71875,-5.234375 q 0,-0.132813 0,-0.34375 0.0078,-0.21875 0.01563,-0.445313 0.0078,-0.226562 0.01563,-0.429687 0.01563,-0.210938 0.02344,-0.328125 -0.03125,0.08594 -0.101562,0.242187 l -0.15625,0.34375 q -0.08594,0.1875 -0.179688,0.367188 l -0.164062,0.3125 -2.09375,3.882812 h 2.640625 z"/>
        <path id="path16" style="" d="m 53.300781,67.544083 q 0,2.929687 -0.882812,4.382812 -0.875,1.453125 -2.492188,1.453125 -0.585937,0 -1.046875,-0.148437 -0.460937,-0.148438 -0.8125,-0.460938 -0.34375,-0.3125 -0.585937,-0.804687 -0.234375,-0.492188 -0.375,-1.171875 l 1.6875,-0.289063 q 0.125,0.585938 0.414062,0.867188 0.296875,0.28125 0.742188,0.28125 0.367187,0 0.648437,-0.210938 0.289063,-0.210937 0.492188,-0.640625 0.210937,-0.429687 0.320312,-1.085937 0.117188,-0.664063 0.117188,-1.5625 -0.125,0.304687 -0.335938,0.539062 -0.210937,0.234375 -0.476562,0.390625 -0.265625,0.15625 -0.570313,0.242188 -0.296875,0.07813 -0.609375,0.07813 -0.585937,0 -1.070312,-0.25 -0.476563,-0.257813 -0.820313,-0.734375 -0.335937,-0.476563 -0.523437,-1.148438 -0.179688,-0.679687 -0.179688,-1.53125 0,-0.875 0.210938,-1.5625 0.21875,-0.6875 0.617187,-1.15625 0.40625,-0.476562 0.992188,-0.71875 0.59375,-0.25 1.335937,-0.25 0.78125,0 1.375,0.328125 0.601563,0.320313 1,1 0.40625,0.671875 0.617188,1.710938 0.210937,1.03125 0.210937,2.453125 z m -1.90625,-1.539063 q 0,-0.46875 -0.08594,-0.875 -0.08594,-0.414062 -0.257813,-0.710937 -0.171875,-0.304688 -0.421875,-0.476563 -0.25,-0.171875 -0.578125,-0.171875 -0.304687,0 -0.539062,0.140625 -0.234375,0.132813 -0.40625,0.390625 -0.164063,0.257813 -0.25,0.625 -0.08594,0.367188 -0.08594,0.828125 0,0.429688 0.07813,0.804688 0.08594,0.367187 0.242188,0.640625 0.164062,0.265625 0.40625,0.421875 0.25,0.148437 0.5625,0.148437 0.25,0 0.484375,-0.109375 0.242187,-0.109375 0.429687,-0.328125 0.195313,-0.21875 0.304688,-0.546875 0.117187,-0.335937 0.117187,-0.78125 z"/>
        <path id="path18" style="" d="m 60.621094,70.169083 q 0,0.75 -0.203125,1.351562 -0.195313,0.59375 -0.601563,1.015625 -0.40625,0.421875 -1.007812,0.648438 -0.59375,0.21875 -1.390625,0.21875 -0.882813,0 -1.492188,-0.273438 -0.601562,-0.273437 -0.992187,-0.71875 -0.382813,-0.453125 -0.578125,-1.023437 -0.195313,-0.570313 -0.25,-1.15625 l 1.828125,-0.195313 q 0.03906,0.351563 0.140625,0.648438 0.109375,0.289062 0.289062,0.5 0.179688,0.210937 0.4375,0.328125 0.257813,0.109375 0.609375,0.109375 0.648438,0 1.007813,-0.390625 0.359375,-0.390625 0.359375,-1.195313 0,-0.492187 -0.171875,-0.789062 -0.164063,-0.296875 -0.429688,-0.453125 -0.257812,-0.164063 -0.5625,-0.21875 -0.296875,-0.05469 -0.5625,-0.05469 h -0.632812 v -1.773437 h 0.59375 q 0.265625,0 0.546875,-0.0625 0.28125,-0.0625 0.5,-0.226563 0.226562,-0.164062 0.367187,-0.453125 0.140625,-0.296875 0.140625,-0.75 0,-0.679687 -0.3125,-1.0625 -0.304687,-0.390625 -0.90625,-0.390625 -0.554687,0 -0.898437,0.375 -0.34375,0.375 -0.390625,1.0625 l -1.804688,-0.15625 q 0.07813,-0.773437 0.351563,-1.34375 0.273437,-0.570312 0.6875,-0.945312 0.414062,-0.375 0.945312,-0.554688 0.539063,-0.1875 1.140625,-0.1875 0.796875,0 1.367188,0.234375 0.570312,0.234375 0.9375,0.632813 0.367187,0.398437 0.539062,0.929687 0.171875,0.53125 0.171875,1.132813 0,0.484375 -0.117187,0.90625 -0.117188,0.414062 -0.351563,0.75 -0.234375,0.328125 -0.601562,0.570312 -0.359375,0.234375 -0.859375,0.351563 v 0.03125 q 0.554687,0.07813 0.960937,0.3125 0.414063,0.226562 0.679688,0.570312 0.265625,0.34375 0.390625,0.78125 0.125,0.429688 0.125,0.914063 z"/>
    </g>
    <g id="text23" style="font-style:normal;font-variant:normal;font-weight:bold;font-stretch:condensed;font-size:24px;line-height:1.25;font-family:'Liberation Sans Narrow';-inkscape-font-specification:'Liberation Sans Narrow, Bold Condensed';font-variant-ligatures:normal;font-variant-caps:normal;font-variant-numeric:normal;font-feature-settings:normal;text-align:center;letter-spacing:0px;word-spacing:0px;writing-mode:lr-tb;text-anchor:middle;fill:#ffffff;fill-opacity:1;stroke:#ffffff;stroke-width:0px" aria-label="ARCEUS">
        <path id="path21" style="" d="M 19.34375,58 18.148437,53.78125 H 12.992188 L 11.796875,58 H 8.9609375 L 13.894531,41.488281 h 3.339844 L 22.15625,58 Z M 16.179687,46.433594 q 0,0 -0.234374,-0.832032 -0.105469,-0.410156 -0.1875,-0.75 l -0.140625,-0.574218 q -0.04687,-0.222657 -0.04687,-0.246094 -0.01172,0.03516 -0.05859,0.257812 -0.04687,0.222657 -0.128906,0.5625 -0.08203,0.339844 -0.1875,0.75 L 14.960938,46.433594 13.625,51.179687 h 3.890625 z"/>
        <path id="path23" style="" d="M 33.289062,58 30.148437,51.730469 H 26.820312 V 58 H 23.984375 V 41.488281 h 6.761719 q 1.265625,0 2.214843,0.351563 0.949219,0.339843 1.582032,0.984375 0.632812,0.632812 0.9375,1.546875 0.316406,0.902343 0.316406,2.039062 0,0.925781 -0.222656,1.699219 -0.222657,0.761719 -0.621094,1.359375 -0.398438,0.597656 -0.949219,1.007812 Q 33.453125,50.875 32.808594,51.0625 L 36.476562,58 Z M 32.949219,46.550781 q 0,-1.207031 -0.65625,-1.792969 -0.644532,-0.585937 -1.839844,-0.585937 h -3.632813 v 4.875 h 3.703125 q 0.632813,0 1.089844,-0.175781 0.457031,-0.1875 0.75,-0.515625 0.292969,-0.339844 0.433594,-0.796875 0.152344,-0.457032 0.152344,-1.007813 z"/>
        <path id="path25" style="" d="m 44.503906,55.515625 q 0.796875,0 1.382813,-0.269531 0.585937,-0.28125 1.007812,-0.726563 0.433594,-0.445312 0.714844,-1.007812 0.28125,-0.5625 0.46875,-1.136719 l 2.460937,1.136719 q -0.292968,0.890625 -0.773437,1.746093 -0.480469,0.855469 -1.207031,1.511719 -0.714844,0.65625 -1.710938,1.066406 -0.996094,0.398438 -2.34375,0.398438 -1.757812,0 -3.046875,-0.632813 -1.277344,-0.644531 -2.121094,-1.78125 -0.84375,-1.148437 -1.253906,-2.71875 -0.398437,-1.570312 -0.398437,-3.433593 0,-1.933594 0.398437,-3.492188 0.410156,-1.558594 1.230469,-2.648437 0.832031,-1.101563 2.097656,-1.6875 1.265625,-0.597657 2.976563,-0.597657 1.324218,0 2.320312,0.339844 0.996094,0.339844 1.710938,0.960938 0.726562,0.609375 1.195312,1.453125 0.480469,0.832031 0.75,1.839843 l -2.496094,0.832032 q -0.128906,-0.527344 -0.410156,-1.007813 -0.28125,-0.492187 -0.714844,-0.867187 -0.421875,-0.375 -0.996093,-0.597657 -0.574219,-0.234375 -1.300782,-0.234375 -1.03125,0 -1.769531,0.410157 -0.738281,0.398437 -1.21875,1.148437 -0.46875,0.75 -0.703125,1.804688 -0.222656,1.042968 -0.222656,2.34375 0,1.289062 0.222656,2.367187 0.234375,1.066406 0.714844,1.839844 0.480469,0.773437 1.230469,1.207031 0.75,0.433594 1.804687,0.433594 z"/>
        <path id="path27" style="" d="M 52.390625,58 V 41.488281 h 10.652344 v 2.671875 h -7.816407 v 4.148438 h 7.230469 v 2.671875 h -7.230469 v 4.347656 h 8.203125 V 58 Z"/>
        <path id="path29" style="" d="m 71.140625,58.234375 q -1.265625,0 -2.320313,-0.363281 -1.054687,-0.375 -1.816406,-1.148438 Q 66.242187,55.9375 65.808594,54.71875 65.386719,53.5 65.386719,51.8125 V 41.488281 h 2.835937 v 10.054688 q 0,1.042968 0.210938,1.804687 0.210937,0.75 0.597656,1.242188 0.398437,0.480468 0.949219,0.714843 0.5625,0.222657 1.242187,0.222657 0.691406,0 1.265625,-0.234375 0.585938,-0.246094 0.996094,-0.75 0.421875,-0.503907 0.65625,-1.277344 Q 74.375,52.492187 74.375,51.425781 v -9.9375 h 2.835937 v 10.148438 q 0,1.699218 -0.457031,2.941406 -0.445312,1.242187 -1.253906,2.0625 -0.808594,0.808594 -1.921875,1.207031 -1.113281,0.386719 -2.4375,0.386719 z"/>
        <path id="path31" style="" d="m 90.757812,53.242187 q 0,1.125 -0.339843,2.050782 -0.328125,0.914062 -1.042969,1.570312 -0.703125,0.65625 -1.804688,1.019531 -1.089843,0.351563 -2.613281,0.351563 -1.347656,0 -2.378906,-0.292969 Q 81.558594,57.648437 80.820312,57.074219 80.082031,56.5 79.625,55.65625 79.179687,54.800781 78.96875,53.699219 l 2.742187,-0.550782 q 0.117188,0.550782 0.339844,1.007813 0.222656,0.457031 0.609375,0.796875 0.386719,0.328125 0.960938,0.515625 0.585937,0.175781 1.417968,0.175781 1.441407,0 2.203125,-0.527344 0.761719,-0.539062 0.761719,-1.675781 0,-0.679687 -0.304687,-1.113281 -0.304688,-0.433594 -0.820313,-0.714844 -0.503906,-0.28125 -1.171875,-0.46875 -0.65625,-0.1875 -1.382812,-0.363281 0,0 -1.160157,-0.339844 -0.574218,-0.175781 -1.101562,-0.421875 -0.515625,-0.246094 -0.972656,-0.585937 -0.445313,-0.339844 -0.785157,-0.832032 -0.328125,-0.503906 -0.515625,-1.171875 -0.1875,-0.667968 -0.1875,-1.570312 0,-1.230469 0.398438,-2.109375 0.410156,-0.878906 1.125,-1.429688 0.726562,-0.5625 1.710937,-0.820312 0.984375,-0.257813 2.15625,-0.257813 1.324219,0 2.273438,0.257813 0.949219,0.246094 1.582031,0.761719 0.644531,0.515625 1.007813,1.300781 0.375,0.773437 0.550781,1.816406 l -2.742188,0.457031 q -0.210937,-1.066406 -0.867187,-1.605468 -0.644531,-0.539063 -1.851563,-0.539063 -0.75,0 -1.253906,0.164063 -0.492187,0.152343 -0.785156,0.421875 -0.292969,0.269531 -0.421875,0.632812 -0.117188,0.351563 -0.117188,0.75 0,0.609375 0.234375,1.007813 0.246094,0.386718 0.679688,0.65625 0.433594,0.257812 1.03125,0.445312 0.597656,0.175781 1.324219,0.363281 0.632812,0.164063 1.253906,0.351563 0.621094,0.175781 1.183594,0.421875 0.574218,0.246094 1.066406,0.597656 0.492187,0.351563 0.84375,0.867188 0.363281,0.503906 0.5625,1.207031 0.210937,0.703125 0.210937,1.664062 z"/>
    </g>
</svg>
