<?xml version="1.0" encoding="utf-8"?>
<svg id="Layer_1" data-name="Layer 1" xmlns="http://www.w3.org/2000/svg" width="440" height="110" viewBox="0 0 1024 256">
    <defs>
        <style>
            .cls-1 {
                fill: #cccccc;
            }
        </style>
    </defs>
    <title>FreeField</title>
    <rect class="cls-1" x="93.74" y="93.74" width="68.53" height="68.53" transform="translate(128 -53.02) rotate(45)" />
    <polygon class="cls-1" points="65.08 164.23 28.85 128 65.08 91.77 50.66 77.34 0 128 50.66 178.66 65.08 164.23" />
    <polygon class="cls-1" points="190.92 164.23 205.34 178.66 256 128 205.34 77.34 190.92 91.77 227.15 128 190.92 164.23" />
    <polygon class="cls-1" points="128 28.85 164.23 65.08 178.66 50.66 128 0 77.34 50.66 91.77 65.08 128 28.85" />
    <polygon class="cls-1" points="128 176.46 79.54 224.92 79.54 234.58 79.54 255.75 79.54 256 176.46 256 176.46 255.75 176.46 234.58 176.46 224.92 128 176.46" />
    <path class="cls-1" d="M304.1,67.32H372V81H320.37v41.89h47.69v13.46H320.37v57H304.1Z" />
    <path class="cls-1" d="M389.75,131.09c0-10.66-.18-19.83-.75-28.24h14.4l.56,17.76h.75c4.12-12.15,14-19.82,25.06-19.82a17.9,17.9,0,0,1,4.67.56v15.52a24.9,24.9,0,0,0-5.61-.56c-11.59,0-19.82,8.79-22.06,21.13a46.9,46.9,0,0,0-.75,7.67v48.25H389.75Z" />
    <path class="cls-1" d="M458.19,151.09c.38,22.26,14.59,31.42,31.05,31.42,11.78,0,18.88-2.06,25-4.67l2.81,11.78c-5.8,2.61-15.71,5.61-30.11,5.61-27.86,0-44.5-18.33-44.5-45.63s16.08-48.81,42.45-48.81c29.54,0,37.39,26,37.39,42.64a61.43,61.43,0,0,1-.56,7.66Zm48.25-11.78c.19-10.47-4.3-26.74-22.81-26.74-16.65,0-23.94,15.34-25.25,26.74Z"
    />
    <path class="cls-1" d="M551.88,151.09c.37,22.26,14.59,31.42,31,31.42,11.78,0,18.89-2.06,25.06-4.67l2.8,11.78c-5.79,2.61-15.7,5.61-30.1,5.61-27.86,0-44.51-18.33-44.51-45.63s16.08-48.81,42.45-48.81c29.55,0,37.4,26,37.4,42.64a61.43,61.43,0,0,1-.56,7.66Zm48.24-11.78c.19-10.47-4.3-26.74-22.81-26.74-16.64,0-23.93,15.34-25.24,26.74Z"
    />
    <path class="cls-1" d="M637,67.32h67.88V81H653.23v41.89h47.69v13.46H653.23v57H637Z" />
    <path class="cls-1" d="M740.94,77.42c.18,5.61-3.93,10.1-10.47,10.1a9.78,9.78,0,0,1-9.91-10.1,10,10,0,0,1,10.28-10.29C737,67.13,740.94,71.62,740.94,77.42ZM722.61,193.36V102.85h16.46v90.51Z" />
    <path class="cls-1" d="M775.53,151.09c.38,22.26,14.59,31.42,31,31.42,11.78,0,18.89-2.06,25.06-4.67l2.81,11.78c-5.8,2.61-15.71,5.61-30.11,5.61-27.86,0-44.51-18.33-44.51-45.63s16.09-48.81,42.45-48.81c29.55,0,37.4,26,37.4,42.64a61.43,61.43,0,0,1-.56,7.66Zm48.25-11.78c.18-10.47-4.3-26.74-22.82-26.74-16.64,0-23.93,15.34-25.24,26.74Z"
    />
    <path class="cls-1" d="M860.05,60.59h16.46V193.36H860.05Z" />
    <path class="cls-1" d="M982.35,60.59V170c0,8,.19,17.2.75,23.38H968.33l-.75-15.71h-.38c-5,10.1-16.08,17.76-30.85,17.76-21.88,0-38.71-18.51-38.71-46-.19-30.11,18.51-48.62,40.58-48.62,13.84,0,23.19,6.55,27.3,13.84h.37v-54Zm-16.46,79.1a29.1,29.1,0,0,0-.74-6.92,24.21,24.21,0,0,0-23.75-19.08c-17,0-27.12,15-27.12,35,0,18.33,9,33.48,26.74,33.48,11,0,21.14-7.3,24.13-19.64a28.64,28.64,0,0,0,.74-7.11Z"
    />
</svg>
