<?xml version="1.0" encoding="utf-8"?>
<svg id="Layer_1" data-name="Layer 1" xmlns="http://www.w3.org/2000/svg" xmlns:xlink="http://www.w3.org/1999/xlink" width="100" height="100" viewBox="0 0 100 100">
    <defs>
        <style>
            .cls-1 {
                fill: none;
            }
            .cls-2 {
                fill: #1e2c24;
                stroke: #c5f4d9;
                stroke-miterlimit: 10;
                stroke-width: 2px;
            }
            .cls-3 {
                clip-path: url(#clip-path);
            }
            .cls-4 {
                fill: #d9ffbd;
            }
            .cls-5 {
                fill: #9fecc0;
            }
            .cls-6 {
                fill: #1de2f2;
            }
            .cls-7 {
                fill: #1dcaec;
            }
            .cls-8 {
                fill: #00b2e9;
            }
            .cls-9 {
                fill: #1dcaff;
            }
            .cls-10 {
                opacity: 0.1;
            }
        </style>
        <clipPath id="clip-path">
            <path class="cls-1" d="M50,26.46C30.44,48,36.71,73.54,50,73.54S69.56,48,50,26.46Z" />
        </clipPath>
    </defs>
    <title>dragon-scale</title>
    <polygon class="cls-2" points="68.3 31.7 50 2.56 31.7 31.7 2.56 50 31.7 68.3 50 97.44 68.3 68.3 97.44 50 68.3 31.7" />
    <g class="cls-3">
        <polygon class="cls-4" points="50 24.32 36.13 17.42 36.13 23.84 36.13 72.72 50 79.63 63.88 72.72 63.88 23.84 63.88 17.42 50 24.32" />
        <polygon class="cls-5" points="50 37.16 36.13 30.25 36.13 72.72 50 79.63 63.88 72.72 63.88 30.25 50 37.16" />
        <polygon class="cls-6" points="50 43.58 36.13 36.67 36.13 72.72 50 79.63 63.88 72.72 63.88 36.67 50 43.58" />
        <polygon class="cls-7" points="50 50 36.13 43.09 36.13 72.72 50 79.63 63.88 72.72 63.88 43.09 50 50" />
        <polygon class="cls-8" points="50 56.41 36.13 49.51 36.13 72.72 50 79.63 63.88 72.72 63.88 49.51 50 56.41" />
        <polygon class="cls-9" points="50 62.83 36.13 55.92 36.13 72.72 50 79.63 63.88 72.72 63.88 55.92 50 62.83" />
        <polygon class="cls-8" points="50 69.25 36.13 62.34 36.13 66.3 36.13 68.76 36.13 72.72 50 79.63 63.88 72.72 63.88 68.76 63.88 66.3 63.88 62.34 50 69.25" />
        <path class="cls-10" d="M56.58,80.6c20.13-18,6-50.5-2.18-50.5C58.58,53,33.3,72,56.58,80.6Z" />
    </g>
</svg>
