<svg id="Layer_1" data-name="Layer 1" xmlns="http://www.w3.org/2000/svg" width="100" height="100" viewBox="0 0 100 100"><defs><style>.cls-1{fill:#401c00;stroke:#ffe2cc;stroke-miterlimit:10;stroke-width:2px;}.cls-2{fill:#007457;}.cls-3{fill:#bf5400;}.cls-4{fill:#803800;}.cls-5{fill:#e06200;}.cls-6{fill:#9f4600;}.cls-7{fill:#ff7000;}</style></defs><title>golden-razz-berry</title><polygon class="cls-1" points="68.3 68.3 97.44 50 68.3 31.7 50 2.56 31.7 31.7 2.56 50 31.7 68.3 50 97.44 68.3 68.3"/><path class="cls-2" d="M59.41,43.37c.77-14.33-2.35-18.29-2.35-18.29a88,88,0,0,1-.6,16.61A51.7,51.7,0,0,0,54.38,31S54,35.87,53.09,41.53a158.46,158.46,0,0,1,.58-22.63S51.94,24.62,50.27,33c-.92-3.45-2.12-7.3-3.67-11.56,0,0,.37,7.49.23,15.74-1.88-4.94-3.68-6.72-3.68-6.72a52.76,52.76,0,0,1,1.42,8.17,21.86,21.86,0,0,0-4.16-6.33,84,84,0,0,1,2.08,14.38c-3.73-7.15-8.2-9.65-8.2-9.65a30.23,30.23,0,0,1,5,10.88l9.94,16.8L59,48.14l1.47-2.48.18-.12a26.71,26.71,0,0,1,5.09-6A19.55,19.55,0,0,0,59.41,43.37Z"/><polygon class="cls-3" points="39.37 51.8 39.37 50.3 44.28 53.13 42.98 53.89 39.37 51.8"/><polygon class="cls-4" points="39.37 60.14 39.37 61.64 44.28 58.81 42.98 58.05 39.37 60.14"/><polygon class="cls-5" points="39.37 51.8 39.37 50.3 34.46 53.13 35.76 53.89 39.37 51.8"/><polygon class="cls-6" points="39.37 60.14 39.37 61.64 34.46 58.81 35.76 58.05 39.37 60.14"/><polygon class="cls-6" points="42.98 58.05 42.98 53.89 44.28 53.13 44.28 58.81 42.98 58.05"/><polygon class="cls-3" points="35.76 58.05 35.76 53.89 34.46 53.13 34.46 58.81 35.76 58.05"/><polygon class="cls-7" points="42.98 58.05 42.98 53.89 39.37 51.8 35.76 53.89 35.76 58.05 39.37 60.14 42.98 58.05"/><polygon class="cls-3" points="44.28 60.31 44.28 58.81 49.2 61.64 47.89 62.4 44.28 60.31"/><polygon class="cls-4" points="44.28 68.65 44.28 70.16 49.2 67.32 47.89 66.56 44.28 68.65"/><polygon class="cls-5" points="44.28 60.31 44.28 58.81 39.37 61.64 40.67 62.4 44.28 60.31"/><polygon class="cls-6" points="44.28 68.65 44.28 70.16 39.37 67.32 40.67 66.56 44.28 68.65"/><polygon class="cls-6" points="47.89 66.56 47.89 62.4 49.2 61.64 49.2 67.32 47.89 66.56"/><polygon class="cls-3" points="40.67 66.56 40.67 62.4 39.37 61.64 39.37 67.32 40.67 66.56"/><polygon class="cls-7" points="47.89 66.56 47.89 62.4 44.28 60.31 40.67 62.4 40.67 66.56 44.28 68.65 47.89 66.56"/><polygon class="cls-3" points="49.2 68.83 49.2 67.32 54.11 70.16 52.81 70.91 49.2 68.83"/><polygon class="cls-4" points="49.2 77.16 49.2 78.67 54.11 75.83 52.81 75.08 49.2 77.16"/><polygon class="cls-5" points="49.2 68.83 49.2 67.32 44.28 70.16 45.59 70.91 49.2 68.83"/><polygon class="cls-6" points="49.2 77.16 49.2 78.67 44.28 75.83 45.59 75.08 49.2 77.16"/><polygon class="cls-6" points="52.81 75.08 52.81 70.91 54.11 70.16 54.11 75.83 52.81 75.08"/><polygon class="cls-3" points="45.59 75.08 45.59 70.91 44.28 70.16 44.28 75.83 45.59 75.08"/><polygon class="cls-7" points="52.81 75.08 52.81 70.91 49.2 68.83 45.59 70.91 45.59 75.08 49.2 77.16 52.81 75.08"/><polygon class="cls-3" points="44.28 43.29 44.28 41.78 49.2 44.62 47.89 45.38 44.28 43.29"/><polygon class="cls-4" points="44.28 51.63 44.28 53.13 49.2 50.3 47.89 49.54 44.28 51.63"/><polygon class="cls-5" points="44.28 43.29 44.28 41.78 39.37 44.62 40.67 45.38 44.28 43.29"/><polygon class="cls-6" points="44.28 51.63 44.28 53.13 39.37 50.3 40.67 49.54 44.28 51.63"/><polygon class="cls-6" points="47.89 49.54 47.89 45.38 49.2 44.62 49.2 50.3 47.89 49.54"/><polygon class="cls-3" points="40.67 49.54 40.67 45.38 39.37 44.62 39.37 50.3 40.67 49.54"/><polygon class="cls-7" points="47.89 49.54 47.89 45.38 44.28 43.29 40.67 45.38 40.67 49.54 44.28 51.63 47.89 49.54"/><polygon class="cls-3" points="54.11 43.29 54.11 41.78 59.03 44.62 57.72 45.38 54.11 43.29"/><polygon class="cls-4" points="54.11 51.63 54.11 53.13 59.03 50.3 57.72 49.54 54.11 51.63"/><polygon class="cls-5" points="54.11 43.29 54.11 41.78 49.2 44.62 50.5 45.38 54.11 43.29"/><polygon class="cls-6" points="54.11 51.63 54.11 53.13 49.2 50.3 50.5 49.54 54.11 51.63"/><polygon class="cls-6" points="57.72 49.54 57.72 45.38 59.03 44.62 59.03 50.3 57.72 49.54"/><polygon class="cls-3" points="50.5 49.54 50.5 45.38 49.2 44.62 49.2 50.3 50.5 49.54"/><polygon class="cls-7" points="57.72 49.54 57.72 45.38 54.11 43.29 50.5 45.38 50.5 49.54 54.11 51.63 57.72 49.54"/><polygon class="cls-3" points="49.2 51.8 49.2 50.3 54.11 53.13 52.81 53.89 49.2 51.8"/><polygon class="cls-4" points="49.2 60.14 49.2 61.64 54.11 58.81 52.81 58.05 49.2 60.14"/><polygon class="cls-5" points="49.2 51.8 49.2 50.3 44.28 53.13 45.59 53.89 49.2 51.8"/><polygon class="cls-6" points="49.2 60.14 49.2 61.64 44.28 58.81 45.59 58.05 49.2 60.14"/><polygon class="cls-6" points="52.81 58.05 52.81 53.89 54.11 53.13 54.11 58.81 52.81 58.05"/><polygon class="cls-3" points="45.59 58.05 45.59 53.89 44.28 53.13 44.28 58.81 45.59 58.05"/><polygon class="cls-7" points="52.81 58.05 52.81 53.89 49.2 51.8 45.59 53.89 45.59 58.05 49.2 60.14 52.81 58.05"/><polygon class="cls-3" points="54.11 60.31 54.11 58.81 59.03 61.64 57.72 62.4 54.11 60.31"/><polygon class="cls-4" points="54.11 68.65 54.11 70.16 59.03 67.32 57.72 66.56 54.11 68.65"/><polygon class="cls-5" points="54.11 60.31 54.11 58.81 49.2 61.64 50.5 62.4 54.11 60.31"/><polygon class="cls-6" points="54.11 68.65 54.11 70.16 49.2 67.32 50.5 66.56 54.11 68.65"/><polygon class="cls-6" points="57.72 66.56 57.72 62.4 59.03 61.64 59.03 67.32 57.72 66.56"/><polygon class="cls-3" points="50.5 66.56 50.5 62.4 49.2 61.64 49.2 67.32 50.5 66.56"/><polygon class="cls-7" points="57.72 66.56 57.72 62.4 54.11 60.31 50.5 62.4 50.5 66.56 54.11 68.65 57.72 66.56"/><polygon class="cls-3" points="59.03 51.8 59.03 50.3 63.94 53.13 62.64 53.89 59.03 51.8"/><polygon class="cls-4" points="59.03 60.14 59.03 61.64 63.94 58.81 62.64 58.05 59.03 60.14"/><polygon class="cls-5" points="59.03 51.8 59.03 50.3 54.11 53.13 55.42 53.89 59.03 51.8"/><polygon class="cls-6" points="59.03 60.14 59.03 61.64 54.11 58.81 55.42 58.05 59.03 60.14"/><polygon class="cls-6" points="62.64 58.05 62.64 53.89 63.94 53.13 63.94 58.81 62.64 58.05"/><polygon class="cls-3" points="55.42 58.05 55.42 53.89 54.11 53.13 54.11 58.81 55.42 58.05"/><polygon class="cls-7" points="62.64 58.05 62.64 53.89 59.03 51.8 55.42 53.89 55.42 58.05 59.03 60.14 62.64 58.05"/></svg>