<?xml version="1.0" encoding="utf-8"?>
<svg id="Layer_1" data-name="Layer 1" xmlns="http://www.w3.org/2000/svg" width="100" height="100" viewBox="0 0 100 100">
    <defs>
        <style>
            .cls-1 {
                fill: #563a60;
                stroke: #faebff;
                stroke-miterlimit: 10;
                stroke-width: 2px;
            }
            .cls-2 {
                fill: #e59aff;
            }
            .cls-3 {
                fill: #efc2ff;
            }
            .cls-4 {
                fill: #9d9d9d;
            }
            .cls-5 {
                fill: #bf87d8;
            }
            .cls-6 {
                fill: #858585;
            }
            .cls-7 {
                fill: #b6b6b6;
            }
        </style>
    </defs>
    <title>hyper-potion</title>
    <polygon class="cls-1" points="68.3 31.7 50 2.56 31.7 31.7 2.56 50 31.7 68.3 50 97.44 68.3 68.3 97.44 50 68.3 31.7" />
    <polygon class="cls-2" points="50 47.19 38.95 43.22 38.95 27.9 50 30.88 50 47.19" />
    <polygon class="cls-3" points="38.95 43.22 38.95 43.22 27.89 69.53 50 82.67 50 69.53 50 47.19 38.95 43.22" />
    <polygon class="cls-4" points="50 30.88 36.61 27.53 36.61 19.28 50 21.84 50 30.88" />
    <polygon class="cls-5" points="50 47.19 61.05 43.22 61.05 27.9 50 30.88 50 47.19" />
    <polygon class="cls-2" points="61.05 43.22 61.05 43.22 72.11 69.53 50 82.67 50 69.53 50 47.19 61.05 43.22" />
    <polygon class="cls-6" points="50 30.88 63.39 27.53 63.39 19.28 50 21.84 50 30.88" />
    <polygon class="cls-7" points="50 17.33 36.61 19.28 50 21.84 63.39 19.28 50 17.33" />
</svg>
