<svg id="Layer_1" data-name="Layer 1" xmlns="http://www.w3.org/2000/svg" width="100" height="100" viewBox="0 0 100 100"><defs><style>.cls-1,.cls-3{fill:#15151d;}.cls-1{stroke:#d4d4d8;stroke-width:2px;}.cls-1,.cls-10{stroke-miterlimit:10;}.cls-2{fill:#242432;}.cls-4{fill:#bfbfbf;}.cls-5{fill:gray;}.cls-6{fill:#20202c;}.cls-7{fill:#999;}.cls-8{fill:#2a2a3a;}.cls-10,.cls-9{fill:#fff;}.cls-10{stroke:#262626;}.cls-11{fill:#262626;}.cls-12{fill:#1c1c1c;}.cls-13{fill:#131313;}.cls-14{fill:none;}.cls-15{fill:#e5e5e5;}.cls-16{fill:#ffbf00;}.cls-17{fill:#f0b300;}.cls-18{fill:#cb9800;}.cls-19{fill:#d49e00;}</style></defs><title>ultra-ball</title><polygon class="cls-1" points="68.3 31.7 50 2.56 31.7 31.7 2.56 50 31.7 68.3 50 97.44 68.3 68.3 97.44 50 68.3 31.7"/><polygon class="cls-2" points="34.42 50 28.78 50 39.39 31.63 42.21 36.5 34.42 50"/><polygon class="cls-3" points="65.58 50 71.22 50 60.61 31.63 57.79 36.5 65.58 50"/><polygon class="cls-4" points="34.42 50 28.78 50 39.39 68.38 42.21 63.5 34.42 50"/><polygon class="cls-5" points="65.58 50 71.22 50 60.61 68.38 57.79 63.5 65.58 50"/><polygon class="cls-6" points="57.79 36.5 42.21 36.5 39.39 31.63 60.61 31.63 57.79 36.5"/><polygon class="cls-7" points="57.79 63.5 42.21 63.5 39.39 68.38 60.61 68.38 57.79 63.5"/><polygon class="cls-8" points="65.58 50 34.42 50 42.21 36.5 57.79 36.5 65.58 50"/><polygon class="cls-9" points="65.58 50 34.42 50 42.21 63.5 57.79 63.5 65.58 50"/><polygon class="cls-10" points="52.38 45.89 47.63 45.89 45.25 50 47.63 54.11 52.38 54.11 54.75 50 52.38 45.89"/><polygon class="cls-11" points="45.25 50.5 34.7 50.5 34.42 50 34.7 49.5 45.25 49.5 45.25 50.5"/><polygon class="cls-12" points="34.7 50.5 29.07 50.5 28.78 50 29.07 49.5 34.7 49.5 34.42 50 34.7 50.5"/><polygon class="cls-11" points="54.75 50.5 65.3 50.5 65.58 50 65.3 49.5 54.75 49.5 54.75 50.5"/><polygon class="cls-13" points="65.3 50.5 70.93 50.5 71.22 50 70.93 49.5 65.3 49.5 65.58 50 65.3 50.5"/><polygon class="cls-14" points="48.86 48.02 47.71 50 48.86 51.98 51.14 51.98 52.29 50 51.14 48.02 48.86 48.02"/><polygon class="cls-4" points="47.71 50 47.26 50 48.63 52.38 48.63 52.38 48.86 51.98 47.71 50"/><polygon class="cls-5" points="52.29 50 51.14 51.98 51.37 52.38 51.37 52.38 52.74 50 52.29 50"/><polygon class="cls-7" points="48.86 51.98 48.63 52.38 51.37 52.38 51.14 51.98 48.86 51.98"/><polygon class="cls-7" points="52.29 50 52.74 50 51.37 47.62 51.14 48.02 52.29 50"/><polygon class="cls-15" points="48.86 48.02 48.63 47.62 47.26 50 47.71 50 48.86 48.02"/><polygon class="cls-4" points="51.14 48.02 51.37 47.62 51.37 47.62 48.63 47.62 48.63 47.62 48.86 48.02 51.14 48.02"/><polygon class="cls-9" points="51.14 48.02 48.86 48.02 47.71 50 48.86 51.98 51.14 51.98 52.29 50 51.14 48.02"/><polygon class="cls-16" points="42.21 36.5 42.21 50 37.33 50 37.33 44.96 42.21 36.5"/><polygon class="cls-17" points="39.39 31.63 37.33 35.2 37.33 44.96 42.21 36.5 39.39 31.63"/><polygon class="cls-16" points="57.79 36.5 57.79 50 62.67 50 62.67 44.96 57.79 36.5"/><polygon class="cls-18" points="60.61 31.63 62.67 35.2 62.67 44.96 57.79 36.5 60.61 31.63"/><polygon class="cls-19" points="57.79 36.5 56.38 34.06 43.62 34.06 42.21 36.5 39.39 31.63 60.61 31.63 57.79 36.5"/></svg>