<?xml version="1.0" encoding="utf-8"?>
<svg id="Layer_1" data-name="Layer 1" xmlns="http://www.w3.org/2000/svg" width="1080" height="2280" viewBox="0 0 1080 2280">
    <defs>
        <style>
            .cls-1 {
                fill: #07263a;
            }
            .cls-2 {
                fill: #ebebeb;
            }
            .cls-3 {
                fill: #051723;
            }
            .cls-4, .cls-8 {
                fill: none;
            }
            .cls-4 {
                stroke: silver;
                stroke-linecap: round;
                stroke-linejoin: round;
                stroke-width: 6px;
            }
            .cls-5 {
                fill: #fff;
            }
            .cls-6 {
                fill: #4f5c65;
            }
            .cls-7 {
                fill: #178cff;
            }
            .cls-8 {
                stroke: #fff;
                stroke-miterlimit: 10;
                stroke-width: 10.5px;
                stroke-dasharray: 329.88 329.88;
            }
        </style>
    </defs>
    <title>pwa-01-launch-loading</title>
    <rect class="cls-1" width="1080" height="2154" />
    <rect class="cls-2" y="2154" width="1080" height="126" />
    <rect class="cls-3" width="1080" height="80" />
    <path class="cls-4" d="M317.25,2234.48l-26.5-15.31a2.51,2.51,0,0,1,0-4.34l26.5-15.31a2.5,2.5,0,0,1,3.75,2.17v30.62A2.5,2.5,0,0,1,317.25,2234.48Z" />
    <rect class="cls-4" x="759" y="2199" width="36" height="36" rx="6" ry="6" />
    <circle class="cls-4" cx="540" cy="2217" r="18" />
    <path class="cls-5" d="M66.69,54.13H49.63V51.67l8.62-9.56A23.73,23.73,0,0,0,61.38,38a6.44,6.44,0,0,0,.83-3.11,4.94,4.94,0,0,0-1.15-3.31A3.81,3.81,0,0,0,58,30.24a5.22,5.22,0,0,0-4,1.4,5.53,5.53,0,0,0-1.3,3.93H49.29l0-.11a7.41,7.41,0,0,1,2.26-5.71A8.87,8.87,0,0,1,58,27.44a7.69,7.69,0,0,1,5.65,2.07,7.08,7.08,0,0,1,2.11,5.27,8.38,8.38,0,0,1-1.28,4.3,27.73,27.73,0,0,1-3.57,4.64L54,51.23l0,.09H66.69Z"
    />
    <path class="cls-5" d="M80.63,54.13H77.07V31.29l-5.38.07V28.8l8.94-1Z" />
    <path class="cls-5" d="M95.63,38.3H92.07V34.61h3.56Zm0,15.83H92.07V50.44h3.56Z" />
    <path class="cls-5" d="M101.66,42.26l1.52-14.44h13.17V31H106.2l-.87,7.39a8.06,8.06,0,0,1,1.85-1,6.79,6.79,0,0,1,2.36-.44,7.06,7.06,0,0,1,5.72,2.36,9.55,9.55,0,0,1,2.08,6.47,9.22,9.22,0,0,1-2.12,6.36A7.82,7.82,0,0,1,109,54.5a8.46,8.46,0,0,1-5.56-1.82,6.33,6.33,0,0,1-2.13-5.37l0-.1h3.22a4.37,4.37,0,0,0,1.24,3.32A4.46,4.46,0,0,0,109,51.7a4.19,4.19,0,0,0,3.51-1.58,6.88,6.88,0,0,0,1.25-4.35,6.58,6.58,0,0,0-1.27-4.15A4.17,4.17,0,0,0,109,40a5.61,5.61,0,0,0-3,.63,3.6,3.6,0,0,0-1.37,1.93Z"
    />
    <path class="cls-5" d="M135.68,45.27h3.63v2.8h-3.63v6.06h-3.54V48.07H120.33v-2l11.59-18.25h3.76Zm-11.56,0h8V32.93H132l-.34.9Z" />
    <path class="cls-5" d="M821.54,33.71a34,34,0,0,0-48.08,0l24,24Z" />
    <path class="cls-5" d="M907,57h-31.7a1,1,0,0,1-.68-1.65l31.7-31.7a1,1,0,0,1,1.65.68V56A1,1,0,0,1,907,57Z" />
    <path class="cls-5" d="M861,57h-31.7a1,1,0,0,1-.68-1.65l31.7-31.7a1,1,0,0,1,1.65.68V56A1,1,0,0,1,861,57Z" />
    <path class="cls-5" d="M944.85,45.27h3.63v2.8h-3.63v6.06h-3.54V48.07H929.49v-2l11.6-18.25h3.76Zm-11.56,0h8V32.93h-.11l-.34.9Z" />
    <path class="cls-5" d="M968.12,44.1q0,5-2.23,7.72a8.34,8.34,0,0,1-12.26,0c-1.5-1.79-2.26-4.36-2.26-7.71V37.87q0-5,2.25-7.73a8.3,8.3,0,0,1,12.25,0q2.25,2.7,2.25,7.73Zm-3.56-7A8.72,8.72,0,0,0,963.32,32a4.57,4.57,0,0,0-7.16,0,8.8,8.8,0,0,0-1.23,5.13v7.71A8.83,8.83,0,0,0,956.18,50a4.15,4.15,0,0,0,3.59,1.74A4.07,4.07,0,0,0,963.34,50a9,9,0,0,0,1.22-5.16Z"
    />
    <path class="cls-5" d="M972.06,32.88A5.42,5.42,0,0,1,973.54,29a5.78,5.78,0,0,1,7.91,0,5.43,5.43,0,0,1,1.48,3.88v1.39a5.39,5.39,0,0,1-1.47,3.85,5.17,5.17,0,0,1-3.93,1.55,5.27,5.27,0,0,1-4-1.55,5.33,5.33,0,0,1-1.49-3.85Zm2.64,1.39a3.55,3.55,0,0,0,.73,2.27,2.52,2.52,0,0,0,2.1.93,2.45,2.45,0,0,0,2-.92,3.62,3.62,0,0,0,.73-2.28V32.88a3.65,3.65,0,0,0-.74-2.29,2.75,2.75,0,0,0-4.14,0,3.7,3.7,0,0,0-.72,2.29Zm3.75,17.87-2-1.21,12.85-20.56,2,1.21Zm6.34-4.46a5.39,5.39,0,0,1,1.49-3.86,5.78,5.78,0,0,1,7.9,0,5.39,5.39,0,0,1,1.49,3.86v1.4A5.36,5.36,0,0,1,994.19,53a5.16,5.16,0,0,1-3.92,1.55,5.23,5.23,0,0,1-4-1.55,5.33,5.33,0,0,1-1.5-3.87Zm2.64,1.4a3.63,3.63,0,0,0,.73,2.29,2.53,2.53,0,0,0,2.11.93,2.43,2.43,0,0,0,2-.93,3.62,3.62,0,0,0,.72-2.29v-1.4a3.53,3.53,0,0,0-.74-2.28,2.74,2.74,0,0,0-4.13,0,3.64,3.64,0,0,0-.73,2.28Z"
    />
    <polygon class="cls-6" points="782.95 50 778.5 45.55 774.05 50 782.95 50" />
    <polygon class="cls-6" points="774.05 53 778.5 57.45 782.95 53 774.05 53" />
    <polygon class="cls-6" points="1010.25 43.5 1024.1 43.5 1032.31 33.33 1024.1 35.38 1029.23 20 1010.25 43.5" />
    <polygon class="cls-5" points="1024.1 43.5 1010.25 43.5 1007.69 46.67 1015.9 44.62 1010.77 60 1024.1 43.5" />
    <path class="cls-5" d="M375.39,1385.89l.08.26q-.8,9.19-6.55,14.46t-15.41,5.27q-10.2,0-16.46-7.37t-6.26-19.08v-10q0-11.67,6.26-19.08a20.49,20.49,0,0,1,16.46-7.41q9.74,0,15.45,5.16t6.51,14.53l-.08.25h-4.7q-1-7.59-5.23-11.63t-11.95-4a15.51,15.51,0,0,0-12.87,6.21q-4.84,6.21-4.85,15.9v10q0,9.82,4.85,16a15.52,15.52,0,0,0,12.87,6.19q7.73,0,12-3.94t5.21-11.77Z"
    />
    <path class="cls-5" d="M384.21,1381.61q0-10,5.5-16.46a18.24,18.24,0,0,1,14.57-6.43q9.11,0,14.61,6.43t5.5,16.46V1383q0,10.07-5.48,16.48t-14.55,6.4q-9.15,0-14.65-6.4t-5.5-16.48Zm5,1.36a21.61,21.61,0,0,0,4,13.26,14.11,14.11,0,0,0,22.15,0,21.56,21.56,0,0,0,4-13.26v-1.38a21.48,21.48,0,0,0-4-13.17,13.07,13.07,0,0,0-11.09-5.41,12.93,12.93,0,0,0-11,5.41,21.59,21.59,0,0,0-4,13.17Z"
    />
    <path class="cls-5" d="M439.34,1359.56l.46,7.94a16.3,16.3,0,0,1,5.9-6.49,16.5,16.5,0,0,1,8.8-2.29q7.39,0,11.26,4.52t3.86,14.09V1405h-5v-27.69q0-7.82-2.92-11.06c-1.94-2.16-4.71-3.24-8.29-3.24a12.94,12.94,0,0,0-8.63,2.8,15.53,15.53,0,0,0-4.81,7.42V1405h-5v-45.44Z"
    />
    <path class="cls-5" d="M487.21,1359.56l.47,7.94a16.16,16.16,0,0,1,5.9-6.49,16.47,16.47,0,0,1,8.79-2.29q7.39,0,11.26,4.52t3.86,14.09V1405h-5v-27.69q0-7.82-2.92-11.06c-1.94-2.16-4.71-3.24-8.29-3.24a12.94,12.94,0,0,0-8.63,2.8,15.53,15.53,0,0,0-4.81,7.42V1405h-5v-45.44Z"
    />
    <path class="cls-5" d="M547.68,1405.88a18.24,18.24,0,0,1-14.17-6.3q-5.64-6.3-5.65-15.95v-2.31q0-9.75,5.61-16.17a17.41,17.41,0,0,1,13.58-6.43q8.36,0,13.15,5.3t4.78,14.11v4.28H532.9v1.21a20,20,0,0,0,4.07,12.82,13,13,0,0,0,10.71,5.16,21.92,21.92,0,0,0,8-1.3,15.9,15.9,0,0,0,5.67-3.74l2.14,3.44a18.17,18.17,0,0,1-6.48,4.29A24.89,24.89,0,0,1,547.68,1405.88Zm-.63-42.87a12,12,0,0,0-9.36,4.25,18.23,18.23,0,0,0-4.41,10.66l.08.21H560v-1.26a14.46,14.46,0,0,0-3.49-9.88A11.89,11.89,0,0,0,547.05,1363Z"
    />
    <path class="cls-5" d="M591.77,1401.6a14.35,14.35,0,0,0,8.82-2.85,9.28,9.28,0,0,0,3.82-7.9h4.46l.08.25a12.46,12.46,0,0,1-5,10.54,18.73,18.73,0,0,1-12.14,4.24q-9.27,0-14.34-6.36t-5.06-16.36v-1.76q0-9.92,5.09-16.29t14.27-6.39a18.07,18.07,0,0,1,12.45,4.41,14.27,14.27,0,0,1,4.81,11.59l-.08.26h-4.5a11.07,11.07,0,0,0-3.67-8.72,13.09,13.09,0,0,0-9-3.25q-7.31,0-10.81,5.22t-3.51,13.15v1.76q0,8.05,3.49,13.26T591.77,1401.6Z"
    />
    <path class="cls-5" d="M627.38,1347.93v11.63h10v4.12h-10v29.6q0,4.46,1.62,6.32a5.39,5.39,0,0,0,4.3,1.87c.82,0,1.61,0,2.38-.1s1.66-.19,2.66-.36l.76,3.74a13.38,13.38,0,0,1-3.07.84,23,23,0,0,1-3.61.29,9.43,9.43,0,0,1-7.45-3q-2.67-3-2.67-9.58v-29.6h-7.85v-4.12h7.85v-11.63Z"
    />
    <path class="cls-5" d="M653.67,1346.55h-5v-7.06h5Zm0,58.45h-5v-45.44h5Z" />
    <path class="cls-5" d="M672,1359.56l.46,7.94a16.3,16.3,0,0,1,5.9-6.49,16.5,16.5,0,0,1,8.8-2.29q7.4,0,11.25,4.52t3.87,14.09V1405h-5v-27.69q0-7.82-2.92-11.06t-8.29-3.24a12.94,12.94,0,0,0-8.63,2.8,15.53,15.53,0,0,0-4.81,7.42V1405h-5v-45.44Z" />
    <path class="cls-5" d="M713.47,1382.66q0-10.87,4.64-17.41a15,15,0,0,1,12.91-6.53,15.87,15.87,0,0,1,8.36,2.13,16.9,16.9,0,0,1,5.83,6l.59-7.27H750v44.85q0,8.77-4.85,13.86t-13.5,5.08a33.22,33.22,0,0,1-7-.8,27.57,27.57,0,0,1-6.47-2.18l1.31-4.24a25.69,25.69,0,0,0,5.67,2,27.6,27.6,0,0,0,6.38.7q6.63,0,10-3.82t3.38-10.63v-5.71a15.84,15.84,0,0,1-5.83,5.31,17.29,17.29,0,0,1-8.23,1.87q-8.19,0-12.83-6.09t-4.64-16.25Zm5,.89q0,8.22,3.36,13.14t10,4.91a14,14,0,0,0,8.13-2.25,14.48,14.48,0,0,0,5-6.19v-21.08a16,16,0,0,0-4.8-6.53,12.84,12.84,0,0,0-8.26-2.54,11.08,11.08,0,0,0-10,5.48q-3.4,5.49-3.4,14.17Z"
    />
    <rect class="cls-7" x="511.09" y="997.09" width="57.82" height="57.82" transform="translate(-567.33 682.35) rotate(-45)" />
    <polygon class="cls-7" points="486.91 1056.57 456.35 1026 486.91 995.43 474.74 983.26 432 1026 474.74 1068.74 486.91 1056.57" />
    <polygon class="cls-7" points="593.09 1056.57 605.26 1068.74 648 1026 605.26 983.26 593.09 995.43 623.65 1026 593.09 1056.57" />
    <polygon class="cls-7" points="540 942.35 570.57 972.91 582.74 960.74 540 918 497.26 960.74 509.43 972.91 540 942.35" />
    <polygon class="cls-7" points="540 1066.89 499.12 1107.78 499.12 1115.93 499.12 1133.79 499.12 1134 580.88 1134 580.88 1133.79 580.88 1115.93 580.88 1107.78 540 1066.89" />
    <g transform="translate(540, 1026)">
        <circle class="cls-8" cx="0" cy="0" r="210">
            <animateTransform attributeType="xml" attributeName="transform" type="rotate" from="0" to="360" dur="2s" additive="sum" repeatCount="indefinite" />
        </circle>
    </g>
</svg>
