<?xml version="1.0" encoding="UTF-8" standalone="no"?>
<svg xmlns:dc="http://purl.org/dc/elements/1.1/" xmlns:cc="http://creativecommons.org/ns#" xmlns:rdf="http://www.w3.org/1999/02/22-rdf-syntax-ns#" xmlns:svg="http://www.w3.org/2000/svg" xmlns="http://www.w3.org/2000/svg" version="1.1" viewBox="0 0 100 100" height="100" width="100" data-name="Layer 1" id="Layer_1">
    <metadata id="metadata15">
        <rdf:RDF>
            <cc:Work rdf:about="">
                <dc:format>image/svg+xml</dc:format>
                <dc:type rdf:resource="http://purl.org/dc/dcmitype/StillImage"/>
                <dc:title>115</dc:title>
            </cc:Work>
        </rdf:RDF>
    </metadata>
    <defs id="defs4">
        <style id="style2">
            .compass {
                stroke-miterlimit: 10;
                stroke-width: 2px;
                fill: #cc9977;
                stroke: #33261d;
            }
            .grass {
                fill: #7a5b47;
            }
        </style>
    </defs>
    <title id="title6">115</title>
    <polygon id="polygon8" points="68.3 31.7 50 2.56 31.7 31.7 2.56 50 31.7 68.3 50 97.44 68.3 68.3 97.44 50 68.3 31.7" class="compass"/>
    <path id="path10" d="M66,64.21c1.2-21.07-3.68-26.9-3.68-26.9a121.93,121.93,0,0,1-.93,24.42,72.93,72.93,0,0,0-3.24-15.79s-.69,7.23-2,15.55A220.68,220.68,0,0,1,57,28.22s-2.7,8.42-5.31,20.7c-1.43-5.06-3.3-10.72-5.73-17,0,0,.58,11,.36,23.14-2.93-7.26-5.74-9.87-5.74-9.87a73,73,0,0,1,2.21,12,32.39,32.39,0,0,0-6.48-9.31,118,118,0,0,1,3.25,21.16c-5.83-10.51-12.81-14.2-12.81-14.2a43.29,43.29,0,0,1,7.73,16L50,95.56,65.28,71.22l2.29-3.65.29-.18a39.63,39.63,0,0,1,7.94-8.81A30.74,30.74,0,0,0,66,64.21Z" class="grass"/>
    <g id="text19" style="font-style:normal;font-variant:normal;font-weight:bold;font-stretch:condensed;font-size:16px;line-height:1.25;font-family:'Liberation Sans Narrow';-inkscape-font-specification:'Liberation Sans Narrow, Bold Condensed';font-variant-ligatures:normal;font-variant-caps:normal;font-variant-numeric:normal;font-feature-settings:normal;text-align:center;letter-spacing:0px;word-spacing:0px;writing-mode:lr-tb;text-anchor:middle;fill:#33261d;fill-opacity:1;stroke:none" aria-label="115">
        <path id="path14" style="" d="m 40.363281,73.22377 v -1.632812 h 2.234375 v -7.507813 l -2.164062,1.648438 V 64.00502 l 2.257812,-1.789062 h 1.703125 v 9.375 h 2.070313 v 1.632812 z"/>
        <path id="path16" style="" d="m 46.957031,73.22377 v -1.632812 h 2.234375 v -7.507813 l -2.164062,1.648438 V 64.00502 l 2.257812,-1.789062 h 1.703125 v 9.375 h 2.070313 v 1.632812 z"/>
        <path id="path18" style="" d="m 60.371094,69.559708 q 0,0.828125 -0.21875,1.53125 -0.210938,0.695312 -0.632813,1.210937 -0.421875,0.507813 -1.046875,0.796875 -0.625,0.28125 -1.445312,0.28125 -0.757813,0 -1.320313,-0.21875 -0.5625,-0.226562 -0.953125,-0.617187 -0.382812,-0.398438 -0.609375,-0.929688 -0.21875,-0.53125 -0.296875,-1.140625 l 1.796875,-0.179687 q 0.05469,0.257812 0.140625,0.5 0.09375,0.242187 0.257813,0.429687 0.171875,0.1875 0.414062,0.304688 0.242188,0.109375 0.59375,0.109375 0.671875,0 1.070313,-0.523438 0.398437,-0.523437 0.398437,-1.507812 0,-0.4375 -0.101562,-0.789063 -0.09375,-0.351562 -0.28125,-0.601562 -0.179688,-0.25 -0.445313,-0.382813 -0.265625,-0.132812 -0.601562,-0.132812 -0.445313,0 -0.742188,0.210937 -0.289062,0.203125 -0.484375,0.5 h -1.757812 l 0.3125,-6.195312 h 5.429687 v 1.632812 h -3.789062 l -0.148438,2.78125 q 0.265625,-0.289062 0.671875,-0.492187 0.414063,-0.210938 0.960938,-0.210938 0.664062,0 1.1875,0.265625 0.53125,0.265625 0.890625,0.742188 0.367187,0.476562 0.554687,1.148437 0.195313,0.664063 0.195313,1.476563 z"/>
    </g>
    <g id="text23" style="font-style:normal;font-variant:normal;font-weight:bold;font-stretch:condensed;font-size:24px;line-height:1.25;font-family:'Liberation Sans Narrow';-inkscape-font-specification:'Liberation Sans Narrow, Bold Condensed';font-variant-ligatures:normal;font-variant-caps:normal;font-variant-numeric:normal;font-feature-settings:normal;text-align:center;letter-spacing:0px;word-spacing:0px;writing-mode:lr-tb;text-anchor:middle;fill:#000000;fill-opacity:1;stroke:#ffffff;stroke-width:0px" aria-label="KANGA">
        <path id="path21" style="" d="m 24.605469,58 -4.851563,-7.582031 -1.675781,1.558593 V 58 H 15.242188 V 41.488281 h 2.835937 v 7.488281 l 6.09375,-7.488281 h 3.304687 L 21.699219,48.472656 27.945312,58 Z"/>
        <path id="path23" style="" d="M 39.007812,58 37.8125,53.78125 H 32.65625 L 31.460937,58 H 28.625 l 4.933594,-16.511719 h 3.339843 L 41.820312,58 Z M 35.84375,46.433594 q 0,0 -0.234375,-0.832032 -0.105469,-0.410156 -0.1875,-0.75 L 35.28125,44.277344 q -0.04687,-0.222657 -0.04687,-0.246094 -0.01172,0.03516 -0.05859,0.257812 -0.04687,0.222657 -0.128906,0.5625 -0.08203,0.339844 -0.1875,0.75 L 34.625,46.433594 33.289062,51.179687 h 3.890625 z"/>
        <path id="path25" style="" d="M 51.886719,58 45.992187,45.285156 q 0.04687,0.515625 0.09375,1.03125 0.03516,0.445313 0.05859,0.960938 0.02344,0.515625 0.02344,0.984375 V 58 H 43.648437 V 41.488281 h 3.234375 l 5.988282,12.820313 q -0.04687,-0.492188 -0.08203,-1.03125 -0.03516,-0.457032 -0.07031,-1.03125 -0.02344,-0.574219 -0.02344,-1.160157 v -9.597656 h 2.519532 V 58 Z"/>
        <path id="path27" style="" d="m 64.285156,55.527344 q 0.621094,0 1.183594,-0.117188 0.574219,-0.117187 1.054687,-0.304687 0.480469,-0.199219 0.867188,-0.445313 0.398437,-0.257812 0.644531,-0.527344 v -2.285156 h -3.304687 v -2.554687 h 5.90625 v 6.070312 q -0.457032,0.574219 -1.113282,1.101563 -0.65625,0.515625 -1.476562,0.914062 Q 67.226562,57.765625 66.253906,58 q -0.960937,0.234375 -2.039062,0.234375 -1.792969,0 -3.09375,-0.632813 -1.300782,-0.644531 -2.144532,-1.78125 -0.832031,-1.148437 -1.230468,-2.71875 -0.398438,-1.570312 -0.398438,-3.433593 0,-1.933594 0.421875,-3.492188 0.421875,-1.558594 1.277344,-2.648437 0.867187,-1.101563 2.167969,-1.6875 1.300781,-0.597657 3.058593,-0.597657 1.277344,0 2.273438,0.304688 0.996094,0.304687 1.746094,0.867187 0.75,0.5625 1.253906,1.359375 0.503906,0.785157 0.796875,1.769532 l -2.613281,0.960937 Q 67.554687,45.988281 67.261719,45.53125 66.980469,45.0625 66.546875,44.722656 66.125,44.371094 65.5625,44.171875 65,43.960937 64.273437,43.960937 q -1.054687,0 -1.828125,0.410157 -0.761718,0.398437 -1.265625,1.148437 -0.492187,0.75 -0.738281,1.804688 -0.234375,1.042968 -0.234375,2.34375 0,1.289062 0.234375,2.367187 0.246094,1.078125 0.75,1.851563 0.515625,0.773437 1.277344,1.207031 0.773437,0.433594 1.816406,0.433594 z"/>
        <path id="path29" style="" d="m 82.742187,58 -1.195312,-4.21875 h -5.15625 L 75.195312,58 h -2.835937 l 4.933594,-16.511719 h 3.339843 L 85.554687,58 Z M 79.578125,46.433594 q 0,0 -0.234375,-0.832032 -0.105469,-0.410156 -0.1875,-0.75 l -0.140625,-0.574218 q -0.04687,-0.222657 -0.04687,-0.246094 -0.01172,0.03516 -0.05859,0.257812 -0.04687,0.222657 -0.128906,0.5625 -0.08203,0.339844 -0.1875,0.75 l -0.234375,0.832032 -1.335938,4.746093 h 3.890625 z"/>
    </g>
</svg>
