<?xml version="1.0" encoding="UTF-8" standalone="no"?>
<svg xmlns:dc="http://purl.org/dc/elements/1.1/" xmlns:cc="http://creativecommons.org/ns#" xmlns:rdf="http://www.w3.org/1999/02/22-rdf-syntax-ns#" xmlns:svg="http://www.w3.org/2000/svg" xmlns="http://www.w3.org/2000/svg" version="1.1" viewBox="0 0 100 100" height="100" width="100" data-name="Layer 1" id="Layer_1">
    <metadata id="metadata15">
        <rdf:RDF>
            <cc:Work rdf:about="">
                <dc:format>image/svg+xml</dc:format>
                <dc:type rdf:resource="http://purl.org/dc/dcmitype/StillImage"/>
                <dc:title>146</dc:title>
            </cc:Work>
        </rdf:RDF>
    </metadata>
    <defs id="defs4">
        <style id="style2">
            .compass {
                stroke-miterlimit: 10;
                stroke-width: 2px;
                fill: #ff5533;
                stroke: #3f150c;
            }
            .grass {
                fill: #99331e;
            }
        </style>
    </defs>
    <title id="title6">146</title>
    <polygon id="polygon8" points="68.3 31.7 50 2.56 31.7 31.7 2.56 50 31.7 68.3 50 97.44 68.3 68.3 97.44 50 68.3 31.7" class="compass"/>
    <path id="path10" d="M66,64.21c1.2-21.07-3.68-26.9-3.68-26.9a121.93,121.93,0,0,1-.93,24.42,72.93,72.93,0,0,0-3.24-15.79s-.69,7.23-2,15.55A220.68,220.68,0,0,1,57,28.22s-2.7,8.42-5.31,20.7c-1.43-5.06-3.3-10.72-5.73-17,0,0,.58,11,.36,23.14-2.93-7.26-5.74-9.87-5.74-9.87a73,73,0,0,1,2.21,12,32.39,32.39,0,0,0-6.48-9.31,118,118,0,0,1,3.25,21.16c-5.83-10.51-12.81-14.2-12.81-14.2a43.29,43.29,0,0,1,7.73,16L50,95.56,65.28,71.22l2.29-3.65.29-.18a39.63,39.63,0,0,1,7.94-8.81A30.74,30.74,0,0,0,66,64.21Z" class="grass"/>
    <g id="text19" style="font-style:normal;font-variant:normal;font-weight:bold;font-stretch:condensed;font-size:16px;line-height:1.25;font-family:'Liberation Sans Narrow';-inkscape-font-specification:'Liberation Sans Narrow, Bold Condensed';font-variant-ligatures:normal;font-variant-caps:normal;font-variant-numeric:normal;font-feature-settings:normal;text-align:center;letter-spacing:0px;word-spacing:0px;writing-mode:lr-tb;text-anchor:middle;fill:#ffffff;fill-opacity:1;stroke:none" aria-label="146">
        <path id="path14" style="" d="m 40.003906,73.22377 v -1.632812 h 2.234375 v -7.507813 l -2.164062,1.648438 V 64.00502 l 2.257812,-1.789062 h 1.703125 v 9.375 h 2.070313 v 1.632812 z"/>
        <path id="path16" style="" d="m 52.511719,70.981583 v 2.242187 h -1.71875 v -2.242187 h -4.109375 v -1.648438 l 3.8125,-7.117187 h 2.015625 v 7.132812 h 1.203125 v 1.632813 z m -1.71875,-5.234375 q 0,-0.132813 0,-0.34375 0.0078,-0.21875 0.01563,-0.445313 0.0078,-0.226562 0.01563,-0.429687 0.01563,-0.210938 0.02344,-0.328125 -0.03125,0.08594 -0.101562,0.242187 l -0.15625,0.34375 q -0.08594,0.1875 -0.179688,0.367188 l -0.164062,0.3125 -2.09375,3.882812 h 2.640625 z"/>
        <path id="path18" style="" d="m 60.621094,69.622208 q 0,0.828125 -0.195313,1.523437 -0.1875,0.6875 -0.570312,1.1875 -0.375,0.492188 -0.945313,0.773438 -0.570312,0.273437 -1.320312,0.273437 -1.59375,0 -2.453125,-1.359375 -0.851563,-1.367187 -0.851563,-4.046875 0,-2.945312 0.867188,-4.429687 0.867187,-1.492188 2.476562,-1.492188 0.539063,0 0.976563,0.140625 0.445312,0.132813 0.789062,0.4375 0.351563,0.304688 0.59375,0.789063 0.242188,0.476562 0.390625,1.164062 l -1.695312,0.289063 q -0.125,-0.578125 -0.414063,-0.828125 -0.289062,-0.257813 -0.679687,-0.257813 -0.726563,0 -1.140625,0.882813 -0.40625,0.882812 -0.40625,2.679687 0.289062,-0.585937 0.796875,-0.898437 0.515625,-0.3125 1.164062,-0.3125 0.59375,0 1.078125,0.242187 0.484375,0.234375 0.828125,0.6875 0.34375,0.445313 0.523438,1.09375 0.1875,0.648438 0.1875,1.460938 z m -1.804688,0.0625 q 0,-0.445313 -0.08594,-0.796875 -0.07813,-0.359375 -0.25,-0.609375 -0.171875,-0.25 -0.421875,-0.382813 -0.25,-0.140625 -0.570313,-0.140625 -0.234375,0 -0.476562,0.09375 -0.242188,0.09375 -0.429688,0.304688 -0.179687,0.203125 -0.296875,0.523437 -0.117187,0.320313 -0.117187,0.773438 0,0.46875 0.09375,0.875 0.101562,0.40625 0.273437,0.710937 0.179688,0.296875 0.429688,0.46875 0.25,0.164063 0.5625,0.164063 0.609375,0 0.945312,-0.523438 0.34375,-0.53125 0.34375,-1.460937 z"/>
    </g>
    <g id="text23" style="font-style:normal;font-variant:normal;font-weight:bold;font-stretch:condensed;font-size:24px;line-height:1.25;font-family:'Liberation Sans Narrow';-inkscape-font-specification:'Liberation Sans Narrow, Bold Condensed';font-variant-ligatures:normal;font-variant-caps:normal;font-variant-numeric:normal;font-feature-settings:normal;text-align:center;letter-spacing:0px;word-spacing:0px;writing-mode:lr-tb;text-anchor:middle;fill:#ffffff;fill-opacity:1;stroke:#ffffff;stroke-width:0px" aria-label="M.TRES">
        <path id="path21" style="" d="M 25.367187,58 V 47.992187 q 0,-0.597656 0.01172,-1.230468 0.01172,-0.632813 0.03516,-1.160157 0,0 0.04687,-1.207031 0,0 -0.386718,1.757813 0,0 -0.164063,0.726562 l -0.164062,0.726563 -0.152344,0.65625 -0.140625,0.527343 L 22.015625,58 h -2.027344 l -2.4375,-9.210938 q -0.05859,-0.222656 -0.128906,-0.527343 l -0.152344,-0.65625 -0.175781,-0.726563 -0.164063,-0.726562 q 0,0 -0.410156,-1.757813 0.02344,0.679688 0.05859,1.335938 0.02344,0.5625 0.03516,1.183593 0.02344,0.621094 0.02344,1.078125 V 58 H 14.117188 V 41.488281 h 3.796874 l 2.425782,9.234375 q 0.09375,0.363281 0.199218,0.890625 l 0.222657,1.019531 q 0,0 0.246093,1.195313 0,0 0.257813,-1.171875 0,0 0.117187,-0.503906 L 21.5,51.648437 q 0.05859,-0.246093 0.117187,-0.46875 l 0.105469,-0.398437 2.378906,-9.292969 h 3.785157 V 58 Z"/>
        <path id="path23" style="" d="m 30.546875,58 v -3.574219 h 2.777344 V 58 Z"/>
        <path id="path25" style="" d="M 42.125,44.160156 V 58 H 39.289062 V 44.160156 h -4.371093 v -2.671875 h 11.589843 v 2.671875 z"/>
        <path id="path27" style="" d="M 57.359375,58 54.21875,51.730469 H 50.890625 V 58 H 48.054687 V 41.488281 h 6.761719 q 1.265625,0 2.214844,0.351563 0.949219,0.339843 1.582031,0.984375 0.632813,0.632812 0.9375,1.546875 0.316406,0.902343 0.316406,2.039062 0,0.925781 -0.222656,1.699219 -0.222656,0.761719 -0.621094,1.359375 Q 58.625,50.066406 58.074219,50.476562 57.523437,50.875 56.878906,51.0625 L 60.546875,58 Z M 57.019531,46.550781 q 0,-1.207031 -0.65625,-1.792969 -0.644531,-0.585937 -1.839844,-0.585937 h -3.632812 v 4.875 h 3.703125 q 0.632812,0 1.089844,-0.175781 0.457031,-0.1875 0.75,-0.515625 0.292968,-0.339844 0.433593,-0.796875 0.152344,-0.457032 0.152344,-1.007813 z"/>
        <path id="path29" style="" d="M 62.257812,58 V 41.488281 h 10.652344 v 2.671875 H 65.09375 v 4.148438 h 7.230469 v 2.671875 H 65.09375 v 4.347656 h 8.203125 V 58 Z"/>
        <path id="path31" style="" d="m 86.421875,53.242187 q 0,1.125 -0.339844,2.050782 -0.328125,0.914062 -1.042969,1.570312 -0.703125,0.65625 -1.804687,1.019531 -1.089844,0.351563 -2.613281,0.351563 -1.347657,0 -2.378907,-0.292969 Q 77.222656,57.648437 76.484375,57.074219 75.746094,56.5 75.289062,55.65625 74.84375,54.800781 74.632812,53.699219 L 77.375,53.148437 q 0.117187,0.550782 0.339844,1.007813 0.222656,0.457031 0.609375,0.796875 0.386718,0.328125 0.960937,0.515625 0.585938,0.175781 1.417969,0.175781 1.441406,0 2.203125,-0.527344 0.761719,-0.539062 0.761719,-1.675781 0,-0.679687 -0.304688,-1.113281 -0.304687,-0.433594 -0.820312,-0.714844 -0.503907,-0.28125 -1.171875,-0.46875 -0.65625,-0.1875 -1.382813,-0.363281 0,0 -1.160156,-0.339844 -0.574219,-0.175781 -1.101563,-0.421875 -0.515625,-0.246094 -0.972656,-0.585937 -0.445312,-0.339844 -0.785156,-0.832032 -0.328125,-0.503906 -0.515625,-1.171875 -0.1875,-0.667968 -0.1875,-1.570312 0,-1.230469 0.398437,-2.109375 0.410157,-0.878906 1.125,-1.429688 Q 77.515625,41.757812 78.5,41.5 q 0.984375,-0.257813 2.15625,-0.257813 1.324219,0 2.273437,0.257813 0.949219,0.246094 1.582032,0.761719 0.644531,0.515625 1.007812,1.300781 0.375,0.773437 0.550781,1.816406 l -2.742187,0.457031 q -0.210938,-1.066406 -0.867188,-1.605468 -0.644531,-0.539063 -1.851562,-0.539063 -0.75,0 -1.253906,0.164063 -0.492188,0.152343 -0.785157,0.421875 -0.292968,0.269531 -0.421875,0.632812 -0.117187,0.351563 -0.117187,0.75 0,0.609375 0.234375,1.007813 0.246094,0.386718 0.679687,0.65625 0.433594,0.257812 1.03125,0.445312 0.597657,0.175781 1.324219,0.363281 0.632813,0.164063 1.253906,0.351563 0.621094,0.175781 1.183594,0.421875 0.574219,0.246094 1.066406,0.597656 0.492188,0.351563 0.84375,0.867188 0.363282,0.503906 0.5625,1.207031 0.210938,0.703125 0.210938,1.664062 z"/>
    </g>
</svg>
