<?xml version="1.0" encoding="UTF-8" standalone="no"?>
<svg xmlns:dc="http://purl.org/dc/elements/1.1/" xmlns:cc="http://creativecommons.org/ns#" xmlns:rdf="http://www.w3.org/1999/02/22-rdf-syntax-ns#" xmlns:svg="http://www.w3.org/2000/svg" xmlns="http://www.w3.org/2000/svg" version="1.1" viewBox="0 0 100 100" height="100" width="100" data-name="Layer 1" id="Layer_1">
    <metadata id="metadata15">
        <rdf:RDF>
            <cc:Work rdf:about="">
                <dc:format>image/svg+xml</dc:format>
                <dc:type rdf:resource="http://purl.org/dc/dcmitype/StillImage"/>
                <dc:title>41</dc:title>
            </cc:Work>
        </rdf:RDF>
    </metadata>
    <defs id="defs4">
        <style id="style2">
            .compass {
                stroke-miterlimit: 10;
                stroke-width: 2px;
                fill: #55aadd;
                stroke: #152a37;
            }
            .grass {
                fill: #336684;
            }
        </style>
    </defs>
    <title id="title6">41</title>
    <polygon id="polygon8" points="68.3 31.7 50 2.56 31.7 31.7 2.56 50 31.7 68.3 50 97.44 68.3 68.3 97.44 50 68.3 31.7" class="compass"/>
    <path id="path10" d="M66,64.21c1.2-21.07-3.68-26.9-3.68-26.9a121.93,121.93,0,0,1-.93,24.42,72.93,72.93,0,0,0-3.24-15.79s-.69,7.23-2,15.55A220.68,220.68,0,0,1,57,28.22s-2.7,8.42-5.31,20.7c-1.43-5.06-3.3-10.72-5.73-17,0,0,.58,11,.36,23.14-2.93-7.26-5.74-9.87-5.74-9.87a73,73,0,0,1,2.21,12,32.39,32.39,0,0,0-6.48-9.31,118,118,0,0,1,3.25,21.16c-5.83-10.51-12.81-14.2-12.81-14.2a43.29,43.29,0,0,1,7.73,16L50,95.56,65.28,71.22l2.29-3.65.29-.18a39.63,39.63,0,0,1,7.94-8.81A30.74,30.74,0,0,0,66,64.21Z" class="grass"/>
    <g id="text19" style="font-style:normal;font-variant:normal;font-weight:bold;font-stretch:condensed;font-size:16px;line-height:1.25;font-family:'Liberation Sans Narrow';-inkscape-font-specification:'Liberation Sans Narrow, Bold Condensed';font-variant-ligatures:normal;font-variant-caps:normal;font-variant-numeric:normal;font-feature-settings:normal;text-align:center;letter-spacing:0px;word-spacing:0px;writing-mode:lr-tb;text-anchor:middle;fill:#152a37;fill-opacity:1;stroke:none" aria-label="41">
        <path id="path14" style="" d="m 48.855469,70.981583 v 2.242187 h -1.71875 v -2.242187 h -4.109375 v -1.648438 l 3.8125,-7.117187 h 2.015625 v 7.132812 h 1.203125 v 1.632813 z m -1.71875,-5.234375 q 0,-0.132813 0,-0.34375 0.0078,-0.21875 0.01563,-0.445313 0.0078,-0.226562 0.01563,-0.429687 0.01563,-0.210938 0.02344,-0.328125 -0.03125,0.08594 -0.101562,0.242187 l -0.15625,0.34375 q -0.08594,0.1875 -0.179688,0.367188 l -0.164062,0.3125 -2.09375,3.882812 h 2.640625 z"/>
        <path id="path16" style="" d="m 50.972656,73.22377 v -1.632812 h 2.234375 v -7.507813 l -2.164062,1.648438 V 64.00502 l 2.257812,-1.789062 h 1.703125 v 9.375 h 2.070313 v 1.632812 z"/>
    </g>
    <g id="text23" style="font-style:normal;font-variant:normal;font-weight:bold;font-stretch:condensed;font-size:24px;line-height:1.25;font-family:'Liberation Sans Narrow';-inkscape-font-specification:'Liberation Sans Narrow, Bold Condensed';font-variant-ligatures:normal;font-variant-caps:normal;font-variant-numeric:normal;font-feature-settings:normal;text-align:center;letter-spacing:0px;word-spacing:0px;writing-mode:lr-tb;text-anchor:middle;fill:#000000;fill-opacity:1;stroke:#ffffff;stroke-width:0px" aria-label="ZUBAT">
        <path id="path19" style="" d="m 28.835937,58 h -10.875 V 55.550781 L 25.285156,44.195312 H 18.6875 v -2.707031 h 9.75 v 2.402344 l -7.324219,11.402344 h 7.722656 z"/>
        <path id="path21" style="" d="m 36.359375,58.234375 q -1.265625,0 -2.320313,-0.363281 -1.054687,-0.375 -1.816406,-1.148438 Q 31.460937,55.9375 31.027344,54.71875 30.605469,53.5 30.605469,51.8125 V 41.488281 h 2.835937 v 10.054688 q 0,1.042968 0.210938,1.804687 0.210937,0.75 0.597656,1.242188 0.398437,0.480468 0.949219,0.714843 0.5625,0.222657 1.242187,0.222657 0.691406,0 1.265625,-0.234375 0.585938,-0.246094 0.996094,-0.75 0.421875,-0.503907 0.65625,-1.277344 0.234375,-0.773438 0.234375,-1.839844 v -9.9375 h 2.835937 v 10.148438 q 0,1.699218 -0.457031,2.941406 -0.445312,1.242187 -1.253906,2.0625 -0.808594,0.808594 -1.921875,1.207031 -1.113281,0.386719 -2.4375,0.386719 z"/>
        <path id="path23" style="" d="m 56.9375,53.289062 q 0,1.253907 -0.421875,2.15625 -0.410156,0.890625 -1.125,1.464844 -0.714844,0.5625 -1.664063,0.832031 Q 52.777344,58 51.710937,58 H 44.9375 V 41.488281 h 6.199219 q 1.195312,0 2.132812,0.257813 0.9375,0.246093 1.582031,0.761718 0.644532,0.515625 0.972657,1.300782 0.328125,0.773437 0.328125,1.828125 0,1.40625 -0.644532,2.378906 -0.632812,0.960937 -1.933593,1.300781 1.640625,0.234375 2.496093,1.265625 0.867188,1.019531 0.867188,2.707031 z m -3.632813,-7.183593 q 0,-1.113282 -0.585937,-1.582032 -0.574219,-0.46875 -1.722656,-0.46875 h -3.222657 v 4.089844 h 3.246094 q 1.195313,0 1.734375,-0.503906 0.550781,-0.515625 0.550781,-1.535156 z m 0.785157,6.914062 q 0,-0.65625 -0.210938,-1.101562 -0.210937,-0.445313 -0.585937,-0.714844 -0.363282,-0.269531 -0.855469,-0.386719 -0.492188,-0.117187 -1.078125,-0.117187 h -3.585938 v 4.734375 h 3.703125 q 0.5625,0 1.03125,-0.105469 0.480469,-0.117188 0.832032,-0.386719 0.351562,-0.28125 0.550781,-0.75 0.199219,-0.46875 0.199219,-1.171875 z"/>
        <path id="path25" style="" d="m 68.703125,58 -1.195313,-4.21875 h -5.15625 L 61.15625,58 H 58.320312 L 63.253906,41.488281 H 66.59375 L 71.515625,58 Z M 65.539062,46.433594 q 0,0 -0.234375,-0.832032 -0.105468,-0.410156 -0.1875,-0.75 l -0.140625,-0.574218 q -0.04687,-0.222657 -0.04687,-0.246094 -0.01172,0.03516 -0.05859,0.257812 -0.04687,0.222657 -0.128907,0.5625 -0.08203,0.339844 -0.1875,0.75 l -0.234375,0.832032 -1.335937,4.746093 H 66.875 Z"/>
        <path id="path27" style="" d="M 78.007812,44.160156 V 58 H 75.171875 V 44.160156 h -4.371094 v -2.671875 h 11.589844 v 2.671875 z"/>
    </g>
</svg>
