<?xml version="1.0" encoding="UTF-8" standalone="no"?>
<svg xmlns:dc="http://purl.org/dc/elements/1.1/" xmlns:cc="http://creativecommons.org/ns#" xmlns:rdf="http://www.w3.org/1999/02/22-rdf-syntax-ns#" xmlns:svg="http://www.w3.org/2000/svg" xmlns="http://www.w3.org/2000/svg" version="1.1" viewBox="0 0 100 100" height="100" width="100" data-name="Layer 1" id="Layer_1">
    <metadata id="metadata15">
        <rdf:RDF>
            <cc:Work rdf:about="">
                <dc:format>image/svg+xml</dc:format>
                <dc:type rdf:resource="http://purl.org/dc/dcmitype/StillImage"/>
                <dc:title>78</dc:title>
            </cc:Work>
        </rdf:RDF>
    </metadata>
    <defs id="defs4">
        <style id="style2">
            .compass {
                stroke-miterlimit: 10;
                stroke-width: 2px;
                fill: #ff6600;
                stroke: #3f1900;
            }
            .grass {
                fill: #993d00;
            }
        </style>
    </defs>
    <title id="title6">78</title>
    <polygon id="polygon8" points="68.3 31.7 50 2.56 31.7 31.7 2.56 50 31.7 68.3 50 97.44 68.3 68.3 97.44 50 68.3 31.7" class="compass"/>
    <path id="path10" d="M66,64.21c1.2-21.07-3.68-26.9-3.68-26.9a121.93,121.93,0,0,1-.93,24.42,72.93,72.93,0,0,0-3.24-15.79s-.69,7.23-2,15.55A220.68,220.68,0,0,1,57,28.22s-2.7,8.42-5.31,20.7c-1.43-5.06-3.3-10.72-5.73-17,0,0,.58,11,.36,23.14-2.93-7.26-5.74-9.87-5.74-9.87a73,73,0,0,1,2.21,12,32.39,32.39,0,0,0-6.48-9.31,118,118,0,0,1,3.25,21.16c-5.83-10.51-12.81-14.2-12.81-14.2a43.29,43.29,0,0,1,7.73,16L50,95.56,65.28,71.22l2.29-3.65.29-.18a39.63,39.63,0,0,1,7.94-8.81A30.74,30.74,0,0,0,66,64.21Z" class="grass"/>
    <g id="text19" style="font-style:normal;font-variant:normal;font-weight:bold;font-stretch:condensed;font-size:16px;line-height:1.25;font-family:'Liberation Sans Narrow';-inkscape-font-specification:'Liberation Sans Narrow, Bold Condensed';font-variant-ligatures:normal;font-variant-caps:normal;font-variant-numeric:normal;font-feature-settings:normal;text-align:center;letter-spacing:0px;word-spacing:0px;writing-mode:lr-tb;text-anchor:middle;fill:#ffffff;fill-opacity:1;stroke:none" aria-label="78">
        <path id="path14" style="" d="m 49.550781,63.958145 q 0,0 -1.148437,2.273438 -0.539063,1.101562 -0.945313,2.21875 -0.40625,1.109375 -0.640625,2.289062 -0.226562,1.171875 -0.226562,2.484375 h -1.882813 q 0,-1.304687 0.25,-2.476562 0.257813,-1.179688 0.695313,-2.296875 0.4375,-1.117188 1.007812,-2.210938 l 1.21875,-2.21875 h -4.484375 v -1.804687 h 6.15625 z"/>
        <path id="path16" style="" d="m 57.035156,70.122208 q 0,0.710937 -0.195312,1.3125 -0.1875,0.59375 -0.585938,1.03125 -0.398437,0.429687 -1.007812,0.671875 -0.601563,0.242187 -1.445313,0.242187 -0.835937,0 -1.445312,-0.242187 -0.609375,-0.242188 -1.015625,-0.671875 -0.398438,-0.4375 -0.59375,-1.03125 -0.1875,-0.59375 -0.1875,-1.296875 0,-0.601563 0.15625,-1.0625 0.15625,-0.46875 0.40625,-0.804688 0.257812,-0.335937 0.59375,-0.53125 0.335937,-0.203125 0.6875,-0.273437 v -0.03125 q -0.375,-0.101563 -0.679688,-0.335938 -0.304687,-0.234375 -0.515625,-0.5625 -0.210937,-0.328125 -0.328125,-0.726562 -0.109375,-0.40625 -0.109375,-0.84375 0,-0.65625 0.195313,-1.195313 0.195312,-0.539062 0.570312,-0.921875 0.382813,-0.382812 0.945313,-0.585937 0.5625,-0.210938 1.296875,-0.210938 0.789062,0 1.359375,0.21875 0.578125,0.210938 0.945312,0.601563 0.375,0.382812 0.554688,0.921875 0.179687,0.539062 0.179687,1.1875 0,0.429687 -0.117187,0.835937 -0.109375,0.398438 -0.320313,0.726563 -0.210937,0.328125 -0.515625,0.554687 -0.304687,0.226563 -0.6875,0.320313 v 0.03125 q 0.398438,0.07813 0.734375,0.289062 0.34375,0.203125 0.59375,0.539063 0.25,0.328125 0.390625,0.796875 0.140625,0.460937 0.140625,1.046875 z M 54.964844,65.09877 q 0,-0.328125 -0.0625,-0.601562 -0.05469,-0.28125 -0.195313,-0.476563 -0.132812,-0.203125 -0.359375,-0.3125 -0.226562,-0.117187 -0.570312,-0.117187 -0.335938,0 -0.5625,0.117187 -0.21875,0.109375 -0.359375,0.3125 -0.132813,0.195313 -0.1875,0.476563 -0.05469,0.273437 -0.05469,0.601562 0,0.289063 0.04687,0.570313 0.04687,0.28125 0.171875,0.507812 0.132813,0.21875 0.359375,0.359375 0.234375,0.140625 0.601563,0.140625 0.382812,0 0.617187,-0.140625 0.234375,-0.140625 0.351563,-0.367187 0.125,-0.226563 0.164062,-0.507813 0.03906,-0.28125 0.03906,-0.5625 z m 0.210937,4.84375 q 0,-0.335937 -0.0625,-0.648437 -0.0625,-0.3125 -0.21875,-0.546875 -0.15625,-0.242188 -0.4375,-0.382813 -0.273437,-0.148437 -0.695312,-0.148437 -0.382813,0 -0.640625,0.148437 -0.257813,0.140625 -0.414063,0.382813 -0.15625,0.242187 -0.226562,0.5625 -0.07031,0.3125 -0.07031,0.664062 0,0.414063 0.07031,0.757813 0.07031,0.34375 0.226562,0.59375 0.164063,0.242187 0.429688,0.375 0.273437,0.132812 0.679687,0.132812 0.40625,0 0.664063,-0.132812 0.265625,-0.140625 0.414062,-0.390625 0.15625,-0.25 0.21875,-0.59375 0.0625,-0.351563 0.0625,-0.773438 z"/>
    </g>
    <g id="text23" style="font-style:normal;font-variant:normal;font-weight:bold;font-stretch:condensed;font-size:24px;line-height:1.25;font-family:'Liberation Sans Narrow';-inkscape-font-specification:'Liberation Sans Narrow, Bold Condensed';font-variant-ligatures:normal;font-variant-caps:normal;font-variant-numeric:normal;font-feature-settings:normal;text-align:center;letter-spacing:0px;word-spacing:0px;writing-mode:lr-tb;text-anchor:middle;fill:#ffffff;fill-opacity:1;stroke:#ffffff;stroke-width:0px" aria-label="R.DSH">
        <path id="path19" style="" d="M 30.007812,58 26.867187,51.730469 H 23.539062 V 58 H 20.703125 V 41.488281 h 6.761719 q 1.265625,0 2.214843,0.351563 0.949219,0.339843 1.582032,0.984375 0.632812,0.632812 0.9375,1.546875 0.316406,0.902343 0.316406,2.039062 0,0.925781 -0.222656,1.699219 -0.222657,0.761719 -0.621094,1.359375 -0.398438,0.597656 -0.949219,1.007812 Q 30.171875,50.875 29.527344,51.0625 L 33.195312,58 Z M 29.667969,46.550781 q 0,-1.207031 -0.65625,-1.792969 -0.644532,-0.585937 -1.839844,-0.585937 h -3.632813 v 4.875 h 3.703125 q 0.632813,0 1.089844,-0.175781 0.457031,-0.1875 0.75,-0.515625 0.292969,-0.339844 0.433594,-0.796875 0.152344,-0.457032 0.152344,-1.007813 z"/>
        <path id="path21" style="" d="m 34.929687,58 v -3.574219 h 2.777344 V 58 Z"/>
        <path id="path23" style="" d="m 52.460937,49.621094 q 0,2.0625 -0.515625,3.632812 -0.503906,1.558594 -1.394531,2.613281 -0.878906,1.054688 -2.085937,1.59375 Q 47.257812,58 45.863281,58 H 40.390625 V 41.488281 h 4.898437 q 1.570313,0 2.882813,0.480469 1.324219,0.480469 2.273437,1.476562 0.949219,0.996094 1.476563,2.53125 0.539062,1.535157 0.539062,3.644532 z m -2.859375,0 q 0,-1.441407 -0.328125,-2.472657 -0.316406,-1.03125 -0.890625,-1.6875 Q 47.808594,44.792969 47,44.476562 46.203125,44.160156 45.230469,44.160156 h -2.003907 v 11.167969 h 2.402344 q 0.855469,0 1.582031,-0.363281 0.726563,-0.363282 1.253907,-1.078125 0.539062,-0.726563 0.832031,-1.792969 0.304687,-1.066406 0.304687,-2.472656 z"/>
        <path id="path25" style="" d="m 65.632812,53.242187 q 0,1.125 -0.339843,2.050782 -0.328125,0.914062 -1.042969,1.570312 -0.703125,0.65625 -1.804688,1.019531 -1.089843,0.351563 -2.613281,0.351563 -1.347656,0 -2.378906,-0.292969 Q 56.433594,57.648437 55.695312,57.074219 54.957031,56.5 54.5,55.65625 54.054687,54.800781 53.84375,53.699219 l 2.742187,-0.550782 q 0.117188,0.550782 0.339844,1.007813 0.222656,0.457031 0.609375,0.796875 0.386719,0.328125 0.960938,0.515625 0.585937,0.175781 1.417968,0.175781 1.441407,0 2.203125,-0.527344 0.761719,-0.539062 0.761719,-1.675781 0,-0.679687 -0.304687,-1.113281 -0.304688,-0.433594 -0.820313,-0.714844 -0.503906,-0.28125 -1.171875,-0.46875 -0.65625,-0.1875 -1.382812,-0.363281 0,0 -1.160157,-0.339844 -0.574218,-0.175781 -1.101562,-0.421875 -0.515625,-0.246094 -0.972656,-0.585937 -0.445313,-0.339844 -0.785157,-0.832032 -0.328125,-0.503906 -0.515625,-1.171875 -0.1875,-0.667968 -0.1875,-1.570312 0,-1.230469 0.398438,-2.109375 0.410156,-0.878906 1.125,-1.429688 0.726562,-0.5625 1.710937,-0.820312 0.984375,-0.257813 2.15625,-0.257813 1.324219,0 2.273438,0.257813 0.949219,0.246094 1.582031,0.761719 0.644531,0.515625 1.007813,1.300781 0.375,0.773437 0.550781,1.816406 l -2.742188,0.457031 q -0.210937,-1.066406 -0.867187,-1.605468 -0.644531,-0.539063 -1.851563,-0.539063 -0.75,0 -1.253906,0.164063 -0.492187,0.152343 -0.785156,0.421875 -0.292969,0.269531 -0.421875,0.632812 -0.117188,0.351563 -0.117188,0.75 0,0.609375 0.234375,1.007813 0.246094,0.386718 0.679688,0.65625 0.433594,0.257812 1.03125,0.445312 0.597656,0.175781 1.324219,0.363281 0.632812,0.164063 1.253906,0.351563 0.621094,0.175781 1.183594,0.421875 0.574218,0.246094 1.066406,0.597656 0.492187,0.351563 0.84375,0.867188 0.363281,0.503906 0.5625,1.207031 0.210937,0.703125 0.210937,1.664062 z"/>
        <path id="path27" style="" d="M 76.449219,58 V 50.921875 H 70.554687 V 58 H 67.71875 V 41.488281 h 2.835937 V 48.0625 h 5.894532 v -6.574219 h 2.835937 V 58 Z"/>
    </g>
</svg>
