<?xml version="1.0" encoding="utf-8"?>
<svg id="Layer_1" data-name="Layer 1" xmlns="http://www.w3.org/2000/svg" width="100" height="100" viewBox="0 0 100 100">
    <defs>
        <style>
            .cls-1 {
                fill: #12200b;
                stroke: #e5ffd9;
                stroke-width: 2px;
            }
            .cls-1, .cls-2 {
                stroke-miterlimit: 10;
            }
            .cls-2, .cls-3 {
                fill: #fff;
            }
            .cls-2 {
                stroke: #12200b;
                stroke-width: 0.5px;
            }
        </style>
    </defs>
    <title>item</title>
    <polygon class="cls-1" points="68.3 31.7 50 2.56 31.7 31.7 2.56 50 31.7 68.3 50 97.44 68.3 68.3 97.44 50 68.3 31.7" />
    <circle class="cls-2" cx="45.45" cy="49.28" r="4.55" />
    <circle class="cls-2" cx="54.55" cy="49.28" r="4.55" />
    <circle class="cls-2" cx="50" cy="57.16" r="4.55" />
    <circle class="cls-2" cx="40.9" cy="57.16" r="4.55" />
    <circle class="cls-2" cx="59.1" cy="57.16" r="4.55" />
    <circle class="cls-2" cx="45.45" cy="65.05" r="4.55" />
    <circle class="cls-2" cx="50" cy="72.93" r="4.55" />
    <circle class="cls-2" cx="54.55" cy="65.05" r="4.55" />
    <path class="cls-3" d="M42.2,44.08c-3-4.89-6.2-6.67-6.2-6.67a26.2,26.2,0,0,1,4.15,8.76A6.12,6.12,0,0,1,42.2,44.08Z" />
    <path class="cls-3" d="M43.14,43.5A6.05,6.05,0,0,1,50,45.06a6.08,6.08,0,0,1,9.22.18l.08-.13.17-.11A23.56,23.56,0,0,1,64,39.66a17.26,17.26,0,0,0-5.61,3.41c.68-12.77-2.1-16.29-2.1-16.29a77.49,77.49,0,0,1-.54,14.79A45.59,45.59,0,0,0,53.9,32s-.39,4.38-1.15,9.42a140.89,140.89,0,0,1,.52-20.16s-1.54,5.1-3,12.54c-.82-3.07-1.88-6.5-3.27-10.3,0,0,.33,6.68.2,14-1.67-4.41-3.28-6-3.28-6a46.86,46.86,0,0,1,1.27,7.28,19.55,19.55,0,0,0-3.7-5.64A78.19,78.19,0,0,1,43.14,43.5Z"
    />
</svg>
