<?xml version="1.0" encoding="utf-8"?>
<svg id="Layer_1" data-name="Layer 1" xmlns="http://www.w3.org/2000/svg" width="100" height="100" viewBox="0 0 100 100">
    <defs>
        <style>
            .cls-1 {
                fill: #2b1509;
                stroke: #ddcfc7;
                stroke-miterlimit: 10;
                stroke-width: 2px;
            }
            .cls-2 {
                fill: #fff;
            }
        </style>
    </defs>
    <title>trash</title>
    <polygon class="cls-1" points="68.3 31.7 50 2.56 31.7 31.7 2.56 50 31.7 68.3 50 97.44 68.3 68.3 97.44 50 68.3 31.7" />
    <polygon class="cls-2" points="38.66 49.17 38.66 52.29 42.73 75 57.27 75 61.34 52.29 61.34 49.17 38.66 49.17" />
    <path class="cls-2" d="M60.19,37.13l2.08-2.08V33.64L57,28.34H55.55l-2.07,2.07c-2.95-2.55-5.29-4-5.79-3.54l-1.24,1.24,16,16,1.24-1.23C64.23,42.42,62.75,40.08,60.19,37.13Zm-3.93-6.67,3.89,3.89-1.29,1.29c-.6-.65-1.24-1.31-1.91-2s-1.34-1.31-2-1.91Z" />
    <path class="cls-2" d="M48.78,40.32h0a7.6,7.6,0,0,0-8.19-4.5A11,11,0,0,0,31.52,45l3,.5A8.07,8.07,0,0,1,41,38.8a4.6,4.6,0,0,1,5.07,2.8h0l-4,1.9L50,46.35l2.85-7.94Z" />
</svg>
