<?xml version="1.0" encoding="utf-8"?>
<svg id="Layer_1" data-name="Layer 1" xmlns="http://www.w3.org/2000/svg" width="500" height="150" viewBox="0 0 500 150">
    <defs>
        <style>
            .cls-1 {
                fill: #009b74;
            }
            .cls-2 {
                fill: #333;
            }
        </style>
    </defs>
    <title>logo</title>
    <path class="cls-1" d="M126.34,150l12-18.18a133.48,133.48,0,0,1,26.71-29.66s-14.51,4-33.08,19C136,50.19,119.6,30.6,119.6,30.6a408.5,408.5,0,0,1-3.15,82.16c-1.73-17.28-5-35.77-10.9-53.12,0,0-2.3,24.33-6.81,52.32C97.33,80,97.36,40.46,101.81,0c0,0-9.09,28.33-17.87,69.67-4.82-17.05-11.11-36.1-19.3-57.18,0,0,2,37.06,1.23,77.88C56,65.91,46.53,57.14,46.53,57.14,50.05,69.28,52.42,83.32,54,97.53,48.46,86,41.34,75.1,32.17,66.2c0,0,9.22,35.26,10.92,71.18C23.51,102,0,89.63,0,89.63,13,105.85,23.06,133.51,27.67,150Z"
    />
    <path class="cls-2" d="M76.16,70.05h30v6H83.35V94.6h21.07v6H83.35v25.2H76.16Z" />
    <path class="cls-2" d="M114,98.23c0-4.71-.08-8.76-.33-12.48H120l.24,7.86h.34c1.81-5.38,6.19-8.76,11.07-8.76a8,8,0,0,1,2.06.24V92a11.12,11.12,0,0,0-2.47-.25c-5.13,0-8.76,3.89-9.76,9.34a21.06,21.06,0,0,0-.33,3.39v21.32H114Z" />
    <path class="cls-2" d="M144.25,107.07C144.42,116.91,150.7,121,158,121A26.25,26.25,0,0,0,169,118.89l1.24,5.21a32.49,32.49,0,0,1-13.3,2.48c-12.32,0-19.67-8.1-19.67-20.17s7.11-21.56,18.76-21.56c13.05,0,16.52,11.48,16.52,18.84a28.21,28.21,0,0,1-.24,3.38Zm21.32-5.2c.08-4.63-1.9-11.82-10.08-11.82-7.36,0-10.58,6.78-11.16,11.82Z"
    />
    <path class="cls-2" d="M185.65,107.07c.17,9.84,6.45,13.89,13.72,13.89a26.25,26.25,0,0,0,11.07-2.07l1.24,5.21a32.49,32.49,0,0,1-13.3,2.48c-12.32,0-19.67-8.1-19.67-20.17s7.11-21.56,18.76-21.56c13.05,0,16.53,11.48,16.53,18.84a27.78,27.78,0,0,1-.25,3.38Zm21.32-5.2c.08-4.63-1.9-11.82-10.08-11.82-7.36,0-10.58,6.78-11.16,11.82Z"
    />
    <path class="cls-2" d="M223.25,70.05h30v6H230.44V94.6h21.07v6H230.44v25.2h-7.19Z" />
    <path class="cls-2" d="M269.2,74.52a4.51,4.51,0,0,1-9,0A4.43,4.43,0,0,1,264.74,70,4.32,4.32,0,0,1,269.2,74.52Zm-8.1,51.23v-40h7.27v40Z" />
    <path class="cls-2" d="M284.48,107.07c.17,9.84,6.45,13.89,13.72,13.89a26.27,26.27,0,0,0,11.08-2.07l1.24,5.21a32.58,32.58,0,0,1-13.31,2.48c-12.31,0-19.67-8.1-19.67-20.17s7.11-21.56,18.76-21.56c13.06,0,16.53,11.48,16.53,18.84a27.78,27.78,0,0,1-.25,3.38Zm21.32-5.2c.09-4.63-1.9-11.82-10.08-11.82-7.35,0-10.57,6.78-11.15,11.82Z"
    />
    <path class="cls-2" d="M321.84,67.08h7.27v58.67h-7.27Z" />
    <path class="cls-2" d="M375.88,67.08v48.34c0,3.55.08,7.6.33,10.33h-6.53l-.33-6.94h-.16c-2.23,4.46-7.11,7.85-13.64,7.85-9.67,0-17.1-8.18-17.1-20.33-.09-13.3,8.18-21.48,17.93-21.48,6.11,0,10.24,2.89,12.06,6.11h.17V67.08Zm-7.27,35a12.72,12.72,0,0,0-.33-3,10.7,10.7,0,0,0-10.5-8.43c-7.52,0-12,6.61-12,15.45,0,8.1,4,14.79,11.82,14.79a10.93,10.93,0,0,0,10.66-8.67,12.61,12.61,0,0,0,.33-3.14Z"
    />
    <path class="cls-2" d="M405.13,113.44a29.79,29.79,0,0,0,12.48,3.3c6.53,0,9.84-3.14,9.84-7.19,0-5.28-5.29-7.68-10.83-7.68H411.5v-9h4.87c4.22-.08,9.59-1.65,9.59-6.2C426,83.44,423.31,81,418,81a24.54,24.54,0,0,0-11.24,3.23l-2.57-9.09c3.23-2.07,9.67-4.05,16.61-4.05,11.49,0,17.85,6,17.85,13.39,0,5.7-3.22,10.16-9.83,12.47v.17c6.45,1.16,11.65,6,11.65,13.06,0,9.5-8.34,16.44-22,16.44-6.94,0-12.81-1.82-15.95-3.8Z"
    />
    <path class="cls-2" d="M450.75,70.8a111.59,111.59,0,0,1,17-1.16c10.58,0,17.44,1.9,22.81,6,5.78,4.3,9.42,11.16,9.42,21,0,10.66-3.88,18-9.26,22.56-5.86,4.88-14.79,7.19-25.7,7.19a107.71,107.71,0,0,1-14.29-.83Zm12.64,45.45a23,23,0,0,0,4.38.25c11.41.08,18.84-6.2,18.84-19.51.09-11.57-6.69-17.68-17.52-17.68a26,26,0,0,0-5.7.5Z"
    />
    <path class="cls-2" d="M325.7,53a7.77,7.77,0,0,1-3.09.52c-4.17,0-6.32-2.6-6.32-6,0-4.11,2.94-6.4,6.58-6.4a7.07,7.07,0,0,1,3,.54l-.55,2.16a6,6,0,0,0-2.29-.45,3.63,3.63,0,0,0-3.85,4A3.6,3.6,0,0,0,323,51.26a6.7,6.7,0,0,0,2.27-.39Z" />
    <path class="cls-2" d="M338,47.19c0,4-2.39,6.35-5.92,6.35s-5.67-2.71-5.67-6.14c0-3.61,2.31-6.31,5.87-6.31S338,43.86,338,47.19Zm-8.71.16c0,2.36,1.11,4,2.94,4s2.89-1.75,2.89-4.09c0-2.17-1-4-2.91-4S329.27,45,329.27,47.35Z" />
    <path class="cls-2" d="M350,48.73c0-1.45-.11-3.21-.11-5h-.05c-.38,1.54-.88,3.26-1.34,4.67L347,53.14h-2.13l-1.28-4.67c-.4-1.41-.81-3.12-1.1-4.7h0c-.07,1.63-.13,3.49-.22,5L342,53.34H339.5l.77-12.05h3.63l1.18,4c.37,1.39.75,2.9,1,4.31h0c.34-1.4.75-3,1.14-4.33l1.29-4h3.56l.66,12.05h-2.66Z"
    />
    <path class="cls-2" d="M354.89,41.45a21.54,21.54,0,0,1,3.68-.25,5.84,5.84,0,0,1,3.69,1A3.53,3.53,0,0,1,363.55,45a3.87,3.87,0,0,1-1.11,2.86,5.58,5.58,0,0,1-3.92,1.27,8,8,0,0,1-.93,0v4.31h-2.7Zm2.7,5.47a4.41,4.41,0,0,0,.91.07c1.45,0,2.35-.73,2.35-2s-.77-1.77-2.13-1.77a4.82,4.82,0,0,0-1.13.11Z"
    />
    <path class="cls-2" d="M367,50.25l-.86,3.09h-2.82L367,41.29h3.58l3.74,12.05h-2.94l-.93-3.09Zm3.06-2-.75-2.56c-.22-.72-.43-1.61-.61-2.33h0c-.17.72-.35,1.63-.55,2.33l-.71,2.56Z" />
    <path class="cls-2" d="M376,50.53a6.88,6.88,0,0,0,3,.75c1.25,0,1.92-.52,1.92-1.3s-.58-1.18-2-1.7c-2-.7-3.31-1.81-3.31-3.56,0-2.06,1.71-3.63,4.56-3.63a7.36,7.36,0,0,1,3.07.61l-.6,2.2a5.68,5.68,0,0,0-2.53-.58c-1.18,0-1.75.54-1.75,1.17s.68,1.11,2.24,1.7c2.13.78,3.13,1.89,3.13,3.59,0,2-1.56,3.74-4.87,3.74a7.78,7.78,0,0,1-3.41-.74Z"
    />
    <path class="cls-2" d="M385.67,50.53a6.93,6.93,0,0,0,3,.75c1.25,0,1.91-.52,1.91-1.3s-.57-1.18-2-1.7c-2-.7-3.31-1.81-3.31-3.56,0-2.06,1.72-3.63,4.56-3.63a7.45,7.45,0,0,1,3.08.61l-.61,2.2a5.59,5.59,0,0,0-2.52-.58c-1.18,0-1.76.54-1.76,1.17s.68,1.11,2.24,1.7c2.13.78,3.13,1.89,3.13,3.59,0,2-1.56,3.74-4.86,3.74a7.83,7.83,0,0,1-3.42-.74Z"
    />
    <path class="cls-2" d="M398.94,50.53a6.88,6.88,0,0,0,3,.75c1.25,0,1.91-.52,1.91-1.3s-.57-1.18-2-1.7c-2-.7-3.31-1.81-3.31-3.56,0-2.06,1.72-3.63,4.57-3.63a7.39,7.39,0,0,1,3.07.61l-.61,2.2a5.59,5.59,0,0,0-2.52-.58c-1.18,0-1.75.54-1.75,1.17s.68,1.11,2.24,1.7c2.12.78,3.12,1.89,3.12,3.59,0,2-1.55,3.74-4.86,3.74a7.83,7.83,0,0,1-3.42-.74Z"
    />
    <path class="cls-2" d="M410.83,43.57h-3.24V41.29h9.26v2.28h-3.29v9.77h-2.73Z" />
    <path class="cls-2" d="M421.21,53.34V48.4l-3.8-7.11h3.11l1.23,2.89c.38.88.63,1.52.93,2.31h0c.26-.75.55-1.45.91-2.31l1.21-2.89h3.06l-4,7v5Z" />
    <path class="cls-2" d="M428.88,41.29h2.74v9.76h4.79v2.29h-7.53Z" />
    <path class="cls-2" d="M445.19,48.24h-4.44V51.1h5v2.24H438V41.29h7.44v2.23h-4.71V46h4.44Z" />
    <path class="cls-2" d="M453.91,41.29V53.34h-2.73V41.29Z" />
    <path class="cls-2" d="M465.12,53a7.73,7.73,0,0,1-3.09.52c-4.17,0-6.31-2.6-6.31-6,0-4.11,2.93-6.4,6.58-6.4a7.14,7.14,0,0,1,3,.54l-.56,2.16a5.9,5.9,0,0,0-2.29-.45,3.63,3.63,0,0,0-3.84,4,3.6,3.6,0,0,0,3.86,3.93,6.66,6.66,0,0,0,2.27-.39Z" />
    <path class="cls-2" d="M477.41,47.19c0,4-2.4,6.35-5.92,6.35s-5.67-2.71-5.67-6.14c0-3.61,2.3-6.31,5.86-6.31S477.41,43.86,477.41,47.19Zm-8.71.16c0,2.36,1.11,4,2.93,4s2.9-1.75,2.9-4.09c0-2.17-1-4-2.92-4S468.7,45,468.7,47.35Z" />
    <path class="cls-2" d="M479.19,53.34V41.29h3.18l2.51,4.41a34.66,34.66,0,0,1,2,4.13h.06a44.43,44.43,0,0,1-.23-5V41.29h2.5V53.34h-2.86l-2.58-4.65a45.51,45.51,0,0,1-2.09-4.26l-.05,0c.07,1.59.1,3.29.1,5.26v3.63Z" />
    <path class="cls-2" d="M491.61,50.53a6.93,6.93,0,0,0,3,.75c1.25,0,1.91-.52,1.91-1.3s-.57-1.18-2-1.7c-2-.7-3.31-1.81-3.31-3.56,0-2.06,1.72-3.63,4.56-3.63a7.45,7.45,0,0,1,3.08.61l-.61,2.2a5.59,5.59,0,0,0-2.52-.58c-1.18,0-1.76.54-1.76,1.17s.68,1.11,2.24,1.7c2.13.78,3.13,1.89,3.13,3.59,0,2-1.56,3.74-4.86,3.74a7.83,7.83,0,0,1-3.42-.74Z"
    />
    <polygon class="cls-2" points="299.69 42.17 295.19 35 290.69 42.17 283.52 46.67 290.69 51.17 295.19 58.33 299.69 51.17 306.85 46.67 299.69 42.17" />
</svg>
