<?xml version="1.0" encoding="UTF-8" standalone="no"?>
<svg xmlns:dc="http://purl.org/dc/elements/1.1/" xmlns:cc="http://creativecommons.org/ns#" xmlns:rdf="http://www.w3.org/1999/02/22-rdf-syntax-ns#" xmlns:svg="http://www.w3.org/2000/svg" xmlns="http://www.w3.org/2000/svg" version="1.1" viewBox="0 0 100 100" height="100" width="100" data-name="Layer 1" id="Layer_1">
    <metadata id="metadata15">
        <rdf:RDF>
            <cc:Work rdf:about="">
                <dc:format>image/svg+xml</dc:format>
                <dc:type rdf:resource="http://purl.org/dc/dcmitype/StillImage"/>
                <dc:title>211</dc:title>
            </cc:Work>
        </rdf:RDF>
    </metadata>
    <defs id="defs4">
        <style id="style2">
            .compass {
                stroke-miterlimit: 10;
                stroke-width: 2px;
                fill: #99bbbb;
                stroke: #262e2e;
            }
            .grass {
                fill: #5b7070;
            }
        </style>
    </defs>
    <title id="title6">211</title>
    <polygon id="polygon8" points="68.3 31.7 50 2.56 31.7 31.7 2.56 50 31.7 68.3 50 97.44 68.3 68.3 97.44 50 68.3 31.7" class="compass"/>
    <path id="path10" d="M66,64.21c1.2-21.07-3.68-26.9-3.68-26.9a121.93,121.93,0,0,1-.93,24.42,72.93,72.93,0,0,0-3.24-15.79s-.69,7.23-2,15.55A220.68,220.68,0,0,1,57,28.22s-2.7,8.42-5.31,20.7c-1.43-5.06-3.3-10.72-5.73-17,0,0,.58,11,.36,23.14-2.93-7.26-5.74-9.87-5.74-9.87a73,73,0,0,1,2.21,12,32.39,32.39,0,0,0-6.48-9.31,118,118,0,0,1,3.25,21.16c-5.83-10.51-12.81-14.2-12.81-14.2a43.29,43.29,0,0,1,7.73,16L50,95.56,65.28,71.22l2.29-3.65.29-.18a39.63,39.63,0,0,1,7.94-8.81A30.74,30.74,0,0,0,66,64.21Z" class="grass"/>
    <g id="text19" style="font-style:normal;font-variant:normal;font-weight:bold;font-stretch:condensed;font-size:16px;line-height:1.25;font-family:'Liberation Sans Narrow';-inkscape-font-specification:'Liberation Sans Narrow, Bold Condensed';font-variant-ligatures:normal;font-variant-caps:normal;font-variant-numeric:normal;font-feature-settings:normal;text-align:center;letter-spacing:0px;word-spacing:0px;writing-mode:lr-tb;text-anchor:middle;fill:#262e2e;fill-opacity:1;stroke:none" aria-label="211">
        <path id="path14" style="" d="m 39.988281,73.22377 v -1.523437 q 0.304688,-0.820313 0.75,-1.476563 0.445313,-0.664062 0.929688,-1.210937 0.484375,-0.554688 0.960937,-1.023438 0.476563,-0.476562 0.851563,-0.914062 0.382812,-0.445313 0.617187,-0.890625 0.242188,-0.445313 0.242188,-0.945313 0,-0.734375 -0.304688,-1.085937 -0.296875,-0.351563 -0.882812,-0.351563 -0.578125,0 -0.882813,0.382813 -0.296875,0.375 -0.390625,1.132812 l -1.8125,-0.125 q 0.0625,-0.648437 0.257813,-1.21875 0.203125,-0.570312 0.570312,-1 0.367188,-0.429687 0.921875,-0.671875 0.554688,-0.25 1.328125,-0.25 0.726563,0 1.289063,0.210938 0.5625,0.203125 0.945312,0.601562 0.390625,0.398438 0.585938,0.976563 0.203125,0.570312 0.203125,1.304687 0,0.773438 -0.25,1.398438 -0.25,0.625 -0.640625,1.15625 -0.390625,0.523437 -0.867188,0.984375 l -0.921875,0.898437 q -0.453125,0.4375 -0.828125,0.882813 -0.367187,0.445312 -0.546875,0.953125 h 4.195313 v 1.804687 z"/>
        <path id="path16" style="" d="m 47.675781,73.22377 v -1.632812 h 2.234375 v -7.507813 l -2.164062,1.648438 V 64.00502 l 2.257812,-1.789062 h 1.703125 v 9.375 h 2.070313 v 1.632812 z"/>
        <path id="path18" style="" d="m 54.269531,73.22377 v -1.632812 h 2.234375 v -7.507813 l -2.164062,1.648438 V 64.00502 l 2.257812,-1.789062 h 1.703125 v 9.375 h 2.070313 v 1.632812 z"/>
    </g>
    <g id="text23" style="font-style:normal;font-variant:normal;font-weight:bold;font-stretch:condensed;font-size:24px;line-height:1.25;font-family:'Liberation Sans Narrow';-inkscape-font-specification:'Liberation Sans Narrow, Bold Condensed';font-variant-ligatures:normal;font-variant-caps:normal;font-variant-numeric:normal;font-feature-settings:normal;text-align:center;letter-spacing:0px;word-spacing:0px;writing-mode:lr-tb;text-anchor:middle;fill:#000000;fill-opacity:1;stroke:#ffffff;stroke-width:0px" aria-label="QW.FISH">
        <path id="path21" style="" d="m 22.90625,49.667969 q 0,1.652343 -0.339844,3.046875 -0.339844,1.382812 -0.996094,2.460937 -0.644531,1.066406 -1.582031,1.78125 -0.925781,0.703125 -2.109375,0.996094 0.1875,0.679687 0.445313,1.101562 0.257812,0.433594 0.585937,0.667969 0.328125,0.246094 0.714844,0.328125 0.386719,0.09375 0.820312,0.09375 0.28125,0 0.5625,-0.03516 0.292969,-0.02344 0.585938,-0.08203 l -0.02344,2.367187 q -0.515625,0.140625 -1.089843,0.234375 -0.5625,0.09375 -1.230469,0.09375 -0.914063,0 -1.605469,-0.339844 -0.679687,-0.328125 -1.183594,-0.9375 -0.503906,-0.597656 -0.855468,-1.453125 -0.351563,-0.84375 -0.609375,-1.875 Q 13.554688,57.953125 12.476563,57.261719 11.398438,56.570312 10.671875,55.457031 9.9453125,54.34375 9.5820313,52.867187 9.2304688,51.390625 9.2304688,49.667969 q 0,-1.933594 0.4453125,-3.492188 0.4453127,-1.558594 1.3124997,-2.648437 0.878907,-1.101563 2.144532,-1.6875 1.277343,-0.597657 2.929687,-0.597657 1.652344,0 2.929687,0.597657 1.277344,0.597656 2.144532,1.699218 0.867187,1.101563 1.3125,2.660157 0.457031,1.546875 0.457031,3.46875 z m -2.894531,0 q 0,-1.300782 -0.257813,-2.34375 -0.246094,-1.054688 -0.75,-1.804688 -0.492187,-0.75 -1.230469,-1.148437 -0.738281,-0.410157 -1.710937,-0.410157 -0.996094,0 -1.734375,0.410157 -0.738281,0.398437 -1.242187,1.148437 -0.503907,0.75 -0.75,1.804688 -0.246094,1.042968 -0.246094,2.34375 0,1.289062 0.246094,2.367187 0.257812,1.078125 0.75,1.851563 0.503906,0.773437 1.242187,1.207031 0.75,0.433594 1.722656,0.433594 1.042969,0 1.78125,-0.433594 0.75,-0.445313 1.230469,-1.21875 0.492187,-0.785156 0.714844,-1.863281 0.234375,-1.078125 0.234375,-2.34375 z"/>
        <path id="path23" style="" d="m 38.808594,58 h -3.363282 l -1.839843,-9.550781 q -0.08203,-0.433594 -0.175782,-1.03125 l -0.199218,-1.160157 q -0.105469,-0.644531 -0.1875,-1.335937 0,0 -0.210938,1.347656 0,0 -0.09375,0.574219 -0.04687,0.304687 -0.105469,0.585937 l -0.09375,0.550782 q -0.04687,0.257812 -0.09375,0.46875 L 30.617187,58 H 27.253906 L 23.773437,41.488281 h 2.871094 l 1.6875,9.1875 0.269531,1.476563 0.234375,1.300781 q 0.117188,0.667969 0.210938,1.277344 l 0.28125,-1.6875 q 0,0 0.117187,-0.726563 l 0.140625,-0.738281 0.117188,-0.703125 0.105469,-0.597656 1.675781,-8.789063 h 3.175781 l 1.710938,8.789063 q 0.05859,0.28125 0.105468,0.621093 L 36.59375,51.625 q 0.05859,0.363281 0.117187,0.738281 0.05859,0.363281 0.105469,0.714844 l 0.234375,1.652344 q 0,0 0.234375,-1.359375 0,0 0.246094,-1.3125 0.128906,-0.714844 0.269531,-1.382813 l 1.628906,-9.1875 h 2.871094 z"/>
        <path id="path25" style="" d="m 42.570312,58 v -3.574219 h 2.777344 V 58 Z"/>
        <path id="path27" style="" d="m 50.867187,44.160156 v 5.109375 h 6.9375 v 2.671875 h -6.9375 V 58 H 48.03125 V 41.488281 h 9.984375 v 2.671875 z"/>
        <path id="path29" style="" d="M 60.078125,58 V 41.488281 h 2.847656 V 58 Z"/>
        <path id="path31" style="" d="m 76.601562,53.242187 q 0,1.125 -0.339843,2.050782 -0.328125,0.914062 -1.042969,1.570312 -0.703125,0.65625 -1.804688,1.019531 -1.089843,0.351563 -2.613281,0.351563 -1.347656,0 -2.378906,-0.292969 Q 67.402344,57.648437 66.664062,57.074219 65.925781,56.5 65.46875,55.65625 65.023437,54.800781 64.8125,53.699219 l 2.742187,-0.550782 q 0.117188,0.550782 0.339844,1.007813 0.222656,0.457031 0.609375,0.796875 0.386719,0.328125 0.960938,0.515625 0.585937,0.175781 1.417968,0.175781 1.441407,0 2.203125,-0.527344 0.761719,-0.539062 0.761719,-1.675781 0,-0.679687 -0.304687,-1.113281 -0.304688,-0.433594 -0.820313,-0.714844 -0.503906,-0.28125 -1.171875,-0.46875 -0.65625,-0.1875 -1.382812,-0.363281 0,0 -1.160157,-0.339844 -0.574218,-0.175781 -1.101562,-0.421875 -0.515625,-0.246094 -0.972656,-0.585937 -0.445313,-0.339844 -0.785157,-0.832032 -0.328125,-0.503906 -0.515625,-1.171875 -0.1875,-0.667968 -0.1875,-1.570312 0,-1.230469 0.398438,-2.109375 0.410156,-0.878906 1.125,-1.429688 0.726562,-0.5625 1.710937,-0.820312 0.984375,-0.257813 2.15625,-0.257813 1.324219,0 2.273438,0.257813 0.949219,0.246094 1.582031,0.761719 0.644531,0.515625 1.007813,1.300781 0.375,0.773437 0.550781,1.816406 l -2.742188,0.457031 q -0.210937,-1.066406 -0.867187,-1.605468 -0.644531,-0.539063 -1.851563,-0.539063 -0.75,0 -1.253906,0.164063 -0.492187,0.152343 -0.785156,0.421875 -0.292969,0.269531 -0.421875,0.632812 -0.117188,0.351563 -0.117188,0.75 0,0.609375 0.234375,1.007813 0.246094,0.386718 0.679688,0.65625 0.433594,0.257812 1.03125,0.445312 0.597656,0.175781 1.324219,0.363281 0.632812,0.164063 1.253906,0.351563 0.621094,0.175781 1.183594,0.421875 0.574218,0.246094 1.066406,0.597656 0.492187,0.351563 0.84375,0.867188 0.363281,0.503906 0.5625,1.207031 0.210937,0.703125 0.210937,1.664062 z"/>
        <path id="path33" style="" d="M 87.417969,58 V 50.921875 H 81.523437 V 58 H 78.6875 V 41.488281 h 2.835937 V 48.0625 h 5.894532 v -6.574219 h 2.835937 V 58 Z"/>
    </g>
</svg>
